<?xml version="1.0" encoding="utf-8" standalone="no"?>
<!DOCTYPE svg PUBLIC "-//W3C//DTD SVG 1.1//EN"
  "http://www.w3.org/Graphics/SVG/1.1/DTD/svg11.dtd">
<svg xmlns:xlink="http://www.w3.org/1999/xlink" width="108pt" height="72pt" viewBox="0 0 108 72" xmlns="http://www.w3.org/2000/svg" version="1.1">
 <metadata>
  <rdf:RDF xmlns:dc="http://purl.org/dc/elements/1.1/" xmlns:cc="http://creativecommons.org/ns#" xmlns:rdf="http://www.w3.org/1999/02/22-rdf-syntax-ns#">
   <cc:Work>
    <dc:type rdf:resource="http://purl.org/dc/dcmitype/StillImage"/>
    <dc:date>2022-12-20T19:31:19.289785</dc:date>
    <dc:format>image/svg+xml</dc:format>
    <dc:creator>
     <cc:Agent>
      <dc:title>Matplotlib v3.5.3, https://matplotlib.org/</dc:title>
     </cc:Agent>
    </dc:creator>
   </cc:Work>
  </rdf:RDF>
 </metadata>
 <defs>
  <style type="text/css">*{stroke-linejoin: round; stroke-linecap: butt}</style>
 </defs>
 <g id="figure_1">
  <g id="patch_1">
   <path d="M 0 72 
L 108 72 
L 108 0 
L 0 0 
z
" style="fill: #ffffff"/>
  </g>
  <g id="axes_1">
   <g id="patch_2">
    <path d="M 24.18024 21.692885 
L 104.99976 21.692885 
L 104.99976 3.00024 
L 24.18024 3.00024 
z
" style="fill: #ffffff"/>
   </g>
   <g id="QuadMesh_1">
    <path d="M 24.18024 21.692885 
L 24.84817 21.692885 
L 24.84817 3.00024 
L 24.18024 3.00024 
L 24.18024 21.692885 
" clip-path="url(#p9d66aa25fe)" style="fill: #74b3d8"/>
    <path d="M 24.84817 21.692885 
L 25.5161 21.692885 
L 25.5161 3.00024 
L 24.84817 3.00024 
L 24.84817 21.692885 
" clip-path="url(#p9d66aa25fe)" style="fill: #74b3d8"/>
    <path d="M 25.5161 21.692885 
L 26.18403 21.692885 
L 26.18403 3.00024 
L 25.5161 3.00024 
L 25.5161 21.692885 
" clip-path="url(#p9d66aa25fe)" style="fill: #74b3d8"/>
    <path d="M 26.18403 21.692885 
L 26.85196 21.692885 
L 26.85196 3.00024 
L 26.18403 3.00024 
L 26.18403 21.692885 
" clip-path="url(#p9d66aa25fe)" style="fill: #74b3d8"/>
    <path d="M 26.85196 21.692885 
L 27.51989 21.692885 
L 27.51989 3.00024 
L 26.85196 3.00024 
L 26.85196 21.692885 
" clip-path="url(#p9d66aa25fe)" style="fill: #74b3d8"/>
    <path d="M 27.51989 21.692885 
L 28.18782 21.692885 
L 28.18782 3.00024 
L 27.51989 3.00024 
L 27.51989 21.692885 
" clip-path="url(#p9d66aa25fe)" style="fill: #74b3d8"/>
    <path d="M 28.18782 21.692885 
L 28.855749 21.692885 
L 28.855749 3.00024 
L 28.18782 3.00024 
L 28.18782 21.692885 
" clip-path="url(#p9d66aa25fe)" style="fill: #74b3d8"/>
    <path d="M 28.855749 21.692885 
L 29.523679 21.692885 
L 29.523679 3.00024 
L 28.855749 3.00024 
L 28.855749 21.692885 
" clip-path="url(#p9d66aa25fe)" style="fill: #74b3d8"/>
    <path d="M 29.523679 21.692885 
L 30.191609 21.692885 
L 30.191609 3.00024 
L 29.523679 3.00024 
L 29.523679 21.692885 
" clip-path="url(#p9d66aa25fe)" style="fill: #74b3d8"/>
    <path d="M 30.191609 21.692885 
L 30.859539 21.692885 
L 30.859539 3.00024 
L 30.191609 3.00024 
L 30.191609 21.692885 
" clip-path="url(#p9d66aa25fe)" style="fill: #74b3d8"/>
    <path d="M 30.859539 21.692885 
L 31.527469 21.692885 
L 31.527469 3.00024 
L 30.859539 3.00024 
L 30.859539 21.692885 
" clip-path="url(#p9d66aa25fe)" style="fill: #74b3d8"/>
    <path d="M 31.527469 21.692885 
L 32.195399 21.692885 
L 32.195399 3.00024 
L 31.527469 3.00024 
L 31.527469 21.692885 
" clip-path="url(#p9d66aa25fe)" style="fill: #74b3d8"/>
    <path d="M 32.195399 21.692885 
L 32.863329 21.692885 
L 32.863329 3.00024 
L 32.195399 3.00024 
L 32.195399 21.692885 
" clip-path="url(#p9d66aa25fe)" style="fill: #74b3d8"/>
    <path d="M 32.863329 21.692885 
L 33.531259 21.692885 
L 33.531259 3.00024 
L 32.863329 3.00024 
L 32.863329 21.692885 
" clip-path="url(#p9d66aa25fe)" style="fill: #74b3d8"/>
    <path d="M 33.531259 21.692885 
L 34.199189 21.692885 
L 34.199189 3.00024 
L 33.531259 3.00024 
L 33.531259 21.692885 
" clip-path="url(#p9d66aa25fe)" style="fill: #74b3d8"/>
    <path d="M 34.199189 21.692885 
L 34.867119 21.692885 
L 34.867119 3.00024 
L 34.199189 3.00024 
L 34.199189 21.692885 
" clip-path="url(#p9d66aa25fe)" style="fill: #74b3d8"/>
    <path d="M 34.867119 21.692885 
L 35.535049 21.692885 
L 35.535049 3.00024 
L 34.867119 3.00024 
L 34.867119 21.692885 
" clip-path="url(#p9d66aa25fe)" style="fill: #74b3d8"/>
    <path d="M 35.535049 21.692885 
L 36.202979 21.692885 
L 36.202979 3.00024 
L 35.535049 3.00024 
L 35.535049 21.692885 
" clip-path="url(#p9d66aa25fe)" style="fill: #74b3d8"/>
    <path d="M 36.202979 21.692885 
L 36.870908 21.692885 
L 36.870908 3.00024 
L 36.202979 3.00024 
L 36.202979 21.692885 
" clip-path="url(#p9d66aa25fe)" style="fill: #74b3d8"/>
    <path d="M 36.870908 21.692885 
L 37.538838 21.692885 
L 37.538838 3.00024 
L 36.870908 3.00024 
L 36.870908 21.692885 
" clip-path="url(#p9d66aa25fe)" style="fill: #74b3d8"/>
    <path d="M 37.538838 21.692885 
L 38.206768 21.692885 
L 38.206768 3.00024 
L 37.538838 3.00024 
L 37.538838 21.692885 
" clip-path="url(#p9d66aa25fe)" style="fill: #74b3d8"/>
    <path d="M 38.206768 21.692885 
L 38.874698 21.692885 
L 38.874698 3.00024 
L 38.206768 3.00024 
L 38.206768 21.692885 
" clip-path="url(#p9d66aa25fe)" style="fill: #74b3d8"/>
    <path d="M 38.874698 21.692885 
L 39.542628 21.692885 
L 39.542628 3.00024 
L 38.874698 3.00024 
L 38.874698 21.692885 
" clip-path="url(#p9d66aa25fe)" style="fill: #74b3d8"/>
    <path d="M 39.542628 21.692885 
L 40.210558 21.692885 
L 40.210558 3.00024 
L 39.542628 3.00024 
L 39.542628 21.692885 
" clip-path="url(#p9d66aa25fe)" style="fill: #74b3d8"/>
    <path d="M 40.210558 21.692885 
L 40.878488 21.692885 
L 40.878488 3.00024 
L 40.210558 3.00024 
L 40.210558 21.692885 
" clip-path="url(#p9d66aa25fe)" style="fill: #74b3d8"/>
    <path d="M 40.878488 21.692885 
L 41.546418 21.692885 
L 41.546418 3.00024 
L 40.878488 3.00024 
L 40.878488 21.692885 
" clip-path="url(#p9d66aa25fe)" style="fill: #74b3d8"/>
    <path d="M 41.546418 21.692885 
L 42.214348 21.692885 
L 42.214348 3.00024 
L 41.546418 3.00024 
L 41.546418 21.692885 
" clip-path="url(#p9d66aa25fe)" style="fill: #74b3d8"/>
    <path d="M 42.214348 21.692885 
L 42.882278 21.692885 
L 42.882278 3.00024 
L 42.214348 3.00024 
L 42.214348 21.692885 
" clip-path="url(#p9d66aa25fe)" style="fill: #74b3d8"/>
    <path d="M 42.882278 21.692885 
L 43.550208 21.692885 
L 43.550208 3.00024 
L 42.882278 3.00024 
L 42.882278 21.692885 
" clip-path="url(#p9d66aa25fe)" style="fill: #74b3d8"/>
    <path d="M 43.550208 21.692885 
L 44.218138 21.692885 
L 44.218138 3.00024 
L 43.550208 3.00024 
L 43.550208 21.692885 
" clip-path="url(#p9d66aa25fe)" style="fill: #74b3d8"/>
    <path d="M 44.218138 21.692885 
L 44.886067 21.692885 
L 44.886067 3.00024 
L 44.218138 3.00024 
L 44.218138 21.692885 
" clip-path="url(#p9d66aa25fe)" style="fill: #74b3d8"/>
    <path d="M 44.886067 21.692885 
L 45.553997 21.692885 
L 45.553997 3.00024 
L 44.886067 3.00024 
L 44.886067 21.692885 
" clip-path="url(#p9d66aa25fe)" style="fill: #74b3d8"/>
    <path d="M 45.553997 21.692885 
L 46.221927 21.692885 
L 46.221927 3.00024 
L 45.553997 3.00024 
L 45.553997 21.692885 
" clip-path="url(#p9d66aa25fe)" style="fill: #74b3d8"/>
    <path d="M 46.221927 21.692885 
L 46.889857 21.692885 
L 46.889857 3.00024 
L 46.221927 3.00024 
L 46.221927 21.692885 
" clip-path="url(#p9d66aa25fe)" style="fill: #74b3d8"/>
    <path d="M 46.889857 21.692885 
L 47.557787 21.692885 
L 47.557787 3.00024 
L 46.889857 3.00024 
L 46.889857 21.692885 
" clip-path="url(#p9d66aa25fe)" style="fill: #74b3d8"/>
    <path d="M 47.557787 21.692885 
L 48.225717 21.692885 
L 48.225717 3.00024 
L 47.557787 3.00024 
L 47.557787 21.692885 
" clip-path="url(#p9d66aa25fe)" style="fill: #74b3d8"/>
    <path d="M 48.225717 21.692885 
L 48.893647 21.692885 
L 48.893647 3.00024 
L 48.225717 3.00024 
L 48.225717 21.692885 
" clip-path="url(#p9d66aa25fe)" style="fill: #74b3d8"/>
    <path d="M 48.893647 21.692885 
L 49.561577 21.692885 
L 49.561577 3.00024 
L 48.893647 3.00024 
L 48.893647 21.692885 
" clip-path="url(#p9d66aa25fe)" style="fill: #74b3d8"/>
    <path d="M 49.561577 21.692885 
L 50.229507 21.692885 
L 50.229507 3.00024 
L 49.561577 3.00024 
L 49.561577 21.692885 
" clip-path="url(#p9d66aa25fe)" style="fill: #74b3d8"/>
    <path d="M 50.229507 21.692885 
L 50.897437 21.692885 
L 50.897437 3.00024 
L 50.229507 3.00024 
L 50.229507 21.692885 
" clip-path="url(#p9d66aa25fe)" style="fill: #74b3d8"/>
    <path d="M 50.897437 21.692885 
L 51.565367 21.692885 
L 51.565367 3.00024 
L 50.897437 3.00024 
L 50.897437 21.692885 
" clip-path="url(#p9d66aa25fe)" style="fill: #74b3d8"/>
    <path d="M 51.565367 21.692885 
L 52.233297 21.692885 
L 52.233297 3.00024 
L 51.565367 3.00024 
L 51.565367 21.692885 
" clip-path="url(#p9d66aa25fe)" style="fill: #74b3d8"/>
    <path d="M 52.233297 21.692885 
L 52.901226 21.692885 
L 52.901226 3.00024 
L 52.233297 3.00024 
L 52.233297 21.692885 
" clip-path="url(#p9d66aa25fe)" style="fill: #74b3d8"/>
    <path d="M 52.901226 21.692885 
L 53.569156 21.692885 
L 53.569156 3.00024 
L 52.901226 3.00024 
L 52.901226 21.692885 
" clip-path="url(#p9d66aa25fe)" style="fill: #74b3d8"/>
    <path d="M 53.569156 21.692885 
L 54.237086 21.692885 
L 54.237086 3.00024 
L 53.569156 3.00024 
L 53.569156 21.692885 
" clip-path="url(#p9d66aa25fe)" style="fill: #74b3d8"/>
    <path d="M 54.237086 21.692885 
L 54.905016 21.692885 
L 54.905016 3.00024 
L 54.237086 3.00024 
L 54.237086 21.692885 
" clip-path="url(#p9d66aa25fe)" style="fill: #74b3d8"/>
    <path d="M 54.905016 21.692885 
L 55.572946 21.692885 
L 55.572946 3.00024 
L 54.905016 3.00024 
L 54.905016 21.692885 
" clip-path="url(#p9d66aa25fe)" style="fill: #74b3d8"/>
    <path d="M 55.572946 21.692885 
L 56.240876 21.692885 
L 56.240876 3.00024 
L 55.572946 3.00024 
L 55.572946 21.692885 
" clip-path="url(#p9d66aa25fe)" style="fill: #74b3d8"/>
    <path d="M 56.240876 21.692885 
L 56.908806 21.692885 
L 56.908806 3.00024 
L 56.240876 3.00024 
L 56.240876 21.692885 
" clip-path="url(#p9d66aa25fe)" style="fill: #74b3d8"/>
    <path d="M 56.908806 21.692885 
L 57.576736 21.692885 
L 57.576736 3.00024 
L 56.908806 3.00024 
L 56.908806 21.692885 
" clip-path="url(#p9d66aa25fe)" style="fill: #74b3d8"/>
    <path d="M 57.576736 21.692885 
L 58.244666 21.692885 
L 58.244666 3.00024 
L 57.576736 3.00024 
L 57.576736 21.692885 
" clip-path="url(#p9d66aa25fe)" style="fill: #74b3d8"/>
    <path d="M 58.244666 21.692885 
L 58.912596 21.692885 
L 58.912596 3.00024 
L 58.244666 3.00024 
L 58.244666 21.692885 
" clip-path="url(#p9d66aa25fe)" style="fill: #74b3d8"/>
    <path d="M 58.912596 21.692885 
L 59.580526 21.692885 
L 59.580526 3.00024 
L 58.912596 3.00024 
L 58.912596 21.692885 
" clip-path="url(#p9d66aa25fe)" style="fill: #74b3d8"/>
    <path d="M 59.580526 21.692885 
L 60.248456 21.692885 
L 60.248456 3.00024 
L 59.580526 3.00024 
L 59.580526 21.692885 
" clip-path="url(#p9d66aa25fe)" style="fill: #74b3d8"/>
    <path d="M 60.248456 21.692885 
L 60.916385 21.692885 
L 60.916385 3.00024 
L 60.248456 3.00024 
L 60.248456 21.692885 
" clip-path="url(#p9d66aa25fe)" style="fill: #74b3d8"/>
    <path d="M 60.916385 21.692885 
L 61.584315 21.692885 
L 61.584315 3.00024 
L 60.916385 3.00024 
L 60.916385 21.692885 
" clip-path="url(#p9d66aa25fe)" style="fill: #74b3d8"/>
    <path d="M 61.584315 21.692885 
L 62.252245 21.692885 
L 62.252245 3.00024 
L 61.584315 3.00024 
L 61.584315 21.692885 
" clip-path="url(#p9d66aa25fe)" style="fill: #74b3d8"/>
    <path d="M 62.252245 21.692885 
L 62.920175 21.692885 
L 62.920175 3.00024 
L 62.252245 3.00024 
L 62.252245 21.692885 
" clip-path="url(#p9d66aa25fe)" style="fill: #74b3d8"/>
    <path d="M 62.920175 21.692885 
L 63.588105 21.692885 
L 63.588105 3.00024 
L 62.920175 3.00024 
L 62.920175 21.692885 
" clip-path="url(#p9d66aa25fe)" style="fill: #74b3d8"/>
    <path d="M 63.588105 21.692885 
L 64.256035 21.692885 
L 64.256035 3.00024 
L 63.588105 3.00024 
L 63.588105 21.692885 
" clip-path="url(#p9d66aa25fe)" style="fill: #74b3d8"/>
    <path d="M 64.256035 21.692885 
L 64.923965 21.692885 
L 64.923965 3.00024 
L 64.256035 3.00024 
L 64.256035 21.692885 
" clip-path="url(#p9d66aa25fe)" style="fill: #74b3d8"/>
    <path d="M 64.923965 21.692885 
L 65.591895 21.692885 
L 65.591895 3.00024 
L 64.923965 3.00024 
L 64.923965 21.692885 
" clip-path="url(#p9d66aa25fe)" style="fill: #74b3d8"/>
    <path d="M 65.591895 21.692885 
L 66.259825 21.692885 
L 66.259825 3.00024 
L 65.591895 3.00024 
L 65.591895 21.692885 
" clip-path="url(#p9d66aa25fe)" style="fill: #74b3d8"/>
    <path d="M 66.259825 21.692885 
L 66.927755 21.692885 
L 66.927755 3.00024 
L 66.259825 3.00024 
L 66.259825 21.692885 
" clip-path="url(#p9d66aa25fe)" style="fill: #74b3d8"/>
    <path d="M 66.927755 21.692885 
L 67.595685 21.692885 
L 67.595685 3.00024 
L 66.927755 3.00024 
L 66.927755 21.692885 
" clip-path="url(#p9d66aa25fe)" style="fill: #74b3d8"/>
    <path d="M 67.595685 21.692885 
L 68.263615 21.692885 
L 68.263615 3.00024 
L 67.595685 3.00024 
L 67.595685 21.692885 
" clip-path="url(#p9d66aa25fe)" style="fill: #74b3d8"/>
    <path d="M 68.263615 21.692885 
L 68.931544 21.692885 
L 68.931544 3.00024 
L 68.263615 3.00024 
L 68.263615 21.692885 
" clip-path="url(#p9d66aa25fe)" style="fill: #74b3d8"/>
    <path d="M 68.931544 21.692885 
L 69.599474 21.692885 
L 69.599474 3.00024 
L 68.931544 3.00024 
L 68.931544 21.692885 
" clip-path="url(#p9d66aa25fe)" style="fill: #74b3d8"/>
    <path d="M 69.599474 21.692885 
L 70.267404 21.692885 
L 70.267404 3.00024 
L 69.599474 3.00024 
L 69.599474 21.692885 
" clip-path="url(#p9d66aa25fe)" style="fill: #74b3d8"/>
    <path d="M 70.267404 21.692885 
L 70.935334 21.692885 
L 70.935334 3.00024 
L 70.267404 3.00024 
L 70.267404 21.692885 
" clip-path="url(#p9d66aa25fe)" style="fill: #74b3d8"/>
    <path d="M 70.935334 21.692885 
L 71.603264 21.692885 
L 71.603264 3.00024 
L 70.935334 3.00024 
L 70.935334 21.692885 
" clip-path="url(#p9d66aa25fe)" style="fill: #74b3d8"/>
    <path d="M 71.603264 21.692885 
L 72.271194 21.692885 
L 72.271194 3.00024 
L 71.603264 3.00024 
L 71.603264 21.692885 
" clip-path="url(#p9d66aa25fe)" style="fill: #74b3d8"/>
    <path d="M 72.271194 21.692885 
L 72.939124 21.692885 
L 72.939124 3.00024 
L 72.271194 3.00024 
L 72.271194 21.692885 
" clip-path="url(#p9d66aa25fe)" style="fill: #74b3d8"/>
    <path d="M 72.939124 21.692885 
L 73.607054 21.692885 
L 73.607054 3.00024 
L 72.939124 3.00024 
L 72.939124 21.692885 
" clip-path="url(#p9d66aa25fe)" style="fill: #74b3d8"/>
    <path d="M 73.607054 21.692885 
L 74.274984 21.692885 
L 74.274984 3.00024 
L 73.607054 3.00024 
L 73.607054 21.692885 
" clip-path="url(#p9d66aa25fe)" style="fill: #74b3d8"/>
    <path d="M 74.274984 21.692885 
L 74.942914 21.692885 
L 74.942914 3.00024 
L 74.274984 3.00024 
L 74.274984 21.692885 
" clip-path="url(#p9d66aa25fe)" style="fill: #74b3d8"/>
    <path d="M 74.942914 21.692885 
L 75.610844 21.692885 
L 75.610844 3.00024 
L 74.942914 3.00024 
L 74.942914 21.692885 
" clip-path="url(#p9d66aa25fe)" style="fill: #74b3d8"/>
    <path d="M 75.610844 21.692885 
L 76.278774 21.692885 
L 76.278774 3.00024 
L 75.610844 3.00024 
L 75.610844 21.692885 
" clip-path="url(#p9d66aa25fe)" style="fill: #74b3d8"/>
    <path d="M 76.278774 21.692885 
L 76.946703 21.692885 
L 76.946703 3.00024 
L 76.278774 3.00024 
L 76.278774 21.692885 
" clip-path="url(#p9d66aa25fe)" style="fill: #74b3d8"/>
    <path d="M 76.946703 21.692885 
L 77.614633 21.692885 
L 77.614633 3.00024 
L 76.946703 3.00024 
L 76.946703 21.692885 
" clip-path="url(#p9d66aa25fe)" style="fill: #74b3d8"/>
    <path d="M 77.614633 21.692885 
L 78.282563 21.692885 
L 78.282563 3.00024 
L 77.614633 3.00024 
L 77.614633 21.692885 
" clip-path="url(#p9d66aa25fe)" style="fill: #74b3d8"/>
    <path d="M 78.282563 21.692885 
L 78.950493 21.692885 
L 78.950493 3.00024 
L 78.282563 3.00024 
L 78.282563 21.692885 
" clip-path="url(#p9d66aa25fe)" style="fill: #74b3d8"/>
    <path d="M 78.950493 21.692885 
L 79.618423 21.692885 
L 79.618423 3.00024 
L 78.950493 3.00024 
L 78.950493 21.692885 
" clip-path="url(#p9d66aa25fe)" style="fill: #74b3d8"/>
    <path d="M 79.618423 21.692885 
L 80.286353 21.692885 
L 80.286353 3.00024 
L 79.618423 3.00024 
L 79.618423 21.692885 
" clip-path="url(#p9d66aa25fe)" style="fill: #74b3d8"/>
    <path d="M 80.286353 21.692885 
L 80.954283 21.692885 
L 80.954283 3.00024 
L 80.286353 3.00024 
L 80.286353 21.692885 
" clip-path="url(#p9d66aa25fe)" style="fill: #74b3d8"/>
    <path d="M 80.954283 21.692885 
L 81.622213 21.692885 
L 81.622213 3.00024 
L 80.954283 3.00024 
L 80.954283 21.692885 
" clip-path="url(#p9d66aa25fe)" style="fill: #74b3d8"/>
    <path d="M 81.622213 21.692885 
L 82.290143 21.692885 
L 82.290143 3.00024 
L 81.622213 3.00024 
L 81.622213 21.692885 
" clip-path="url(#p9d66aa25fe)" style="fill: #74b3d8"/>
    <path d="M 82.290143 21.692885 
L 82.958073 21.692885 
L 82.958073 3.00024 
L 82.290143 3.00024 
L 82.290143 21.692885 
" clip-path="url(#p9d66aa25fe)" style="fill: #74b3d8"/>
    <path d="M 82.958073 21.692885 
L 83.626003 21.692885 
L 83.626003 3.00024 
L 82.958073 3.00024 
L 82.958073 21.692885 
" clip-path="url(#p9d66aa25fe)" style="fill: #74b3d8"/>
    <path d="M 83.626003 21.692885 
L 84.293933 21.692885 
L 84.293933 3.00024 
L 83.626003 3.00024 
L 83.626003 21.692885 
" clip-path="url(#p9d66aa25fe)" style="fill: #74b3d8"/>
    <path d="M 84.293933 21.692885 
L 84.961862 21.692885 
L 84.961862 3.00024 
L 84.293933 3.00024 
L 84.293933 21.692885 
" clip-path="url(#p9d66aa25fe)" style="fill: #74b3d8"/>
    <path d="M 84.961862 21.692885 
L 85.629792 21.692885 
L 85.629792 3.00024 
L 84.961862 3.00024 
L 84.961862 21.692885 
" clip-path="url(#p9d66aa25fe)" style="fill: #74b3d8"/>
    <path d="M 85.629792 21.692885 
L 86.297722 21.692885 
L 86.297722 3.00024 
L 85.629792 3.00024 
L 85.629792 21.692885 
" clip-path="url(#p9d66aa25fe)" style="fill: #74b3d8"/>
    <path d="M 86.297722 21.692885 
L 86.965652 21.692885 
L 86.965652 3.00024 
L 86.297722 3.00024 
L 86.297722 21.692885 
" clip-path="url(#p9d66aa25fe)" style="fill: #74b3d8"/>
    <path d="M 86.965652 21.692885 
L 87.633582 21.692885 
L 87.633582 3.00024 
L 86.965652 3.00024 
L 86.965652 21.692885 
" clip-path="url(#p9d66aa25fe)" style="fill: #74b3d8"/>
    <path d="M 87.633582 21.692885 
L 88.301512 21.692885 
L 88.301512 3.00024 
L 87.633582 3.00024 
L 87.633582 21.692885 
" clip-path="url(#p9d66aa25fe)" style="fill: #74b3d8"/>
    <path d="M 88.301512 21.692885 
L 88.969442 21.692885 
L 88.969442 3.00024 
L 88.301512 3.00024 
L 88.301512 21.692885 
" clip-path="url(#p9d66aa25fe)" style="fill: #74b3d8"/>
    <path d="M 88.969442 21.692885 
L 89.637372 21.692885 
L 89.637372 3.00024 
L 88.969442 3.00024 
L 88.969442 21.692885 
" clip-path="url(#p9d66aa25fe)" style="fill: #74b3d8"/>
    <path d="M 89.637372 21.692885 
L 90.305302 21.692885 
L 90.305302 3.00024 
L 89.637372 3.00024 
L 89.637372 21.692885 
" clip-path="url(#p9d66aa25fe)" style="fill: #74b3d8"/>
    <path d="M 90.305302 21.692885 
L 90.973232 21.692885 
L 90.973232 3.00024 
L 90.305302 3.00024 
L 90.305302 21.692885 
" clip-path="url(#p9d66aa25fe)" style="fill: #74b3d8"/>
    <path d="M 90.973232 21.692885 
L 91.641162 21.692885 
L 91.641162 3.00024 
L 90.973232 3.00024 
L 90.973232 21.692885 
" clip-path="url(#p9d66aa25fe)" style="fill: #74b3d8"/>
    <path d="M 91.641162 21.692885 
L 92.309092 21.692885 
L 92.309092 3.00024 
L 91.641162 3.00024 
L 91.641162 21.692885 
" clip-path="url(#p9d66aa25fe)" style="fill: #74b3d8"/>
    <path d="M 92.309092 21.692885 
L 92.977021 21.692885 
L 92.977021 3.00024 
L 92.309092 3.00024 
L 92.309092 21.692885 
" clip-path="url(#p9d66aa25fe)" style="fill: #74b3d8"/>
    <path d="M 92.977021 21.692885 
L 93.644951 21.692885 
L 93.644951 3.00024 
L 92.977021 3.00024 
L 92.977021 21.692885 
" clip-path="url(#p9d66aa25fe)" style="fill: #74b3d8"/>
    <path d="M 93.644951 21.692885 
L 94.312881 21.692885 
L 94.312881 3.00024 
L 93.644951 3.00024 
L 93.644951 21.692885 
" clip-path="url(#p9d66aa25fe)" style="fill: #74b3d8"/>
    <path d="M 94.312881 21.692885 
L 94.980811 21.692885 
L 94.980811 3.00024 
L 94.312881 3.00024 
L 94.312881 21.692885 
" clip-path="url(#p9d66aa25fe)" style="fill: #74b3d8"/>
    <path d="M 94.980811 21.692885 
L 95.648741 21.692885 
L 95.648741 3.00024 
L 94.980811 3.00024 
L 94.980811 21.692885 
" clip-path="url(#p9d66aa25fe)" style="fill: #74b3d8"/>
    <path d="M 95.648741 21.692885 
L 96.316671 21.692885 
L 96.316671 3.00024 
L 95.648741 3.00024 
L 95.648741 21.692885 
" clip-path="url(#p9d66aa25fe)" style="fill: #74b3d8"/>
    <path d="M 96.316671 21.692885 
L 96.984601 21.692885 
L 96.984601 3.00024 
L 96.316671 3.00024 
L 96.316671 21.692885 
" clip-path="url(#p9d66aa25fe)" style="fill: #74b3d8"/>
    <path d="M 96.984601 21.692885 
L 97.652531 21.692885 
L 97.652531 3.00024 
L 96.984601 3.00024 
L 96.984601 21.692885 
" clip-path="url(#p9d66aa25fe)" style="fill: #74b3d8"/>
    <path d="M 97.652531 21.692885 
L 98.320461 21.692885 
L 98.320461 3.00024 
L 97.652531 3.00024 
L 97.652531 21.692885 
" clip-path="url(#p9d66aa25fe)" style="fill: #74b3d8"/>
    <path d="M 98.320461 21.692885 
L 98.988391 21.692885 
L 98.988391 3.00024 
L 98.320461 3.00024 
L 98.320461 21.692885 
" clip-path="url(#p9d66aa25fe)" style="fill: #74b3d8"/>
    <path d="M 98.988391 21.692885 
L 99.656321 21.692885 
L 99.656321 3.00024 
L 98.988391 3.00024 
L 98.988391 21.692885 
" clip-path="url(#p9d66aa25fe)" style="fill: #74b3d8"/>
    <path d="M 99.656321 21.692885 
L 100.324251 21.692885 
L 100.324251 3.00024 
L 99.656321 3.00024 
L 99.656321 21.692885 
" clip-path="url(#p9d66aa25fe)" style="fill: #74b3d8"/>
    <path d="M 100.324251 21.692885 
L 100.99218 21.692885 
L 100.99218 3.00024 
L 100.324251 3.00024 
L 100.324251 21.692885 
" clip-path="url(#p9d66aa25fe)" style="fill: #74b3d8"/>
    <path d="M 100.99218 21.692885 
L 101.66011 21.692885 
L 101.66011 3.00024 
L 100.99218 3.00024 
L 100.99218 21.692885 
" clip-path="url(#p9d66aa25fe)" style="fill: #74b3d8"/>
    <path d="M 101.66011 21.692885 
L 102.32804 21.692885 
L 102.32804 3.00024 
L 101.66011 3.00024 
L 101.66011 21.692885 
" clip-path="url(#p9d66aa25fe)" style="fill: #74b3d8"/>
    <path d="M 102.32804 21.692885 
L 102.99597 21.692885 
L 102.99597 3.00024 
L 102.32804 3.00024 
L 102.32804 21.692885 
" clip-path="url(#p9d66aa25fe)" style="fill: #74b3d8"/>
    <path d="M 102.99597 21.692885 
L 103.6639 21.692885 
L 103.6639 3.00024 
L 102.99597 3.00024 
L 102.99597 21.692885 
" clip-path="url(#p9d66aa25fe)" style="fill: #74b3d8"/>
    <path d="M 103.6639 21.692885 
L 104.33183 21.692885 
L 104.33183 3.00024 
L 103.6639 3.00024 
L 103.6639 21.692885 
" clip-path="url(#p9d66aa25fe)" style="fill: #74b3d8"/>
    <path d="M 104.33183 21.692885 
L 104.99976 21.692885 
L 104.99976 3.00024 
L 104.33183 3.00024 
L 104.33183 21.692885 
" clip-path="url(#p9d66aa25fe)" style="fill: #74b3d8"/>
   </g>
   <g id="matplotlib.axis_1"/>
   <g id="matplotlib.axis_2">
    <g id="text_1">
     <!-- $n_A$ -->
     <g transform="translate(3.00024 15.657812)scale(0.12 -0.12)">
      <defs>
       <path id="DejaVuSans-Oblique-6e" d="M 3566 2113 
L 3156 0 
L 2578 0 
L 2988 2091 
Q 3016 2238 3031 2350 
Q 3047 2463 3047 2528 
Q 3047 2791 2881 2937 
Q 2716 3084 2419 3084 
Q 1956 3084 1622 2776 
Q 1288 2469 1184 1941 
L 800 0 
L 225 0 
L 903 3500 
L 1478 3500 
L 1363 2950 
Q 1603 3253 1940 3418 
Q 2278 3584 2650 3584 
Q 3113 3584 3367 3334 
Q 3622 3084 3622 2631 
Q 3622 2519 3608 2391 
Q 3594 2263 3566 2113 
z
" transform="scale(0.015625)"/>
       <path id="DejaVuSans-Oblique-41" d="M 2356 4666 
L 3072 4666 
L 3938 0 
L 3278 0 
L 3084 1197 
L 984 1197 
L 325 0 
L -341 0 
L 2356 4666 
z
M 2584 4044 
L 1275 1722 
L 2988 1722 
L 2584 4044 
z
" transform="scale(0.015625)"/>
      </defs>
      <use xlink:href="#DejaVuSans-Oblique-6e"/>
      <use xlink:href="#DejaVuSans-Oblique-41" transform="translate(63.378906 -16.40625)scale(0.7)"/>
     </g>
    </g>
   </g>
   <g id="patch_3">
    <path d="M 24.18024 21.692885 
L 24.18024 3.00024 
" style="fill: none; stroke: #000000; stroke-width: 0.8; stroke-linejoin: miter; stroke-linecap: square"/>
   </g>
   <g id="patch_4">
    <path d="M 104.99976 21.692885 
L 104.99976 3.00024 
" style="fill: none; stroke: #000000; stroke-width: 0.8; stroke-linejoin: miter; stroke-linecap: square"/>
   </g>
   <g id="patch_5">
    <path d="M 24.18024 21.692885 
L 104.99976 21.692885 
" style="fill: none; stroke: #000000; stroke-width: 0.8; stroke-linejoin: miter; stroke-linecap: square"/>
   </g>
   <g id="patch_6">
    <path d="M 24.18024 3.00024 
L 104.99976 3.00024 
" style="fill: none; stroke: #000000; stroke-width: 0.8; stroke-linejoin: miter; stroke-linecap: square"/>
   </g>
  </g>
  <g id="axes_2">
   <g id="patch_7">
    <path d="M 24.18024 49.88601 
L 104.99976 49.88601 
L 104.99976 31.193365 
L 24.18024 31.193365 
z
" style="fill: #ffffff"/>
   </g>
   <g id="QuadMesh_2">
    <path d="M 24.18024 49.88601 
L 24.84817 49.88601 
L 24.84817 31.193365 
L 24.18024 31.193365 
L 24.18024 49.88601 
" clip-path="url(#p60359b47e4)" style="fill: #cf1c1f"/>
    <path d="M 24.84817 49.88601 
L 25.5161 49.88601 
L 25.5161 31.193365 
L 24.84817 31.193365 
L 24.84817 49.88601 
" clip-path="url(#p60359b47e4)" style="fill: #cf1c1f"/>
    <path d="M 25.5161 49.88601 
L 26.18403 49.88601 
L 26.18403 31.193365 
L 25.5161 31.193365 
L 25.5161 49.88601 
" clip-path="url(#p60359b47e4)" style="fill: #cf1c1f"/>
    <path d="M 26.18403 49.88601 
L 26.85196 49.88601 
L 26.85196 31.193365 
L 26.18403 31.193365 
L 26.18403 49.88601 
" clip-path="url(#p60359b47e4)" style="fill: #cf1c1f"/>
    <path d="M 26.85196 49.88601 
L 27.51989 49.88601 
L 27.51989 31.193365 
L 26.85196 31.193365 
L 26.85196 49.88601 
" clip-path="url(#p60359b47e4)" style="fill: #cf1c1f"/>
    <path d="M 27.51989 49.88601 
L 28.18782 49.88601 
L 28.18782 31.193365 
L 27.51989 31.193365 
L 27.51989 49.88601 
" clip-path="url(#p60359b47e4)" style="fill: #cf1c1f"/>
    <path d="M 28.18782 49.88601 
L 28.855749 49.88601 
L 28.855749 31.193365 
L 28.18782 31.193365 
L 28.18782 49.88601 
" clip-path="url(#p60359b47e4)" style="fill: #cf1c1f"/>
    <path d="M 28.855749 49.88601 
L 29.523679 49.88601 
L 29.523679 31.193365 
L 28.855749 31.193365 
L 28.855749 49.88601 
" clip-path="url(#p60359b47e4)" style="fill: #cf1c1f"/>
    <path d="M 29.523679 49.88601 
L 30.191609 49.88601 
L 30.191609 31.193365 
L 29.523679 31.193365 
L 29.523679 49.88601 
" clip-path="url(#p60359b47e4)" style="fill: #cf1c1f"/>
    <path d="M 30.191609 49.88601 
L 30.859539 49.88601 
L 30.859539 31.193365 
L 30.191609 31.193365 
L 30.191609 49.88601 
" clip-path="url(#p60359b47e4)" style="fill: #cf1c1f"/>
    <path d="M 30.859539 49.88601 
L 31.527469 49.88601 
L 31.527469 31.193365 
L 30.859539 31.193365 
L 30.859539 49.88601 
" clip-path="url(#p60359b47e4)" style="fill: #cf1c1f"/>
    <path d="M 31.527469 49.88601 
L 32.195399 49.88601 
L 32.195399 31.193365 
L 31.527469 31.193365 
L 31.527469 49.88601 
" clip-path="url(#p60359b47e4)" style="fill: #cf1c1f"/>
    <path d="M 32.195399 49.88601 
L 32.863329 49.88601 
L 32.863329 31.193365 
L 32.195399 31.193365 
L 32.195399 49.88601 
" clip-path="url(#p60359b47e4)" style="fill: #cf1c1f"/>
    <path d="M 32.863329 49.88601 
L 33.531259 49.88601 
L 33.531259 31.193365 
L 32.863329 31.193365 
L 32.863329 49.88601 
" clip-path="url(#p60359b47e4)" style="fill: #cf1c1f"/>
    <path d="M 33.531259 49.88601 
L 34.199189 49.88601 
L 34.199189 31.193365 
L 33.531259 31.193365 
L 33.531259 49.88601 
" clip-path="url(#p60359b47e4)" style="fill: #cf1c1f"/>
    <path d="M 34.199189 49.88601 
L 34.867119 49.88601 
L 34.867119 31.193365 
L 34.199189 31.193365 
L 34.199189 49.88601 
" clip-path="url(#p60359b47e4)" style="fill: #cf1c1f"/>
    <path d="M 34.867119 49.88601 
L 35.535049 49.88601 
L 35.535049 31.193365 
L 34.867119 31.193365 
L 34.867119 49.88601 
" clip-path="url(#p60359b47e4)" style="fill: #cf1c1f"/>
    <path d="M 35.535049 49.88601 
L 36.202979 49.88601 
L 36.202979 31.193365 
L 35.535049 31.193365 
L 35.535049 49.88601 
" clip-path="url(#p60359b47e4)" style="fill: #cf1c1f"/>
    <path d="M 36.202979 49.88601 
L 36.870908 49.88601 
L 36.870908 31.193365 
L 36.202979 31.193365 
L 36.202979 49.88601 
" clip-path="url(#p60359b47e4)" style="fill: #cf1c1f"/>
    <path d="M 36.870908 49.88601 
L 37.538838 49.88601 
L 37.538838 31.193365 
L 36.870908 31.193365 
L 36.870908 49.88601 
" clip-path="url(#p60359b47e4)" style="fill: #cf1c1f"/>
    <path d="M 37.538838 49.88601 
L 38.206768 49.88601 
L 38.206768 31.193365 
L 37.538838 31.193365 
L 37.538838 49.88601 
" clip-path="url(#p60359b47e4)" style="fill: #cf1c1f"/>
    <path d="M 38.206768 49.88601 
L 38.874698 49.88601 
L 38.874698 31.193365 
L 38.206768 31.193365 
L 38.206768 49.88601 
" clip-path="url(#p60359b47e4)" style="fill: #cf1c1f"/>
    <path d="M 38.874698 49.88601 
L 39.542628 49.88601 
L 39.542628 31.193365 
L 38.874698 31.193365 
L 38.874698 49.88601 
" clip-path="url(#p60359b47e4)" style="fill: #cf1c1f"/>
    <path d="M 39.542628 49.88601 
L 40.210558 49.88601 
L 40.210558 31.193365 
L 39.542628 31.193365 
L 39.542628 49.88601 
" clip-path="url(#p60359b47e4)" style="fill: #cf1c1f"/>
    <path d="M 40.210558 49.88601 
L 40.878488 49.88601 
L 40.878488 31.193365 
L 40.210558 31.193365 
L 40.210558 49.88601 
" clip-path="url(#p60359b47e4)" style="fill: #cf1c1f"/>
    <path d="M 40.878488 49.88601 
L 41.546418 49.88601 
L 41.546418 31.193365 
L 40.878488 31.193365 
L 40.878488 49.88601 
" clip-path="url(#p60359b47e4)" style="fill: #cf1c1f"/>
    <path d="M 41.546418 49.88601 
L 42.214348 49.88601 
L 42.214348 31.193365 
L 41.546418 31.193365 
L 41.546418 49.88601 
" clip-path="url(#p60359b47e4)" style="fill: #cf1c1f"/>
    <path d="M 42.214348 49.88601 
L 42.882278 49.88601 
L 42.882278 31.193365 
L 42.214348 31.193365 
L 42.214348 49.88601 
" clip-path="url(#p60359b47e4)" style="fill: #cf1c1f"/>
    <path d="M 42.882278 49.88601 
L 43.550208 49.88601 
L 43.550208 31.193365 
L 42.882278 31.193365 
L 42.882278 49.88601 
" clip-path="url(#p60359b47e4)" style="fill: #cf1c1f"/>
    <path d="M 43.550208 49.88601 
L 44.218138 49.88601 
L 44.218138 31.193365 
L 43.550208 31.193365 
L 43.550208 49.88601 
" clip-path="url(#p60359b47e4)" style="fill: #cf1c1f"/>
    <path d="M 44.218138 49.88601 
L 44.886067 49.88601 
L 44.886067 31.193365 
L 44.218138 31.193365 
L 44.218138 49.88601 
" clip-path="url(#p60359b47e4)" style="fill: #cf1c1f"/>
    <path d="M 44.886067 49.88601 
L 45.553997 49.88601 
L 45.553997 31.193365 
L 44.886067 31.193365 
L 44.886067 49.88601 
" clip-path="url(#p60359b47e4)" style="fill: #cf1c1f"/>
    <path d="M 45.553997 49.88601 
L 46.221927 49.88601 
L 46.221927 31.193365 
L 45.553997 31.193365 
L 45.553997 49.88601 
" clip-path="url(#p60359b47e4)" style="fill: #cf1c1f"/>
    <path d="M 46.221927 49.88601 
L 46.889857 49.88601 
L 46.889857 31.193365 
L 46.221927 31.193365 
L 46.221927 49.88601 
" clip-path="url(#p60359b47e4)" style="fill: #cf1c1f"/>
    <path d="M 46.889857 49.88601 
L 47.557787 49.88601 
L 47.557787 31.193365 
L 46.889857 31.193365 
L 46.889857 49.88601 
" clip-path="url(#p60359b47e4)" style="fill: #cf1c1f"/>
    <path d="M 47.557787 49.88601 
L 48.225717 49.88601 
L 48.225717 31.193365 
L 47.557787 31.193365 
L 47.557787 49.88601 
" clip-path="url(#p60359b47e4)" style="fill: #cf1c1f"/>
    <path d="M 48.225717 49.88601 
L 48.893647 49.88601 
L 48.893647 31.193365 
L 48.225717 31.193365 
L 48.225717 49.88601 
" clip-path="url(#p60359b47e4)" style="fill: #cf1c1f"/>
    <path d="M 48.893647 49.88601 
L 49.561577 49.88601 
L 49.561577 31.193365 
L 48.893647 31.193365 
L 48.893647 49.88601 
" clip-path="url(#p60359b47e4)" style="fill: #cf1c1f"/>
    <path d="M 49.561577 49.88601 
L 50.229507 49.88601 
L 50.229507 31.193365 
L 49.561577 31.193365 
L 49.561577 49.88601 
" clip-path="url(#p60359b47e4)" style="fill: #cf1c1f"/>
    <path d="M 50.229507 49.88601 
L 50.897437 49.88601 
L 50.897437 31.193365 
L 50.229507 31.193365 
L 50.229507 49.88601 
" clip-path="url(#p60359b47e4)" style="fill: #cf1c1f"/>
    <path d="M 50.897437 49.88601 
L 51.565367 49.88601 
L 51.565367 31.193365 
L 50.897437 31.193365 
L 50.897437 49.88601 
" clip-path="url(#p60359b47e4)" style="fill: #cf1c1f"/>
    <path d="M 51.565367 49.88601 
L 52.233297 49.88601 
L 52.233297 31.193365 
L 51.565367 31.193365 
L 51.565367 49.88601 
" clip-path="url(#p60359b47e4)" style="fill: #cf1c1f"/>
    <path d="M 52.233297 49.88601 
L 52.901226 49.88601 
L 52.901226 31.193365 
L 52.233297 31.193365 
L 52.233297 49.88601 
" clip-path="url(#p60359b47e4)" style="fill: #cf1c1f"/>
    <path d="M 52.901226 49.88601 
L 53.569156 49.88601 
L 53.569156 31.193365 
L 52.901226 31.193365 
L 52.901226 49.88601 
" clip-path="url(#p60359b47e4)" style="fill: #cf1c1f"/>
    <path d="M 53.569156 49.88601 
L 54.237086 49.88601 
L 54.237086 31.193365 
L 53.569156 31.193365 
L 53.569156 49.88601 
" clip-path="url(#p60359b47e4)" style="fill: #cf1c1f"/>
    <path d="M 54.237086 49.88601 
L 54.905016 49.88601 
L 54.905016 31.193365 
L 54.237086 31.193365 
L 54.237086 49.88601 
" clip-path="url(#p60359b47e4)" style="fill: #cf1c1f"/>
    <path d="M 54.905016 49.88601 
L 55.572946 49.88601 
L 55.572946 31.193365 
L 54.905016 31.193365 
L 54.905016 49.88601 
" clip-path="url(#p60359b47e4)" style="fill: #cf1c1f"/>
    <path d="M 55.572946 49.88601 
L 56.240876 49.88601 
L 56.240876 31.193365 
L 55.572946 31.193365 
L 55.572946 49.88601 
" clip-path="url(#p60359b47e4)" style="fill: #cf1c1f"/>
    <path d="M 56.240876 49.88601 
L 56.908806 49.88601 
L 56.908806 31.193365 
L 56.240876 31.193365 
L 56.240876 49.88601 
" clip-path="url(#p60359b47e4)" style="fill: #cf1c1f"/>
    <path d="M 56.908806 49.88601 
L 57.576736 49.88601 
L 57.576736 31.193365 
L 56.908806 31.193365 
L 56.908806 49.88601 
" clip-path="url(#p60359b47e4)" style="fill: #cf1c1f"/>
    <path d="M 57.576736 49.88601 
L 58.244666 49.88601 
L 58.244666 31.193365 
L 57.576736 31.193365 
L 57.576736 49.88601 
" clip-path="url(#p60359b47e4)" style="fill: #cf1c1f"/>
    <path d="M 58.244666 49.88601 
L 58.912596 49.88601 
L 58.912596 31.193365 
L 58.244666 31.193365 
L 58.244666 49.88601 
" clip-path="url(#p60359b47e4)" style="fill: #cf1c1f"/>
    <path d="M 58.912596 49.88601 
L 59.580526 49.88601 
L 59.580526 31.193365 
L 58.912596 31.193365 
L 58.912596 49.88601 
" clip-path="url(#p60359b47e4)" style="fill: #cf1c1f"/>
    <path d="M 59.580526 49.88601 
L 60.248456 49.88601 
L 60.248456 31.193365 
L 59.580526 31.193365 
L 59.580526 49.88601 
" clip-path="url(#p60359b47e4)" style="fill: #cf1c1f"/>
    <path d="M 60.248456 49.88601 
L 60.916385 49.88601 
L 60.916385 31.193365 
L 60.248456 31.193365 
L 60.248456 49.88601 
" clip-path="url(#p60359b47e4)" style="fill: #cf1c1f"/>
    <path d="M 60.916385 49.88601 
L 61.584315 49.88601 
L 61.584315 31.193365 
L 60.916385 31.193365 
L 60.916385 49.88601 
" clip-path="url(#p60359b47e4)" style="fill: #cf1c1f"/>
    <path d="M 61.584315 49.88601 
L 62.252245 49.88601 
L 62.252245 31.193365 
L 61.584315 31.193365 
L 61.584315 49.88601 
" clip-path="url(#p60359b47e4)" style="fill: #cf1c1f"/>
    <path d="M 62.252245 49.88601 
L 62.920175 49.88601 
L 62.920175 31.193365 
L 62.252245 31.193365 
L 62.252245 49.88601 
" clip-path="url(#p60359b47e4)" style="fill: #cf1c1f"/>
    <path d="M 62.920175 49.88601 
L 63.588105 49.88601 
L 63.588105 31.193365 
L 62.920175 31.193365 
L 62.920175 49.88601 
" clip-path="url(#p60359b47e4)" style="fill: #cf1c1f"/>
    <path d="M 63.588105 49.88601 
L 64.256035 49.88601 
L 64.256035 31.193365 
L 63.588105 31.193365 
L 63.588105 49.88601 
" clip-path="url(#p60359b47e4)" style="fill: #cf1c1f"/>
    <path d="M 64.256035 49.88601 
L 64.923965 49.88601 
L 64.923965 31.193365 
L 64.256035 31.193365 
L 64.256035 49.88601 
" clip-path="url(#p60359b47e4)" style="fill: #cf1c1f"/>
    <path d="M 64.923965 49.88601 
L 65.591895 49.88601 
L 65.591895 31.193365 
L 64.923965 31.193365 
L 64.923965 49.88601 
" clip-path="url(#p60359b47e4)" style="fill: #cf1c1f"/>
    <path d="M 65.591895 49.88601 
L 66.259825 49.88601 
L 66.259825 31.193365 
L 65.591895 31.193365 
L 65.591895 49.88601 
" clip-path="url(#p60359b47e4)" style="fill: #cf1c1f"/>
    <path d="M 66.259825 49.88601 
L 66.927755 49.88601 
L 66.927755 31.193365 
L 66.259825 31.193365 
L 66.259825 49.88601 
" clip-path="url(#p60359b47e4)" style="fill: #cf1c1f"/>
    <path d="M 66.927755 49.88601 
L 67.595685 49.88601 
L 67.595685 31.193365 
L 66.927755 31.193365 
L 66.927755 49.88601 
" clip-path="url(#p60359b47e4)" style="fill: #cf1c1f"/>
    <path d="M 67.595685 49.88601 
L 68.263615 49.88601 
L 68.263615 31.193365 
L 67.595685 31.193365 
L 67.595685 49.88601 
" clip-path="url(#p60359b47e4)" style="fill: #cf1c1f"/>
    <path d="M 68.263615 49.88601 
L 68.931544 49.88601 
L 68.931544 31.193365 
L 68.263615 31.193365 
L 68.263615 49.88601 
" clip-path="url(#p60359b47e4)" style="fill: #cf1c1f"/>
    <path d="M 68.931544 49.88601 
L 69.599474 49.88601 
L 69.599474 31.193365 
L 68.931544 31.193365 
L 68.931544 49.88601 
" clip-path="url(#p60359b47e4)" style="fill: #cf1c1f"/>
    <path d="M 69.599474 49.88601 
L 70.267404 49.88601 
L 70.267404 31.193365 
L 69.599474 31.193365 
L 69.599474 49.88601 
" clip-path="url(#p60359b47e4)" style="fill: #cf1c1f"/>
    <path d="M 70.267404 49.88601 
L 70.935334 49.88601 
L 70.935334 31.193365 
L 70.267404 31.193365 
L 70.267404 49.88601 
" clip-path="url(#p60359b47e4)" style="fill: #cf1c1f"/>
    <path d="M 70.935334 49.88601 
L 71.603264 49.88601 
L 71.603264 31.193365 
L 70.935334 31.193365 
L 70.935334 49.88601 
" clip-path="url(#p60359b47e4)" style="fill: #cf1c1f"/>
    <path d="M 71.603264 49.88601 
L 72.271194 49.88601 
L 72.271194 31.193365 
L 71.603264 31.193365 
L 71.603264 49.88601 
" clip-path="url(#p60359b47e4)" style="fill: #cf1c1f"/>
    <path d="M 72.271194 49.88601 
L 72.939124 49.88601 
L 72.939124 31.193365 
L 72.271194 31.193365 
L 72.271194 49.88601 
" clip-path="url(#p60359b47e4)" style="fill: #cf1c1f"/>
    <path d="M 72.939124 49.88601 
L 73.607054 49.88601 
L 73.607054 31.193365 
L 72.939124 31.193365 
L 72.939124 49.88601 
" clip-path="url(#p60359b47e4)" style="fill: #cf1c1f"/>
    <path d="M 73.607054 49.88601 
L 74.274984 49.88601 
L 74.274984 31.193365 
L 73.607054 31.193365 
L 73.607054 49.88601 
" clip-path="url(#p60359b47e4)" style="fill: #cf1c1f"/>
    <path d="M 74.274984 49.88601 
L 74.942914 49.88601 
L 74.942914 31.193365 
L 74.274984 31.193365 
L 74.274984 49.88601 
" clip-path="url(#p60359b47e4)" style="fill: #cf1c1f"/>
    <path d="M 74.942914 49.88601 
L 75.610844 49.88601 
L 75.610844 31.193365 
L 74.942914 31.193365 
L 74.942914 49.88601 
" clip-path="url(#p60359b47e4)" style="fill: #cf1c1f"/>
    <path d="M 75.610844 49.88601 
L 76.278774 49.88601 
L 76.278774 31.193365 
L 75.610844 31.193365 
L 75.610844 49.88601 
" clip-path="url(#p60359b47e4)" style="fill: #cf1c1f"/>
    <path d="M 76.278774 49.88601 
L 76.946703 49.88601 
L 76.946703 31.193365 
L 76.278774 31.193365 
L 76.278774 49.88601 
" clip-path="url(#p60359b47e4)" style="fill: #cf1c1f"/>
    <path d="M 76.946703 49.88601 
L 77.614633 49.88601 
L 77.614633 31.193365 
L 76.946703 31.193365 
L 76.946703 49.88601 
" clip-path="url(#p60359b47e4)" style="fill: #cf1c1f"/>
    <path d="M 77.614633 49.88601 
L 78.282563 49.88601 
L 78.282563 31.193365 
L 77.614633 31.193365 
L 77.614633 49.88601 
" clip-path="url(#p60359b47e4)" style="fill: #cf1c1f"/>
    <path d="M 78.282563 49.88601 
L 78.950493 49.88601 
L 78.950493 31.193365 
L 78.282563 31.193365 
L 78.282563 49.88601 
" clip-path="url(#p60359b47e4)" style="fill: #cf1c1f"/>
    <path d="M 78.950493 49.88601 
L 79.618423 49.88601 
L 79.618423 31.193365 
L 78.950493 31.193365 
L 78.950493 49.88601 
" clip-path="url(#p60359b47e4)" style="fill: #cf1c1f"/>
    <path d="M 79.618423 49.88601 
L 80.286353 49.88601 
L 80.286353 31.193365 
L 79.618423 31.193365 
L 79.618423 49.88601 
" clip-path="url(#p60359b47e4)" style="fill: #cf1c1f"/>
    <path d="M 80.286353 49.88601 
L 80.954283 49.88601 
L 80.954283 31.193365 
L 80.286353 31.193365 
L 80.286353 49.88601 
" clip-path="url(#p60359b47e4)" style="fill: #cf1c1f"/>
    <path d="M 80.954283 49.88601 
L 81.622213 49.88601 
L 81.622213 31.193365 
L 80.954283 31.193365 
L 80.954283 49.88601 
" clip-path="url(#p60359b47e4)" style="fill: #cf1c1f"/>
    <path d="M 81.622213 49.88601 
L 82.290143 49.88601 
L 82.290143 31.193365 
L 81.622213 31.193365 
L 81.622213 49.88601 
" clip-path="url(#p60359b47e4)" style="fill: #cf1c1f"/>
    <path d="M 82.290143 49.88601 
L 82.958073 49.88601 
L 82.958073 31.193365 
L 82.290143 31.193365 
L 82.290143 49.88601 
" clip-path="url(#p60359b47e4)" style="fill: #cf1c1f"/>
    <path d="M 82.958073 49.88601 
L 83.626003 49.88601 
L 83.626003 31.193365 
L 82.958073 31.193365 
L 82.958073 49.88601 
" clip-path="url(#p60359b47e4)" style="fill: #cf1c1f"/>
    <path d="M 83.626003 49.88601 
L 84.293933 49.88601 
L 84.293933 31.193365 
L 83.626003 31.193365 
L 83.626003 49.88601 
" clip-path="url(#p60359b47e4)" style="fill: #cf1c1f"/>
    <path d="M 84.293933 49.88601 
L 84.961862 49.88601 
L 84.961862 31.193365 
L 84.293933 31.193365 
L 84.293933 49.88601 
" clip-path="url(#p60359b47e4)" style="fill: #cf1c1f"/>
    <path d="M 84.961862 49.88601 
L 85.629792 49.88601 
L 85.629792 31.193365 
L 84.961862 31.193365 
L 84.961862 49.88601 
" clip-path="url(#p60359b47e4)" style="fill: #cf1c1f"/>
    <path d="M 85.629792 49.88601 
L 86.297722 49.88601 
L 86.297722 31.193365 
L 85.629792 31.193365 
L 85.629792 49.88601 
" clip-path="url(#p60359b47e4)" style="fill: #cf1c1f"/>
    <path d="M 86.297722 49.88601 
L 86.965652 49.88601 
L 86.965652 31.193365 
L 86.297722 31.193365 
L 86.297722 49.88601 
" clip-path="url(#p60359b47e4)" style="fill: #cf1c1f"/>
    <path d="M 86.965652 49.88601 
L 87.633582 49.88601 
L 87.633582 31.193365 
L 86.965652 31.193365 
L 86.965652 49.88601 
" clip-path="url(#p60359b47e4)" style="fill: #cf1c1f"/>
    <path d="M 87.633582 49.88601 
L 88.301512 49.88601 
L 88.301512 31.193365 
L 87.633582 31.193365 
L 87.633582 49.88601 
" clip-path="url(#p60359b47e4)" style="fill: #cf1c1f"/>
    <path d="M 88.301512 49.88601 
L 88.969442 49.88601 
L 88.969442 31.193365 
L 88.301512 31.193365 
L 88.301512 49.88601 
" clip-path="url(#p60359b47e4)" style="fill: #cf1c1f"/>
    <path d="M 88.969442 49.88601 
L 89.637372 49.88601 
L 89.637372 31.193365 
L 88.969442 31.193365 
L 88.969442 49.88601 
" clip-path="url(#p60359b47e4)" style="fill: #cf1c1f"/>
    <path d="M 89.637372 49.88601 
L 90.305302 49.88601 
L 90.305302 31.193365 
L 89.637372 31.193365 
L 89.637372 49.88601 
" clip-path="url(#p60359b47e4)" style="fill: #cf1c1f"/>
    <path d="M 90.305302 49.88601 
L 90.973232 49.88601 
L 90.973232 31.193365 
L 90.305302 31.193365 
L 90.305302 49.88601 
" clip-path="url(#p60359b47e4)" style="fill: #cf1c1f"/>
    <path d="M 90.973232 49.88601 
L 91.641162 49.88601 
L 91.641162 31.193365 
L 90.973232 31.193365 
L 90.973232 49.88601 
" clip-path="url(#p60359b47e4)" style="fill: #cf1c1f"/>
    <path d="M 91.641162 49.88601 
L 92.309092 49.88601 
L 92.309092 31.193365 
L 91.641162 31.193365 
L 91.641162 49.88601 
" clip-path="url(#p60359b47e4)" style="fill: #cf1c1f"/>
    <path d="M 92.309092 49.88601 
L 92.977021 49.88601 
L 92.977021 31.193365 
L 92.309092 31.193365 
L 92.309092 49.88601 
" clip-path="url(#p60359b47e4)" style="fill: #cf1c1f"/>
    <path d="M 92.977021 49.88601 
L 93.644951 49.88601 
L 93.644951 31.193365 
L 92.977021 31.193365 
L 92.977021 49.88601 
" clip-path="url(#p60359b47e4)" style="fill: #cf1c1f"/>
    <path d="M 93.644951 49.88601 
L 94.312881 49.88601 
L 94.312881 31.193365 
L 93.644951 31.193365 
L 93.644951 49.88601 
" clip-path="url(#p60359b47e4)" style="fill: #cf1c1f"/>
    <path d="M 94.312881 49.88601 
L 94.980811 49.88601 
L 94.980811 31.193365 
L 94.312881 31.193365 
L 94.312881 49.88601 
" clip-path="url(#p60359b47e4)" style="fill: #cf1c1f"/>
    <path d="M 94.980811 49.88601 
L 95.648741 49.88601 
L 95.648741 31.193365 
L 94.980811 31.193365 
L 94.980811 49.88601 
" clip-path="url(#p60359b47e4)" style="fill: #cf1c1f"/>
    <path d="M 95.648741 49.88601 
L 96.316671 49.88601 
L 96.316671 31.193365 
L 95.648741 31.193365 
L 95.648741 49.88601 
" clip-path="url(#p60359b47e4)" style="fill: #cf1c1f"/>
    <path d="M 96.316671 49.88601 
L 96.984601 49.88601 
L 96.984601 31.193365 
L 96.316671 31.193365 
L 96.316671 49.88601 
" clip-path="url(#p60359b47e4)" style="fill: #cf1c1f"/>
    <path d="M 96.984601 49.88601 
L 97.652531 49.88601 
L 97.652531 31.193365 
L 96.984601 31.193365 
L 96.984601 49.88601 
" clip-path="url(#p60359b47e4)" style="fill: #cf1c1f"/>
    <path d="M 97.652531 49.88601 
L 98.320461 49.88601 
L 98.320461 31.193365 
L 97.652531 31.193365 
L 97.652531 49.88601 
" clip-path="url(#p60359b47e4)" style="fill: #cf1c1f"/>
    <path d="M 98.320461 49.88601 
L 98.988391 49.88601 
L 98.988391 31.193365 
L 98.320461 31.193365 
L 98.320461 49.88601 
" clip-path="url(#p60359b47e4)" style="fill: #cf1c1f"/>
    <path d="M 98.988391 49.88601 
L 99.656321 49.88601 
L 99.656321 31.193365 
L 98.988391 31.193365 
L 98.988391 49.88601 
" clip-path="url(#p60359b47e4)" style="fill: #cf1c1f"/>
    <path d="M 99.656321 49.88601 
L 100.324251 49.88601 
L 100.324251 31.193365 
L 99.656321 31.193365 
L 99.656321 49.88601 
" clip-path="url(#p60359b47e4)" style="fill: #cf1c1f"/>
    <path d="M 100.324251 49.88601 
L 100.99218 49.88601 
L 100.99218 31.193365 
L 100.324251 31.193365 
L 100.324251 49.88601 
" clip-path="url(#p60359b47e4)" style="fill: #cf1c1f"/>
    <path d="M 100.99218 49.88601 
L 101.66011 49.88601 
L 101.66011 31.193365 
L 100.99218 31.193365 
L 100.99218 49.88601 
" clip-path="url(#p60359b47e4)" style="fill: #cf1c1f"/>
    <path d="M 101.66011 49.88601 
L 102.32804 49.88601 
L 102.32804 31.193365 
L 101.66011 31.193365 
L 101.66011 49.88601 
" clip-path="url(#p60359b47e4)" style="fill: #cf1c1f"/>
    <path d="M 102.32804 49.88601 
L 102.99597 49.88601 
L 102.99597 31.193365 
L 102.32804 31.193365 
L 102.32804 49.88601 
" clip-path="url(#p60359b47e4)" style="fill: #cf1c1f"/>
    <path d="M 102.99597 49.88601 
L 103.6639 49.88601 
L 103.6639 31.193365 
L 102.99597 31.193365 
L 102.99597 49.88601 
" clip-path="url(#p60359b47e4)" style="fill: #cf1c1f"/>
    <path d="M 103.6639 49.88601 
L 104.33183 49.88601 
L 104.33183 31.193365 
L 103.6639 31.193365 
L 103.6639 49.88601 
" clip-path="url(#p60359b47e4)" style="fill: #cf1c1f"/>
    <path d="M 104.33183 49.88601 
L 104.99976 49.88601 
L 104.99976 31.193365 
L 104.33183 31.193365 
L 104.33183 49.88601 
" clip-path="url(#p60359b47e4)" style="fill: #cf1c1f"/>
   </g>
   <g id="matplotlib.axis_3">
    <g id="text_2">
     <!-- space $x$ -->
     <g transform="translate(41.49 66.47976)scale(0.12 -0.12)">
      <defs>
       <path id="DejaVuSans-73" d="M 2834 3397 
L 2834 2853 
Q 2591 2978 2328 3040 
Q 2066 3103 1784 3103 
Q 1356 3103 1142 2972 
Q 928 2841 928 2578 
Q 928 2378 1081 2264 
Q 1234 2150 1697 2047 
L 1894 2003 
Q 2506 1872 2764 1633 
Q 3022 1394 3022 966 
Q 3022 478 2636 193 
Q 2250 -91 1575 -91 
Q 1294 -91 989 -36 
Q 684 19 347 128 
L 347 722 
Q 666 556 975 473 
Q 1284 391 1588 391 
Q 1994 391 2212 530 
Q 2431 669 2431 922 
Q 2431 1156 2273 1281 
Q 2116 1406 1581 1522 
L 1381 1569 
Q 847 1681 609 1914 
Q 372 2147 372 2553 
Q 372 3047 722 3315 
Q 1072 3584 1716 3584 
Q 2034 3584 2315 3537 
Q 2597 3491 2834 3397 
z
" transform="scale(0.015625)"/>
       <path id="DejaVuSans-70" d="M 1159 525 
L 1159 -1331 
L 581 -1331 
L 581 3500 
L 1159 3500 
L 1159 2969 
Q 1341 3281 1617 3432 
Q 1894 3584 2278 3584 
Q 2916 3584 3314 3078 
Q 3713 2572 3713 1747 
Q 3713 922 3314 415 
Q 2916 -91 2278 -91 
Q 1894 -91 1617 61 
Q 1341 213 1159 525 
z
M 3116 1747 
Q 3116 2381 2855 2742 
Q 2594 3103 2138 3103 
Q 1681 3103 1420 2742 
Q 1159 2381 1159 1747 
Q 1159 1113 1420 752 
Q 1681 391 2138 391 
Q 2594 391 2855 752 
Q 3116 1113 3116 1747 
z
" transform="scale(0.015625)"/>
       <path id="DejaVuSans-61" d="M 2194 1759 
Q 1497 1759 1228 1600 
Q 959 1441 959 1056 
Q 959 750 1161 570 
Q 1363 391 1709 391 
Q 2188 391 2477 730 
Q 2766 1069 2766 1631 
L 2766 1759 
L 2194 1759 
z
M 3341 1997 
L 3341 0 
L 2766 0 
L 2766 531 
Q 2569 213 2275 61 
Q 1981 -91 1556 -91 
Q 1019 -91 701 211 
Q 384 513 384 1019 
Q 384 1609 779 1909 
Q 1175 2209 1959 2209 
L 2766 2209 
L 2766 2266 
Q 2766 2663 2505 2880 
Q 2244 3097 1772 3097 
Q 1472 3097 1187 3025 
Q 903 2953 641 2809 
L 641 3341 
Q 956 3463 1253 3523 
Q 1550 3584 1831 3584 
Q 2591 3584 2966 3190 
Q 3341 2797 3341 1997 
z
" transform="scale(0.015625)"/>
       <path id="DejaVuSans-63" d="M 3122 3366 
L 3122 2828 
Q 2878 2963 2633 3030 
Q 2388 3097 2138 3097 
Q 1578 3097 1268 2742 
Q 959 2388 959 1747 
Q 959 1106 1268 751 
Q 1578 397 2138 397 
Q 2388 397 2633 464 
Q 2878 531 3122 666 
L 3122 134 
Q 2881 22 2623 -34 
Q 2366 -91 2075 -91 
Q 1284 -91 818 406 
Q 353 903 353 1747 
Q 353 2603 823 3093 
Q 1294 3584 2113 3584 
Q 2378 3584 2631 3529 
Q 2884 3475 3122 3366 
z
" transform="scale(0.015625)"/>
       <path id="DejaVuSans-65" d="M 3597 1894 
L 3597 1613 
L 953 1613 
Q 991 1019 1311 708 
Q 1631 397 2203 397 
Q 2534 397 2845 478 
Q 3156 559 3463 722 
L 3463 178 
Q 3153 47 2828 -22 
Q 2503 -91 2169 -91 
Q 1331 -91 842 396 
Q 353 884 353 1716 
Q 353 2575 817 3079 
Q 1281 3584 2069 3584 
Q 2775 3584 3186 3129 
Q 3597 2675 3597 1894 
z
M 3022 2063 
Q 3016 2534 2758 2815 
Q 2500 3097 2075 3097 
Q 1594 3097 1305 2825 
Q 1016 2553 972 2059 
L 3022 2063 
z
" transform="scale(0.015625)"/>
       <path id="DejaVuSans-20" transform="scale(0.015625)"/>
       <path id="DejaVuSans-Oblique-78" d="M 3841 3500 
L 2234 1784 
L 3219 0 
L 2559 0 
L 1819 1388 
L 531 0 
L -166 0 
L 1556 1844 
L 641 3500 
L 1300 3500 
L 1972 2234 
L 3144 3500 
L 3841 3500 
z
" transform="scale(0.015625)"/>
      </defs>
      <use xlink:href="#DejaVuSans-73"/>
      <use xlink:href="#DejaVuSans-70" transform="translate(52.099609 0)"/>
      <use xlink:href="#DejaVuSans-61" transform="translate(115.576172 0)"/>
      <use xlink:href="#DejaVuSans-63" transform="translate(176.855469 0)"/>
      <use xlink:href="#DejaVuSans-65" transform="translate(231.835938 0)"/>
      <use xlink:href="#DejaVuSans-20" transform="translate(293.359375 0)"/>
      <use xlink:href="#DejaVuSans-Oblique-78" transform="translate(325.146484 0)"/>
     </g>
    </g>
   </g>
   <g id="matplotlib.axis_4">
    <g id="text_3">
     <!-- $n_I$ -->
     <g transform="translate(6.24024 43.850937)scale(0.12 -0.12)">
      <defs>
       <path id="DejaVuSans-Oblique-49" d="M 1081 4666 
L 1716 4666 
L 806 0 
L 172 0 
L 1081 4666 
z
" transform="scale(0.015625)"/>
      </defs>
      <use xlink:href="#DejaVuSans-Oblique-6e"/>
      <use xlink:href="#DejaVuSans-Oblique-49" transform="translate(63.378906 -16.40625)scale(0.7)"/>
     </g>
    </g>
   </g>
   <g id="patch_8">
    <path d="M 24.18024 49.88601 
L 24.18024 31.193365 
" style="fill: none; stroke: #000000; stroke-width: 0.8; stroke-linejoin: miter; stroke-linecap: square"/>
   </g>
   <g id="patch_9">
    <path d="M 104.99976 49.88601 
L 104.99976 31.193365 
" style="fill: none; stroke: #000000; stroke-width: 0.8; stroke-linejoin: miter; stroke-linecap: square"/>
   </g>
   <g id="patch_10">
    <path d="M 24.18024 49.88601 
L 104.99976 49.88601 
" style="fill: none; stroke: #000000; stroke-width: 0.8; stroke-linejoin: miter; stroke-linecap: square"/>
   </g>
   <g id="patch_11">
    <path d="M 24.18024 31.193365 
L 104.99976 31.193365 
" style="fill: none; stroke: #000000; stroke-width: 0.8; stroke-linejoin: miter; stroke-linecap: square"/>
   </g>
  </g>
 </g>
 <defs>
  <clipPath id="p9d66aa25fe">
   <rect x="24.18024" y="3.00024" width="80.81952" height="18.692645"/>
  </clipPath>
  <clipPath id="p60359b47e4">
   <rect x="24.18024" y="31.193365" width="80.81952" height="18.692645"/>
  </clipPath>
 </defs>
</svg>
