<?xml version="1.0" encoding="utf-8" standalone="no"?>
<!DOCTYPE svg PUBLIC "-//W3C//DTD SVG 1.1//EN"
  "http://www.w3.org/Graphics/SVG/1.1/DTD/svg11.dtd">
<svg xmlns:xlink="http://www.w3.org/1999/xlink" width="108pt" height="72pt" viewBox="0 0 108 72" xmlns="http://www.w3.org/2000/svg" version="1.1">
 <metadata>
  <rdf:RDF xmlns:dc="http://purl.org/dc/elements/1.1/" xmlns:cc="http://creativecommons.org/ns#" xmlns:rdf="http://www.w3.org/1999/02/22-rdf-syntax-ns#">
   <cc:Work>
    <dc:type rdf:resource="http://purl.org/dc/dcmitype/StillImage"/>
    <dc:date>2022-11-23T14:21:38.255478</dc:date>
    <dc:format>image/svg+xml</dc:format>
    <dc:creator>
     <cc:Agent>
      <dc:title>Matplotlib v3.5.3, https://matplotlib.org/</dc:title>
     </cc:Agent>
    </dc:creator>
   </cc:Work>
  </rdf:RDF>
 </metadata>
 <defs>
  <style type="text/css">*{stroke-linejoin: round; stroke-linecap: butt}</style>
 </defs>
 <g id="figure_1">
  <g id="patch_1">
   <path d="M 0 72 
L 108 72 
L 108 0 
L 0 0 
z
" style="fill: #ffffff"/>
  </g>
  <g id="axes_1">
   <g id="patch_2">
    <path d="M 24.18024 21.692885 
L 104.99976 21.692885 
L 104.99976 3.00024 
L 24.18024 3.00024 
z
" style="fill: #ffffff"/>
   </g>
   <g id="QuadMesh_1">
    <path d="M 24.18024 21.692885 
L 24.988435 21.692885 
L 24.988435 3.00024 
L 24.18024 3.00024 
L 24.18024 21.692885 
" clip-path="url(#p2807122ca6)" style="fill: #d3e3f3"/>
    <path d="M 24.988435 21.692885 
L 25.79663 21.692885 
L 25.79663 3.00024 
L 24.988435 3.00024 
L 24.988435 21.692885 
" clip-path="url(#p2807122ca6)" style="fill: #3f8fc5"/>
    <path d="M 25.79663 21.692885 
L 26.604826 21.692885 
L 26.604826 3.00024 
L 25.79663 3.00024 
L 25.79663 21.692885 
" clip-path="url(#p2807122ca6)" style="fill: #1764ab"/>
    <path d="M 26.604826 21.692885 
L 27.413021 21.692885 
L 27.413021 3.00024 
L 26.604826 3.00024 
L 26.604826 21.692885 
" clip-path="url(#p2807122ca6)" style="fill: #1562a9"/>
    <path d="M 27.413021 21.692885 
L 28.221216 21.692885 
L 28.221216 3.00024 
L 27.413021 3.00024 
L 27.413021 21.692885 
" clip-path="url(#p2807122ca6)" style="fill: #3686c0"/>
    <path d="M 28.221216 21.692885 
L 29.029411 21.692885 
L 29.029411 3.00024 
L 28.221216 3.00024 
L 28.221216 21.692885 
" clip-path="url(#p2807122ca6)" style="fill: #d0e1f2"/>
    <path d="M 29.029411 21.692885 
L 29.837606 21.692885 
L 29.837606 3.00024 
L 29.029411 3.00024 
L 29.029411 21.692885 
" clip-path="url(#p2807122ca6)" style="fill: #d9e8f5"/>
    <path d="M 29.837606 21.692885 
L 30.645802 21.692885 
L 30.645802 3.00024 
L 29.837606 3.00024 
L 29.837606 21.692885 
" clip-path="url(#p2807122ca6)" style="fill: #57a0ce"/>
    <path d="M 30.645802 21.692885 
L 31.453997 21.692885 
L 31.453997 3.00024 
L 30.645802 3.00024 
L 30.645802 21.692885 
" clip-path="url(#p2807122ca6)" style="fill: #2575b7"/>
    <path d="M 31.453997 21.692885 
L 32.262192 21.692885 
L 32.262192 3.00024 
L 31.453997 3.00024 
L 31.453997 21.692885 
" clip-path="url(#p2807122ca6)" style="fill: #206fb4"/>
    <path d="M 32.262192 21.692885 
L 33.070387 21.692885 
L 33.070387 3.00024 
L 32.262192 3.00024 
L 32.262192 21.692885 
" clip-path="url(#p2807122ca6)" style="fill: #2474b7"/>
    <path d="M 33.070387 21.692885 
L 33.878582 21.692885 
L 33.878582 3.00024 
L 33.070387 3.00024 
L 33.070387 21.692885 
" clip-path="url(#p2807122ca6)" style="fill: #56a0ce"/>
    <path d="M 33.878582 21.692885 
L 34.686778 21.692885 
L 34.686778 3.00024 
L 33.878582 3.00024 
L 33.878582 21.692885 
" clip-path="url(#p2807122ca6)" style="fill: #d9e8f5"/>
    <path d="M 34.686778 21.692885 
L 35.494973 21.692885 
L 35.494973 3.00024 
L 34.686778 3.00024 
L 34.686778 21.692885 
" clip-path="url(#p2807122ca6)" style="fill: #d0e2f2"/>
    <path d="M 35.494973 21.692885 
L 36.303168 21.692885 
L 36.303168 3.00024 
L 35.494973 3.00024 
L 35.494973 21.692885 
" clip-path="url(#p2807122ca6)" style="fill: #3787c0"/>
    <path d="M 36.303168 21.692885 
L 37.111363 21.692885 
L 37.111363 3.00024 
L 36.303168 3.00024 
L 36.303168 21.692885 
" clip-path="url(#p2807122ca6)" style="fill: #1561a9"/>
    <path d="M 37.111363 21.692885 
L 37.919558 21.692885 
L 37.919558 3.00024 
L 37.111363 3.00024 
L 37.111363 21.692885 
" clip-path="url(#p2807122ca6)" style="fill: #1561a9"/>
    <path d="M 37.919558 21.692885 
L 38.727754 21.692885 
L 38.727754 3.00024 
L 37.919558 3.00024 
L 37.919558 21.692885 
" clip-path="url(#p2807122ca6)" style="fill: #3686c0"/>
    <path d="M 38.727754 21.692885 
L 39.535949 21.692885 
L 39.535949 3.00024 
L 38.727754 3.00024 
L 38.727754 21.692885 
" clip-path="url(#p2807122ca6)" style="fill: #d0e2f2"/>
    <path d="M 39.535949 21.692885 
L 40.344144 21.692885 
L 40.344144 3.00024 
L 39.535949 3.00024 
L 39.535949 21.692885 
" clip-path="url(#p2807122ca6)" style="fill: #dae8f6"/>
    <path d="M 40.344144 21.692885 
L 41.152339 21.692885 
L 41.152339 3.00024 
L 40.344144 3.00024 
L 40.344144 21.692885 
" clip-path="url(#p2807122ca6)" style="fill: #58a1cf"/>
    <path d="M 41.152339 21.692885 
L 41.960534 21.692885 
L 41.960534 3.00024 
L 41.152339 3.00024 
L 41.152339 21.692885 
" clip-path="url(#p2807122ca6)" style="fill: #2676b8"/>
    <path d="M 41.960534 21.692885 
L 42.76873 21.692885 
L 42.76873 3.00024 
L 41.960534 3.00024 
L 41.960534 21.692885 
" clip-path="url(#p2807122ca6)" style="fill: #206fb4"/>
    <path d="M 42.76873 21.692885 
L 43.576925 21.692885 
L 43.576925 3.00024 
L 42.76873 3.00024 
L 42.76873 21.692885 
" clip-path="url(#p2807122ca6)" style="fill: #2070b4"/>
    <path d="M 43.576925 21.692885 
L 44.38512 21.692885 
L 44.38512 3.00024 
L 43.576925 3.00024 
L 43.576925 21.692885 
" clip-path="url(#p2807122ca6)" style="fill: #4594c7"/>
    <path d="M 44.38512 21.692885 
L 45.193315 21.692885 
L 45.193315 3.00024 
L 44.38512 3.00024 
L 44.38512 21.692885 
" clip-path="url(#p2807122ca6)" style="fill: #d8e7f5"/>
    <path d="M 45.193315 21.692885 
L 46.00151 21.692885 
L 46.00151 3.00024 
L 45.193315 3.00024 
L 45.193315 21.692885 
" clip-path="url(#p2807122ca6)" style="fill: #d9e8f5"/>
    <path d="M 46.00151 21.692885 
L 46.809706 21.692885 
L 46.809706 3.00024 
L 46.00151 3.00024 
L 46.00151 21.692885 
" clip-path="url(#p2807122ca6)" style="fill: #4b98ca"/>
    <path d="M 46.809706 21.692885 
L 47.617901 21.692885 
L 47.617901 3.00024 
L 46.809706 3.00024 
L 46.809706 21.692885 
" clip-path="url(#p2807122ca6)" style="fill: #2272b6"/>
    <path d="M 47.617901 21.692885 
L 48.426096 21.692885 
L 48.426096 3.00024 
L 47.617901 3.00024 
L 47.617901 21.692885 
" clip-path="url(#p2807122ca6)" style="fill: #206fb4"/>
    <path d="M 48.426096 21.692885 
L 49.234291 21.692885 
L 49.234291 3.00024 
L 48.426096 3.00024 
L 48.426096 21.692885 
" clip-path="url(#p2807122ca6)" style="fill: #2070b4"/>
    <path d="M 49.234291 21.692885 
L 50.042486 21.692885 
L 50.042486 3.00024 
L 49.234291 3.00024 
L 49.234291 21.692885 
" clip-path="url(#p2807122ca6)" style="fill: #4493c7"/>
    <path d="M 50.042486 21.692885 
L 50.850682 21.692885 
L 50.850682 3.00024 
L 50.042486 3.00024 
L 50.042486 21.692885 
" clip-path="url(#p2807122ca6)" style="fill: #d7e6f5"/>
    <path d="M 50.850682 21.692885 
L 51.658877 21.692885 
L 51.658877 3.00024 
L 50.850682 3.00024 
L 50.850682 21.692885 
" clip-path="url(#p2807122ca6)" style="fill: #dbe9f6"/>
    <path d="M 51.658877 21.692885 
L 52.467072 21.692885 
L 52.467072 3.00024 
L 51.658877 3.00024 
L 51.658877 21.692885 
" clip-path="url(#p2807122ca6)" style="fill: #539ecd"/>
    <path d="M 52.467072 21.692885 
L 53.275267 21.692885 
L 53.275267 3.00024 
L 52.467072 3.00024 
L 52.467072 21.692885 
" clip-path="url(#p2807122ca6)" style="fill: #2e7ebc"/>
    <path d="M 53.275267 21.692885 
L 54.083462 21.692885 
L 54.083462 3.00024 
L 53.275267 3.00024 
L 53.275267 21.692885 
" clip-path="url(#p2807122ca6)" style="fill: #3585bf"/>
    <path d="M 54.083462 21.692885 
L 54.891658 21.692885 
L 54.891658 3.00024 
L 54.083462 3.00024 
L 54.083462 21.692885 
" clip-path="url(#p2807122ca6)" style="fill: #3585bf"/>
    <path d="M 54.891658 21.692885 
L 55.699853 21.692885 
L 55.699853 3.00024 
L 54.891658 3.00024 
L 54.891658 21.692885 
" clip-path="url(#p2807122ca6)" style="fill: #2e7ebc"/>
    <path d="M 55.699853 21.692885 
L 56.508048 21.692885 
L 56.508048 3.00024 
L 55.699853 3.00024 
L 55.699853 21.692885 
" clip-path="url(#p2807122ca6)" style="fill: #529dcc"/>
    <path d="M 56.508048 21.692885 
L 57.316243 21.692885 
L 57.316243 3.00024 
L 56.508048 3.00024 
L 56.508048 21.692885 
" clip-path="url(#p2807122ca6)" style="fill: #dbe9f6"/>
    <path d="M 57.316243 21.692885 
L 58.124438 21.692885 
L 58.124438 3.00024 
L 57.316243 3.00024 
L 57.316243 21.692885 
" clip-path="url(#p2807122ca6)" style="fill: #d7e6f5"/>
    <path d="M 58.124438 21.692885 
L 58.932634 21.692885 
L 58.932634 3.00024 
L 58.124438 3.00024 
L 58.124438 21.692885 
" clip-path="url(#p2807122ca6)" style="fill: #4493c7"/>
    <path d="M 58.932634 21.692885 
L 59.740829 21.692885 
L 59.740829 3.00024 
L 58.932634 3.00024 
L 58.932634 21.692885 
" clip-path="url(#p2807122ca6)" style="fill: #2070b4"/>
    <path d="M 59.740829 21.692885 
L 60.549024 21.692885 
L 60.549024 3.00024 
L 59.740829 3.00024 
L 59.740829 21.692885 
" clip-path="url(#p2807122ca6)" style="fill: #206fb4"/>
    <path d="M 60.549024 21.692885 
L 61.357219 21.692885 
L 61.357219 3.00024 
L 60.549024 3.00024 
L 60.549024 21.692885 
" clip-path="url(#p2807122ca6)" style="fill: #2272b6"/>
    <path d="M 61.357219 21.692885 
L 62.165414 21.692885 
L 62.165414 3.00024 
L 61.357219 3.00024 
L 61.357219 21.692885 
" clip-path="url(#p2807122ca6)" style="fill: #4997c9"/>
    <path d="M 62.165414 21.692885 
L 62.97361 21.692885 
L 62.97361 3.00024 
L 62.165414 3.00024 
L 62.165414 21.692885 
" clip-path="url(#p2807122ca6)" style="fill: #d9e7f5"/>
    <path d="M 62.97361 21.692885 
L 63.781805 21.692885 
L 63.781805 3.00024 
L 62.97361 3.00024 
L 62.97361 21.692885 
" clip-path="url(#p2807122ca6)" style="fill: #d9e7f5"/>
    <path d="M 63.781805 21.692885 
L 64.59 21.692885 
L 64.59 3.00024 
L 63.781805 3.00024 
L 63.781805 21.692885 
" clip-path="url(#p2807122ca6)" style="fill: #4896c8"/>
    <path d="M 64.59 21.692885 
L 65.398195 21.692885 
L 65.398195 3.00024 
L 64.59 3.00024 
L 64.59 21.692885 
" clip-path="url(#p2807122ca6)" style="fill: #2171b5"/>
    <path d="M 65.398195 21.692885 
L 66.20639 21.692885 
L 66.20639 3.00024 
L 65.398195 3.00024 
L 65.398195 21.692885 
" clip-path="url(#p2807122ca6)" style="fill: #206fb4"/>
    <path d="M 66.20639 21.692885 
L 67.014586 21.692885 
L 67.014586 3.00024 
L 66.20639 3.00024 
L 66.20639 21.692885 
" clip-path="url(#p2807122ca6)" style="fill: #2171b5"/>
    <path d="M 67.014586 21.692885 
L 67.822781 21.692885 
L 67.822781 3.00024 
L 67.014586 3.00024 
L 67.014586 21.692885 
" clip-path="url(#p2807122ca6)" style="fill: #4896c8"/>
    <path d="M 67.822781 21.692885 
L 68.630976 21.692885 
L 68.630976 3.00024 
L 67.822781 3.00024 
L 67.822781 21.692885 
" clip-path="url(#p2807122ca6)" style="fill: #d9e7f5"/>
    <path d="M 68.630976 21.692885 
L 69.439171 21.692885 
L 69.439171 3.00024 
L 68.630976 3.00024 
L 68.630976 21.692885 
" clip-path="url(#p2807122ca6)" style="fill: #d9e7f5"/>
    <path d="M 69.439171 21.692885 
L 70.247366 21.692885 
L 70.247366 3.00024 
L 69.439171 3.00024 
L 69.439171 21.692885 
" clip-path="url(#p2807122ca6)" style="fill: #4997c9"/>
    <path d="M 70.247366 21.692885 
L 71.055562 21.692885 
L 71.055562 3.00024 
L 70.247366 3.00024 
L 70.247366 21.692885 
" clip-path="url(#p2807122ca6)" style="fill: #2272b6"/>
    <path d="M 71.055562 21.692885 
L 71.863757 21.692885 
L 71.863757 3.00024 
L 71.055562 3.00024 
L 71.055562 21.692885 
" clip-path="url(#p2807122ca6)" style="fill: #206fb4"/>
    <path d="M 71.863757 21.692885 
L 72.671952 21.692885 
L 72.671952 3.00024 
L 71.863757 3.00024 
L 71.863757 21.692885 
" clip-path="url(#p2807122ca6)" style="fill: #2070b4"/>
    <path d="M 72.671952 21.692885 
L 73.480147 21.692885 
L 73.480147 3.00024 
L 72.671952 3.00024 
L 72.671952 21.692885 
" clip-path="url(#p2807122ca6)" style="fill: #4493c7"/>
    <path d="M 73.480147 21.692885 
L 74.288342 21.692885 
L 74.288342 3.00024 
L 73.480147 3.00024 
L 73.480147 21.692885 
" clip-path="url(#p2807122ca6)" style="fill: #d7e6f5"/>
    <path d="M 74.288342 21.692885 
L 75.096538 21.692885 
L 75.096538 3.00024 
L 74.288342 3.00024 
L 74.288342 21.692885 
" clip-path="url(#p2807122ca6)" style="fill: #dbe9f6"/>
    <path d="M 75.096538 21.692885 
L 75.904733 21.692885 
L 75.904733 3.00024 
L 75.096538 3.00024 
L 75.096538 21.692885 
" clip-path="url(#p2807122ca6)" style="fill: #539ecd"/>
    <path d="M 75.904733 21.692885 
L 76.712928 21.692885 
L 76.712928 3.00024 
L 75.904733 3.00024 
L 75.904733 21.692885 
" clip-path="url(#p2807122ca6)" style="fill: #2f7fbc"/>
    <path d="M 76.712928 21.692885 
L 77.521123 21.692885 
L 77.521123 3.00024 
L 76.712928 3.00024 
L 76.712928 21.692885 
" clip-path="url(#p2807122ca6)" style="fill: #3686c0"/>
    <path d="M 77.521123 21.692885 
L 78.329318 21.692885 
L 78.329318 3.00024 
L 77.521123 3.00024 
L 77.521123 21.692885 
" clip-path="url(#p2807122ca6)" style="fill: #3585bf"/>
    <path d="M 78.329318 21.692885 
L 79.137514 21.692885 
L 79.137514 3.00024 
L 78.329318 3.00024 
L 78.329318 21.692885 
" clip-path="url(#p2807122ca6)" style="fill: #2d7dbb"/>
    <path d="M 79.137514 21.692885 
L 79.945709 21.692885 
L 79.945709 3.00024 
L 79.137514 3.00024 
L 79.137514 21.692885 
" clip-path="url(#p2807122ca6)" style="fill: #4d99ca"/>
    <path d="M 79.945709 21.692885 
L 80.753904 21.692885 
L 80.753904 3.00024 
L 79.945709 3.00024 
L 79.945709 21.692885 
" clip-path="url(#p2807122ca6)" style="fill: #d9e8f5"/>
    <path d="M 80.753904 21.692885 
L 81.562099 21.692885 
L 81.562099 3.00024 
L 80.753904 3.00024 
L 80.753904 21.692885 
" clip-path="url(#p2807122ca6)" style="fill: #d9e8f5"/>
    <path d="M 81.562099 21.692885 
L 82.370294 21.692885 
L 82.370294 3.00024 
L 81.562099 3.00024 
L 81.562099 21.692885 
" clip-path="url(#p2807122ca6)" style="fill: #4d99ca"/>
    <path d="M 82.370294 21.692885 
L 83.17849 21.692885 
L 83.17849 3.00024 
L 82.370294 3.00024 
L 82.370294 21.692885 
" clip-path="url(#p2807122ca6)" style="fill: #2d7dbb"/>
    <path d="M 83.17849 21.692885 
L 83.986685 21.692885 
L 83.986685 3.00024 
L 83.17849 3.00024 
L 83.17849 21.692885 
" clip-path="url(#p2807122ca6)" style="fill: #3686c0"/>
    <path d="M 83.986685 21.692885 
L 84.79488 21.692885 
L 84.79488 3.00024 
L 83.986685 3.00024 
L 83.986685 21.692885 
" clip-path="url(#p2807122ca6)" style="fill: #3686c0"/>
    <path d="M 84.79488 21.692885 
L 85.603075 21.692885 
L 85.603075 3.00024 
L 84.79488 3.00024 
L 84.79488 21.692885 
" clip-path="url(#p2807122ca6)" style="fill: #2d7dbb"/>
    <path d="M 85.603075 21.692885 
L 86.41127 21.692885 
L 86.41127 3.00024 
L 85.603075 3.00024 
L 85.603075 21.692885 
" clip-path="url(#p2807122ca6)" style="fill: #4d99ca"/>
    <path d="M 86.41127 21.692885 
L 87.219466 21.692885 
L 87.219466 3.00024 
L 86.41127 3.00024 
L 86.41127 21.692885 
" clip-path="url(#p2807122ca6)" style="fill: #d9e8f5"/>
    <path d="M 87.219466 21.692885 
L 88.027661 21.692885 
L 88.027661 3.00024 
L 87.219466 3.00024 
L 87.219466 21.692885 
" clip-path="url(#p2807122ca6)" style="fill: #d9e8f5"/>
    <path d="M 88.027661 21.692885 
L 88.835856 21.692885 
L 88.835856 3.00024 
L 88.027661 3.00024 
L 88.027661 21.692885 
" clip-path="url(#p2807122ca6)" style="fill: #4d99ca"/>
    <path d="M 88.835856 21.692885 
L 89.644051 21.692885 
L 89.644051 3.00024 
L 88.835856 3.00024 
L 88.835856 21.692885 
" clip-path="url(#p2807122ca6)" style="fill: #2d7dbb"/>
    <path d="M 89.644051 21.692885 
L 90.452246 21.692885 
L 90.452246 3.00024 
L 89.644051 3.00024 
L 89.644051 21.692885 
" clip-path="url(#p2807122ca6)" style="fill: #3585bf"/>
    <path d="M 90.452246 21.692885 
L 91.260442 21.692885 
L 91.260442 3.00024 
L 90.452246 3.00024 
L 90.452246 21.692885 
" clip-path="url(#p2807122ca6)" style="fill: #3686c0"/>
    <path d="M 91.260442 21.692885 
L 92.068637 21.692885 
L 92.068637 3.00024 
L 91.260442 3.00024 
L 91.260442 21.692885 
" clip-path="url(#p2807122ca6)" style="fill: #2f7fbc"/>
    <path d="M 92.068637 21.692885 
L 92.876832 21.692885 
L 92.876832 3.00024 
L 92.068637 3.00024 
L 92.068637 21.692885 
" clip-path="url(#p2807122ca6)" style="fill: #539ecd"/>
    <path d="M 92.876832 21.692885 
L 93.685027 21.692885 
L 93.685027 3.00024 
L 92.876832 3.00024 
L 92.876832 21.692885 
" clip-path="url(#p2807122ca6)" style="fill: #dbe9f6"/>
    <path d="M 93.685027 21.692885 
L 94.493222 21.692885 
L 94.493222 3.00024 
L 93.685027 3.00024 
L 93.685027 21.692885 
" clip-path="url(#p2807122ca6)" style="fill: #d7e6f5"/>
    <path d="M 94.493222 21.692885 
L 95.301418 21.692885 
L 95.301418 3.00024 
L 94.493222 3.00024 
L 94.493222 21.692885 
" clip-path="url(#p2807122ca6)" style="fill: #4493c7"/>
    <path d="M 95.301418 21.692885 
L 96.109613 21.692885 
L 96.109613 3.00024 
L 95.301418 3.00024 
L 95.301418 21.692885 
" clip-path="url(#p2807122ca6)" style="fill: #2070b4"/>
    <path d="M 96.109613 21.692885 
L 96.917808 21.692885 
L 96.917808 3.00024 
L 96.109613 3.00024 
L 96.109613 21.692885 
" clip-path="url(#p2807122ca6)" style="fill: #206fb4"/>
    <path d="M 96.917808 21.692885 
L 97.726003 21.692885 
L 97.726003 3.00024 
L 96.917808 3.00024 
L 96.917808 21.692885 
" clip-path="url(#p2807122ca6)" style="fill: #2272b6"/>
    <path d="M 97.726003 21.692885 
L 98.534198 21.692885 
L 98.534198 3.00024 
L 97.726003 3.00024 
L 97.726003 21.692885 
" clip-path="url(#p2807122ca6)" style="fill: #4997c9"/>
    <path d="M 98.534198 21.692885 
L 99.342394 21.692885 
L 99.342394 3.00024 
L 98.534198 3.00024 
L 98.534198 21.692885 
" clip-path="url(#p2807122ca6)" style="fill: #d9e7f5"/>
    <path d="M 99.342394 21.692885 
L 100.150589 21.692885 
L 100.150589 3.00024 
L 99.342394 3.00024 
L 99.342394 21.692885 
" clip-path="url(#p2807122ca6)" style="fill: #d9e7f5"/>
    <path d="M 100.150589 21.692885 
L 100.958784 21.692885 
L 100.958784 3.00024 
L 100.150589 3.00024 
L 100.150589 21.692885 
" clip-path="url(#p2807122ca6)" style="fill: #4896c8"/>
    <path d="M 100.958784 21.692885 
L 101.766979 21.692885 
L 101.766979 3.00024 
L 100.958784 3.00024 
L 100.958784 21.692885 
" clip-path="url(#p2807122ca6)" style="fill: #2171b5"/>
    <path d="M 101.766979 21.692885 
L 102.575174 21.692885 
L 102.575174 3.00024 
L 101.766979 3.00024 
L 101.766979 21.692885 
" clip-path="url(#p2807122ca6)" style="fill: #206fb4"/>
    <path d="M 102.575174 21.692885 
L 103.38337 21.692885 
L 103.38337 3.00024 
L 102.575174 3.00024 
L 102.575174 21.692885 
" clip-path="url(#p2807122ca6)" style="fill: #2171b5"/>
    <path d="M 103.38337 21.692885 
L 104.191565 21.692885 
L 104.191565 3.00024 
L 103.38337 3.00024 
L 103.38337 21.692885 
" clip-path="url(#p2807122ca6)" style="fill: #4997c9"/>
    <path d="M 104.191565 21.692885 
L 104.99976 21.692885 
L 104.99976 3.00024 
L 104.191565 3.00024 
L 104.191565 21.692885 
" clip-path="url(#p2807122ca6)" style="fill: #d9e7f5"/>
   </g>
   <g id="matplotlib.axis_1"/>
   <g id="matplotlib.axis_2">
    <g id="text_1">
     <!-- $n_A$ -->
     <g transform="translate(3.00024 15.657812)scale(0.12 -0.12)">
      <defs>
       <path id="DejaVuSans-Oblique-6e" d="M 3566 2113 
L 3156 0 
L 2578 0 
L 2988 2091 
Q 3016 2238 3031 2350 
Q 3047 2463 3047 2528 
Q 3047 2791 2881 2937 
Q 2716 3084 2419 3084 
Q 1956 3084 1622 2776 
Q 1288 2469 1184 1941 
L 800 0 
L 225 0 
L 903 3500 
L 1478 3500 
L 1363 2950 
Q 1603 3253 1940 3418 
Q 2278 3584 2650 3584 
Q 3113 3584 3367 3334 
Q 3622 3084 3622 2631 
Q 3622 2519 3608 2391 
Q 3594 2263 3566 2113 
z
" transform="scale(0.015625)"/>
       <path id="DejaVuSans-Oblique-41" d="M 2356 4666 
L 3072 4666 
L 3938 0 
L 3278 0 
L 3084 1197 
L 984 1197 
L 325 0 
L -341 0 
L 2356 4666 
z
M 2584 4044 
L 1275 1722 
L 2988 1722 
L 2584 4044 
z
" transform="scale(0.015625)"/>
      </defs>
      <use xlink:href="#DejaVuSans-Oblique-6e"/>
      <use xlink:href="#DejaVuSans-Oblique-41" transform="translate(63.378906 -16.40625)scale(0.7)"/>
     </g>
    </g>
   </g>
   <g id="patch_3">
    <path d="M 24.18024 21.692885 
L 24.18024 3.00024 
" style="fill: none; stroke: #000000; stroke-width: 0.8; stroke-linejoin: miter; stroke-linecap: square"/>
   </g>
   <g id="patch_4">
    <path d="M 104.99976 21.692885 
L 104.99976 3.00024 
" style="fill: none; stroke: #000000; stroke-width: 0.8; stroke-linejoin: miter; stroke-linecap: square"/>
   </g>
   <g id="patch_5">
    <path d="M 24.18024 21.692885 
L 104.99976 21.692885 
" style="fill: none; stroke: #000000; stroke-width: 0.8; stroke-linejoin: miter; stroke-linecap: square"/>
   </g>
   <g id="patch_6">
    <path d="M 24.18024 3.00024 
L 104.99976 3.00024 
" style="fill: none; stroke: #000000; stroke-width: 0.8; stroke-linejoin: miter; stroke-linecap: square"/>
   </g>
  </g>
  <g id="axes_2">
   <g id="patch_7">
    <path d="M 24.18024 49.88601 
L 104.99976 49.88601 
L 104.99976 31.193365 
L 24.18024 31.193365 
z
" style="fill: #ffffff"/>
   </g>
   <g id="QuadMesh_2">
    <path d="M 24.18024 49.88601 
L 24.988435 49.88601 
L 24.988435 31.193365 
L 24.18024 31.193365 
L 24.18024 49.88601 
" clip-path="url(#p44aa9ee152)" style="fill: #ef3c2c"/>
    <path d="M 24.988435 49.88601 
L 25.79663 49.88601 
L 25.79663 31.193365 
L 24.988435 31.193365 
L 24.988435 49.88601 
" clip-path="url(#p44aa9ee152)" style="fill: #cc191e"/>
    <path d="M 25.79663 49.88601 
L 26.604826 49.88601 
L 26.604826 31.193365 
L 25.79663 31.193365 
L 25.79663 49.88601 
" clip-path="url(#p44aa9ee152)" style="fill: #b61319"/>
    <path d="M 26.604826 49.88601 
L 27.413021 49.88601 
L 27.413021 31.193365 
L 26.604826 31.193365 
L 26.604826 49.88601 
" clip-path="url(#p44aa9ee152)" style="fill: #b51318"/>
    <path d="M 27.413021 49.88601 
L 28.221216 49.88601 
L 28.221216 31.193365 
L 27.413021 31.193365 
L 27.413021 49.88601 
" clip-path="url(#p44aa9ee152)" style="fill: #cb181d"/>
    <path d="M 28.221216 49.88601 
L 29.029411 49.88601 
L 29.029411 31.193365 
L 28.221216 31.193365 
L 28.221216 49.88601 
" clip-path="url(#p44aa9ee152)" style="fill: #f03d2d"/>
    <path d="M 29.029411 49.88601 
L 29.837606 49.88601 
L 29.837606 31.193365 
L 29.029411 31.193365 
L 29.029411 49.88601 
" clip-path="url(#p44aa9ee152)" style="fill: #f24633"/>
    <path d="M 29.837606 49.88601 
L 30.645802 49.88601 
L 30.645802 31.193365 
L 29.837606 31.193365 
L 29.837606 49.88601 
" clip-path="url(#p44aa9ee152)" style="fill: #d32020"/>
    <path d="M 30.645802 49.88601 
L 31.453997 49.88601 
L 31.453997 31.193365 
L 30.645802 31.193365 
L 30.645802 49.88601 
" clip-path="url(#p44aa9ee152)" style="fill: #b81419"/>
    <path d="M 31.453997 49.88601 
L 32.262192 49.88601 
L 32.262192 31.193365 
L 31.453997 31.193365 
L 31.453997 49.88601 
" clip-path="url(#p44aa9ee152)" style="fill: #af1117"/>
    <path d="M 32.262192 49.88601 
L 33.070387 49.88601 
L 33.070387 31.193365 
L 32.262192 31.193365 
L 32.262192 49.88601 
" clip-path="url(#p44aa9ee152)" style="fill: #b81419"/>
    <path d="M 33.070387 49.88601 
L 33.878582 49.88601 
L 33.878582 31.193365 
L 33.070387 31.193365 
L 33.070387 49.88601 
" clip-path="url(#p44aa9ee152)" style="fill: #d32020"/>
    <path d="M 33.878582 49.88601 
L 34.686778 49.88601 
L 34.686778 31.193365 
L 33.878582 31.193365 
L 33.878582 49.88601 
" clip-path="url(#p44aa9ee152)" style="fill: #f24633"/>
    <path d="M 34.686778 49.88601 
L 35.494973 49.88601 
L 35.494973 31.193365 
L 34.686778 31.193365 
L 34.686778 49.88601 
" clip-path="url(#p44aa9ee152)" style="fill: #f03f2e"/>
    <path d="M 35.494973 49.88601 
L 36.303168 49.88601 
L 36.303168 31.193365 
L 35.494973 31.193365 
L 35.494973 49.88601 
" clip-path="url(#p44aa9ee152)" style="fill: #cb181d"/>
    <path d="M 36.303168 49.88601 
L 37.111363 49.88601 
L 37.111363 31.193365 
L 36.303168 31.193365 
L 36.303168 49.88601 
" clip-path="url(#p44aa9ee152)" style="fill: #b51318"/>
    <path d="M 37.111363 49.88601 
L 37.919558 49.88601 
L 37.919558 31.193365 
L 37.111363 31.193365 
L 37.111363 49.88601 
" clip-path="url(#p44aa9ee152)" style="fill: #b51318"/>
    <path d="M 37.919558 49.88601 
L 38.727754 49.88601 
L 38.727754 31.193365 
L 37.919558 31.193365 
L 37.919558 49.88601 
" clip-path="url(#p44aa9ee152)" style="fill: #cb181d"/>
    <path d="M 38.727754 49.88601 
L 39.535949 49.88601 
L 39.535949 31.193365 
L 38.727754 31.193365 
L 38.727754 49.88601 
" clip-path="url(#p44aa9ee152)" style="fill: #f03f2e"/>
    <path d="M 39.535949 49.88601 
L 40.344144 49.88601 
L 40.344144 31.193365 
L 39.535949 31.193365 
L 39.535949 49.88601 
" clip-path="url(#p44aa9ee152)" style="fill: #f24734"/>
    <path d="M 40.344144 49.88601 
L 41.152339 49.88601 
L 41.152339 31.193365 
L 40.344144 31.193365 
L 40.344144 49.88601 
" clip-path="url(#p44aa9ee152)" style="fill: #d42121"/>
    <path d="M 41.152339 49.88601 
L 41.960534 49.88601 
L 41.960534 31.193365 
L 41.152339 31.193365 
L 41.152339 49.88601 
" clip-path="url(#p44aa9ee152)" style="fill: #b81419"/>
    <path d="M 41.960534 49.88601 
L 42.76873 49.88601 
L 42.76873 31.193365 
L 41.960534 31.193365 
L 41.960534 49.88601 
" clip-path="url(#p44aa9ee152)" style="fill: #ad1117"/>
    <path d="M 42.76873 49.88601 
L 43.576925 49.88601 
L 43.576925 31.193365 
L 42.76873 31.193365 
L 42.76873 49.88601 
" clip-path="url(#p44aa9ee152)" style="fill: #b61319"/>
    <path d="M 43.576925 49.88601 
L 44.38512 49.88601 
L 44.38512 31.193365 
L 43.576925 31.193365 
L 43.576925 49.88601 
" clip-path="url(#p44aa9ee152)" style="fill: #d11e1f"/>
    <path d="M 44.38512 49.88601 
L 45.193315 49.88601 
L 45.193315 31.193365 
L 44.38512 31.193365 
L 44.38512 49.88601 
" clip-path="url(#p44aa9ee152)" style="fill: #f24734"/>
    <path d="M 45.193315 49.88601 
L 46.00151 49.88601 
L 46.00151 31.193365 
L 45.193315 31.193365 
L 45.193315 49.88601 
" clip-path="url(#p44aa9ee152)" style="fill: #f34935"/>
    <path d="M 46.00151 49.88601 
L 46.809706 49.88601 
L 46.809706 31.193365 
L 46.00151 31.193365 
L 46.00151 49.88601 
" clip-path="url(#p44aa9ee152)" style="fill: #d21f20"/>
    <path d="M 46.809706 49.88601 
L 47.617901 49.88601 
L 47.617901 31.193365 
L 46.809706 31.193365 
L 46.809706 49.88601 
" clip-path="url(#p44aa9ee152)" style="fill: #b61319"/>
    <path d="M 47.617901 49.88601 
L 48.426096 49.88601 
L 48.426096 31.193365 
L 47.617901 31.193365 
L 47.617901 49.88601 
" clip-path="url(#p44aa9ee152)" style="fill: #ac1117"/>
    <path d="M 48.426096 49.88601 
L 49.234291 49.88601 
L 49.234291 31.193365 
L 48.426096 31.193365 
L 48.426096 49.88601 
" clip-path="url(#p44aa9ee152)" style="fill: #b61319"/>
    <path d="M 49.234291 49.88601 
L 50.042486 49.88601 
L 50.042486 31.193365 
L 49.234291 31.193365 
L 49.234291 49.88601 
" clip-path="url(#p44aa9ee152)" style="fill: #d11e1f"/>
    <path d="M 50.042486 49.88601 
L 50.850682 49.88601 
L 50.850682 31.193365 
L 50.042486 31.193365 
L 50.042486 49.88601 
" clip-path="url(#p44aa9ee152)" style="fill: #f34935"/>
    <path d="M 50.850682 49.88601 
L 51.658877 49.88601 
L 51.658877 31.193365 
L 50.850682 31.193365 
L 50.850682 49.88601 
" clip-path="url(#p44aa9ee152)" style="fill: #f34c37"/>
    <path d="M 51.658877 49.88601 
L 52.467072 49.88601 
L 52.467072 31.193365 
L 51.658877 31.193365 
L 51.658877 49.88601 
" clip-path="url(#p44aa9ee152)" style="fill: #d72322"/>
    <path d="M 52.467072 49.88601 
L 53.275267 49.88601 
L 53.275267 31.193365 
L 52.467072 31.193365 
L 52.467072 49.88601 
" clip-path="url(#p44aa9ee152)" style="fill: #bb141a"/>
    <path d="M 53.275267 49.88601 
L 54.083462 49.88601 
L 54.083462 31.193365 
L 53.275267 31.193365 
L 53.275267 49.88601 
" clip-path="url(#p44aa9ee152)" style="fill: #af1117"/>
    <path d="M 54.083462 49.88601 
L 54.891658 49.88601 
L 54.891658 31.193365 
L 54.083462 31.193365 
L 54.083462 49.88601 
" clip-path="url(#p44aa9ee152)" style="fill: #af1117"/>
    <path d="M 54.891658 49.88601 
L 55.699853 49.88601 
L 55.699853 31.193365 
L 54.891658 31.193365 
L 54.891658 49.88601 
" clip-path="url(#p44aa9ee152)" style="fill: #bb141a"/>
    <path d="M 55.699853 49.88601 
L 56.508048 49.88601 
L 56.508048 31.193365 
L 55.699853 31.193365 
L 55.699853 49.88601 
" clip-path="url(#p44aa9ee152)" style="fill: #d72322"/>
    <path d="M 56.508048 49.88601 
L 57.316243 49.88601 
L 57.316243 31.193365 
L 56.508048 31.193365 
L 56.508048 49.88601 
" clip-path="url(#p44aa9ee152)" style="fill: #f34c37"/>
    <path d="M 57.316243 49.88601 
L 58.124438 49.88601 
L 58.124438 31.193365 
L 57.316243 31.193365 
L 57.316243 49.88601 
" clip-path="url(#p44aa9ee152)" style="fill: #f34935"/>
    <path d="M 58.124438 49.88601 
L 58.932634 49.88601 
L 58.932634 31.193365 
L 58.124438 31.193365 
L 58.124438 49.88601 
" clip-path="url(#p44aa9ee152)" style="fill: #d11e1f"/>
    <path d="M 58.932634 49.88601 
L 59.740829 49.88601 
L 59.740829 31.193365 
L 58.932634 31.193365 
L 58.932634 49.88601 
" clip-path="url(#p44aa9ee152)" style="fill: #b61319"/>
    <path d="M 59.740829 49.88601 
L 60.549024 49.88601 
L 60.549024 31.193365 
L 59.740829 31.193365 
L 59.740829 49.88601 
" clip-path="url(#p44aa9ee152)" style="fill: #ac1117"/>
    <path d="M 60.549024 49.88601 
L 61.357219 49.88601 
L 61.357219 31.193365 
L 60.549024 31.193365 
L 60.549024 49.88601 
" clip-path="url(#p44aa9ee152)" style="fill: #b61319"/>
    <path d="M 61.357219 49.88601 
L 62.165414 49.88601 
L 62.165414 31.193365 
L 61.357219 31.193365 
L 61.357219 49.88601 
" clip-path="url(#p44aa9ee152)" style="fill: #d21f20"/>
    <path d="M 62.165414 49.88601 
L 62.97361 49.88601 
L 62.97361 31.193365 
L 62.165414 31.193365 
L 62.165414 49.88601 
" clip-path="url(#p44aa9ee152)" style="fill: #f34935"/>
    <path d="M 62.97361 49.88601 
L 63.781805 49.88601 
L 63.781805 31.193365 
L 62.97361 31.193365 
L 62.97361 49.88601 
" clip-path="url(#p44aa9ee152)" style="fill: #f34935"/>
    <path d="M 63.781805 49.88601 
L 64.59 49.88601 
L 64.59 31.193365 
L 63.781805 31.193365 
L 63.781805 49.88601 
" clip-path="url(#p44aa9ee152)" style="fill: #d21f20"/>
    <path d="M 64.59 49.88601 
L 65.398195 49.88601 
L 65.398195 31.193365 
L 64.59 31.193365 
L 64.59 49.88601 
" clip-path="url(#p44aa9ee152)" style="fill: #b61319"/>
    <path d="M 65.398195 49.88601 
L 66.20639 49.88601 
L 66.20639 31.193365 
L 65.398195 31.193365 
L 65.398195 49.88601 
" clip-path="url(#p44aa9ee152)" style="fill: #ac1117"/>
    <path d="M 66.20639 49.88601 
L 67.014586 49.88601 
L 67.014586 31.193365 
L 66.20639 31.193365 
L 66.20639 49.88601 
" clip-path="url(#p44aa9ee152)" style="fill: #b61319"/>
    <path d="M 67.014586 49.88601 
L 67.822781 49.88601 
L 67.822781 31.193365 
L 67.014586 31.193365 
L 67.014586 49.88601 
" clip-path="url(#p44aa9ee152)" style="fill: #d21f20"/>
    <path d="M 67.822781 49.88601 
L 68.630976 49.88601 
L 68.630976 31.193365 
L 67.822781 31.193365 
L 67.822781 49.88601 
" clip-path="url(#p44aa9ee152)" style="fill: #f34935"/>
    <path d="M 68.630976 49.88601 
L 69.439171 49.88601 
L 69.439171 31.193365 
L 68.630976 31.193365 
L 68.630976 49.88601 
" clip-path="url(#p44aa9ee152)" style="fill: #f34935"/>
    <path d="M 69.439171 49.88601 
L 70.247366 49.88601 
L 70.247366 31.193365 
L 69.439171 31.193365 
L 69.439171 49.88601 
" clip-path="url(#p44aa9ee152)" style="fill: #d21f20"/>
    <path d="M 70.247366 49.88601 
L 71.055562 49.88601 
L 71.055562 31.193365 
L 70.247366 31.193365 
L 70.247366 49.88601 
" clip-path="url(#p44aa9ee152)" style="fill: #b61319"/>
    <path d="M 71.055562 49.88601 
L 71.863757 49.88601 
L 71.863757 31.193365 
L 71.055562 31.193365 
L 71.055562 49.88601 
" clip-path="url(#p44aa9ee152)" style="fill: #ac1117"/>
    <path d="M 71.863757 49.88601 
L 72.671952 49.88601 
L 72.671952 31.193365 
L 71.863757 31.193365 
L 71.863757 49.88601 
" clip-path="url(#p44aa9ee152)" style="fill: #b61319"/>
    <path d="M 72.671952 49.88601 
L 73.480147 49.88601 
L 73.480147 31.193365 
L 72.671952 31.193365 
L 72.671952 49.88601 
" clip-path="url(#p44aa9ee152)" style="fill: #d11e1f"/>
    <path d="M 73.480147 49.88601 
L 74.288342 49.88601 
L 74.288342 31.193365 
L 73.480147 31.193365 
L 73.480147 49.88601 
" clip-path="url(#p44aa9ee152)" style="fill: #f34935"/>
    <path d="M 74.288342 49.88601 
L 75.096538 49.88601 
L 75.096538 31.193365 
L 74.288342 31.193365 
L 74.288342 49.88601 
" clip-path="url(#p44aa9ee152)" style="fill: #f34c37"/>
    <path d="M 75.096538 49.88601 
L 75.904733 49.88601 
L 75.904733 31.193365 
L 75.096538 31.193365 
L 75.096538 49.88601 
" clip-path="url(#p44aa9ee152)" style="fill: #d72322"/>
    <path d="M 75.904733 49.88601 
L 76.712928 49.88601 
L 76.712928 31.193365 
L 75.904733 31.193365 
L 75.904733 49.88601 
" clip-path="url(#p44aa9ee152)" style="fill: #bb141a"/>
    <path d="M 76.712928 49.88601 
L 77.521123 49.88601 
L 77.521123 31.193365 
L 76.712928 31.193365 
L 76.712928 49.88601 
" clip-path="url(#p44aa9ee152)" style="fill: #af1117"/>
    <path d="M 77.521123 49.88601 
L 78.329318 49.88601 
L 78.329318 31.193365 
L 77.521123 31.193365 
L 77.521123 49.88601 
" clip-path="url(#p44aa9ee152)" style="fill: #ad1117"/>
    <path d="M 78.329318 49.88601 
L 79.137514 49.88601 
L 79.137514 31.193365 
L 78.329318 31.193365 
L 78.329318 49.88601 
" clip-path="url(#p44aa9ee152)" style="fill: #b91419"/>
    <path d="M 79.137514 49.88601 
L 79.945709 49.88601 
L 79.945709 31.193365 
L 79.137514 31.193365 
L 79.137514 49.88601 
" clip-path="url(#p44aa9ee152)" style="fill: #d52221"/>
    <path d="M 79.945709 49.88601 
L 80.753904 49.88601 
L 80.753904 31.193365 
L 79.945709 31.193365 
L 79.945709 49.88601 
" clip-path="url(#p44aa9ee152)" style="fill: #f34c37"/>
    <path d="M 80.753904 49.88601 
L 81.562099 49.88601 
L 81.562099 31.193365 
L 80.753904 31.193365 
L 80.753904 49.88601 
" clip-path="url(#p44aa9ee152)" style="fill: #f34c37"/>
    <path d="M 81.562099 49.88601 
L 82.370294 49.88601 
L 82.370294 31.193365 
L 81.562099 31.193365 
L 81.562099 49.88601 
" clip-path="url(#p44aa9ee152)" style="fill: #d52221"/>
    <path d="M 82.370294 49.88601 
L 83.17849 49.88601 
L 83.17849 31.193365 
L 82.370294 31.193365 
L 82.370294 49.88601 
" clip-path="url(#p44aa9ee152)" style="fill: #b91419"/>
    <path d="M 83.17849 49.88601 
L 83.986685 49.88601 
L 83.986685 31.193365 
L 83.17849 31.193365 
L 83.17849 49.88601 
" clip-path="url(#p44aa9ee152)" style="fill: #af1117"/>
    <path d="M 83.986685 49.88601 
L 84.79488 49.88601 
L 84.79488 31.193365 
L 83.986685 31.193365 
L 83.986685 49.88601 
" clip-path="url(#p44aa9ee152)" style="fill: #af1117"/>
    <path d="M 84.79488 49.88601 
L 85.603075 49.88601 
L 85.603075 31.193365 
L 84.79488 31.193365 
L 84.79488 49.88601 
" clip-path="url(#p44aa9ee152)" style="fill: #b91419"/>
    <path d="M 85.603075 49.88601 
L 86.41127 49.88601 
L 86.41127 31.193365 
L 85.603075 31.193365 
L 85.603075 49.88601 
" clip-path="url(#p44aa9ee152)" style="fill: #d52221"/>
    <path d="M 86.41127 49.88601 
L 87.219466 49.88601 
L 87.219466 31.193365 
L 86.41127 31.193365 
L 86.41127 49.88601 
" clip-path="url(#p44aa9ee152)" style="fill: #f34c37"/>
    <path d="M 87.219466 49.88601 
L 88.027661 49.88601 
L 88.027661 31.193365 
L 87.219466 31.193365 
L 87.219466 49.88601 
" clip-path="url(#p44aa9ee152)" style="fill: #f34c37"/>
    <path d="M 88.027661 49.88601 
L 88.835856 49.88601 
L 88.835856 31.193365 
L 88.027661 31.193365 
L 88.027661 49.88601 
" clip-path="url(#p44aa9ee152)" style="fill: #d52221"/>
    <path d="M 88.835856 49.88601 
L 89.644051 49.88601 
L 89.644051 31.193365 
L 88.835856 31.193365 
L 88.835856 49.88601 
" clip-path="url(#p44aa9ee152)" style="fill: #b91419"/>
    <path d="M 89.644051 49.88601 
L 90.452246 49.88601 
L 90.452246 31.193365 
L 89.644051 31.193365 
L 89.644051 49.88601 
" clip-path="url(#p44aa9ee152)" style="fill: #ad1117"/>
    <path d="M 90.452246 49.88601 
L 91.260442 49.88601 
L 91.260442 31.193365 
L 90.452246 31.193365 
L 90.452246 49.88601 
" clip-path="url(#p44aa9ee152)" style="fill: #af1117"/>
    <path d="M 91.260442 49.88601 
L 92.068637 49.88601 
L 92.068637 31.193365 
L 91.260442 31.193365 
L 91.260442 49.88601 
" clip-path="url(#p44aa9ee152)" style="fill: #bb141a"/>
    <path d="M 92.068637 49.88601 
L 92.876832 49.88601 
L 92.876832 31.193365 
L 92.068637 31.193365 
L 92.068637 49.88601 
" clip-path="url(#p44aa9ee152)" style="fill: #d72322"/>
    <path d="M 92.876832 49.88601 
L 93.685027 49.88601 
L 93.685027 31.193365 
L 92.876832 31.193365 
L 92.876832 49.88601 
" clip-path="url(#p44aa9ee152)" style="fill: #f34c37"/>
    <path d="M 93.685027 49.88601 
L 94.493222 49.88601 
L 94.493222 31.193365 
L 93.685027 31.193365 
L 93.685027 49.88601 
" clip-path="url(#p44aa9ee152)" style="fill: #f34935"/>
    <path d="M 94.493222 49.88601 
L 95.301418 49.88601 
L 95.301418 31.193365 
L 94.493222 31.193365 
L 94.493222 49.88601 
" clip-path="url(#p44aa9ee152)" style="fill: #d11e1f"/>
    <path d="M 95.301418 49.88601 
L 96.109613 49.88601 
L 96.109613 31.193365 
L 95.301418 31.193365 
L 95.301418 49.88601 
" clip-path="url(#p44aa9ee152)" style="fill: #b61319"/>
    <path d="M 96.109613 49.88601 
L 96.917808 49.88601 
L 96.917808 31.193365 
L 96.109613 31.193365 
L 96.109613 49.88601 
" clip-path="url(#p44aa9ee152)" style="fill: #ac1117"/>
    <path d="M 96.917808 49.88601 
L 97.726003 49.88601 
L 97.726003 31.193365 
L 96.917808 31.193365 
L 96.917808 49.88601 
" clip-path="url(#p44aa9ee152)" style="fill: #b61319"/>
    <path d="M 97.726003 49.88601 
L 98.534198 49.88601 
L 98.534198 31.193365 
L 97.726003 31.193365 
L 97.726003 49.88601 
" clip-path="url(#p44aa9ee152)" style="fill: #d21f20"/>
    <path d="M 98.534198 49.88601 
L 99.342394 49.88601 
L 99.342394 31.193365 
L 98.534198 31.193365 
L 98.534198 49.88601 
" clip-path="url(#p44aa9ee152)" style="fill: #f34935"/>
    <path d="M 99.342394 49.88601 
L 100.150589 49.88601 
L 100.150589 31.193365 
L 99.342394 31.193365 
L 99.342394 49.88601 
" clip-path="url(#p44aa9ee152)" style="fill: #f34935"/>
    <path d="M 100.150589 49.88601 
L 100.958784 49.88601 
L 100.958784 31.193365 
L 100.150589 31.193365 
L 100.150589 49.88601 
" clip-path="url(#p44aa9ee152)" style="fill: #d21f20"/>
    <path d="M 100.958784 49.88601 
L 101.766979 49.88601 
L 101.766979 31.193365 
L 100.958784 31.193365 
L 100.958784 49.88601 
" clip-path="url(#p44aa9ee152)" style="fill: #b61319"/>
    <path d="M 101.766979 49.88601 
L 102.575174 49.88601 
L 102.575174 31.193365 
L 101.766979 31.193365 
L 101.766979 49.88601 
" clip-path="url(#p44aa9ee152)" style="fill: #ac1117"/>
    <path d="M 102.575174 49.88601 
L 103.38337 49.88601 
L 103.38337 31.193365 
L 102.575174 31.193365 
L 102.575174 49.88601 
" clip-path="url(#p44aa9ee152)" style="fill: #b61319"/>
    <path d="M 103.38337 49.88601 
L 104.191565 49.88601 
L 104.191565 31.193365 
L 103.38337 31.193365 
L 103.38337 49.88601 
" clip-path="url(#p44aa9ee152)" style="fill: #d21f20"/>
    <path d="M 104.191565 49.88601 
L 104.99976 49.88601 
L 104.99976 31.193365 
L 104.191565 31.193365 
L 104.191565 49.88601 
" clip-path="url(#p44aa9ee152)" style="fill: #f34935"/>
   </g>
   <g id="matplotlib.axis_3">
    <g id="text_2">
     <!-- space $x$ -->
     <g transform="translate(41.49 66.47976)scale(0.12 -0.12)">
      <defs>
       <path id="DejaVuSans-73" d="M 2834 3397 
L 2834 2853 
Q 2591 2978 2328 3040 
Q 2066 3103 1784 3103 
Q 1356 3103 1142 2972 
Q 928 2841 928 2578 
Q 928 2378 1081 2264 
Q 1234 2150 1697 2047 
L 1894 2003 
Q 2506 1872 2764 1633 
Q 3022 1394 3022 966 
Q 3022 478 2636 193 
Q 2250 -91 1575 -91 
Q 1294 -91 989 -36 
Q 684 19 347 128 
L 347 722 
Q 666 556 975 473 
Q 1284 391 1588 391 
Q 1994 391 2212 530 
Q 2431 669 2431 922 
Q 2431 1156 2273 1281 
Q 2116 1406 1581 1522 
L 1381 1569 
Q 847 1681 609 1914 
Q 372 2147 372 2553 
Q 372 3047 722 3315 
Q 1072 3584 1716 3584 
Q 2034 3584 2315 3537 
Q 2597 3491 2834 3397 
z
" transform="scale(0.015625)"/>
       <path id="DejaVuSans-70" d="M 1159 525 
L 1159 -1331 
L 581 -1331 
L 581 3500 
L 1159 3500 
L 1159 2969 
Q 1341 3281 1617 3432 
Q 1894 3584 2278 3584 
Q 2916 3584 3314 3078 
Q 3713 2572 3713 1747 
Q 3713 922 3314 415 
Q 2916 -91 2278 -91 
Q 1894 -91 1617 61 
Q 1341 213 1159 525 
z
M 3116 1747 
Q 3116 2381 2855 2742 
Q 2594 3103 2138 3103 
Q 1681 3103 1420 2742 
Q 1159 2381 1159 1747 
Q 1159 1113 1420 752 
Q 1681 391 2138 391 
Q 2594 391 2855 752 
Q 3116 1113 3116 1747 
z
" transform="scale(0.015625)"/>
       <path id="DejaVuSans-61" d="M 2194 1759 
Q 1497 1759 1228 1600 
Q 959 1441 959 1056 
Q 959 750 1161 570 
Q 1363 391 1709 391 
Q 2188 391 2477 730 
Q 2766 1069 2766 1631 
L 2766 1759 
L 2194 1759 
z
M 3341 1997 
L 3341 0 
L 2766 0 
L 2766 531 
Q 2569 213 2275 61 
Q 1981 -91 1556 -91 
Q 1019 -91 701 211 
Q 384 513 384 1019 
Q 384 1609 779 1909 
Q 1175 2209 1959 2209 
L 2766 2209 
L 2766 2266 
Q 2766 2663 2505 2880 
Q 2244 3097 1772 3097 
Q 1472 3097 1187 3025 
Q 903 2953 641 2809 
L 641 3341 
Q 956 3463 1253 3523 
Q 1550 3584 1831 3584 
Q 2591 3584 2966 3190 
Q 3341 2797 3341 1997 
z
" transform="scale(0.015625)"/>
       <path id="DejaVuSans-63" d="M 3122 3366 
L 3122 2828 
Q 2878 2963 2633 3030 
Q 2388 3097 2138 3097 
Q 1578 3097 1268 2742 
Q 959 2388 959 1747 
Q 959 1106 1268 751 
Q 1578 397 2138 397 
Q 2388 397 2633 464 
Q 2878 531 3122 666 
L 3122 134 
Q 2881 22 2623 -34 
Q 2366 -91 2075 -91 
Q 1284 -91 818 406 
Q 353 903 353 1747 
Q 353 2603 823 3093 
Q 1294 3584 2113 3584 
Q 2378 3584 2631 3529 
Q 2884 3475 3122 3366 
z
" transform="scale(0.015625)"/>
       <path id="DejaVuSans-65" d="M 3597 1894 
L 3597 1613 
L 953 1613 
Q 991 1019 1311 708 
Q 1631 397 2203 397 
Q 2534 397 2845 478 
Q 3156 559 3463 722 
L 3463 178 
Q 3153 47 2828 -22 
Q 2503 -91 2169 -91 
Q 1331 -91 842 396 
Q 353 884 353 1716 
Q 353 2575 817 3079 
Q 1281 3584 2069 3584 
Q 2775 3584 3186 3129 
Q 3597 2675 3597 1894 
z
M 3022 2063 
Q 3016 2534 2758 2815 
Q 2500 3097 2075 3097 
Q 1594 3097 1305 2825 
Q 1016 2553 972 2059 
L 3022 2063 
z
" transform="scale(0.015625)"/>
       <path id="DejaVuSans-20" transform="scale(0.015625)"/>
       <path id="DejaVuSans-Oblique-78" d="M 3841 3500 
L 2234 1784 
L 3219 0 
L 2559 0 
L 1819 1388 
L 531 0 
L -166 0 
L 1556 1844 
L 641 3500 
L 1300 3500 
L 1972 2234 
L 3144 3500 
L 3841 3500 
z
" transform="scale(0.015625)"/>
      </defs>
      <use xlink:href="#DejaVuSans-73"/>
      <use xlink:href="#DejaVuSans-70" transform="translate(52.099609 0)"/>
      <use xlink:href="#DejaVuSans-61" transform="translate(115.576172 0)"/>
      <use xlink:href="#DejaVuSans-63" transform="translate(176.855469 0)"/>
      <use xlink:href="#DejaVuSans-65" transform="translate(231.835938 0)"/>
      <use xlink:href="#DejaVuSans-20" transform="translate(293.359375 0)"/>
      <use xlink:href="#DejaVuSans-Oblique-78" transform="translate(325.146484 0)"/>
     </g>
    </g>
   </g>
   <g id="matplotlib.axis_4">
    <g id="text_3">
     <!-- $n_I$ -->
     <g transform="translate(6.24024 43.850937)scale(0.12 -0.12)">
      <defs>
       <path id="DejaVuSans-Oblique-49" d="M 1081 4666 
L 1716 4666 
L 806 0 
L 172 0 
L 1081 4666 
z
" transform="scale(0.015625)"/>
      </defs>
      <use xlink:href="#DejaVuSans-Oblique-6e"/>
      <use xlink:href="#DejaVuSans-Oblique-49" transform="translate(63.378906 -16.40625)scale(0.7)"/>
     </g>
    </g>
   </g>
   <g id="patch_8">
    <path d="M 24.18024 49.88601 
L 24.18024 31.193365 
" style="fill: none; stroke: #000000; stroke-width: 0.8; stroke-linejoin: miter; stroke-linecap: square"/>
   </g>
   <g id="patch_9">
    <path d="M 104.99976 49.88601 
L 104.99976 31.193365 
" style="fill: none; stroke: #000000; stroke-width: 0.8; stroke-linejoin: miter; stroke-linecap: square"/>
   </g>
   <g id="patch_10">
    <path d="M 24.18024 49.88601 
L 104.99976 49.88601 
" style="fill: none; stroke: #000000; stroke-width: 0.8; stroke-linejoin: miter; stroke-linecap: square"/>
   </g>
   <g id="patch_11">
    <path d="M 24.18024 31.193365 
L 104.99976 31.193365 
" style="fill: none; stroke: #000000; stroke-width: 0.8; stroke-linejoin: miter; stroke-linecap: square"/>
   </g>
  </g>
 </g>
 <defs>
  <clipPath id="p2807122ca6">
   <rect x="24.18024" y="3.00024" width="80.81952" height="18.692645"/>
  </clipPath>
  <clipPath id="p44aa9ee152">
   <rect x="24.18024" y="31.193365" width="80.81952" height="18.692645"/>
  </clipPath>
 </defs>
</svg>
