<?xml version="1.0" encoding="utf-8" standalone="no"?>
<!DOCTYPE svg PUBLIC "-//W3C//DTD SVG 1.1//EN"
  "http://www.w3.org/Graphics/SVG/1.1/DTD/svg11.dtd">
<svg xmlns:xlink="http://www.w3.org/1999/xlink" width="259.2pt" height="237.6pt" viewBox="0 0 259.2 237.6" xmlns="http://www.w3.org/2000/svg" version="1.1">
 <metadata>
  <rdf:RDF xmlns:dc="http://purl.org/dc/elements/1.1/" xmlns:cc="http://creativecommons.org/ns#" xmlns:rdf="http://www.w3.org/1999/02/22-rdf-syntax-ns#">
   <cc:Work>
    <dc:type rdf:resource="http://purl.org/dc/dcmitype/StillImage"/>
    <dc:date>2024-03-19T14:14:17.009626</dc:date>
    <dc:format>image/svg+xml</dc:format>
    <dc:creator>
     <cc:Agent>
      <dc:title>Matplotlib v3.8.3, https://matplotlib.org/</dc:title>
     </cc:Agent>
    </dc:creator>
   </cc:Work>
  </rdf:RDF>
 </metadata>
 <defs>
  <style type="text/css">*{stroke-linejoin: round; stroke-linecap: butt}</style>
 </defs>
 <g id="figure_1">
  <g id="patch_1">
   <path d="M 0 237.6 
L 259.2 237.6 
L 259.2 0 
L 0 0 
z
" style="fill: #ffffff"/>
  </g>
  <g id="axes_1">
   <g id="patch_2">
    <path d="M 18.64024 218.95976 
L 256.19976 218.95976 
L 256.19976 3.00024 
L 18.64024 3.00024 
z
" style="fill: #ffffff"/>
   </g>
   <g id="PolyCollection_1">
    <path d="M 18.64024 218.95976 
L 18.64024 218.95976 
L 23.439422 192.350606 
L 28.238604 165.741452 
L 33.037787 139.132298 
L 37.836969 112.523145 
L 42.636151 85.913991 
L 47.435333 59.304837 
L 52.234516 32.695683 
L 57.033698 6.086529 
L 61.83288 -20.522625 
L 66.632062 -47.131778 
L 71.431244 -73.740932 
L 76.230427 -100.350086 
L 81.029609 -126.95924 
L 85.828791 -153.568394 
L 90.627973 -180.177548 
L 95.427156 -206.786701 
L 100.226338 -233.395855 
L 105.02552 -260.005009 
L 109.824702 -286.614163 
L 114.623884 -313.223317 
L 119.423067 -339.832471 
L 124.222249 -366.441624 
L 129.021431 -393.050778 
L 133.820613 -419.659932 
L 138.619796 -446.269086 
L 143.418978 -472.87824 
L 148.21816 -499.487394 
L 153.017342 -526.096547 
L 157.816524 -552.705701 
L 162.615707 -579.314855 
L 167.414889 -605.924009 
L 172.214071 -632.533163 
L 177.013253 -659.142317 
L 181.812436 -685.75147 
L 186.611618 -712.360624 
L 191.4108 -738.969778 
L 196.209982 -765.578932 
L 201.009164 -792.188086 
L 205.808347 -818.79724 
L 210.607529 -845.406393 
L 215.406711 -872.015547 
L 220.205893 -898.624701 
L 225.005076 -925.233855 
L 229.804258 -951.843009 
L 234.60344 -978.452163 
L 239.402622 -1005.061316 
L 244.201804 -1031.67047 
L 249.000987 -1058.279624 
L 253.800169 -1084.888778 
L 258.599351 -1111.497932 
L 263.398533 -1138.107086 
L 268.197716 -1164.716239 
L 272.996898 -1191.325393 
L 277.79608 -1217.934547 
L 282.595262 -1244.543701 
L 287.394444 -1271.152855 
L 292.193627 -1297.762009 
L 296.992809 -1324.371162 
L 301.791991 -1350.980316 
L 306.591173 -1377.58947 
L 311.390356 -1404.198624 
L 316.189538 -1430.807778 
L 320.98872 -1457.416932 
L 325.787902 -1484.026085 
L 330.587084 -1510.635239 
L 335.386267 -1537.244393 
L 340.185449 -1563.853547 
L 344.984631 -1590.462701 
L 349.783813 -1617.071855 
L 354.582996 -1643.681008 
L 359.382178 -1670.290162 
L 364.18136 -1696.899316 
L 368.980542 -1723.50847 
L 373.779724 -1750.117624 
L 378.578907 -1776.726778 
L 383.378089 -1803.335931 
L 388.177271 -1829.945085 
L 392.976453 -1856.554239 
L 397.775636 -1883.163393 
L 402.574818 -1909.772547 
L 407.374 -1936.381701 
L 412.173182 -1962.990854 
L 416.972364 -1989.600008 
L 421.771547 -2016.209162 
L 426.570729 -2042.818316 
L 431.369911 -2069.42747 
L 436.169093 -2096.036624 
L 440.968276 -2122.645777 
L 445.767458 -2149.254931 
L 450.56664 -2175.864085 
L 455.365822 -2202.473239 
L 460.165004 -2229.082393 
L 464.964187 -2255.691547 
L 469.763369 -2282.3007 
L 474.562551 -2308.909854 
L 479.361733 -2335.519008 
L 484.160916 -2362.128162 
L 488.960098 -2388.737316 
L 493.75928 -2415.34647 
L 493.75928 218.95976 
L 493.75928 218.95976 
L 488.960098 218.95976 
L 484.160916 218.95976 
L 479.361733 218.95976 
L 474.562551 218.95976 
L 469.763369 218.95976 
L 464.964187 218.95976 
L 460.165004 218.95976 
L 455.365822 218.95976 
L 450.56664 218.95976 
L 445.767458 218.95976 
L 440.968276 218.95976 
L 436.169093 218.95976 
L 431.369911 218.95976 
L 426.570729 218.95976 
L 421.771547 218.95976 
L 416.972364 218.95976 
L 412.173182 218.95976 
L 407.374 218.95976 
L 402.574818 218.95976 
L 397.775636 218.95976 
L 392.976453 218.95976 
L 388.177271 218.95976 
L 383.378089 218.95976 
L 378.578907 218.95976 
L 373.779724 218.95976 
L 368.980542 218.95976 
L 364.18136 218.95976 
L 359.382178 218.95976 
L 354.582996 218.95976 
L 349.783813 218.95976 
L 344.984631 218.95976 
L 340.185449 218.95976 
L 335.386267 218.95976 
L 330.587084 218.95976 
L 325.787902 218.95976 
L 320.98872 218.95976 
L 316.189538 218.95976 
L 311.390356 218.95976 
L 306.591173 218.95976 
L 301.791991 218.95976 
L 296.992809 218.95976 
L 292.193627 218.95976 
L 287.394444 218.95976 
L 282.595262 218.95976 
L 277.79608 218.95976 
L 272.996898 218.95976 
L 268.197716 218.95976 
L 263.398533 218.95976 
L 258.599351 218.95976 
L 253.800169 218.95976 
L 249.000987 218.95976 
L 244.201804 218.95976 
L 239.402622 218.95976 
L 234.60344 218.95976 
L 229.804258 218.95976 
L 225.005076 218.95976 
L 220.205893 218.95976 
L 215.406711 218.95976 
L 210.607529 218.95976 
L 205.808347 218.95976 
L 201.009164 218.95976 
L 196.209982 218.95976 
L 191.4108 218.95976 
L 186.611618 218.95976 
L 181.812436 218.95976 
L 177.013253 218.95976 
L 172.214071 218.95976 
L 167.414889 218.95976 
L 162.615707 218.95976 
L 157.816524 218.95976 
L 153.017342 218.95976 
L 148.21816 218.95976 
L 143.418978 218.95976 
L 138.619796 218.95976 
L 133.820613 218.95976 
L 129.021431 218.95976 
L 124.222249 218.95976 
L 119.423067 218.95976 
L 114.623884 218.95976 
L 109.824702 218.95976 
L 105.02552 218.95976 
L 100.226338 218.95976 
L 95.427156 218.95976 
L 90.627973 218.95976 
L 85.828791 218.95976 
L 81.029609 218.95976 
L 76.230427 218.95976 
L 71.431244 218.95976 
L 66.632062 218.95976 
L 61.83288 218.95976 
L 57.033698 218.95976 
L 52.234516 218.95976 
L 47.435333 218.95976 
L 42.636151 218.95976 
L 37.836969 218.95976 
L 33.037787 218.95976 
L 28.238604 218.95976 
L 23.439422 218.95976 
L 18.64024 218.95976 
z
" clip-path="url(#p22c531a78e)" style="fill: #cccccc; stroke: #cccccc"/>
   </g>
   <g id="PolyCollection_2">
    <path d="M 18.64024 -212.95928 
L 18.64024 218.95976 
L 23.439422 192.350606 
L 28.238604 165.741452 
L 33.037787 139.132298 
L 37.836969 112.523145 
L 42.636151 85.913991 
L 47.435333 59.304837 
L 52.234516 32.695683 
L 57.033698 6.086529 
L 61.83288 -20.522625 
L 66.632062 -47.131778 
L 71.431244 -73.740932 
L 76.230427 -100.350086 
L 81.029609 -126.95924 
L 85.828791 -153.568394 
L 90.627973 -180.177548 
L 95.427156 -206.786701 
L 100.226338 -233.395855 
L 105.02552 -260.005009 
L 109.824702 -286.614163 
L 114.623884 -313.223317 
L 119.423067 -339.832471 
L 124.222249 -366.441624 
L 129.021431 -393.050778 
L 133.820613 -419.659932 
L 138.619796 -446.269086 
L 143.418978 -472.87824 
L 148.21816 -499.487394 
L 153.017342 -526.096547 
L 157.816524 -552.705701 
L 162.615707 -579.314855 
L 167.414889 -605.924009 
L 172.214071 -632.533163 
L 177.013253 -659.142317 
L 181.812436 -685.75147 
L 186.611618 -712.360624 
L 191.4108 -738.969778 
L 196.209982 -765.578932 
L 201.009164 -792.188086 
L 205.808347 -818.79724 
L 210.607529 -845.406393 
L 215.406711 -872.015547 
L 220.205893 -898.624701 
L 225.005076 -925.233855 
L 229.804258 -951.843009 
L 234.60344 -978.452163 
L 239.402622 -1005.061316 
L 244.201804 -1031.67047 
L 249.000987 -1058.279624 
L 253.800169 -1084.888778 
L 258.599351 -1111.497932 
L 263.398533 -1138.107086 
L 268.197716 -1164.716239 
L 272.996898 -1191.325393 
L 277.79608 -1217.934547 
L 282.595262 -1244.543701 
L 287.394444 -1271.152855 
L 292.193627 -1297.762009 
L 296.992809 -1324.371162 
L 301.791991 -1350.980316 
L 306.591173 -1377.58947 
L 311.390356 -1404.198624 
L 316.189538 -1430.807778 
L 320.98872 -1457.416932 
L 325.787902 -1484.026085 
L 330.587084 -1510.635239 
L 335.386267 -1537.244393 
L 340.185449 -1563.853547 
L 344.984631 -1590.462701 
L 349.783813 -1617.071855 
L 354.582996 -1643.681008 
L 359.382178 -1670.290162 
L 364.18136 -1696.899316 
L 368.980542 -1723.50847 
L 373.779724 -1750.117624 
L 378.578907 -1776.726778 
L 383.378089 -1803.335931 
L 388.177271 -1829.945085 
L 392.976453 -1856.554239 
L 397.775636 -1883.163393 
L 402.574818 -1909.772547 
L 407.374 -1936.381701 
L 412.173182 -1962.990854 
L 416.972364 -1989.600008 
L 421.771547 -2016.209162 
L 426.570729 -2042.818316 
L 431.369911 -2069.42747 
L 436.169093 -2096.036624 
L 440.968276 -2122.645777 
L 445.767458 -2149.254931 
L 450.56664 -2175.864085 
L 455.365822 -2202.473239 
L 460.165004 -2229.082393 
L 464.964187 -2255.691547 
L 469.763369 -2282.3007 
L 474.562551 -2308.909854 
L 479.361733 -2335.519008 
L 484.160916 -2362.128162 
L 488.960098 -2388.737316 
L 493.75928 -2415.34647 
L 493.75928 -212.95928 
L 493.75928 -212.95928 
L 488.960098 -212.95928 
L 484.160916 -212.95928 
L 479.361733 -212.95928 
L 474.562551 -212.95928 
L 469.763369 -212.95928 
L 464.964187 -212.95928 
L 460.165004 -212.95928 
L 455.365822 -212.95928 
L 450.56664 -212.95928 
L 445.767458 -212.95928 
L 440.968276 -212.95928 
L 436.169093 -212.95928 
L 431.369911 -212.95928 
L 426.570729 -212.95928 
L 421.771547 -212.95928 
L 416.972364 -212.95928 
L 412.173182 -212.95928 
L 407.374 -212.95928 
L 402.574818 -212.95928 
L 397.775636 -212.95928 
L 392.976453 -212.95928 
L 388.177271 -212.95928 
L 383.378089 -212.95928 
L 378.578907 -212.95928 
L 373.779724 -212.95928 
L 368.980542 -212.95928 
L 364.18136 -212.95928 
L 359.382178 -212.95928 
L 354.582996 -212.95928 
L 349.783813 -212.95928 
L 344.984631 -212.95928 
L 340.185449 -212.95928 
L 335.386267 -212.95928 
L 330.587084 -212.95928 
L 325.787902 -212.95928 
L 320.98872 -212.95928 
L 316.189538 -212.95928 
L 311.390356 -212.95928 
L 306.591173 -212.95928 
L 301.791991 -212.95928 
L 296.992809 -212.95928 
L 292.193627 -212.95928 
L 287.394444 -212.95928 
L 282.595262 -212.95928 
L 277.79608 -212.95928 
L 272.996898 -212.95928 
L 268.197716 -212.95928 
L 263.398533 -212.95928 
L 258.599351 -212.95928 
L 253.800169 -212.95928 
L 249.000987 -212.95928 
L 244.201804 -212.95928 
L 239.402622 -212.95928 
L 234.60344 -212.95928 
L 229.804258 -212.95928 
L 225.005076 -212.95928 
L 220.205893 -212.95928 
L 215.406711 -212.95928 
L 210.607529 -212.95928 
L 205.808347 -212.95928 
L 201.009164 -212.95928 
L 196.209982 -212.95928 
L 191.4108 -212.95928 
L 186.611618 -212.95928 
L 181.812436 -212.95928 
L 177.013253 -212.95928 
L 172.214071 -212.95928 
L 167.414889 -212.95928 
L 162.615707 -212.95928 
L 157.816524 -212.95928 
L 153.017342 -212.95928 
L 148.21816 -212.95928 
L 143.418978 -212.95928 
L 138.619796 -212.95928 
L 133.820613 -212.95928 
L 129.021431 -212.95928 
L 124.222249 -212.95928 
L 119.423067 -212.95928 
L 114.623884 -212.95928 
L 109.824702 -212.95928 
L 105.02552 -212.95928 
L 100.226338 -212.95928 
L 95.427156 -212.95928 
L 90.627973 -212.95928 
L 85.828791 -212.95928 
L 81.029609 -212.95928 
L 76.230427 -212.95928 
L 71.431244 -212.95928 
L 66.632062 -212.95928 
L 61.83288 -212.95928 
L 57.033698 -212.95928 
L 52.234516 -212.95928 
L 47.435333 -212.95928 
L 42.636151 -212.95928 
L 37.836969 -212.95928 
L 33.037787 -212.95928 
L 28.238604 -212.95928 
L 23.439422 -212.95928 
L 18.64024 -212.95928 
z
" clip-path="url(#p22c531a78e)" style="fill: #999999; stroke: #999999"/>
   </g>
   <g id="matplotlib.axis_1">
    <g id="text_1">
     <!-- motility $d_A$ -->
     <g style="fill: #214478" transform="translate(105.86 232.07976) scale(0.12 -0.12)">
      <defs>
       <path id="DejaVuSans-6d" d="M 3328 2828 
Q 3544 3216 3844 3400 
Q 4144 3584 4550 3584 
Q 5097 3584 5394 3201 
Q 5691 2819 5691 2113 
L 5691 0 
L 5113 0 
L 5113 2094 
Q 5113 2597 4934 2840 
Q 4756 3084 4391 3084 
Q 3944 3084 3684 2787 
Q 3425 2491 3425 1978 
L 3425 0 
L 2847 0 
L 2847 2094 
Q 2847 2600 2669 2842 
Q 2491 3084 2119 3084 
Q 1678 3084 1418 2786 
Q 1159 2488 1159 1978 
L 1159 0 
L 581 0 
L 581 3500 
L 1159 3500 
L 1159 2956 
Q 1356 3278 1631 3431 
Q 1906 3584 2284 3584 
Q 2666 3584 2933 3390 
Q 3200 3197 3328 2828 
z
" transform="scale(0.015625)"/>
       <path id="DejaVuSans-6f" d="M 1959 3097 
Q 1497 3097 1228 2736 
Q 959 2375 959 1747 
Q 959 1119 1226 758 
Q 1494 397 1959 397 
Q 2419 397 2687 759 
Q 2956 1122 2956 1747 
Q 2956 2369 2687 2733 
Q 2419 3097 1959 3097 
z
M 1959 3584 
Q 2709 3584 3137 3096 
Q 3566 2609 3566 1747 
Q 3566 888 3137 398 
Q 2709 -91 1959 -91 
Q 1206 -91 779 398 
Q 353 888 353 1747 
Q 353 2609 779 3096 
Q 1206 3584 1959 3584 
z
" transform="scale(0.015625)"/>
       <path id="DejaVuSans-74" d="M 1172 4494 
L 1172 3500 
L 2356 3500 
L 2356 3053 
L 1172 3053 
L 1172 1153 
Q 1172 725 1289 603 
Q 1406 481 1766 481 
L 2356 481 
L 2356 0 
L 1766 0 
Q 1100 0 847 248 
Q 594 497 594 1153 
L 594 3053 
L 172 3053 
L 172 3500 
L 594 3500 
L 594 4494 
L 1172 4494 
z
" transform="scale(0.015625)"/>
       <path id="DejaVuSans-69" d="M 603 3500 
L 1178 3500 
L 1178 0 
L 603 0 
L 603 3500 
z
M 603 4863 
L 1178 4863 
L 1178 4134 
L 603 4134 
L 603 4863 
z
" transform="scale(0.015625)"/>
       <path id="DejaVuSans-6c" d="M 603 4863 
L 1178 4863 
L 1178 0 
L 603 0 
L 603 4863 
z
" transform="scale(0.015625)"/>
       <path id="DejaVuSans-79" d="M 2059 -325 
Q 1816 -950 1584 -1140 
Q 1353 -1331 966 -1331 
L 506 -1331 
L 506 -850 
L 844 -850 
Q 1081 -850 1212 -737 
Q 1344 -625 1503 -206 
L 1606 56 
L 191 3500 
L 800 3500 
L 1894 763 
L 2988 3500 
L 3597 3500 
L 2059 -325 
z
" transform="scale(0.015625)"/>
       <path id="DejaVuSans-20" transform="scale(0.015625)"/>
       <path id="DejaVuSans-Oblique-64" d="M 2675 525 
Q 2444 222 2128 65 
Q 1813 -91 1428 -91 
Q 903 -91 598 267 
Q 294 625 294 1247 
Q 294 1766 478 2236 
Q 663 2706 1013 3078 
Q 1244 3325 1534 3454 
Q 1825 3584 2144 3584 
Q 2481 3584 2739 3421 
Q 2997 3259 3138 2956 
L 3513 4863 
L 4091 4863 
L 3144 0 
L 2566 0 
L 2675 525 
z
M 891 1350 
Q 891 897 1095 644 
Q 1300 391 1663 391 
Q 1931 391 2161 520 
Q 2391 650 2566 903 
Q 2750 1166 2856 1509 
Q 2963 1853 2963 2188 
Q 2963 2622 2758 2865 
Q 2553 3109 2194 3109 
Q 1922 3109 1687 2981 
Q 1453 2853 1288 2613 
Q 1106 2353 998 2009 
Q 891 1666 891 1350 
z
" transform="scale(0.015625)"/>
       <path id="DejaVuSans-Oblique-41" d="M 2356 4666 
L 3072 4666 
L 3938 0 
L 3278 0 
L 3084 1197 
L 984 1197 
L 325 0 
L -341 0 
L 2356 4666 
z
M 2584 4044 
L 1275 1722 
L 2988 1722 
L 2584 4044 
z
" transform="scale(0.015625)"/>
      </defs>
      <use xlink:href="#DejaVuSans-6d" transform="translate(0 0.015625)"/>
      <use xlink:href="#DejaVuSans-6f" transform="translate(97.412109 0.015625)"/>
      <use xlink:href="#DejaVuSans-74" transform="translate(158.59375 0.015625)"/>
      <use xlink:href="#DejaVuSans-69" transform="translate(197.802734 0.015625)"/>
      <use xlink:href="#DejaVuSans-6c" transform="translate(225.585938 0.015625)"/>
      <use xlink:href="#DejaVuSans-69" transform="translate(253.369141 0.015625)"/>
      <use xlink:href="#DejaVuSans-74" transform="translate(281.152344 0.015625)"/>
      <use xlink:href="#DejaVuSans-79" transform="translate(320.361328 0.015625)"/>
      <use xlink:href="#DejaVuSans-20" transform="translate(379.541016 0.015625)"/>
      <use xlink:href="#DejaVuSans-Oblique-64" transform="translate(411.328125 0.015625)"/>
      <use xlink:href="#DejaVuSans-Oblique-41" transform="translate(474.804688 -16.390625) scale(0.7)"/>
     </g>
    </g>
   </g>
   <g id="matplotlib.axis_2">
    <g id="text_2">
     <!-- motility $d_I$ -->
     <g style="fill: #aa0000" transform="translate(12.12024 140.92) rotate(-90) scale(0.12 -0.12)">
      <defs>
       <path id="DejaVuSans-Oblique-49" d="M 1081 4666 
L 1716 4666 
L 806 0 
L 172 0 
L 1081 4666 
z
" transform="scale(0.015625)"/>
      </defs>
      <use xlink:href="#DejaVuSans-6d" transform="translate(0 0.015625)"/>
      <use xlink:href="#DejaVuSans-6f" transform="translate(97.412109 0.015625)"/>
      <use xlink:href="#DejaVuSans-74" transform="translate(158.59375 0.015625)"/>
      <use xlink:href="#DejaVuSans-69" transform="translate(197.802734 0.015625)"/>
      <use xlink:href="#DejaVuSans-6c" transform="translate(225.585938 0.015625)"/>
      <use xlink:href="#DejaVuSans-69" transform="translate(253.369141 0.015625)"/>
      <use xlink:href="#DejaVuSans-74" transform="translate(281.152344 0.015625)"/>
      <use xlink:href="#DejaVuSans-79" transform="translate(320.361328 0.015625)"/>
      <use xlink:href="#DejaVuSans-20" transform="translate(379.541016 0.015625)"/>
      <use xlink:href="#DejaVuSans-Oblique-64" transform="translate(411.328125 0.015625)"/>
      <use xlink:href="#DejaVuSans-Oblique-49" transform="translate(474.804688 -16.390625) scale(0.7)"/>
     </g>
    </g>
   </g>
   <g id="line2d_1">
    <path d="M 18.64024 218.95976 
L 23.439422 192.350606 
L 28.238604 165.741452 
L 33.037787 139.132298 
L 37.836969 112.523145 
L 42.636151 85.913991 
L 47.435333 59.304837 
L 52.234516 32.695683 
L 57.033698 6.086529 
L 58.311812 -1 
" clip-path="url(#p22c531a78e)" style="fill: none; stroke-dasharray: 7.4,3.2; stroke-dashoffset: 0; stroke: #000000; stroke-width: 2"/>
   </g>
   <g id="patch_3">
    <path d="M 18.64024 218.95976 
L 18.64024 3.00024 
" style="fill: none; stroke: #000000; stroke-width: 0.8; stroke-linejoin: miter; stroke-linecap: square"/>
   </g>
   <g id="patch_4">
    <path d="M 256.19976 218.95976 
L 256.19976 3.00024 
" style="fill: none; stroke: #000000; stroke-width: 0.8; stroke-linejoin: miter; stroke-linecap: square"/>
   </g>
   <g id="patch_5">
    <path d="M 18.64024 218.95976 
L 256.19976 218.95976 
" style="fill: none; stroke: #000000; stroke-width: 0.8; stroke-linejoin: miter; stroke-linecap: square"/>
   </g>
   <g id="patch_6">
    <path d="M 18.64024 3.00024 
L 256.19976 3.00024 
" style="fill: none; stroke: #000000; stroke-width: 0.8; stroke-linejoin: miter; stroke-linecap: square"/>
   </g>
  </g>
 </g>
 <defs>
  <clipPath id="p22c531a78e">
   <rect x="18.64024" y="3.00024" width="237.55952" height="215.95952"/>
  </clipPath>
 </defs>
</svg>
