<?xml version="1.0" encoding="utf-8" standalone="no"?>
<!DOCTYPE svg PUBLIC "-//W3C//DTD SVG 1.1//EN"
  "http://www.w3.org/Graphics/SVG/1.1/DTD/svg11.dtd">
<svg xmlns:xlink="http://www.w3.org/1999/xlink" width="259.2pt" height="237.312pt" viewBox="0 0 259.2 237.312" xmlns="http://www.w3.org/2000/svg" version="1.1">
 <metadata>
  <rdf:RDF xmlns:dc="http://purl.org/dc/elements/1.1/" xmlns:cc="http://creativecommons.org/ns#" xmlns:rdf="http://www.w3.org/1999/02/22-rdf-syntax-ns#">
   <cc:Work>
    <dc:type rdf:resource="http://purl.org/dc/dcmitype/StillImage"/>
    <dc:date>2022-11-23T13:55:25.673160</dc:date>
    <dc:format>image/svg+xml</dc:format>
    <dc:creator>
     <cc:Agent>
      <dc:title>Matplotlib v3.5.3, https://matplotlib.org/</dc:title>
     </cc:Agent>
    </dc:creator>
   </cc:Work>
  </rdf:RDF>
 </metadata>
 <defs>
  <style type="text/css">*{stroke-linejoin: round; stroke-linecap: butt}</style>
 </defs>
 <g id="figure_1">
  <g id="patch_1">
   <path d="M 0 237.312 
L 259.2 237.312 
L 259.2 0 
L 0 0 
z
" style="fill: #ffffff"/>
  </g>
  <g id="axes_1">
   <g id="patch_2">
    <path d="M 22.14024 215.17176 
L 256.19976 215.17176 
L 256.19976 3.00024 
L 22.14024 3.00024 
z
" style="fill: #ffffff"/>
   </g>
   <g id="PolyCollection_1">
    <path d="M 22.14024 215.17176 
L 22.14024 215.17176 
L 26.868715 190.445012 
L 31.59719 165.718264 
L 36.325665 140.991516 
L 41.054141 116.264768 
L 45.782616 91.53802 
L 50.511091 66.811272 
L 55.239566 42.084525 
L 59.968041 17.357777 
L 64.696516 -7.368971 
L 69.424992 -32.095719 
L 74.153467 -56.822467 
L 78.881942 -81.549215 
L 83.610417 -106.275963 
L 88.338892 -131.002711 
L 93.067367 -155.729459 
L 97.795842 -180.456207 
L 102.524318 -205.182955 
L 107.252793 -229.909703 
L 111.981268 -254.636451 
L 116.709743 -279.363198 
L 121.438218 -304.089946 
L 126.166693 -328.816694 
L 130.895168 -353.543442 
L 135.623644 -378.27019 
L 140.352119 -402.996938 
L 145.080594 -427.723686 
L 149.809069 -452.450434 
L 154.537544 -477.177182 
L 159.266019 -501.90393 
L 163.994495 -526.630678 
L 168.72297 -551.357426 
L 173.451445 -576.084174 
L 178.17992 -600.810922 
L 182.908395 -625.537669 
L 187.63687 -650.264417 
L 192.365345 -674.991165 
L 197.093821 -699.717913 
L 201.822296 -724.444661 
L 206.550771 -749.171409 
L 211.279246 -773.898157 
L 216.007721 -798.624905 
L 220.736196 -823.351653 
L 225.464672 -848.078401 
L 230.193147 -872.805149 
L 234.921622 -897.531897 
L 239.650097 -922.258645 
L 244.378572 -946.985392 
L 249.107047 -971.71214 
L 253.835522 -996.438888 
L 258.563998 -1021.165636 
L 263.292473 -1045.892384 
L 268.020948 -1070.619132 
L 272.749423 -1095.34588 
L 277.477898 -1120.072628 
L 282.206373 -1144.799376 
L 286.934848 -1169.526124 
L 291.663324 -1194.252872 
L 296.391799 -1218.97962 
L 301.120274 -1243.706368 
L 305.848749 -1268.433115 
L 310.577224 -1293.159863 
L 315.305699 -1317.886611 
L 320.034175 -1342.613359 
L 324.76265 -1367.340107 
L 329.491125 -1392.066855 
L 334.2196 -1416.793603 
L 338.948075 -1441.520351 
L 343.67655 -1466.247099 
L 348.405025 -1490.973847 
L 353.133501 -1515.700595 
L 357.861976 -1540.427343 
L 362.590451 -1565.154091 
L 367.318926 -1589.880839 
L 372.047401 -1614.607586 
L 376.775876 -1639.334334 
L 381.504352 -1664.061082 
L 386.232827 -1688.78783 
L 390.961302 -1713.514578 
L 395.689777 -1738.241326 
L 400.418252 -1762.968074 
L 405.146727 -1787.694822 
L 409.875202 -1812.42157 
L 414.603678 -1837.148318 
L 419.332153 -1861.875066 
L 424.060628 -1886.601814 
L 428.789103 -1911.328562 
L 433.517578 -1936.055309 
L 438.246053 -1960.782057 
L 442.974528 -1985.508805 
L 447.703004 -2010.235553 
L 452.431479 -2034.962301 
L 457.159954 -2059.689049 
L 461.888429 -2084.415797 
L 466.616904 -2109.142545 
L 471.345379 -2133.869293 
L 476.073855 -2158.596041 
L 480.80233 -2183.322789 
L 485.530805 -2208.049537 
L 490.25928 -2232.776285 
L 490.25928 215.17176 
L 490.25928 215.17176 
L 485.530805 215.17176 
L 480.80233 215.17176 
L 476.073855 215.17176 
L 471.345379 215.17176 
L 466.616904 215.17176 
L 461.888429 215.17176 
L 457.159954 215.17176 
L 452.431479 215.17176 
L 447.703004 215.17176 
L 442.974528 215.17176 
L 438.246053 215.17176 
L 433.517578 215.17176 
L 428.789103 215.17176 
L 424.060628 215.17176 
L 419.332153 215.17176 
L 414.603678 215.17176 
L 409.875202 215.17176 
L 405.146727 215.17176 
L 400.418252 215.17176 
L 395.689777 215.17176 
L 390.961302 215.17176 
L 386.232827 215.17176 
L 381.504352 215.17176 
L 376.775876 215.17176 
L 372.047401 215.17176 
L 367.318926 215.17176 
L 362.590451 215.17176 
L 357.861976 215.17176 
L 353.133501 215.17176 
L 348.405025 215.17176 
L 343.67655 215.17176 
L 338.948075 215.17176 
L 334.2196 215.17176 
L 329.491125 215.17176 
L 324.76265 215.17176 
L 320.034175 215.17176 
L 315.305699 215.17176 
L 310.577224 215.17176 
L 305.848749 215.17176 
L 301.120274 215.17176 
L 296.391799 215.17176 
L 291.663324 215.17176 
L 286.934848 215.17176 
L 282.206373 215.17176 
L 277.477898 215.17176 
L 272.749423 215.17176 
L 268.020948 215.17176 
L 263.292473 215.17176 
L 258.563998 215.17176 
L 253.835522 215.17176 
L 249.107047 215.17176 
L 244.378572 215.17176 
L 239.650097 215.17176 
L 234.921622 215.17176 
L 230.193147 215.17176 
L 225.464672 215.17176 
L 220.736196 215.17176 
L 216.007721 215.17176 
L 211.279246 215.17176 
L 206.550771 215.17176 
L 201.822296 215.17176 
L 197.093821 215.17176 
L 192.365345 215.17176 
L 187.63687 215.17176 
L 182.908395 215.17176 
L 178.17992 215.17176 
L 173.451445 215.17176 
L 168.72297 215.17176 
L 163.994495 215.17176 
L 159.266019 215.17176 
L 154.537544 215.17176 
L 149.809069 215.17176 
L 145.080594 215.17176 
L 140.352119 215.17176 
L 135.623644 215.17176 
L 130.895168 215.17176 
L 126.166693 215.17176 
L 121.438218 215.17176 
L 116.709743 215.17176 
L 111.981268 215.17176 
L 107.252793 215.17176 
L 102.524318 215.17176 
L 97.795842 215.17176 
L 93.067367 215.17176 
L 88.338892 215.17176 
L 83.610417 215.17176 
L 78.881942 215.17176 
L 74.153467 215.17176 
L 69.424992 215.17176 
L 64.696516 215.17176 
L 59.968041 215.17176 
L 55.239566 215.17176 
L 50.511091 215.17176 
L 45.782616 215.17176 
L 41.054141 215.17176 
L 36.325665 215.17176 
L 31.59719 215.17176 
L 26.868715 215.17176 
L 22.14024 215.17176 
z
" clip-path="url(#p7a40f6897f)" style="fill: #cccccc; stroke: #cccccc"/>
   </g>
   <g id="PolyCollection_2">
    <path d="M 22.14024 -209.17128 
L 22.14024 215.17176 
L 26.868715 190.445012 
L 31.59719 165.718264 
L 36.325665 140.991516 
L 41.054141 116.264768 
L 45.782616 91.53802 
L 50.511091 66.811272 
L 55.239566 42.084525 
L 59.968041 17.357777 
L 64.696516 -7.368971 
L 69.424992 -32.095719 
L 74.153467 -56.822467 
L 78.881942 -81.549215 
L 83.610417 -106.275963 
L 88.338892 -131.002711 
L 93.067367 -155.729459 
L 97.795842 -180.456207 
L 102.524318 -205.182955 
L 107.252793 -229.909703 
L 111.981268 -254.636451 
L 116.709743 -279.363198 
L 121.438218 -304.089946 
L 126.166693 -328.816694 
L 130.895168 -353.543442 
L 135.623644 -378.27019 
L 140.352119 -402.996938 
L 145.080594 -427.723686 
L 149.809069 -452.450434 
L 154.537544 -477.177182 
L 159.266019 -501.90393 
L 163.994495 -526.630678 
L 168.72297 -551.357426 
L 173.451445 -576.084174 
L 178.17992 -600.810922 
L 182.908395 -625.537669 
L 187.63687 -650.264417 
L 192.365345 -674.991165 
L 197.093821 -699.717913 
L 201.822296 -724.444661 
L 206.550771 -749.171409 
L 211.279246 -773.898157 
L 216.007721 -798.624905 
L 220.736196 -823.351653 
L 225.464672 -848.078401 
L 230.193147 -872.805149 
L 234.921622 -897.531897 
L 239.650097 -922.258645 
L 244.378572 -946.985392 
L 249.107047 -971.71214 
L 253.835522 -996.438888 
L 258.563998 -1021.165636 
L 263.292473 -1045.892384 
L 268.020948 -1070.619132 
L 272.749423 -1095.34588 
L 277.477898 -1120.072628 
L 282.206373 -1144.799376 
L 286.934848 -1169.526124 
L 291.663324 -1194.252872 
L 296.391799 -1218.97962 
L 301.120274 -1243.706368 
L 305.848749 -1268.433115 
L 310.577224 -1293.159863 
L 315.305699 -1317.886611 
L 320.034175 -1342.613359 
L 324.76265 -1367.340107 
L 329.491125 -1392.066855 
L 334.2196 -1416.793603 
L 338.948075 -1441.520351 
L 343.67655 -1466.247099 
L 348.405025 -1490.973847 
L 353.133501 -1515.700595 
L 357.861976 -1540.427343 
L 362.590451 -1565.154091 
L 367.318926 -1589.880839 
L 372.047401 -1614.607586 
L 376.775876 -1639.334334 
L 381.504352 -1664.061082 
L 386.232827 -1688.78783 
L 390.961302 -1713.514578 
L 395.689777 -1738.241326 
L 400.418252 -1762.968074 
L 405.146727 -1787.694822 
L 409.875202 -1812.42157 
L 414.603678 -1837.148318 
L 419.332153 -1861.875066 
L 424.060628 -1886.601814 
L 428.789103 -1911.328562 
L 433.517578 -1936.055309 
L 438.246053 -1960.782057 
L 442.974528 -1985.508805 
L 447.703004 -2010.235553 
L 452.431479 -2034.962301 
L 457.159954 -2059.689049 
L 461.888429 -2084.415797 
L 466.616904 -2109.142545 
L 471.345379 -2133.869293 
L 476.073855 -2158.596041 
L 480.80233 -2183.322789 
L 485.530805 -2208.049537 
L 490.25928 -2232.776285 
L 490.25928 -209.17128 
L 490.25928 -209.17128 
L 485.530805 -209.17128 
L 480.80233 -209.17128 
L 476.073855 -209.17128 
L 471.345379 -209.17128 
L 466.616904 -209.17128 
L 461.888429 -209.17128 
L 457.159954 -209.17128 
L 452.431479 -209.17128 
L 447.703004 -209.17128 
L 442.974528 -209.17128 
L 438.246053 -209.17128 
L 433.517578 -209.17128 
L 428.789103 -209.17128 
L 424.060628 -209.17128 
L 419.332153 -209.17128 
L 414.603678 -209.17128 
L 409.875202 -209.17128 
L 405.146727 -209.17128 
L 400.418252 -209.17128 
L 395.689777 -209.17128 
L 390.961302 -209.17128 
L 386.232827 -209.17128 
L 381.504352 -209.17128 
L 376.775876 -209.17128 
L 372.047401 -209.17128 
L 367.318926 -209.17128 
L 362.590451 -209.17128 
L 357.861976 -209.17128 
L 353.133501 -209.17128 
L 348.405025 -209.17128 
L 343.67655 -209.17128 
L 338.948075 -209.17128 
L 334.2196 -209.17128 
L 329.491125 -209.17128 
L 324.76265 -209.17128 
L 320.034175 -209.17128 
L 315.305699 -209.17128 
L 310.577224 -209.17128 
L 305.848749 -209.17128 
L 301.120274 -209.17128 
L 296.391799 -209.17128 
L 291.663324 -209.17128 
L 286.934848 -209.17128 
L 282.206373 -209.17128 
L 277.477898 -209.17128 
L 272.749423 -209.17128 
L 268.020948 -209.17128 
L 263.292473 -209.17128 
L 258.563998 -209.17128 
L 253.835522 -209.17128 
L 249.107047 -209.17128 
L 244.378572 -209.17128 
L 239.650097 -209.17128 
L 234.921622 -209.17128 
L 230.193147 -209.17128 
L 225.464672 -209.17128 
L 220.736196 -209.17128 
L 216.007721 -209.17128 
L 211.279246 -209.17128 
L 206.550771 -209.17128 
L 201.822296 -209.17128 
L 197.093821 -209.17128 
L 192.365345 -209.17128 
L 187.63687 -209.17128 
L 182.908395 -209.17128 
L 178.17992 -209.17128 
L 173.451445 -209.17128 
L 168.72297 -209.17128 
L 163.994495 -209.17128 
L 159.266019 -209.17128 
L 154.537544 -209.17128 
L 149.809069 -209.17128 
L 145.080594 -209.17128 
L 140.352119 -209.17128 
L 135.623644 -209.17128 
L 130.895168 -209.17128 
L 126.166693 -209.17128 
L 121.438218 -209.17128 
L 116.709743 -209.17128 
L 111.981268 -209.17128 
L 107.252793 -209.17128 
L 102.524318 -209.17128 
L 97.795842 -209.17128 
L 93.067367 -209.17128 
L 88.338892 -209.17128 
L 83.610417 -209.17128 
L 78.881942 -209.17128 
L 74.153467 -209.17128 
L 69.424992 -209.17128 
L 64.696516 -209.17128 
L 59.968041 -209.17128 
L 55.239566 -209.17128 
L 50.511091 -209.17128 
L 45.782616 -209.17128 
L 41.054141 -209.17128 
L 36.325665 -209.17128 
L 31.59719 -209.17128 
L 26.868715 -209.17128 
L 22.14024 -209.17128 
z
" clip-path="url(#p7a40f6897f)" style="fill: #999999; stroke: #999999"/>
   </g>
   <g id="matplotlib.axis_1">
    <g id="text_1">
     <!-- diffusivity $d_A$ -->
     <g transform="translate(100.95 231.79176)scale(0.12 -0.12)">
      <defs>
       <path id="DejaVuSans-64" d="M 2906 2969 
L 2906 4863 
L 3481 4863 
L 3481 0 
L 2906 0 
L 2906 525 
Q 2725 213 2448 61 
Q 2172 -91 1784 -91 
Q 1150 -91 751 415 
Q 353 922 353 1747 
Q 353 2572 751 3078 
Q 1150 3584 1784 3584 
Q 2172 3584 2448 3432 
Q 2725 3281 2906 2969 
z
M 947 1747 
Q 947 1113 1208 752 
Q 1469 391 1925 391 
Q 2381 391 2643 752 
Q 2906 1113 2906 1747 
Q 2906 2381 2643 2742 
Q 2381 3103 1925 3103 
Q 1469 3103 1208 2742 
Q 947 2381 947 1747 
z
" transform="scale(0.015625)"/>
       <path id="DejaVuSans-69" d="M 603 3500 
L 1178 3500 
L 1178 0 
L 603 0 
L 603 3500 
z
M 603 4863 
L 1178 4863 
L 1178 4134 
L 603 4134 
L 603 4863 
z
" transform="scale(0.015625)"/>
       <path id="DejaVuSans-66" d="M 2375 4863 
L 2375 4384 
L 1825 4384 
Q 1516 4384 1395 4259 
Q 1275 4134 1275 3809 
L 1275 3500 
L 2222 3500 
L 2222 3053 
L 1275 3053 
L 1275 0 
L 697 0 
L 697 3053 
L 147 3053 
L 147 3500 
L 697 3500 
L 697 3744 
Q 697 4328 969 4595 
Q 1241 4863 1831 4863 
L 2375 4863 
z
" transform="scale(0.015625)"/>
       <path id="DejaVuSans-75" d="M 544 1381 
L 544 3500 
L 1119 3500 
L 1119 1403 
Q 1119 906 1312 657 
Q 1506 409 1894 409 
Q 2359 409 2629 706 
Q 2900 1003 2900 1516 
L 2900 3500 
L 3475 3500 
L 3475 0 
L 2900 0 
L 2900 538 
Q 2691 219 2414 64 
Q 2138 -91 1772 -91 
Q 1169 -91 856 284 
Q 544 659 544 1381 
z
M 1991 3584 
L 1991 3584 
z
" transform="scale(0.015625)"/>
       <path id="DejaVuSans-73" d="M 2834 3397 
L 2834 2853 
Q 2591 2978 2328 3040 
Q 2066 3103 1784 3103 
Q 1356 3103 1142 2972 
Q 928 2841 928 2578 
Q 928 2378 1081 2264 
Q 1234 2150 1697 2047 
L 1894 2003 
Q 2506 1872 2764 1633 
Q 3022 1394 3022 966 
Q 3022 478 2636 193 
Q 2250 -91 1575 -91 
Q 1294 -91 989 -36 
Q 684 19 347 128 
L 347 722 
Q 666 556 975 473 
Q 1284 391 1588 391 
Q 1994 391 2212 530 
Q 2431 669 2431 922 
Q 2431 1156 2273 1281 
Q 2116 1406 1581 1522 
L 1381 1569 
Q 847 1681 609 1914 
Q 372 2147 372 2553 
Q 372 3047 722 3315 
Q 1072 3584 1716 3584 
Q 2034 3584 2315 3537 
Q 2597 3491 2834 3397 
z
" transform="scale(0.015625)"/>
       <path id="DejaVuSans-76" d="M 191 3500 
L 800 3500 
L 1894 563 
L 2988 3500 
L 3597 3500 
L 2284 0 
L 1503 0 
L 191 3500 
z
" transform="scale(0.015625)"/>
       <path id="DejaVuSans-74" d="M 1172 4494 
L 1172 3500 
L 2356 3500 
L 2356 3053 
L 1172 3053 
L 1172 1153 
Q 1172 725 1289 603 
Q 1406 481 1766 481 
L 2356 481 
L 2356 0 
L 1766 0 
Q 1100 0 847 248 
Q 594 497 594 1153 
L 594 3053 
L 172 3053 
L 172 3500 
L 594 3500 
L 594 4494 
L 1172 4494 
z
" transform="scale(0.015625)"/>
       <path id="DejaVuSans-79" d="M 2059 -325 
Q 1816 -950 1584 -1140 
Q 1353 -1331 966 -1331 
L 506 -1331 
L 506 -850 
L 844 -850 
Q 1081 -850 1212 -737 
Q 1344 -625 1503 -206 
L 1606 56 
L 191 3500 
L 800 3500 
L 1894 763 
L 2988 3500 
L 3597 3500 
L 2059 -325 
z
" transform="scale(0.015625)"/>
       <path id="DejaVuSans-20" transform="scale(0.015625)"/>
       <path id="DejaVuSans-Oblique-64" d="M 2675 525 
Q 2444 222 2128 65 
Q 1813 -91 1428 -91 
Q 903 -91 598 267 
Q 294 625 294 1247 
Q 294 1766 478 2236 
Q 663 2706 1013 3078 
Q 1244 3325 1534 3454 
Q 1825 3584 2144 3584 
Q 2481 3584 2739 3421 
Q 2997 3259 3138 2956 
L 3513 4863 
L 4091 4863 
L 3144 0 
L 2566 0 
L 2675 525 
z
M 891 1350 
Q 891 897 1095 644 
Q 1300 391 1663 391 
Q 1931 391 2161 520 
Q 2391 650 2566 903 
Q 2750 1166 2856 1509 
Q 2963 1853 2963 2188 
Q 2963 2622 2758 2865 
Q 2553 3109 2194 3109 
Q 1922 3109 1687 2981 
Q 1453 2853 1288 2613 
Q 1106 2353 998 2009 
Q 891 1666 891 1350 
z
" transform="scale(0.015625)"/>
       <path id="DejaVuSans-Oblique-41" d="M 2356 4666 
L 3072 4666 
L 3938 0 
L 3278 0 
L 3084 1197 
L 984 1197 
L 325 0 
L -341 0 
L 2356 4666 
z
M 2584 4044 
L 1275 1722 
L 2988 1722 
L 2584 4044 
z
" transform="scale(0.015625)"/>
      </defs>
      <use xlink:href="#DejaVuSans-64" transform="translate(0 0.015625)"/>
      <use xlink:href="#DejaVuSans-69" transform="translate(63.476562 0.015625)"/>
      <use xlink:href="#DejaVuSans-66" transform="translate(91.259766 0.015625)"/>
      <use xlink:href="#DejaVuSans-66" transform="translate(126.464844 0.015625)"/>
      <use xlink:href="#DejaVuSans-75" transform="translate(161.669922 0.015625)"/>
      <use xlink:href="#DejaVuSans-73" transform="translate(225.048828 0.015625)"/>
      <use xlink:href="#DejaVuSans-69" transform="translate(277.148438 0.015625)"/>
      <use xlink:href="#DejaVuSans-76" transform="translate(304.931641 0.015625)"/>
      <use xlink:href="#DejaVuSans-69" transform="translate(364.111328 0.015625)"/>
      <use xlink:href="#DejaVuSans-74" transform="translate(391.894531 0.015625)"/>
      <use xlink:href="#DejaVuSans-79" transform="translate(431.103516 0.015625)"/>
      <use xlink:href="#DejaVuSans-20" transform="translate(490.283203 0.015625)"/>
      <use xlink:href="#DejaVuSans-Oblique-64" transform="translate(522.070312 0.015625)"/>
      <use xlink:href="#DejaVuSans-Oblique-41" transform="translate(585.546875 -16.390625)scale(0.7)"/>
     </g>
    </g>
   </g>
   <g id="matplotlib.axis_2">
    <g id="text_2">
     <!-- diffusivity $d_I$ -->
     <g transform="translate(12.12024 145.626)rotate(-90)scale(0.12 -0.12)">
      <defs>
       <path id="DejaVuSans-Oblique-49" d="M 1081 4666 
L 1716 4666 
L 806 0 
L 172 0 
L 1081 4666 
z
" transform="scale(0.015625)"/>
      </defs>
      <use xlink:href="#DejaVuSans-64" transform="translate(0 0.015625)"/>
      <use xlink:href="#DejaVuSans-69" transform="translate(63.476562 0.015625)"/>
      <use xlink:href="#DejaVuSans-66" transform="translate(91.259766 0.015625)"/>
      <use xlink:href="#DejaVuSans-66" transform="translate(126.464844 0.015625)"/>
      <use xlink:href="#DejaVuSans-75" transform="translate(161.669922 0.015625)"/>
      <use xlink:href="#DejaVuSans-73" transform="translate(225.048828 0.015625)"/>
      <use xlink:href="#DejaVuSans-69" transform="translate(277.148438 0.015625)"/>
      <use xlink:href="#DejaVuSans-76" transform="translate(304.931641 0.015625)"/>
      <use xlink:href="#DejaVuSans-69" transform="translate(364.111328 0.015625)"/>
      <use xlink:href="#DejaVuSans-74" transform="translate(391.894531 0.015625)"/>
      <use xlink:href="#DejaVuSans-79" transform="translate(431.103516 0.015625)"/>
      <use xlink:href="#DejaVuSans-20" transform="translate(490.283203 0.015625)"/>
      <use xlink:href="#DejaVuSans-Oblique-64" transform="translate(522.070312 0.015625)"/>
      <use xlink:href="#DejaVuSans-Oblique-49" transform="translate(585.546875 -16.390625)scale(0.7)"/>
     </g>
    </g>
   </g>
   <g id="line2d_1">
    <path d="M 22.14024 215.17176 
L 26.868715 190.445012 
L 31.59719 165.718264 
L 36.325665 140.991516 
L 41.054141 116.264768 
L 45.782616 91.53802 
L 50.511091 66.811272 
L 55.239566 42.084525 
L 59.968041 17.357777 
L 63.478583 -1 
" clip-path="url(#p7a40f6897f)" style="fill: none; stroke-dasharray: 7.4,3.2; stroke-dashoffset: 0; stroke: #000000; stroke-width: 2"/>
   </g>
   <g id="patch_3">
    <path d="M 22.14024 215.17176 
L 22.14024 3.00024 
" style="fill: none; stroke: #000000; stroke-width: 0.8; stroke-linejoin: miter; stroke-linecap: square"/>
   </g>
   <g id="patch_4">
    <path d="M 256.19976 215.17176 
L 256.19976 3.00024 
" style="fill: none; stroke: #000000; stroke-width: 0.8; stroke-linejoin: miter; stroke-linecap: square"/>
   </g>
   <g id="patch_5">
    <path d="M 22.14024 215.17176 
L 256.19976 215.17176 
" style="fill: none; stroke: #000000; stroke-width: 0.8; stroke-linejoin: miter; stroke-linecap: square"/>
   </g>
   <g id="patch_6">
    <path d="M 22.14024 3.00024 
L 256.19976 3.00024 
" style="fill: none; stroke: #000000; stroke-width: 0.8; stroke-linejoin: miter; stroke-linecap: square"/>
   </g>
  </g>
 </g>
 <defs>
  <clipPath id="p7a40f6897f">
   <rect x="22.14024" y="3.00024" width="234.05952" height="212.17152"/>
  </clipPath>
 </defs>
</svg>
