<?xml version="1.0" encoding="utf-8" standalone="no"?>
<!DOCTYPE svg PUBLIC "-//W3C//DTD SVG 1.1//EN"
  "http://www.w3.org/Graphics/SVG/1.1/DTD/svg11.dtd">
<svg xmlns:xlink="http://www.w3.org/1999/xlink" width="108pt" height="72pt" viewBox="0 0 108 72" xmlns="http://www.w3.org/2000/svg" version="1.1">
 <metadata>
  <rdf:RDF xmlns:dc="http://purl.org/dc/elements/1.1/" xmlns:cc="http://creativecommons.org/ns#" xmlns:rdf="http://www.w3.org/1999/02/22-rdf-syntax-ns#">
   <cc:Work>
    <dc:type rdf:resource="http://purl.org/dc/dcmitype/StillImage"/>
    <dc:date>2023-02-08T16:07:12.632752</dc:date>
    <dc:format>image/svg+xml</dc:format>
    <dc:creator>
     <cc:Agent>
      <dc:title>Matplotlib v3.5.3, https://matplotlib.org/</dc:title>
     </cc:Agent>
    </dc:creator>
   </cc:Work>
  </rdf:RDF>
 </metadata>
 <defs>
  <style type="text/css">*{stroke-linejoin: round; stroke-linecap: butt}</style>
 </defs>
 <g id="figure_1">
  <g id="patch_1">
   <path d="M 0 72 
L 108 72 
L 108 0 
L 0 0 
z
" style="fill: #ffffff"/>
  </g>
  <g id="axes_1">
   <g id="patch_2">
    <path d="M 24.18024 21.692885 
L 104.99976 21.692885 
L 104.99976 3.00024 
L 24.18024 3.00024 
z
" style="fill: #ffffff"/>
   </g>
   <g id="QuadMesh_1">
    <path d="M 24.18024 21.692885 
L 24.639442 21.692885 
L 24.639442 3.00024 
L 24.18024 3.00024 
L 24.18024 21.692885 
" clip-path="url(#p8053f3d163)" style="fill: #dfebf7"/>
    <path d="M 24.639442 21.692885 
L 25.098644 21.692885 
L 25.098644 3.00024 
L 24.639442 3.00024 
L 24.639442 21.692885 
" clip-path="url(#p8053f3d163)" style="fill: #c1d9ed"/>
    <path d="M 25.098644 21.692885 
L 25.557845 21.692885 
L 25.557845 3.00024 
L 25.098644 3.00024 
L 25.098644 21.692885 
" clip-path="url(#p8053f3d163)" style="fill: #6caed6"/>
    <path d="M 25.557845 21.692885 
L 26.017047 21.692885 
L 26.017047 3.00024 
L 25.557845 3.00024 
L 25.557845 21.692885 
" clip-path="url(#p8053f3d163)" style="fill: #3686c0"/>
    <path d="M 26.017047 21.692885 
L 26.476249 21.692885 
L 26.476249 3.00024 
L 26.017047 3.00024 
L 26.017047 21.692885 
" clip-path="url(#p8053f3d163)" style="fill: #2070b4"/>
    <path d="M 26.476249 21.692885 
L 26.935451 21.692885 
L 26.935451 3.00024 
L 26.476249 3.00024 
L 26.476249 21.692885 
" clip-path="url(#p8053f3d163)" style="fill: #1b69af"/>
    <path d="M 26.935451 21.692885 
L 27.394653 21.692885 
L 27.394653 3.00024 
L 26.935451 3.00024 
L 26.935451 21.692885 
" clip-path="url(#p8053f3d163)" style="fill: #1967ad"/>
    <path d="M 27.394653 21.692885 
L 27.853855 21.692885 
L 27.853855 3.00024 
L 27.394653 3.00024 
L 27.394653 21.692885 
" clip-path="url(#p8053f3d163)" style="fill: #1c6ab0"/>
    <path d="M 27.853855 21.692885 
L 28.313056 21.692885 
L 28.313056 3.00024 
L 27.853855 3.00024 
L 27.853855 21.692885 
" clip-path="url(#p8053f3d163)" style="fill: #2676b8"/>
    <path d="M 28.313056 21.692885 
L 28.772258 21.692885 
L 28.772258 3.00024 
L 28.313056 3.00024 
L 28.313056 21.692885 
" clip-path="url(#p8053f3d163)" style="fill: #4594c7"/>
    <path d="M 28.772258 21.692885 
L 29.23146 21.692885 
L 29.23146 3.00024 
L 28.772258 3.00024 
L 28.772258 21.692885 
" clip-path="url(#p8053f3d163)" style="fill: #91c3de"/>
    <path d="M 29.23146 21.692885 
L 29.690662 21.692885 
L 29.690662 3.00024 
L 29.23146 3.00024 
L 29.23146 21.692885 
" clip-path="url(#p8053f3d163)" style="fill: #d1e2f3"/>
    <path d="M 29.690662 21.692885 
L 30.149864 21.692885 
L 30.149864 3.00024 
L 29.690662 3.00024 
L 29.690662 21.692885 
" clip-path="url(#p8053f3d163)" style="fill: #e3eef8"/>
    <path d="M 30.149864 21.692885 
L 30.609065 21.692885 
L 30.609065 3.00024 
L 30.149864 3.00024 
L 30.149864 21.692885 
" clip-path="url(#p8053f3d163)" style="fill: #d7e6f5"/>
    <path d="M 30.609065 21.692885 
L 31.068267 21.692885 
L 31.068267 3.00024 
L 30.609065 3.00024 
L 30.609065 21.692885 
" clip-path="url(#p8053f3d163)" style="fill: #a4cce3"/>
    <path d="M 31.068267 21.692885 
L 31.527469 21.692885 
L 31.527469 3.00024 
L 31.068267 3.00024 
L 31.068267 21.692885 
" clip-path="url(#p8053f3d163)" style="fill: #529dcc"/>
    <path d="M 31.527469 21.692885 
L 31.986671 21.692885 
L 31.986671 3.00024 
L 31.527469 3.00024 
L 31.527469 21.692885 
" clip-path="url(#p8053f3d163)" style="fill: #2b7bba"/>
    <path d="M 31.986671 21.692885 
L 32.445873 21.692885 
L 32.445873 3.00024 
L 31.986671 3.00024 
L 31.986671 21.692885 
" clip-path="url(#p8053f3d163)" style="fill: #1d6cb1"/>
    <path d="M 32.445873 21.692885 
L 32.905075 21.692885 
L 32.905075 3.00024 
L 32.445873 3.00024 
L 32.445873 21.692885 
" clip-path="url(#p8053f3d163)" style="fill: #1a68ae"/>
    <path d="M 32.905075 21.692885 
L 33.364276 21.692885 
L 33.364276 3.00024 
L 32.905075 3.00024 
L 32.905075 21.692885 
" clip-path="url(#p8053f3d163)" style="fill: #1a68ae"/>
    <path d="M 33.364276 21.692885 
L 33.823478 21.692885 
L 33.823478 3.00024 
L 33.364276 3.00024 
L 33.364276 21.692885 
" clip-path="url(#p8053f3d163)" style="fill: #1e6db2"/>
    <path d="M 33.823478 21.692885 
L 34.28268 21.692885 
L 34.28268 3.00024 
L 33.823478 3.00024 
L 33.823478 21.692885 
" clip-path="url(#p8053f3d163)" style="fill: #2f7fbc"/>
    <path d="M 34.28268 21.692885 
L 34.741882 21.692885 
L 34.741882 3.00024 
L 34.28268 3.00024 
L 34.28268 21.692885 
" clip-path="url(#p8053f3d163)" style="fill: #5ba3d0"/>
    <path d="M 34.741882 21.692885 
L 35.201084 21.692885 
L 35.201084 3.00024 
L 34.741882 3.00024 
L 34.741882 21.692885 
" clip-path="url(#p8053f3d163)" style="fill: #afd1e7"/>
    <path d="M 35.201084 21.692885 
L 35.660285 21.692885 
L 35.660285 3.00024 
L 35.201084 3.00024 
L 35.201084 21.692885 
" clip-path="url(#p8053f3d163)" style="fill: #dbe9f6"/>
    <path d="M 35.660285 21.692885 
L 36.119487 21.692885 
L 36.119487 3.00024 
L 35.660285 3.00024 
L 35.660285 21.692885 
" clip-path="url(#p8053f3d163)" style="fill: #e2edf8"/>
    <path d="M 36.119487 21.692885 
L 36.578689 21.692885 
L 36.578689 3.00024 
L 36.119487 3.00024 
L 36.119487 21.692885 
" clip-path="url(#p8053f3d163)" style="fill: #cddff1"/>
    <path d="M 36.578689 21.692885 
L 37.037891 21.692885 
L 37.037891 3.00024 
L 36.578689 3.00024 
L 36.578689 21.692885 
" clip-path="url(#p8053f3d163)" style="fill: #82bbdb"/>
    <path d="M 37.037891 21.692885 
L 37.497093 21.692885 
L 37.497093 3.00024 
L 37.037891 3.00024 
L 37.037891 21.692885 
" clip-path="url(#p8053f3d163)" style="fill: #3f8fc5"/>
    <path d="M 37.497093 21.692885 
L 37.956295 21.692885 
L 37.956295 3.00024 
L 37.497093 3.00024 
L 37.497093 21.692885 
" clip-path="url(#p8053f3d163)" style="fill: #2474b7"/>
    <path d="M 37.956295 21.692885 
L 38.415496 21.692885 
L 38.415496 3.00024 
L 37.956295 3.00024 
L 37.956295 21.692885 
" clip-path="url(#p8053f3d163)" style="fill: #1c6ab0"/>
    <path d="M 38.415496 21.692885 
L 38.874698 21.692885 
L 38.874698 3.00024 
L 38.415496 3.00024 
L 38.415496 21.692885 
" clip-path="url(#p8053f3d163)" style="fill: #1a68ae"/>
    <path d="M 38.874698 21.692885 
L 39.3339 21.692885 
L 39.3339 3.00024 
L 38.874698 3.00024 
L 38.874698 21.692885 
" clip-path="url(#p8053f3d163)" style="fill: #1b69af"/>
    <path d="M 39.3339 21.692885 
L 39.793102 21.692885 
L 39.793102 3.00024 
L 39.3339 3.00024 
L 39.3339 21.692885 
" clip-path="url(#p8053f3d163)" style="fill: #2171b5"/>
    <path d="M 39.793102 21.692885 
L 40.252304 21.692885 
L 40.252304 3.00024 
L 39.793102 3.00024 
L 39.793102 21.692885 
" clip-path="url(#p8053f3d163)" style="fill: #3989c1"/>
    <path d="M 40.252304 21.692885 
L 40.711505 21.692885 
L 40.711505 3.00024 
L 40.252304 3.00024 
L 40.252304 21.692885 
" clip-path="url(#p8053f3d163)" style="fill: #74b3d8"/>
    <path d="M 40.711505 21.692885 
L 41.170707 21.692885 
L 41.170707 3.00024 
L 40.711505 3.00024 
L 40.711505 21.692885 
" clip-path="url(#p8053f3d163)" style="fill: #c6dbef"/>
    <path d="M 41.170707 21.692885 
L 41.629909 21.692885 
L 41.629909 3.00024 
L 41.170707 3.00024 
L 41.170707 21.692885 
" clip-path="url(#p8053f3d163)" style="fill: #e0ecf8"/>
    <path d="M 41.629909 21.692885 
L 42.089111 21.692885 
L 42.089111 3.00024 
L 41.629909 3.00024 
L 41.629909 21.692885 
" clip-path="url(#p8053f3d163)" style="fill: #deebf7"/>
    <path d="M 42.089111 21.692885 
L 42.548313 21.692885 
L 42.548313 3.00024 
L 42.089111 3.00024 
L 42.089111 21.692885 
" clip-path="url(#p8053f3d163)" style="fill: #bdd7ec"/>
    <path d="M 42.548313 21.692885 
L 43.007515 21.692885 
L 43.007515 3.00024 
L 42.548313 3.00024 
L 42.548313 21.692885 
" clip-path="url(#p8053f3d163)" style="fill: #68acd5"/>
    <path d="M 43.007515 21.692885 
L 43.466716 21.692885 
L 43.466716 3.00024 
L 43.007515 3.00024 
L 43.007515 21.692885 
" clip-path="url(#p8053f3d163)" style="fill: #3484bf"/>
    <path d="M 43.466716 21.692885 
L 43.925918 21.692885 
L 43.925918 3.00024 
L 43.466716 3.00024 
L 43.466716 21.692885 
" clip-path="url(#p8053f3d163)" style="fill: #2070b4"/>
    <path d="M 43.925918 21.692885 
L 44.38512 21.692885 
L 44.38512 3.00024 
L 43.925918 3.00024 
L 43.925918 21.692885 
" clip-path="url(#p8053f3d163)" style="fill: #1b69af"/>
    <path d="M 44.38512 21.692885 
L 44.844322 21.692885 
L 44.844322 3.00024 
L 44.38512 3.00024 
L 44.38512 21.692885 
" clip-path="url(#p8053f3d163)" style="fill: #1a68ae"/>
    <path d="M 44.844322 21.692885 
L 45.303524 21.692885 
L 45.303524 3.00024 
L 44.844322 3.00024 
L 44.844322 21.692885 
" clip-path="url(#p8053f3d163)" style="fill: #1c6bb0"/>
    <path d="M 45.303524 21.692885 
L 45.762725 21.692885 
L 45.762725 3.00024 
L 45.303524 3.00024 
L 45.303524 21.692885 
" clip-path="url(#p8053f3d163)" style="fill: #2676b8"/>
    <path d="M 45.762725 21.692885 
L 46.221927 21.692885 
L 46.221927 3.00024 
L 45.762725 3.00024 
L 45.762725 21.692885 
" clip-path="url(#p8053f3d163)" style="fill: #4493c7"/>
    <path d="M 46.221927 21.692885 
L 46.681129 21.692885 
L 46.681129 3.00024 
L 46.221927 3.00024 
L 46.221927 21.692885 
" clip-path="url(#p8053f3d163)" style="fill: #8dc1dd"/>
    <path d="M 46.681129 21.692885 
L 47.140331 21.692885 
L 47.140331 3.00024 
L 46.681129 3.00024 
L 46.681129 21.692885 
" clip-path="url(#p8053f3d163)" style="fill: #d0e2f2"/>
    <path d="M 47.140331 21.692885 
L 47.599533 21.692885 
L 47.599533 3.00024 
L 47.140331 3.00024 
L 47.140331 21.692885 
" clip-path="url(#p8053f3d163)" style="fill: #e3eef8"/>
    <path d="M 47.599533 21.692885 
L 48.058735 21.692885 
L 48.058735 3.00024 
L 47.599533 3.00024 
L 47.599533 21.692885 
" clip-path="url(#p8053f3d163)" style="fill: #d9e7f5"/>
    <path d="M 48.058735 21.692885 
L 48.517936 21.692885 
L 48.517936 3.00024 
L 48.058735 3.00024 
L 48.058735 21.692885 
" clip-path="url(#p8053f3d163)" style="fill: #a8cee4"/>
    <path d="M 48.517936 21.692885 
L 48.977138 21.692885 
L 48.977138 3.00024 
L 48.517936 3.00024 
L 48.517936 21.692885 
" clip-path="url(#p8053f3d163)" style="fill: #549fcd"/>
    <path d="M 48.977138 21.692885 
L 49.43634 21.692885 
L 49.43634 3.00024 
L 48.977138 3.00024 
L 48.977138 21.692885 
" clip-path="url(#p8053f3d163)" style="fill: #2d7dbb"/>
    <path d="M 49.43634 21.692885 
L 49.895542 21.692885 
L 49.895542 3.00024 
L 49.43634 3.00024 
L 49.43634 21.692885 
" clip-path="url(#p8053f3d163)" style="fill: #1e6db2"/>
    <path d="M 49.895542 21.692885 
L 50.354744 21.692885 
L 50.354744 3.00024 
L 49.895542 3.00024 
L 49.895542 21.692885 
" clip-path="url(#p8053f3d163)" style="fill: #1b69af"/>
    <path d="M 50.354744 21.692885 
L 50.813945 21.692885 
L 50.813945 3.00024 
L 50.354744 3.00024 
L 50.354744 21.692885 
" clip-path="url(#p8053f3d163)" style="fill: #1b69af"/>
    <path d="M 50.813945 21.692885 
L 51.273147 21.692885 
L 51.273147 3.00024 
L 50.813945 3.00024 
L 50.813945 21.692885 
" clip-path="url(#p8053f3d163)" style="fill: #1e6db2"/>
    <path d="M 51.273147 21.692885 
L 51.732349 21.692885 
L 51.732349 3.00024 
L 51.273147 3.00024 
L 51.273147 21.692885 
" clip-path="url(#p8053f3d163)" style="fill: #2d7dbb"/>
    <path d="M 51.732349 21.692885 
L 52.191551 21.692885 
L 52.191551 3.00024 
L 51.732349 3.00024 
L 51.732349 21.692885 
" clip-path="url(#p8053f3d163)" style="fill: #56a0ce"/>
    <path d="M 52.191551 21.692885 
L 52.650753 21.692885 
L 52.650753 3.00024 
L 52.191551 3.00024 
L 52.191551 21.692885 
" clip-path="url(#p8053f3d163)" style="fill: #a9cfe5"/>
    <path d="M 52.650753 21.692885 
L 53.109955 21.692885 
L 53.109955 3.00024 
L 52.650753 3.00024 
L 52.650753 21.692885 
" clip-path="url(#p8053f3d163)" style="fill: #d9e7f5"/>
    <path d="M 53.109955 21.692885 
L 53.569156 21.692885 
L 53.569156 3.00024 
L 53.109955 3.00024 
L 53.109955 21.692885 
" clip-path="url(#p8053f3d163)" style="fill: #e2edf8"/>
    <path d="M 53.569156 21.692885 
L 54.028358 21.692885 
L 54.028358 3.00024 
L 53.569156 3.00024 
L 53.569156 21.692885 
" clip-path="url(#p8053f3d163)" style="fill: #d0e1f2"/>
    <path d="M 54.028358 21.692885 
L 54.48756 21.692885 
L 54.48756 3.00024 
L 54.028358 3.00024 
L 54.028358 21.692885 
" clip-path="url(#p8053f3d163)" style="fill: #8abfdd"/>
    <path d="M 54.48756 21.692885 
L 54.946762 21.692885 
L 54.946762 3.00024 
L 54.48756 3.00024 
L 54.48756 21.692885 
" clip-path="url(#p8053f3d163)" style="fill: #4191c6"/>
    <path d="M 54.946762 21.692885 
L 55.405964 21.692885 
L 55.405964 3.00024 
L 54.946762 3.00024 
L 54.946762 21.692885 
" clip-path="url(#p8053f3d163)" style="fill: #2474b7"/>
    <path d="M 55.405964 21.692885 
L 55.865165 21.692885 
L 55.865165 3.00024 
L 55.405964 3.00024 
L 55.405964 21.692885 
" clip-path="url(#p8053f3d163)" style="fill: #1c6ab0"/>
    <path d="M 55.865165 21.692885 
L 56.324367 21.692885 
L 56.324367 3.00024 
L 55.865165 3.00024 
L 55.865165 21.692885 
" clip-path="url(#p8053f3d163)" style="fill: #1967ad"/>
    <path d="M 56.324367 21.692885 
L 56.783569 21.692885 
L 56.783569 3.00024 
L 56.324367 3.00024 
L 56.324367 21.692885 
" clip-path="url(#p8053f3d163)" style="fill: #1b69af"/>
    <path d="M 56.783569 21.692885 
L 57.242771 21.692885 
L 57.242771 3.00024 
L 56.783569 3.00024 
L 56.783569 21.692885 
" clip-path="url(#p8053f3d163)" style="fill: #2171b5"/>
    <path d="M 57.242771 21.692885 
L 57.701973 21.692885 
L 57.701973 3.00024 
L 57.242771 3.00024 
L 57.242771 21.692885 
" clip-path="url(#p8053f3d163)" style="fill: #3989c1"/>
    <path d="M 57.701973 21.692885 
L 58.161175 21.692885 
L 58.161175 3.00024 
L 57.701973 3.00024 
L 57.701973 21.692885 
" clip-path="url(#p8053f3d163)" style="fill: #74b3d8"/>
    <path d="M 58.161175 21.692885 
L 58.620376 21.692885 
L 58.620376 3.00024 
L 58.161175 3.00024 
L 58.161175 21.692885 
" clip-path="url(#p8053f3d163)" style="fill: #c7dbef"/>
    <path d="M 58.620376 21.692885 
L 59.079578 21.692885 
L 59.079578 3.00024 
L 58.620376 3.00024 
L 58.620376 21.692885 
" clip-path="url(#p8053f3d163)" style="fill: #dfecf7"/>
    <path d="M 59.079578 21.692885 
L 59.53878 21.692885 
L 59.53878 3.00024 
L 59.079578 3.00024 
L 59.079578 21.692885 
" clip-path="url(#p8053f3d163)" style="fill: #ddeaf7"/>
    <path d="M 59.53878 21.692885 
L 59.997982 21.692885 
L 59.997982 3.00024 
L 59.53878 3.00024 
L 59.53878 21.692885 
" clip-path="url(#p8053f3d163)" style="fill: #b9d6ea"/>
    <path d="M 59.997982 21.692885 
L 60.457184 21.692885 
L 60.457184 3.00024 
L 59.997982 3.00024 
L 59.997982 21.692885 
" clip-path="url(#p8053f3d163)" style="fill: #64a9d3"/>
    <path d="M 60.457184 21.692885 
L 60.916385 21.692885 
L 60.916385 3.00024 
L 60.457184 3.00024 
L 60.457184 21.692885 
" clip-path="url(#p8053f3d163)" style="fill: #3282be"/>
    <path d="M 60.916385 21.692885 
L 61.375587 21.692885 
L 61.375587 3.00024 
L 60.916385 3.00024 
L 60.916385 21.692885 
" clip-path="url(#p8053f3d163)" style="fill: #1e6db2"/>
    <path d="M 61.375587 21.692885 
L 61.834789 21.692885 
L 61.834789 3.00024 
L 61.375587 3.00024 
L 61.375587 21.692885 
" clip-path="url(#p8053f3d163)" style="fill: #1967ad"/>
    <path d="M 61.834789 21.692885 
L 62.293991 21.692885 
L 62.293991 3.00024 
L 61.834789 3.00024 
L 61.834789 21.692885 
" clip-path="url(#p8053f3d163)" style="fill: #1966ad"/>
    <path d="M 62.293991 21.692885 
L 62.753193 21.692885 
L 62.753193 3.00024 
L 62.293991 3.00024 
L 62.293991 21.692885 
" clip-path="url(#p8053f3d163)" style="fill: #1c6bb0"/>
    <path d="M 62.753193 21.692885 
L 63.212395 21.692885 
L 63.212395 3.00024 
L 62.753193 3.00024 
L 62.753193 21.692885 
" clip-path="url(#p8053f3d163)" style="fill: #2d7dbb"/>
    <path d="M 63.212395 21.692885 
L 63.671596 21.692885 
L 63.671596 3.00024 
L 63.212395 3.00024 
L 63.212395 21.692885 
" clip-path="url(#p8053f3d163)" style="fill: #56a0ce"/>
    <path d="M 63.671596 21.692885 
L 64.130798 21.692885 
L 64.130798 3.00024 
L 63.671596 3.00024 
L 63.671596 21.692885 
" clip-path="url(#p8053f3d163)" style="fill: #a9cfe5"/>
    <path d="M 64.130798 21.692885 
L 64.59 21.692885 
L 64.59 3.00024 
L 64.130798 3.00024 
L 64.130798 21.692885 
" clip-path="url(#p8053f3d163)" style="fill: #d9e7f5"/>
    <path d="M 64.59 21.692885 
L 65.049202 21.692885 
L 65.049202 3.00024 
L 64.59 3.00024 
L 64.59 21.692885 
" clip-path="url(#p8053f3d163)" style="fill: #e1edf8"/>
    <path d="M 65.049202 21.692885 
L 65.508404 21.692885 
L 65.508404 3.00024 
L 65.049202 3.00024 
L 65.049202 21.692885 
" clip-path="url(#p8053f3d163)" style="fill: #cddff1"/>
    <path d="M 65.508404 21.692885 
L 65.967605 21.692885 
L 65.967605 3.00024 
L 65.508404 3.00024 
L 65.508404 21.692885 
" clip-path="url(#p8053f3d163)" style="fill: #84bcdb"/>
    <path d="M 65.967605 21.692885 
L 66.426807 21.692885 
L 66.426807 3.00024 
L 65.967605 3.00024 
L 65.967605 21.692885 
" clip-path="url(#p8053f3d163)" style="fill: #3e8ec4"/>
    <path d="M 66.426807 21.692885 
L 66.886009 21.692885 
L 66.886009 3.00024 
L 66.426807 3.00024 
L 66.426807 21.692885 
" clip-path="url(#p8053f3d163)" style="fill: #2171b5"/>
    <path d="M 66.886009 21.692885 
L 67.345211 21.692885 
L 67.345211 3.00024 
L 66.886009 3.00024 
L 66.886009 21.692885 
" clip-path="url(#p8053f3d163)" style="fill: #1967ad"/>
    <path d="M 67.345211 21.692885 
L 67.804413 21.692885 
L 67.804413 3.00024 
L 67.345211 3.00024 
L 67.345211 21.692885 
" clip-path="url(#p8053f3d163)" style="fill: #1865ac"/>
    <path d="M 67.804413 21.692885 
L 68.263615 21.692885 
L 68.263615 3.00024 
L 67.804413 3.00024 
L 67.804413 21.692885 
" clip-path="url(#p8053f3d163)" style="fill: #1a68ae"/>
    <path d="M 68.263615 21.692885 
L 68.722816 21.692885 
L 68.722816 3.00024 
L 68.263615 3.00024 
L 68.263615 21.692885 
" clip-path="url(#p8053f3d163)" style="fill: #2676b8"/>
    <path d="M 68.722816 21.692885 
L 69.182018 21.692885 
L 69.182018 3.00024 
L 68.722816 3.00024 
L 68.722816 21.692885 
" clip-path="url(#p8053f3d163)" style="fill: #4a98c9"/>
    <path d="M 69.182018 21.692885 
L 69.64122 21.692885 
L 69.64122 3.00024 
L 69.182018 3.00024 
L 69.182018 21.692885 
" clip-path="url(#p8053f3d163)" style="fill: #9ac8e0"/>
    <path d="M 69.64122 21.692885 
L 70.100422 21.692885 
L 70.100422 3.00024 
L 69.64122 3.00024 
L 69.64122 21.692885 
" clip-path="url(#p8053f3d163)" style="fill: #d3e4f3"/>
    <path d="M 70.100422 21.692885 
L 70.559624 21.692885 
L 70.559624 3.00024 
L 70.100422 3.00024 
L 70.100422 21.692885 
" clip-path="url(#p8053f3d163)" style="fill: #e0ecf8"/>
    <path d="M 70.559624 21.692885 
L 71.018825 21.692885 
L 71.018825 3.00024 
L 70.559624 3.00024 
L 70.559624 21.692885 
" clip-path="url(#p8053f3d163)" style="fill: #d1e2f3"/>
    <path d="M 71.018825 21.692885 
L 71.478027 21.692885 
L 71.478027 3.00024 
L 71.018825 3.00024 
L 71.018825 21.692885 
" clip-path="url(#p8053f3d163)" style="fill: #92c4de"/>
    <path d="M 71.478027 21.692885 
L 71.937229 21.692885 
L 71.937229 3.00024 
L 71.478027 3.00024 
L 71.478027 21.692885 
" clip-path="url(#p8053f3d163)" style="fill: #4594c7"/>
    <path d="M 71.937229 21.692885 
L 72.396431 21.692885 
L 72.396431 3.00024 
L 71.937229 3.00024 
L 71.937229 21.692885 
" clip-path="url(#p8053f3d163)" style="fill: #2373b6"/>
    <path d="M 72.396431 21.692885 
L 72.855633 21.692885 
L 72.855633 3.00024 
L 72.396431 3.00024 
L 72.396431 21.692885 
" clip-path="url(#p8053f3d163)" style="fill: #1966ad"/>
    <path d="M 72.855633 21.692885 
L 73.314835 21.692885 
L 73.314835 3.00024 
L 72.855633 3.00024 
L 72.855633 21.692885 
" clip-path="url(#p8053f3d163)" style="fill: #1663aa"/>
    <path d="M 73.314835 21.692885 
L 73.774036 21.692885 
L 73.774036 3.00024 
L 73.314835 3.00024 
L 73.314835 21.692885 
" clip-path="url(#p8053f3d163)" style="fill: #1967ad"/>
    <path d="M 73.774036 21.692885 
L 74.233238 21.692885 
L 74.233238 3.00024 
L 73.774036 3.00024 
L 73.774036 21.692885 
" clip-path="url(#p8053f3d163)" style="fill: #2676b8"/>
    <path d="M 74.233238 21.692885 
L 74.69244 21.692885 
L 74.69244 3.00024 
L 74.233238 3.00024 
L 74.233238 21.692885 
" clip-path="url(#p8053f3d163)" style="fill: #4b98ca"/>
    <path d="M 74.69244 21.692885 
L 75.151642 21.692885 
L 75.151642 3.00024 
L 74.69244 3.00024 
L 74.69244 21.692885 
" clip-path="url(#p8053f3d163)" style="fill: #9cc9e1"/>
    <path d="M 75.151642 21.692885 
L 75.610844 21.692885 
L 75.610844 3.00024 
L 75.151642 3.00024 
L 75.151642 21.692885 
" clip-path="url(#p8053f3d163)" style="fill: #d3e4f3"/>
    <path d="M 75.610844 21.692885 
L 76.070045 21.692885 
L 76.070045 3.00024 
L 75.610844 3.00024 
L 75.610844 21.692885 
" clip-path="url(#p8053f3d163)" style="fill: #dfecf7"/>
    <path d="M 76.070045 21.692885 
L 76.529247 21.692885 
L 76.529247 3.00024 
L 76.070045 3.00024 
L 76.070045 21.692885 
" clip-path="url(#p8053f3d163)" style="fill: #cfe1f2"/>
    <path d="M 76.529247 21.692885 
L 76.988449 21.692885 
L 76.988449 3.00024 
L 76.529247 3.00024 
L 76.529247 21.692885 
" clip-path="url(#p8053f3d163)" style="fill: #8abfdd"/>
    <path d="M 76.988449 21.692885 
L 77.447651 21.692885 
L 77.447651 3.00024 
L 76.988449 3.00024 
L 76.988449 21.692885 
" clip-path="url(#p8053f3d163)" style="fill: #4090c5"/>
    <path d="M 77.447651 21.692885 
L 77.906853 21.692885 
L 77.906853 3.00024 
L 77.447651 3.00024 
L 77.447651 21.692885 
" clip-path="url(#p8053f3d163)" style="fill: #2171b5"/>
    <path d="M 77.906853 21.692885 
L 78.366055 21.692885 
L 78.366055 3.00024 
L 77.906853 3.00024 
L 77.906853 21.692885 
" clip-path="url(#p8053f3d163)" style="fill: #1865ac"/>
    <path d="M 78.366055 21.692885 
L 78.825256 21.692885 
L 78.825256 3.00024 
L 78.366055 3.00024 
L 78.366055 21.692885 
" clip-path="url(#p8053f3d163)" style="fill: #1663aa"/>
    <path d="M 78.825256 21.692885 
L 79.284458 21.692885 
L 79.284458 3.00024 
L 78.825256 3.00024 
L 78.825256 21.692885 
" clip-path="url(#p8053f3d163)" style="fill: #1a68ae"/>
    <path d="M 79.284458 21.692885 
L 79.74366 21.692885 
L 79.74366 3.00024 
L 79.284458 3.00024 
L 79.284458 21.692885 
" clip-path="url(#p8053f3d163)" style="fill: #2c7cba"/>
    <path d="M 79.74366 21.692885 
L 80.202862 21.692885 
L 80.202862 3.00024 
L 79.74366 3.00024 
L 79.74366 21.692885 
" clip-path="url(#p8053f3d163)" style="fill: #58a1cf"/>
    <path d="M 80.202862 21.692885 
L 80.662064 21.692885 
L 80.662064 3.00024 
L 80.202862 3.00024 
L 80.202862 21.692885 
" clip-path="url(#p8053f3d163)" style="fill: #add0e6"/>
    <path d="M 80.662064 21.692885 
L 81.121265 21.692885 
L 81.121265 3.00024 
L 80.662064 3.00024 
L 80.662064 21.692885 
" clip-path="url(#p8053f3d163)" style="fill: #d8e7f5"/>
    <path d="M 81.121265 21.692885 
L 81.580467 21.692885 
L 81.580467 3.00024 
L 81.121265 3.00024 
L 81.121265 21.692885 
" clip-path="url(#p8053f3d163)" style="fill: #ddeaf7"/>
    <path d="M 81.580467 21.692885 
L 82.039669 21.692885 
L 82.039669 3.00024 
L 81.580467 3.00024 
L 81.580467 21.692885 
" clip-path="url(#p8053f3d163)" style="fill: #c4daee"/>
    <path d="M 82.039669 21.692885 
L 82.498871 21.692885 
L 82.498871 3.00024 
L 82.039669 3.00024 
L 82.039669 21.692885 
" clip-path="url(#p8053f3d163)" style="fill: #72b2d8"/>
    <path d="M 82.498871 21.692885 
L 82.958073 21.692885 
L 82.958073 3.00024 
L 82.498871 3.00024 
L 82.498871 21.692885 
" clip-path="url(#p8053f3d163)" style="fill: #3686c0"/>
    <path d="M 82.958073 21.692885 
L 83.417275 21.692885 
L 83.417275 3.00024 
L 82.958073 3.00024 
L 82.958073 21.692885 
" clip-path="url(#p8053f3d163)" style="fill: #1d6cb1"/>
    <path d="M 83.417275 21.692885 
L 83.876476 21.692885 
L 83.876476 3.00024 
L 83.417275 3.00024 
L 83.417275 21.692885 
" clip-path="url(#p8053f3d163)" style="fill: #1663aa"/>
    <path d="M 83.876476 21.692885 
L 84.335678 21.692885 
L 84.335678 3.00024 
L 83.876476 3.00024 
L 83.876476 21.692885 
" clip-path="url(#p8053f3d163)" style="fill: #1663aa"/>
    <path d="M 84.335678 21.692885 
L 84.79488 21.692885 
L 84.79488 3.00024 
L 84.335678 3.00024 
L 84.335678 21.692885 
" clip-path="url(#p8053f3d163)" style="fill: #1e6db2"/>
    <path d="M 84.79488 21.692885 
L 85.254082 21.692885 
L 85.254082 3.00024 
L 84.79488 3.00024 
L 84.79488 21.692885 
" clip-path="url(#p8053f3d163)" style="fill: #3787c0"/>
    <path d="M 85.254082 21.692885 
L 85.713284 21.692885 
L 85.713284 3.00024 
L 85.254082 3.00024 
L 85.254082 21.692885 
" clip-path="url(#p8053f3d163)" style="fill: #75b4d8"/>
    <path d="M 85.713284 21.692885 
L 86.172485 21.692885 
L 86.172485 3.00024 
L 85.713284 3.00024 
L 85.713284 21.692885 
" clip-path="url(#p8053f3d163)" style="fill: #c6dbef"/>
    <path d="M 86.172485 21.692885 
L 86.631687 21.692885 
L 86.631687 3.00024 
L 86.172485 3.00024 
L 86.172485 21.692885 
" clip-path="url(#p8053f3d163)" style="fill: #ddeaf7"/>
    <path d="M 86.631687 21.692885 
L 87.090889 21.692885 
L 87.090889 3.00024 
L 86.631687 3.00024 
L 86.631687 21.692885 
" clip-path="url(#p8053f3d163)" style="fill: #d7e6f5"/>
    <path d="M 87.090889 21.692885 
L 87.550091 21.692885 
L 87.550091 3.00024 
L 87.090889 3.00024 
L 87.090889 21.692885 
" clip-path="url(#p8053f3d163)" style="fill: #a9cfe5"/>
    <path d="M 87.550091 21.692885 
L 88.009293 21.692885 
L 88.009293 3.00024 
L 87.550091 3.00024 
L 87.550091 21.692885 
" clip-path="url(#p8053f3d163)" style="fill: #549fcd"/>
    <path d="M 88.009293 21.692885 
L 88.468495 21.692885 
L 88.468495 3.00024 
L 88.009293 3.00024 
L 88.009293 21.692885 
" clip-path="url(#p8053f3d163)" style="fill: #2a7ab9"/>
    <path d="M 88.468495 21.692885 
L 88.927696 21.692885 
L 88.927696 3.00024 
L 88.468495 3.00024 
L 88.468495 21.692885 
" clip-path="url(#p8053f3d163)" style="fill: #1967ad"/>
    <path d="M 88.927696 21.692885 
L 89.386898 21.692885 
L 89.386898 3.00024 
L 88.927696 3.00024 
L 88.927696 21.692885 
" clip-path="url(#p8053f3d163)" style="fill: #1562a9"/>
    <path d="M 89.386898 21.692885 
L 89.8461 21.692885 
L 89.8461 3.00024 
L 89.386898 3.00024 
L 89.386898 21.692885 
" clip-path="url(#p8053f3d163)" style="fill: #1966ad"/>
    <path d="M 89.8461 21.692885 
L 90.305302 21.692885 
L 90.305302 3.00024 
L 89.8461 3.00024 
L 89.8461 21.692885 
" clip-path="url(#p8053f3d163)" style="fill: #2676b8"/>
    <path d="M 90.305302 21.692885 
L 90.764504 21.692885 
L 90.764504 3.00024 
L 90.305302 3.00024 
L 90.305302 21.692885 
" clip-path="url(#p8053f3d163)" style="fill: #4e9acb"/>
    <path d="M 90.764504 21.692885 
L 91.223705 21.692885 
L 91.223705 3.00024 
L 90.764504 3.00024 
L 90.764504 21.692885 
" clip-path="url(#p8053f3d163)" style="fill: #a0cbe2"/>
    <path d="M 91.223705 21.692885 
L 91.682907 21.692885 
L 91.682907 3.00024 
L 91.223705 3.00024 
L 91.223705 21.692885 
" clip-path="url(#p8053f3d163)" style="fill: #d4e4f4"/>
    <path d="M 91.682907 21.692885 
L 92.142109 21.692885 
L 92.142109 3.00024 
L 91.682907 3.00024 
L 91.682907 21.692885 
" clip-path="url(#p8053f3d163)" style="fill: #ddeaf7"/>
    <path d="M 92.142109 21.692885 
L 92.601311 21.692885 
L 92.601311 3.00024 
L 92.142109 3.00024 
L 92.142109 21.692885 
" clip-path="url(#p8053f3d163)" style="fill: #caddf0"/>
    <path d="M 92.601311 21.692885 
L 93.060513 21.692885 
L 93.060513 3.00024 
L 92.601311 3.00024 
L 92.601311 21.692885 
" clip-path="url(#p8053f3d163)" style="fill: #7db8da"/>
    <path d="M 93.060513 21.692885 
L 93.519715 21.692885 
L 93.519715 3.00024 
L 93.060513 3.00024 
L 93.060513 21.692885 
" clip-path="url(#p8053f3d163)" style="fill: #3b8bc2"/>
    <path d="M 93.519715 21.692885 
L 93.978916 21.692885 
L 93.978916 3.00024 
L 93.519715 3.00024 
L 93.519715 21.692885 
" clip-path="url(#p8053f3d163)" style="fill: #1f6eb3"/>
    <path d="M 93.978916 21.692885 
L 94.438118 21.692885 
L 94.438118 3.00024 
L 93.978916 3.00024 
L 93.978916 21.692885 
" clip-path="url(#p8053f3d163)" style="fill: #1663aa"/>
    <path d="M 94.438118 21.692885 
L 94.89732 21.692885 
L 94.89732 3.00024 
L 94.438118 3.00024 
L 94.438118 21.692885 
" clip-path="url(#p8053f3d163)" style="fill: #1663aa"/>
    <path d="M 94.89732 21.692885 
L 95.356522 21.692885 
L 95.356522 3.00024 
L 94.89732 3.00024 
L 94.89732 21.692885 
" clip-path="url(#p8053f3d163)" style="fill: #1d6cb1"/>
    <path d="M 95.356522 21.692885 
L 95.815724 21.692885 
L 95.815724 3.00024 
L 95.356522 3.00024 
L 95.356522 21.692885 
" clip-path="url(#p8053f3d163)" style="fill: #3686c0"/>
    <path d="M 95.815724 21.692885 
L 96.274925 21.692885 
L 96.274925 3.00024 
L 95.815724 3.00024 
L 95.815724 21.692885 
" clip-path="url(#p8053f3d163)" style="fill: #72b2d8"/>
    <path d="M 96.274925 21.692885 
L 96.734127 21.692885 
L 96.734127 3.00024 
L 96.274925 3.00024 
L 96.274925 21.692885 
" clip-path="url(#p8053f3d163)" style="fill: #c4daee"/>
    <path d="M 96.734127 21.692885 
L 97.193329 21.692885 
L 97.193329 3.00024 
L 96.734127 3.00024 
L 96.734127 21.692885 
" clip-path="url(#p8053f3d163)" style="fill: #dceaf6"/>
    <path d="M 97.193329 21.692885 
L 97.652531 21.692885 
L 97.652531 3.00024 
L 97.193329 3.00024 
L 97.193329 21.692885 
" clip-path="url(#p8053f3d163)" style="fill: #d6e6f4"/>
    <path d="M 97.652531 21.692885 
L 98.111733 21.692885 
L 98.111733 3.00024 
L 97.652531 3.00024 
L 97.652531 21.692885 
" clip-path="url(#p8053f3d163)" style="fill: #a9cfe5"/>
    <path d="M 98.111733 21.692885 
L 98.570935 21.692885 
L 98.570935 3.00024 
L 98.111733 3.00024 
L 98.111733 21.692885 
" clip-path="url(#p8053f3d163)" style="fill: #549fcd"/>
    <path d="M 98.570935 21.692885 
L 99.030136 21.692885 
L 99.030136 3.00024 
L 98.570935 3.00024 
L 98.570935 21.692885 
" clip-path="url(#p8053f3d163)" style="fill: #2a7ab9"/>
    <path d="M 99.030136 21.692885 
L 99.489338 21.692885 
L 99.489338 3.00024 
L 99.030136 3.00024 
L 99.030136 21.692885 
" clip-path="url(#p8053f3d163)" style="fill: #1967ad"/>
    <path d="M 99.489338 21.692885 
L 99.94854 21.692885 
L 99.94854 3.00024 
L 99.489338 3.00024 
L 99.489338 21.692885 
" clip-path="url(#p8053f3d163)" style="fill: #1562a9"/>
    <path d="M 99.94854 21.692885 
L 100.407742 21.692885 
L 100.407742 3.00024 
L 99.94854 3.00024 
L 99.94854 21.692885 
" clip-path="url(#p8053f3d163)" style="fill: #1966ad"/>
    <path d="M 100.407742 21.692885 
L 100.866944 21.692885 
L 100.866944 3.00024 
L 100.407742 3.00024 
L 100.407742 21.692885 
" clip-path="url(#p8053f3d163)" style="fill: #2777b8"/>
    <path d="M 100.866944 21.692885 
L 101.326145 21.692885 
L 101.326145 3.00024 
L 100.866944 3.00024 
L 100.866944 21.692885 
" clip-path="url(#p8053f3d163)" style="fill: #519ccc"/>
    <path d="M 101.326145 21.692885 
L 101.785347 21.692885 
L 101.785347 3.00024 
L 101.326145 3.00024 
L 101.326145 21.692885 
" clip-path="url(#p8053f3d163)" style="fill: #a4cce3"/>
    <path d="M 101.785347 21.692885 
L 102.244549 21.692885 
L 102.244549 3.00024 
L 101.785347 3.00024 
L 101.785347 21.692885 
" clip-path="url(#p8053f3d163)" style="fill: #d5e5f4"/>
    <path d="M 102.244549 21.692885 
L 102.703751 21.692885 
L 102.703751 3.00024 
L 102.244549 3.00024 
L 102.244549 21.692885 
" clip-path="url(#p8053f3d163)" style="fill: #ddeaf7"/>
    <path d="M 102.703751 21.692885 
L 103.162953 21.692885 
L 103.162953 3.00024 
L 102.703751 3.00024 
L 102.703751 21.692885 
" clip-path="url(#p8053f3d163)" style="fill: #c7dcef"/>
    <path d="M 103.162953 21.692885 
L 103.622155 21.692885 
L 103.622155 3.00024 
L 103.162953 3.00024 
L 103.162953 21.692885 
" clip-path="url(#p8053f3d163)" style="fill: #79b5d9"/>
    <path d="M 103.622155 21.692885 
L 104.081356 21.692885 
L 104.081356 3.00024 
L 103.622155 3.00024 
L 103.622155 21.692885 
" clip-path="url(#p8053f3d163)" style="fill: #3989c1"/>
    <path d="M 104.081356 21.692885 
L 104.540558 21.692885 
L 104.540558 3.00024 
L 104.081356 3.00024 
L 104.081356 21.692885 
" clip-path="url(#p8053f3d163)" style="fill: #1e6db2"/>
    <path d="M 104.540558 21.692885 
L 104.99976 21.692885 
L 104.99976 3.00024 
L 104.540558 3.00024 
L 104.540558 21.692885 
" clip-path="url(#p8053f3d163)" style="fill: #1663aa"/>
   </g>
   <g id="matplotlib.axis_1"/>
   <g id="matplotlib.axis_2">
    <g id="text_1">
     <!-- $n_A$ -->
     <g style="fill: #214478" transform="translate(3.00024 15.657812)scale(0.12 -0.12)">
      <defs>
       <path id="DejaVuSans-Oblique-6e" d="M 3566 2113 
L 3156 0 
L 2578 0 
L 2988 2091 
Q 3016 2238 3031 2350 
Q 3047 2463 3047 2528 
Q 3047 2791 2881 2937 
Q 2716 3084 2419 3084 
Q 1956 3084 1622 2776 
Q 1288 2469 1184 1941 
L 800 0 
L 225 0 
L 903 3500 
L 1478 3500 
L 1363 2950 
Q 1603 3253 1940 3418 
Q 2278 3584 2650 3584 
Q 3113 3584 3367 3334 
Q 3622 3084 3622 2631 
Q 3622 2519 3608 2391 
Q 3594 2263 3566 2113 
z
" transform="scale(0.015625)"/>
       <path id="DejaVuSans-Oblique-41" d="M 2356 4666 
L 3072 4666 
L 3938 0 
L 3278 0 
L 3084 1197 
L 984 1197 
L 325 0 
L -341 0 
L 2356 4666 
z
M 2584 4044 
L 1275 1722 
L 2988 1722 
L 2584 4044 
z
" transform="scale(0.015625)"/>
      </defs>
      <use xlink:href="#DejaVuSans-Oblique-6e"/>
      <use xlink:href="#DejaVuSans-Oblique-41" transform="translate(63.378906 -16.40625)scale(0.7)"/>
     </g>
    </g>
   </g>
   <g id="patch_3">
    <path d="M 24.18024 21.692885 
L 24.18024 3.00024 
" style="fill: none; stroke: #000000; stroke-width: 0.8; stroke-linejoin: miter; stroke-linecap: square"/>
   </g>
   <g id="patch_4">
    <path d="M 104.99976 21.692885 
L 104.99976 3.00024 
" style="fill: none; stroke: #000000; stroke-width: 0.8; stroke-linejoin: miter; stroke-linecap: square"/>
   </g>
   <g id="patch_5">
    <path d="M 24.18024 21.692885 
L 104.99976 21.692885 
" style="fill: none; stroke: #000000; stroke-width: 0.8; stroke-linejoin: miter; stroke-linecap: square"/>
   </g>
   <g id="patch_6">
    <path d="M 24.18024 3.00024 
L 104.99976 3.00024 
" style="fill: none; stroke: #000000; stroke-width: 0.8; stroke-linejoin: miter; stroke-linecap: square"/>
   </g>
  </g>
  <g id="axes_2">
   <g id="patch_7">
    <path d="M 24.18024 49.88601 
L 104.99976 49.88601 
L 104.99976 31.193365 
L 24.18024 31.193365 
z
" style="fill: #ffffff"/>
   </g>
   <g id="QuadMesh_2">
    <path d="M 24.18024 49.88601 
L 24.639442 49.88601 
L 24.639442 31.193365 
L 24.18024 31.193365 
L 24.18024 49.88601 
" clip-path="url(#pb4cdad86f8)" style="fill: #f44f39"/>
    <path d="M 24.639442 49.88601 
L 25.098644 49.88601 
L 25.098644 31.193365 
L 24.639442 31.193365 
L 24.639442 49.88601 
" clip-path="url(#pb4cdad86f8)" style="fill: #ef3c2c"/>
    <path d="M 25.098644 49.88601 
L 25.557845 49.88601 
L 25.557845 31.193365 
L 25.098644 31.193365 
L 25.098644 49.88601 
" clip-path="url(#pb4cdad86f8)" style="fill: #db2824"/>
    <path d="M 25.557845 49.88601 
L 26.017047 49.88601 
L 26.017047 31.193365 
L 25.557845 31.193365 
L 25.557845 49.88601 
" clip-path="url(#pb4cdad86f8)" style="fill: #c8171c"/>
    <path d="M 26.017047 49.88601 
L 26.476249 49.88601 
L 26.476249 31.193365 
L 26.017047 31.193365 
L 26.017047 49.88601 
" clip-path="url(#pb4cdad86f8)" style="fill: #b81419"/>
    <path d="M 26.476249 49.88601 
L 26.935451 49.88601 
L 26.935451 31.193365 
L 26.476249 31.193365 
L 26.476249 49.88601 
" clip-path="url(#pb4cdad86f8)" style="fill: #b01217"/>
    <path d="M 26.935451 49.88601 
L 27.394653 49.88601 
L 27.394653 31.193365 
L 26.935451 31.193365 
L 26.935451 49.88601 
" clip-path="url(#pb4cdad86f8)" style="fill: #ad1117"/>
    <path d="M 27.394653 49.88601 
L 27.853855 49.88601 
L 27.853855 31.193365 
L 27.394653 31.193365 
L 27.394653 49.88601 
" clip-path="url(#pb4cdad86f8)" style="fill: #b21218"/>
    <path d="M 27.853855 49.88601 
L 28.313056 49.88601 
L 28.313056 31.193365 
L 27.853855 31.193365 
L 27.853855 49.88601 
" clip-path="url(#pb4cdad86f8)" style="fill: #be151a"/>
    <path d="M 28.313056 49.88601 
L 28.772258 49.88601 
L 28.772258 31.193365 
L 28.313056 31.193365 
L 28.313056 49.88601 
" clip-path="url(#pb4cdad86f8)" style="fill: #cf1c1f"/>
    <path d="M 28.772258 49.88601 
L 29.23146 49.88601 
L 29.23146 31.193365 
L 28.772258 31.193365 
L 28.772258 49.88601 
" clip-path="url(#pb4cdad86f8)" style="fill: #e32f27"/>
    <path d="M 29.23146 49.88601 
L 29.690662 49.88601 
L 29.690662 31.193365 
L 29.23146 31.193365 
L 29.23146 49.88601 
" clip-path="url(#pb4cdad86f8)" style="fill: #f24633"/>
    <path d="M 29.690662 49.88601 
L 30.149864 49.88601 
L 30.149864 31.193365 
L 29.690662 31.193365 
L 29.690662 49.88601 
" clip-path="url(#pb4cdad86f8)" style="fill: #f5523a"/>
    <path d="M 30.149864 49.88601 
L 30.609065 49.88601 
L 30.609065 31.193365 
L 30.149864 31.193365 
L 30.149864 49.88601 
" clip-path="url(#pb4cdad86f8)" style="fill: #f34935"/>
    <path d="M 30.609065 49.88601 
L 31.068267 49.88601 
L 31.068267 31.193365 
L 30.609065 31.193365 
L 30.609065 49.88601 
" clip-path="url(#pb4cdad86f8)" style="fill: #e83429"/>
    <path d="M 31.068267 49.88601 
L 31.527469 49.88601 
L 31.527469 31.193365 
L 31.068267 31.193365 
L 31.068267 49.88601 
" clip-path="url(#pb4cdad86f8)" style="fill: #d32020"/>
    <path d="M 31.527469 49.88601 
L 31.986671 49.88601 
L 31.986671 31.193365 
L 31.527469 31.193365 
L 31.527469 49.88601 
" clip-path="url(#pb4cdad86f8)" style="fill: #c1161b"/>
    <path d="M 31.986671 49.88601 
L 32.445873 49.88601 
L 32.445873 31.193365 
L 31.986671 31.193365 
L 31.986671 49.88601 
" clip-path="url(#pb4cdad86f8)" style="fill: #b51318"/>
    <path d="M 32.445873 49.88601 
L 32.905075 49.88601 
L 32.905075 31.193365 
L 32.445873 31.193365 
L 32.445873 49.88601 
" clip-path="url(#pb4cdad86f8)" style="fill: #af1117"/>
    <path d="M 32.905075 49.88601 
L 33.364276 49.88601 
L 33.364276 31.193365 
L 32.905075 31.193365 
L 32.905075 49.88601 
" clip-path="url(#pb4cdad86f8)" style="fill: #af1117"/>
    <path d="M 33.364276 49.88601 
L 33.823478 49.88601 
L 33.823478 31.193365 
L 33.364276 31.193365 
L 33.364276 49.88601 
" clip-path="url(#pb4cdad86f8)" style="fill: #b61319"/>
    <path d="M 33.823478 49.88601 
L 34.28268 49.88601 
L 34.28268 31.193365 
L 33.823478 31.193365 
L 33.823478 49.88601 
" clip-path="url(#pb4cdad86f8)" style="fill: #c4161c"/>
    <path d="M 34.28268 49.88601 
L 34.741882 49.88601 
L 34.741882 31.193365 
L 34.28268 31.193365 
L 34.28268 49.88601 
" clip-path="url(#pb4cdad86f8)" style="fill: #d72322"/>
    <path d="M 34.741882 49.88601 
L 35.201084 49.88601 
L 35.201084 31.193365 
L 34.741882 31.193365 
L 34.741882 49.88601 
" clip-path="url(#pb4cdad86f8)" style="fill: #eb372a"/>
    <path d="M 35.201084 49.88601 
L 35.660285 49.88601 
L 35.660285 31.193365 
L 35.201084 31.193365 
L 35.201084 49.88601 
" clip-path="url(#pb4cdad86f8)" style="fill: #f34c37"/>
    <path d="M 35.660285 49.88601 
L 36.119487 49.88601 
L 36.119487 31.193365 
L 35.660285 31.193365 
L 35.660285 49.88601 
" clip-path="url(#pb4cdad86f8)" style="fill: #f5523a"/>
    <path d="M 36.119487 49.88601 
L 36.578689 49.88601 
L 36.578689 31.193365 
L 36.119487 31.193365 
L 36.119487 49.88601 
" clip-path="url(#pb4cdad86f8)" style="fill: #f14331"/>
    <path d="M 36.578689 49.88601 
L 37.037891 49.88601 
L 37.037891 31.193365 
L 36.578689 31.193365 
L 36.578689 49.88601 
" clip-path="url(#pb4cdad86f8)" style="fill: #e12d26"/>
    <path d="M 37.037891 49.88601 
L 37.497093 49.88601 
L 37.497093 31.193365 
L 37.037891 31.193365 
L 37.037891 49.88601 
" clip-path="url(#pb4cdad86f8)" style="fill: #cc191e"/>
    <path d="M 37.497093 49.88601 
L 37.956295 49.88601 
L 37.956295 31.193365 
L 37.497093 31.193365 
L 37.497093 49.88601 
" clip-path="url(#pb4cdad86f8)" style="fill: #bc141a"/>
    <path d="M 37.956295 49.88601 
L 38.415496 49.88601 
L 38.415496 31.193365 
L 37.956295 31.193365 
L 37.956295 49.88601 
" clip-path="url(#pb4cdad86f8)" style="fill: #b11218"/>
    <path d="M 38.415496 49.88601 
L 38.874698 49.88601 
L 38.874698 31.193365 
L 38.415496 31.193365 
L 38.415496 49.88601 
" clip-path="url(#pb4cdad86f8)" style="fill: #ad1117"/>
    <path d="M 38.874698 49.88601 
L 39.3339 49.88601 
L 39.3339 31.193365 
L 38.874698 31.193365 
L 38.874698 49.88601 
" clip-path="url(#pb4cdad86f8)" style="fill: #b01217"/>
    <path d="M 39.3339 49.88601 
L 39.793102 49.88601 
L 39.793102 31.193365 
L 39.3339 31.193365 
L 39.3339 49.88601 
" clip-path="url(#pb4cdad86f8)" style="fill: #b91419"/>
    <path d="M 39.793102 49.88601 
L 40.252304 49.88601 
L 40.252304 31.193365 
L 39.793102 31.193365 
L 39.793102 49.88601 
" clip-path="url(#pb4cdad86f8)" style="fill: #c9181d"/>
    <path d="M 40.252304 49.88601 
L 40.711505 49.88601 
L 40.711505 31.193365 
L 40.252304 31.193365 
L 40.252304 49.88601 
" clip-path="url(#pb4cdad86f8)" style="fill: #dd2a25"/>
    <path d="M 40.711505 49.88601 
L 41.170707 49.88601 
L 41.170707 31.193365 
L 40.711505 31.193365 
L 40.711505 49.88601 
" clip-path="url(#pb4cdad86f8)" style="fill: #f03f2e"/>
    <path d="M 41.170707 49.88601 
L 41.629909 49.88601 
L 41.629909 31.193365 
L 41.170707 31.193365 
L 41.170707 49.88601 
" clip-path="url(#pb4cdad86f8)" style="fill: #f4503a"/>
    <path d="M 41.629909 49.88601 
L 42.089111 49.88601 
L 42.089111 31.193365 
L 41.629909 31.193365 
L 41.629909 49.88601 
" clip-path="url(#pb4cdad86f8)" style="fill: #f44f39"/>
    <path d="M 42.089111 49.88601 
L 42.548313 49.88601 
L 42.548313 31.193365 
L 42.089111 31.193365 
L 42.089111 49.88601 
" clip-path="url(#pb4cdad86f8)" style="fill: #ef3c2c"/>
    <path d="M 42.548313 49.88601 
L 43.007515 49.88601 
L 43.007515 31.193365 
L 42.548313 31.193365 
L 42.548313 49.88601 
" clip-path="url(#pb4cdad86f8)" style="fill: #da2723"/>
    <path d="M 43.007515 49.88601 
L 43.466716 49.88601 
L 43.466716 31.193365 
L 43.007515 31.193365 
L 43.007515 49.88601 
" clip-path="url(#pb4cdad86f8)" style="fill: #c7171c"/>
    <path d="M 43.466716 49.88601 
L 43.925918 49.88601 
L 43.925918 31.193365 
L 43.466716 31.193365 
L 43.466716 49.88601 
" clip-path="url(#pb4cdad86f8)" style="fill: #b81419"/>
    <path d="M 43.925918 49.88601 
L 44.38512 49.88601 
L 44.38512 31.193365 
L 43.925918 31.193365 
L 43.925918 49.88601 
" clip-path="url(#pb4cdad86f8)" style="fill: #b01217"/>
    <path d="M 44.38512 49.88601 
L 44.844322 49.88601 
L 44.844322 31.193365 
L 44.38512 31.193365 
L 44.38512 49.88601 
" clip-path="url(#pb4cdad86f8)" style="fill: #ad1117"/>
    <path d="M 44.844322 49.88601 
L 45.303524 49.88601 
L 45.303524 31.193365 
L 44.844322 31.193365 
L 44.844322 49.88601 
" clip-path="url(#pb4cdad86f8)" style="fill: #b21218"/>
    <path d="M 45.303524 49.88601 
L 45.762725 49.88601 
L 45.762725 31.193365 
L 45.303524 31.193365 
L 45.303524 49.88601 
" clip-path="url(#pb4cdad86f8)" style="fill: #bd151a"/>
    <path d="M 45.762725 49.88601 
L 46.221927 49.88601 
L 46.221927 31.193365 
L 45.762725 31.193365 
L 45.762725 49.88601 
" clip-path="url(#pb4cdad86f8)" style="fill: #cf1c1f"/>
    <path d="M 46.221927 49.88601 
L 46.681129 49.88601 
L 46.681129 31.193365 
L 46.221927 31.193365 
L 46.221927 49.88601 
" clip-path="url(#pb4cdad86f8)" style="fill: #e32f27"/>
    <path d="M 46.681129 49.88601 
L 47.140331 49.88601 
L 47.140331 31.193365 
L 46.681129 31.193365 
L 46.681129 49.88601 
" clip-path="url(#pb4cdad86f8)" style="fill: #f14432"/>
    <path d="M 47.140331 49.88601 
L 47.599533 49.88601 
L 47.599533 31.193365 
L 47.140331 31.193365 
L 47.140331 49.88601 
" clip-path="url(#pb4cdad86f8)" style="fill: #f5523a"/>
    <path d="M 47.599533 49.88601 
L 48.058735 49.88601 
L 48.058735 31.193365 
L 47.599533 31.193365 
L 47.599533 49.88601 
" clip-path="url(#pb4cdad86f8)" style="fill: #f34a36"/>
    <path d="M 48.058735 49.88601 
L 48.517936 49.88601 
L 48.517936 31.193365 
L 48.058735 31.193365 
L 48.058735 49.88601 
" clip-path="url(#pb4cdad86f8)" style="fill: #e93529"/>
    <path d="M 48.517936 49.88601 
L 48.977138 49.88601 
L 48.977138 31.193365 
L 48.517936 31.193365 
L 48.517936 49.88601 
" clip-path="url(#pb4cdad86f8)" style="fill: #d42121"/>
    <path d="M 48.977138 49.88601 
L 49.43634 49.88601 
L 49.43634 31.193365 
L 48.977138 31.193365 
L 48.977138 49.88601 
" clip-path="url(#pb4cdad86f8)" style="fill: #c2161b"/>
    <path d="M 49.43634 49.88601 
L 49.895542 49.88601 
L 49.895542 31.193365 
L 49.43634 31.193365 
L 49.43634 49.88601 
" clip-path="url(#pb4cdad86f8)" style="fill: #b51318"/>
    <path d="M 49.895542 49.88601 
L 50.354744 49.88601 
L 50.354744 31.193365 
L 49.895542 31.193365 
L 49.895542 49.88601 
" clip-path="url(#pb4cdad86f8)" style="fill: #af1117"/>
    <path d="M 50.354744 49.88601 
L 50.813945 49.88601 
L 50.813945 31.193365 
L 50.354744 31.193365 
L 50.354744 49.88601 
" clip-path="url(#pb4cdad86f8)" style="fill: #af1117"/>
    <path d="M 50.813945 49.88601 
L 51.273147 49.88601 
L 51.273147 31.193365 
L 50.813945 31.193365 
L 50.813945 49.88601 
" clip-path="url(#pb4cdad86f8)" style="fill: #b51318"/>
    <path d="M 51.273147 49.88601 
L 51.732349 49.88601 
L 51.732349 31.193365 
L 51.273147 31.193365 
L 51.273147 49.88601 
" clip-path="url(#pb4cdad86f8)" style="fill: #c2161b"/>
    <path d="M 51.732349 49.88601 
L 52.191551 49.88601 
L 52.191551 31.193365 
L 51.732349 31.193365 
L 51.732349 49.88601 
" clip-path="url(#pb4cdad86f8)" style="fill: #d42121"/>
    <path d="M 52.191551 49.88601 
L 52.650753 49.88601 
L 52.650753 31.193365 
L 52.191551 31.193365 
L 52.191551 49.88601 
" clip-path="url(#pb4cdad86f8)" style="fill: #ea362a"/>
    <path d="M 52.650753 49.88601 
L 53.109955 49.88601 
L 53.109955 31.193365 
L 52.650753 31.193365 
L 52.650753 49.88601 
" clip-path="url(#pb4cdad86f8)" style="fill: #f34a36"/>
    <path d="M 53.109955 49.88601 
L 53.569156 49.88601 
L 53.569156 31.193365 
L 53.109955 31.193365 
L 53.109955 49.88601 
" clip-path="url(#pb4cdad86f8)" style="fill: #f5523a"/>
    <path d="M 53.569156 49.88601 
L 54.028358 49.88601 
L 54.028358 31.193365 
L 53.569156 31.193365 
L 53.569156 49.88601 
" clip-path="url(#pb4cdad86f8)" style="fill: #f14432"/>
    <path d="M 54.028358 49.88601 
L 54.48756 49.88601 
L 54.48756 31.193365 
L 54.028358 31.193365 
L 54.028358 49.88601 
" clip-path="url(#pb4cdad86f8)" style="fill: #e22e27"/>
    <path d="M 54.48756 49.88601 
L 54.946762 49.88601 
L 54.946762 31.193365 
L 54.48756 31.193365 
L 54.48756 49.88601 
" clip-path="url(#pb4cdad86f8)" style="fill: #ce1a1e"/>
    <path d="M 54.946762 49.88601 
L 55.405964 49.88601 
L 55.405964 31.193365 
L 54.946762 31.193365 
L 54.946762 49.88601 
" clip-path="url(#pb4cdad86f8)" style="fill: #bd151a"/>
    <path d="M 55.405964 49.88601 
L 55.865165 49.88601 
L 55.865165 31.193365 
L 55.405964 31.193365 
L 55.405964 49.88601 
" clip-path="url(#pb4cdad86f8)" style="fill: #b21218"/>
    <path d="M 55.865165 49.88601 
L 56.324367 49.88601 
L 56.324367 31.193365 
L 55.865165 31.193365 
L 55.865165 49.88601 
" clip-path="url(#pb4cdad86f8)" style="fill: #ad1117"/>
    <path d="M 56.324367 49.88601 
L 56.783569 49.88601 
L 56.783569 31.193365 
L 56.324367 31.193365 
L 56.324367 49.88601 
" clip-path="url(#pb4cdad86f8)" style="fill: #b11218"/>
    <path d="M 56.783569 49.88601 
L 57.242771 49.88601 
L 57.242771 31.193365 
L 56.783569 31.193365 
L 56.783569 49.88601 
" clip-path="url(#pb4cdad86f8)" style="fill: #b91419"/>
    <path d="M 57.242771 49.88601 
L 57.701973 49.88601 
L 57.701973 31.193365 
L 57.242771 31.193365 
L 57.242771 49.88601 
" clip-path="url(#pb4cdad86f8)" style="fill: #c9181d"/>
    <path d="M 57.701973 49.88601 
L 58.161175 49.88601 
L 58.161175 31.193365 
L 57.701973 31.193365 
L 57.701973 49.88601 
" clip-path="url(#pb4cdad86f8)" style="fill: #dc2924"/>
    <path d="M 58.161175 49.88601 
L 58.620376 49.88601 
L 58.620376 31.193365 
L 58.161175 31.193365 
L 58.161175 49.88601 
" clip-path="url(#pb4cdad86f8)" style="fill: #f03d2d"/>
    <path d="M 58.620376 49.88601 
L 59.079578 49.88601 
L 59.079578 31.193365 
L 58.620376 31.193365 
L 58.620376 49.88601 
" clip-path="url(#pb4cdad86f8)" style="fill: #f44f39"/>
    <path d="M 59.079578 49.88601 
L 59.53878 49.88601 
L 59.53878 31.193365 
L 59.079578 31.193365 
L 59.079578 49.88601 
" clip-path="url(#pb4cdad86f8)" style="fill: #f44d38"/>
    <path d="M 59.53878 49.88601 
L 59.997982 49.88601 
L 59.997982 31.193365 
L 59.53878 31.193365 
L 59.53878 49.88601 
" clip-path="url(#pb4cdad86f8)" style="fill: #ed392b"/>
    <path d="M 59.997982 49.88601 
L 60.457184 49.88601 
L 60.457184 31.193365 
L 59.997982 31.193365 
L 59.997982 49.88601 
" clip-path="url(#pb4cdad86f8)" style="fill: #d92523"/>
    <path d="M 60.457184 49.88601 
L 60.916385 49.88601 
L 60.916385 31.193365 
L 60.457184 31.193365 
L 60.457184 49.88601 
" clip-path="url(#pb4cdad86f8)" style="fill: #c5171c"/>
    <path d="M 60.916385 49.88601 
L 61.375587 49.88601 
L 61.375587 31.193365 
L 60.916385 31.193365 
L 60.916385 49.88601 
" clip-path="url(#pb4cdad86f8)" style="fill: #b71319"/>
    <path d="M 61.375587 49.88601 
L 61.834789 49.88601 
L 61.834789 31.193365 
L 61.375587 31.193365 
L 61.375587 49.88601 
" clip-path="url(#pb4cdad86f8)" style="fill: #b01217"/>
    <path d="M 61.834789 49.88601 
L 62.293991 49.88601 
L 62.293991 31.193365 
L 61.834789 31.193365 
L 61.834789 49.88601 
" clip-path="url(#pb4cdad86f8)" style="fill: #af1117"/>
    <path d="M 62.293991 49.88601 
L 62.753193 49.88601 
L 62.753193 31.193365 
L 62.293991 31.193365 
L 62.293991 49.88601 
" clip-path="url(#pb4cdad86f8)" style="fill: #b51318"/>
    <path d="M 62.753193 49.88601 
L 63.212395 49.88601 
L 63.212395 31.193365 
L 62.753193 31.193365 
L 62.753193 49.88601 
" clip-path="url(#pb4cdad86f8)" style="fill: #c2161b"/>
    <path d="M 63.212395 49.88601 
L 63.671596 49.88601 
L 63.671596 31.193365 
L 63.212395 31.193365 
L 63.212395 49.88601 
" clip-path="url(#pb4cdad86f8)" style="fill: #d42121"/>
    <path d="M 63.671596 49.88601 
L 64.130798 49.88601 
L 64.130798 31.193365 
L 63.671596 31.193365 
L 63.671596 49.88601 
" clip-path="url(#pb4cdad86f8)" style="fill: #e93529"/>
    <path d="M 64.130798 49.88601 
L 64.59 49.88601 
L 64.59 31.193365 
L 64.130798 31.193365 
L 64.130798 49.88601 
" clip-path="url(#pb4cdad86f8)" style="fill: #f34935"/>
    <path d="M 64.59 49.88601 
L 65.049202 49.88601 
L 65.049202 31.193365 
L 64.59 31.193365 
L 64.59 49.88601 
" clip-path="url(#pb4cdad86f8)" style="fill: #f44f39"/>
    <path d="M 65.049202 49.88601 
L 65.508404 49.88601 
L 65.508404 31.193365 
L 65.049202 31.193365 
L 65.049202 49.88601 
" clip-path="url(#pb4cdad86f8)" style="fill: #f0402f"/>
    <path d="M 65.508404 49.88601 
L 65.967605 49.88601 
L 65.967605 31.193365 
L 65.508404 31.193365 
L 65.508404 49.88601 
" clip-path="url(#pb4cdad86f8)" style="fill: #e02c26"/>
    <path d="M 65.967605 49.88601 
L 66.426807 49.88601 
L 66.426807 31.193365 
L 65.967605 31.193365 
L 65.967605 49.88601 
" clip-path="url(#pb4cdad86f8)" style="fill: #cc191e"/>
    <path d="M 66.426807 49.88601 
L 66.886009 49.88601 
L 66.886009 31.193365 
L 66.426807 31.193365 
L 66.426807 49.88601 
" clip-path="url(#pb4cdad86f8)" style="fill: #bc141a"/>
    <path d="M 66.886009 49.88601 
L 67.345211 49.88601 
L 67.345211 31.193365 
L 66.886009 31.193365 
L 66.886009 49.88601 
" clip-path="url(#pb4cdad86f8)" style="fill: #b21218"/>
    <path d="M 67.345211 49.88601 
L 67.804413 49.88601 
L 67.804413 31.193365 
L 67.345211 31.193365 
L 67.345211 49.88601 
" clip-path="url(#pb4cdad86f8)" style="fill: #b01217"/>
    <path d="M 67.804413 49.88601 
L 68.263615 49.88601 
L 68.263615 31.193365 
L 67.804413 31.193365 
L 67.804413 49.88601 
" clip-path="url(#pb4cdad86f8)" style="fill: #b31218"/>
    <path d="M 68.263615 49.88601 
L 68.722816 49.88601 
L 68.722816 31.193365 
L 68.263615 31.193365 
L 68.263615 49.88601 
" clip-path="url(#pb4cdad86f8)" style="fill: #be151a"/>
    <path d="M 68.722816 49.88601 
L 69.182018 49.88601 
L 69.182018 31.193365 
L 68.722816 31.193365 
L 68.722816 49.88601 
" clip-path="url(#pb4cdad86f8)" style="fill: #d01d1f"/>
    <path d="M 69.182018 49.88601 
L 69.64122 49.88601 
L 69.64122 31.193365 
L 69.182018 31.193365 
L 69.182018 49.88601 
" clip-path="url(#pb4cdad86f8)" style="fill: #e32f27"/>
    <path d="M 69.64122 49.88601 
L 70.100422 49.88601 
L 70.100422 31.193365 
L 69.64122 31.193365 
L 69.64122 49.88601 
" clip-path="url(#pb4cdad86f8)" style="fill: #f14331"/>
    <path d="M 70.100422 49.88601 
L 70.559624 49.88601 
L 70.559624 31.193365 
L 70.100422 31.193365 
L 70.100422 49.88601 
" clip-path="url(#pb4cdad86f8)" style="fill: #f44d38"/>
    <path d="M 70.559624 49.88601 
L 71.018825 49.88601 
L 71.018825 31.193365 
L 70.559624 31.193365 
L 70.559624 49.88601 
" clip-path="url(#pb4cdad86f8)" style="fill: #f14130"/>
    <path d="M 71.018825 49.88601 
L 71.478027 49.88601 
L 71.478027 31.193365 
L 71.018825 31.193365 
L 71.018825 49.88601 
" clip-path="url(#pb4cdad86f8)" style="fill: #e22e27"/>
    <path d="M 71.478027 49.88601 
L 71.937229 49.88601 
L 71.937229 31.193365 
L 71.478027 31.193365 
L 71.478027 49.88601 
" clip-path="url(#pb4cdad86f8)" style="fill: #cf1c1f"/>
    <path d="M 71.937229 49.88601 
L 72.396431 49.88601 
L 72.396431 31.193365 
L 71.937229 31.193365 
L 71.937229 49.88601 
" clip-path="url(#pb4cdad86f8)" style="fill: #be151a"/>
    <path d="M 72.396431 49.88601 
L 72.855633 49.88601 
L 72.855633 31.193365 
L 72.396431 31.193365 
L 72.396431 49.88601 
" clip-path="url(#pb4cdad86f8)" style="fill: #b31218"/>
    <path d="M 72.855633 49.88601 
L 73.314835 49.88601 
L 73.314835 31.193365 
L 72.855633 31.193365 
L 72.855633 49.88601 
" clip-path="url(#pb4cdad86f8)" style="fill: #b01217"/>
    <path d="M 73.314835 49.88601 
L 73.774036 49.88601 
L 73.774036 31.193365 
L 73.314835 31.193365 
L 73.314835 49.88601 
" clip-path="url(#pb4cdad86f8)" style="fill: #b51318"/>
    <path d="M 73.774036 49.88601 
L 74.233238 49.88601 
L 74.233238 31.193365 
L 73.774036 31.193365 
L 73.774036 49.88601 
" clip-path="url(#pb4cdad86f8)" style="fill: #bf151b"/>
    <path d="M 74.233238 49.88601 
L 74.69244 49.88601 
L 74.69244 31.193365 
L 74.233238 31.193365 
L 74.233238 49.88601 
" clip-path="url(#pb4cdad86f8)" style="fill: #d01d1f"/>
    <path d="M 74.69244 49.88601 
L 75.151642 49.88601 
L 75.151642 31.193365 
L 74.69244 31.193365 
L 74.69244 49.88601 
" clip-path="url(#pb4cdad86f8)" style="fill: #e32f27"/>
    <path d="M 75.151642 49.88601 
L 75.610844 49.88601 
L 75.610844 31.193365 
L 75.151642 31.193365 
L 75.151642 49.88601 
" clip-path="url(#pb4cdad86f8)" style="fill: #f14331"/>
    <path d="M 75.610844 49.88601 
L 76.070045 49.88601 
L 76.070045 31.193365 
L 75.610844 31.193365 
L 75.610844 49.88601 
" clip-path="url(#pb4cdad86f8)" style="fill: #f34a36"/>
    <path d="M 76.070045 49.88601 
L 76.529247 49.88601 
L 76.529247 31.193365 
L 76.070045 31.193365 
L 76.070045 49.88601 
" clip-path="url(#pb4cdad86f8)" style="fill: #f03f2e"/>
    <path d="M 76.529247 49.88601 
L 76.988449 49.88601 
L 76.988449 31.193365 
L 76.529247 31.193365 
L 76.529247 49.88601 
" clip-path="url(#pb4cdad86f8)" style="fill: #e02c26"/>
    <path d="M 76.988449 49.88601 
L 77.447651 49.88601 
L 77.447651 31.193365 
L 76.988449 31.193365 
L 76.988449 49.88601 
" clip-path="url(#pb4cdad86f8)" style="fill: #cc191e"/>
    <path d="M 77.447651 49.88601 
L 77.906853 49.88601 
L 77.906853 31.193365 
L 77.447651 31.193365 
L 77.447651 49.88601 
" clip-path="url(#pb4cdad86f8)" style="fill: #bd151a"/>
    <path d="M 77.906853 49.88601 
L 78.366055 49.88601 
L 78.366055 31.193365 
L 77.906853 31.193365 
L 77.906853 49.88601 
" clip-path="url(#pb4cdad86f8)" style="fill: #b31218"/>
    <path d="M 78.366055 49.88601 
L 78.825256 49.88601 
L 78.825256 31.193365 
L 78.366055 31.193365 
L 78.366055 49.88601 
" clip-path="url(#pb4cdad86f8)" style="fill: #b11218"/>
    <path d="M 78.825256 49.88601 
L 79.284458 49.88601 
L 79.284458 31.193365 
L 78.825256 31.193365 
L 78.825256 49.88601 
" clip-path="url(#pb4cdad86f8)" style="fill: #b61319"/>
    <path d="M 79.284458 49.88601 
L 79.74366 49.88601 
L 79.74366 31.193365 
L 79.284458 31.193365 
L 79.284458 49.88601 
" clip-path="url(#pb4cdad86f8)" style="fill: #c2161b"/>
    <path d="M 79.74366 49.88601 
L 80.202862 49.88601 
L 80.202862 31.193365 
L 79.74366 31.193365 
L 79.74366 49.88601 
" clip-path="url(#pb4cdad86f8)" style="fill: #d32020"/>
    <path d="M 80.202862 49.88601 
L 80.662064 49.88601 
L 80.662064 31.193365 
L 80.202862 31.193365 
L 80.202862 49.88601 
" clip-path="url(#pb4cdad86f8)" style="fill: #e63328"/>
    <path d="M 80.662064 49.88601 
L 81.121265 49.88601 
L 81.121265 31.193365 
L 80.662064 31.193365 
L 80.662064 49.88601 
" clip-path="url(#pb4cdad86f8)" style="fill: #f14432"/>
    <path d="M 81.121265 49.88601 
L 81.580467 49.88601 
L 81.580467 31.193365 
L 81.121265 31.193365 
L 81.121265 49.88601 
" clip-path="url(#pb4cdad86f8)" style="fill: #f24734"/>
    <path d="M 81.580467 49.88601 
L 82.039669 49.88601 
L 82.039669 31.193365 
L 81.580467 31.193365 
L 81.580467 49.88601 
" clip-path="url(#pb4cdad86f8)" style="fill: #ed392b"/>
    <path d="M 82.039669 49.88601 
L 82.498871 49.88601 
L 82.498871 31.193365 
L 82.039669 31.193365 
L 82.039669 49.88601 
" clip-path="url(#pb4cdad86f8)" style="fill: #da2723"/>
    <path d="M 82.498871 49.88601 
L 82.958073 49.88601 
L 82.958073 31.193365 
L 82.498871 31.193365 
L 82.498871 49.88601 
" clip-path="url(#pb4cdad86f8)" style="fill: #c8171c"/>
    <path d="M 82.958073 49.88601 
L 83.417275 49.88601 
L 83.417275 31.193365 
L 82.958073 31.193365 
L 82.958073 49.88601 
" clip-path="url(#pb4cdad86f8)" style="fill: #b91419"/>
    <path d="M 83.417275 49.88601 
L 83.876476 49.88601 
L 83.876476 31.193365 
L 83.417275 31.193365 
L 83.417275 49.88601 
" clip-path="url(#pb4cdad86f8)" style="fill: #b21218"/>
    <path d="M 83.876476 49.88601 
L 84.335678 49.88601 
L 84.335678 31.193365 
L 83.876476 31.193365 
L 83.876476 49.88601 
" clip-path="url(#pb4cdad86f8)" style="fill: #b21218"/>
    <path d="M 84.335678 49.88601 
L 84.79488 49.88601 
L 84.79488 31.193365 
L 84.335678 31.193365 
L 84.335678 49.88601 
" clip-path="url(#pb4cdad86f8)" style="fill: #b91419"/>
    <path d="M 84.79488 49.88601 
L 85.254082 49.88601 
L 85.254082 31.193365 
L 84.79488 31.193365 
L 84.79488 49.88601 
" clip-path="url(#pb4cdad86f8)" style="fill: #c8171c"/>
    <path d="M 85.254082 49.88601 
L 85.713284 49.88601 
L 85.713284 31.193365 
L 85.254082 31.193365 
L 85.254082 49.88601 
" clip-path="url(#pb4cdad86f8)" style="fill: #da2723"/>
    <path d="M 85.713284 49.88601 
L 86.172485 49.88601 
L 86.172485 31.193365 
L 85.713284 31.193365 
L 85.713284 49.88601 
" clip-path="url(#pb4cdad86f8)" style="fill: #ed392b"/>
    <path d="M 86.172485 49.88601 
L 86.631687 49.88601 
L 86.631687 31.193365 
L 86.172485 31.193365 
L 86.172485 49.88601 
" clip-path="url(#pb4cdad86f8)" style="fill: #f24734"/>
    <path d="M 86.631687 49.88601 
L 87.090889 49.88601 
L 87.090889 31.193365 
L 86.631687 31.193365 
L 86.631687 49.88601 
" clip-path="url(#pb4cdad86f8)" style="fill: #f14331"/>
    <path d="M 87.090889 49.88601 
L 87.550091 49.88601 
L 87.550091 31.193365 
L 87.090889 31.193365 
L 87.090889 49.88601 
" clip-path="url(#pb4cdad86f8)" style="fill: #e53228"/>
    <path d="M 87.550091 49.88601 
L 88.009293 49.88601 
L 88.009293 31.193365 
L 87.550091 31.193365 
L 87.550091 49.88601 
" clip-path="url(#pb4cdad86f8)" style="fill: #d21f20"/>
    <path d="M 88.009293 49.88601 
L 88.468495 49.88601 
L 88.468495 31.193365 
L 88.009293 31.193365 
L 88.009293 49.88601 
" clip-path="url(#pb4cdad86f8)" style="fill: #c2161b"/>
    <path d="M 88.468495 49.88601 
L 88.927696 49.88601 
L 88.927696 31.193365 
L 88.468495 31.193365 
L 88.468495 49.88601 
" clip-path="url(#pb4cdad86f8)" style="fill: #b61319"/>
    <path d="M 88.927696 49.88601 
L 89.386898 49.88601 
L 89.386898 31.193365 
L 88.927696 31.193365 
L 88.927696 49.88601 
" clip-path="url(#pb4cdad86f8)" style="fill: #b21218"/>
    <path d="M 89.386898 49.88601 
L 89.8461 49.88601 
L 89.8461 31.193365 
L 89.386898 31.193365 
L 89.386898 49.88601 
" clip-path="url(#pb4cdad86f8)" style="fill: #b61319"/>
    <path d="M 89.8461 49.88601 
L 90.305302 49.88601 
L 90.305302 31.193365 
L 89.8461 31.193365 
L 89.8461 49.88601 
" clip-path="url(#pb4cdad86f8)" style="fill: #bf151b"/>
    <path d="M 90.305302 49.88601 
L 90.764504 49.88601 
L 90.764504 31.193365 
L 90.305302 31.193365 
L 90.305302 49.88601 
" clip-path="url(#pb4cdad86f8)" style="fill: #d01d1f"/>
    <path d="M 90.764504 49.88601 
L 91.223705 49.88601 
L 91.223705 31.193365 
L 90.764504 31.193365 
L 90.764504 49.88601 
" clip-path="url(#pb4cdad86f8)" style="fill: #e32f27"/>
    <path d="M 91.223705 49.88601 
L 91.682907 49.88601 
L 91.682907 31.193365 
L 91.223705 31.193365 
L 91.223705 49.88601 
" clip-path="url(#pb4cdad86f8)" style="fill: #f0402f"/>
    <path d="M 91.682907 49.88601 
L 92.142109 49.88601 
L 92.142109 31.193365 
L 91.682907 31.193365 
L 91.682907 49.88601 
" clip-path="url(#pb4cdad86f8)" style="fill: #f24734"/>
    <path d="M 92.142109 49.88601 
L 92.601311 49.88601 
L 92.601311 31.193365 
L 92.142109 31.193365 
L 92.142109 49.88601 
" clip-path="url(#pb4cdad86f8)" style="fill: #ee3a2c"/>
    <path d="M 92.601311 49.88601 
L 93.060513 49.88601 
L 93.060513 31.193365 
L 92.601311 31.193365 
L 92.601311 49.88601 
" clip-path="url(#pb4cdad86f8)" style="fill: #dc2924"/>
    <path d="M 93.060513 49.88601 
L 93.519715 49.88601 
L 93.519715 31.193365 
L 93.060513 31.193365 
L 93.060513 49.88601 
" clip-path="url(#pb4cdad86f8)" style="fill: #ca181d"/>
    <path d="M 93.519715 49.88601 
L 93.978916 49.88601 
L 93.978916 31.193365 
L 93.519715 31.193365 
L 93.519715 49.88601 
" clip-path="url(#pb4cdad86f8)" style="fill: #bb141a"/>
    <path d="M 93.978916 49.88601 
L 94.438118 49.88601 
L 94.438118 31.193365 
L 93.978916 31.193365 
L 93.978916 49.88601 
" clip-path="url(#pb4cdad86f8)" style="fill: #b31218"/>
    <path d="M 94.438118 49.88601 
L 94.89732 49.88601 
L 94.89732 31.193365 
L 94.438118 31.193365 
L 94.438118 49.88601 
" clip-path="url(#pb4cdad86f8)" style="fill: #b31218"/>
    <path d="M 94.89732 49.88601 
L 95.356522 49.88601 
L 95.356522 31.193365 
L 94.89732 31.193365 
L 94.89732 49.88601 
" clip-path="url(#pb4cdad86f8)" style="fill: #b91419"/>
    <path d="M 95.356522 49.88601 
L 95.815724 49.88601 
L 95.815724 31.193365 
L 95.356522 31.193365 
L 95.356522 49.88601 
" clip-path="url(#pb4cdad86f8)" style="fill: #c8171c"/>
    <path d="M 95.815724 49.88601 
L 96.274925 49.88601 
L 96.274925 31.193365 
L 95.815724 31.193365 
L 95.815724 49.88601 
" clip-path="url(#pb4cdad86f8)" style="fill: #da2723"/>
    <path d="M 96.274925 49.88601 
L 96.734127 49.88601 
L 96.734127 31.193365 
L 96.274925 31.193365 
L 96.274925 49.88601 
" clip-path="url(#pb4cdad86f8)" style="fill: #ec382b"/>
    <path d="M 96.734127 49.88601 
L 97.193329 49.88601 
L 97.193329 31.193365 
L 96.734127 31.193365 
L 96.734127 49.88601 
" clip-path="url(#pb4cdad86f8)" style="fill: #f24633"/>
    <path d="M 97.193329 49.88601 
L 97.652531 49.88601 
L 97.652531 31.193365 
L 97.193329 31.193365 
L 97.193329 49.88601 
" clip-path="url(#pb4cdad86f8)" style="fill: #f14130"/>
    <path d="M 97.652531 49.88601 
L 98.111733 49.88601 
L 98.111733 31.193365 
L 97.652531 31.193365 
L 97.652531 49.88601 
" clip-path="url(#pb4cdad86f8)" style="fill: #e53228"/>
    <path d="M 98.111733 49.88601 
L 98.570935 49.88601 
L 98.570935 31.193365 
L 98.111733 31.193365 
L 98.111733 49.88601 
" clip-path="url(#pb4cdad86f8)" style="fill: #d21f20"/>
    <path d="M 98.570935 49.88601 
L 99.030136 49.88601 
L 99.030136 31.193365 
L 98.570935 31.193365 
L 98.570935 49.88601 
" clip-path="url(#pb4cdad86f8)" style="fill: #c2161b"/>
    <path d="M 99.030136 49.88601 
L 99.489338 49.88601 
L 99.489338 31.193365 
L 99.030136 31.193365 
L 99.030136 49.88601 
" clip-path="url(#pb4cdad86f8)" style="fill: #b61319"/>
    <path d="M 99.489338 49.88601 
L 99.94854 49.88601 
L 99.94854 31.193365 
L 99.489338 31.193365 
L 99.489338 49.88601 
" clip-path="url(#pb4cdad86f8)" style="fill: #b21218"/>
    <path d="M 99.94854 49.88601 
L 100.407742 49.88601 
L 100.407742 31.193365 
L 99.94854 31.193365 
L 99.94854 49.88601 
" clip-path="url(#pb4cdad86f8)" style="fill: #b61319"/>
    <path d="M 100.407742 49.88601 
L 100.866944 49.88601 
L 100.866944 31.193365 
L 100.407742 31.193365 
L 100.407742 49.88601 
" clip-path="url(#pb4cdad86f8)" style="fill: #c1161b"/>
    <path d="M 100.866944 49.88601 
L 101.326145 49.88601 
L 101.326145 31.193365 
L 100.866944 31.193365 
L 100.866944 49.88601 
" clip-path="url(#pb4cdad86f8)" style="fill: #d11e1f"/>
    <path d="M 101.326145 49.88601 
L 101.785347 49.88601 
L 101.785347 31.193365 
L 101.326145 31.193365 
L 101.326145 49.88601 
" clip-path="url(#pb4cdad86f8)" style="fill: #e32f27"/>
    <path d="M 101.785347 49.88601 
L 102.244549 49.88601 
L 102.244549 31.193365 
L 101.785347 31.193365 
L 101.785347 49.88601 
" clip-path="url(#pb4cdad86f8)" style="fill: #f14130"/>
    <path d="M 102.244549 49.88601 
L 102.703751 49.88601 
L 102.703751 31.193365 
L 102.244549 31.193365 
L 102.244549 49.88601 
" clip-path="url(#pb4cdad86f8)" style="fill: #f24633"/>
    <path d="M 102.703751 49.88601 
L 103.162953 49.88601 
L 103.162953 31.193365 
L 102.703751 31.193365 
L 102.703751 49.88601 
" clip-path="url(#pb4cdad86f8)" style="fill: #ed392b"/>
    <path d="M 103.162953 49.88601 
L 103.622155 49.88601 
L 103.622155 31.193365 
L 103.162953 31.193365 
L 103.162953 49.88601 
" clip-path="url(#pb4cdad86f8)" style="fill: #db2824"/>
    <path d="M 103.622155 49.88601 
L 104.081356 49.88601 
L 104.081356 31.193365 
L 103.622155 31.193365 
L 103.622155 49.88601 
" clip-path="url(#pb4cdad86f8)" style="fill: #c9181d"/>
    <path d="M 104.081356 49.88601 
L 104.540558 49.88601 
L 104.540558 31.193365 
L 104.081356 31.193365 
L 104.081356 49.88601 
" clip-path="url(#pb4cdad86f8)" style="fill: #bb141a"/>
    <path d="M 104.540558 49.88601 
L 104.99976 49.88601 
L 104.99976 31.193365 
L 104.540558 31.193365 
L 104.540558 49.88601 
" clip-path="url(#pb4cdad86f8)" style="fill: #b31218"/>
   </g>
   <g id="matplotlib.axis_3">
    <g id="text_2">
     <!-- space $x$ -->
     <g transform="translate(41.49 66.47976)scale(0.12 -0.12)">
      <defs>
       <path id="DejaVuSans-73" d="M 2834 3397 
L 2834 2853 
Q 2591 2978 2328 3040 
Q 2066 3103 1784 3103 
Q 1356 3103 1142 2972 
Q 928 2841 928 2578 
Q 928 2378 1081 2264 
Q 1234 2150 1697 2047 
L 1894 2003 
Q 2506 1872 2764 1633 
Q 3022 1394 3022 966 
Q 3022 478 2636 193 
Q 2250 -91 1575 -91 
Q 1294 -91 989 -36 
Q 684 19 347 128 
L 347 722 
Q 666 556 975 473 
Q 1284 391 1588 391 
Q 1994 391 2212 530 
Q 2431 669 2431 922 
Q 2431 1156 2273 1281 
Q 2116 1406 1581 1522 
L 1381 1569 
Q 847 1681 609 1914 
Q 372 2147 372 2553 
Q 372 3047 722 3315 
Q 1072 3584 1716 3584 
Q 2034 3584 2315 3537 
Q 2597 3491 2834 3397 
z
" transform="scale(0.015625)"/>
       <path id="DejaVuSans-70" d="M 1159 525 
L 1159 -1331 
L 581 -1331 
L 581 3500 
L 1159 3500 
L 1159 2969 
Q 1341 3281 1617 3432 
Q 1894 3584 2278 3584 
Q 2916 3584 3314 3078 
Q 3713 2572 3713 1747 
Q 3713 922 3314 415 
Q 2916 -91 2278 -91 
Q 1894 -91 1617 61 
Q 1341 213 1159 525 
z
M 3116 1747 
Q 3116 2381 2855 2742 
Q 2594 3103 2138 3103 
Q 1681 3103 1420 2742 
Q 1159 2381 1159 1747 
Q 1159 1113 1420 752 
Q 1681 391 2138 391 
Q 2594 391 2855 752 
Q 3116 1113 3116 1747 
z
" transform="scale(0.015625)"/>
       <path id="DejaVuSans-61" d="M 2194 1759 
Q 1497 1759 1228 1600 
Q 959 1441 959 1056 
Q 959 750 1161 570 
Q 1363 391 1709 391 
Q 2188 391 2477 730 
Q 2766 1069 2766 1631 
L 2766 1759 
L 2194 1759 
z
M 3341 1997 
L 3341 0 
L 2766 0 
L 2766 531 
Q 2569 213 2275 61 
Q 1981 -91 1556 -91 
Q 1019 -91 701 211 
Q 384 513 384 1019 
Q 384 1609 779 1909 
Q 1175 2209 1959 2209 
L 2766 2209 
L 2766 2266 
Q 2766 2663 2505 2880 
Q 2244 3097 1772 3097 
Q 1472 3097 1187 3025 
Q 903 2953 641 2809 
L 641 3341 
Q 956 3463 1253 3523 
Q 1550 3584 1831 3584 
Q 2591 3584 2966 3190 
Q 3341 2797 3341 1997 
z
" transform="scale(0.015625)"/>
       <path id="DejaVuSans-63" d="M 3122 3366 
L 3122 2828 
Q 2878 2963 2633 3030 
Q 2388 3097 2138 3097 
Q 1578 3097 1268 2742 
Q 959 2388 959 1747 
Q 959 1106 1268 751 
Q 1578 397 2138 397 
Q 2388 397 2633 464 
Q 2878 531 3122 666 
L 3122 134 
Q 2881 22 2623 -34 
Q 2366 -91 2075 -91 
Q 1284 -91 818 406 
Q 353 903 353 1747 
Q 353 2603 823 3093 
Q 1294 3584 2113 3584 
Q 2378 3584 2631 3529 
Q 2884 3475 3122 3366 
z
" transform="scale(0.015625)"/>
       <path id="DejaVuSans-65" d="M 3597 1894 
L 3597 1613 
L 953 1613 
Q 991 1019 1311 708 
Q 1631 397 2203 397 
Q 2534 397 2845 478 
Q 3156 559 3463 722 
L 3463 178 
Q 3153 47 2828 -22 
Q 2503 -91 2169 -91 
Q 1331 -91 842 396 
Q 353 884 353 1716 
Q 353 2575 817 3079 
Q 1281 3584 2069 3584 
Q 2775 3584 3186 3129 
Q 3597 2675 3597 1894 
z
M 3022 2063 
Q 3016 2534 2758 2815 
Q 2500 3097 2075 3097 
Q 1594 3097 1305 2825 
Q 1016 2553 972 2059 
L 3022 2063 
z
" transform="scale(0.015625)"/>
       <path id="DejaVuSans-20" transform="scale(0.015625)"/>
       <path id="DejaVuSans-Oblique-78" d="M 3841 3500 
L 2234 1784 
L 3219 0 
L 2559 0 
L 1819 1388 
L 531 0 
L -166 0 
L 1556 1844 
L 641 3500 
L 1300 3500 
L 1972 2234 
L 3144 3500 
L 3841 3500 
z
" transform="scale(0.015625)"/>
      </defs>
      <use xlink:href="#DejaVuSans-73"/>
      <use xlink:href="#DejaVuSans-70" transform="translate(52.099609 0)"/>
      <use xlink:href="#DejaVuSans-61" transform="translate(115.576172 0)"/>
      <use xlink:href="#DejaVuSans-63" transform="translate(176.855469 0)"/>
      <use xlink:href="#DejaVuSans-65" transform="translate(231.835938 0)"/>
      <use xlink:href="#DejaVuSans-20" transform="translate(293.359375 0)"/>
      <use xlink:href="#DejaVuSans-Oblique-78" transform="translate(325.146484 0)"/>
     </g>
    </g>
   </g>
   <g id="matplotlib.axis_4">
    <g id="text_3">
     <!-- $n_I$ -->
     <g style="fill: #aa0000" transform="translate(6.24024 43.850937)scale(0.12 -0.12)">
      <defs>
       <path id="DejaVuSans-Oblique-49" d="M 1081 4666 
L 1716 4666 
L 806 0 
L 172 0 
L 1081 4666 
z
" transform="scale(0.015625)"/>
      </defs>
      <use xlink:href="#DejaVuSans-Oblique-6e"/>
      <use xlink:href="#DejaVuSans-Oblique-49" transform="translate(63.378906 -16.40625)scale(0.7)"/>
     </g>
    </g>
   </g>
   <g id="patch_8">
    <path d="M 24.18024 49.88601 
L 24.18024 31.193365 
" style="fill: none; stroke: #000000; stroke-width: 0.8; stroke-linejoin: miter; stroke-linecap: square"/>
   </g>
   <g id="patch_9">
    <path d="M 104.99976 49.88601 
L 104.99976 31.193365 
" style="fill: none; stroke: #000000; stroke-width: 0.8; stroke-linejoin: miter; stroke-linecap: square"/>
   </g>
   <g id="patch_10">
    <path d="M 24.18024 49.88601 
L 104.99976 49.88601 
" style="fill: none; stroke: #000000; stroke-width: 0.8; stroke-linejoin: miter; stroke-linecap: square"/>
   </g>
   <g id="patch_11">
    <path d="M 24.18024 31.193365 
L 104.99976 31.193365 
" style="fill: none; stroke: #000000; stroke-width: 0.8; stroke-linejoin: miter; stroke-linecap: square"/>
   </g>
  </g>
 </g>
 <defs>
  <clipPath id="p8053f3d163">
   <rect x="24.18024" y="3.00024" width="80.81952" height="18.692645"/>
  </clipPath>
  <clipPath id="pb4cdad86f8">
   <rect x="24.18024" y="31.193365" width="80.81952" height="18.692645"/>
  </clipPath>
 </defs>
</svg>
