<?xml version="1.0" encoding="utf-8" standalone="no"?>
<!DOCTYPE svg PUBLIC "-//W3C//DTD SVG 1.1//EN"
  "http://www.w3.org/Graphics/SVG/1.1/DTD/svg11.dtd">
<svg xmlns:xlink="http://www.w3.org/1999/xlink" width="429.12pt" height="429.12pt" viewBox="0 0 429.12 429.12" xmlns="http://www.w3.org/2000/svg" version="1.1">
 <metadata>
  <rdf:RDF xmlns:dc="http://purl.org/dc/elements/1.1/" xmlns:cc="http://creativecommons.org/ns#" xmlns:rdf="http://www.w3.org/1999/02/22-rdf-syntax-ns#">
   <cc:Work>
    <dc:type rdf:resource="http://purl.org/dc/dcmitype/StillImage"/>
    <dc:date>2024-03-21T11:07:17.697416</dc:date>
    <dc:format>image/svg+xml</dc:format>
    <dc:creator>
     <cc:Agent>
      <dc:title>Matplotlib v3.8.3, https://matplotlib.org/</dc:title>
     </cc:Agent>
    </dc:creator>
   </cc:Work>
  </rdf:RDF>
 </metadata>
 <defs>
  <style type="text/css">*{stroke-linejoin: round; stroke-linecap: butt}</style>
 </defs>
 <g id="figure_1">
  <g id="patch_1">
   <path d="M 0 429.12 
L 429.12 429.12 
L 429.12 0 
L 0 0 
z
" style="fill: #ffffff"/>
  </g>
  <g id="axes_1">
   <g id="patch_2">
    <path d="M 53.64 381.9168 
L 386.208 381.9168 
L 386.208 51.4944 
L 53.64 51.4944 
z
" style="fill: #ffffff"/>
   </g>
   <g id="PolyCollection_1">
    <path d="M 53.64 381.9168 
L 53.64 381.9168 
L 59.747769 346.909654 
L 65.855537 311.902507 
L 71.963306 276.895361 
L 78.071074 241.888215 
L 84.178843 206.881068 
L 90.286612 171.873922 
L 96.39438 136.866776 
L 102.502149 101.859629 
L 108.609917 66.852483 
L 114.717686 31.845337 
L 120.825455 -3.16181 
L 126.933223 -38.168956 
L 133.040992 -73.176102 
L 139.14876 -108.183249 
L 145.256529 -143.190395 
L 151.364298 -178.197541 
L 157.472066 -213.204688 
L 163.579835 -248.211834 
L 169.687603 -283.21898 
L 175.795372 -318.226127 
L 181.90314 -353.233273 
L 188.010909 -388.240419 
L 194.118678 -423.247566 
L 200.226446 -458.254712 
L 206.334215 -493.261858 
L 212.441983 -528.269005 
L 218.549752 -563.276151 
L 224.657521 -598.283297 
L 230.765289 -633.290444 
L 236.873058 -668.29759 
L 242.980826 -703.304736 
L 249.088595 -738.311883 
L 255.196364 -773.319029 
L 261.304132 -808.326175 
L 267.411901 -843.333322 
L 273.519669 -878.340468 
L 279.627438 -913.347614 
L 285.735207 -948.354761 
L 291.842975 -983.361907 
L 297.950744 -1018.369053 
L 304.058512 -1053.3762 
L 310.166281 -1088.383346 
L 316.27405 -1123.390492 
L 322.381818 -1158.397639 
L 328.489587 -1193.404785 
L 334.597355 -1228.411931 
L 340.705124 -1263.419078 
L 346.812893 -1298.426224 
L 352.920661 -1333.43337 
L 359.02843 -1368.440517 
L 365.136198 -1403.447663 
L 371.243967 -1438.454809 
L 377.351736 -1473.461956 
L 383.459504 -1508.469102 
L 389.567273 -1543.476248 
L 395.675041 -1578.483395 
L 401.78281 -1613.490541 
L 407.890579 -1648.497687 
L 413.998347 -1683.504834 
L 420.106116 -1718.51198 
L 426.213884 -1753.519126 
L 432.321653 -1788.526273 
L 438.429421 -1823.533419 
L 444.53719 -1858.540565 
L 450.644959 -1893.547712 
L 456.752727 -1928.554858 
L 462.860496 -1963.562004 
L 468.968264 -1998.569151 
L 475.076033 -2033.576297 
L 481.183802 -2068.583443 
L 487.29157 -2103.59059 
L 493.399339 -2138.597736 
L 499.507107 -2173.604882 
L 505.614876 -2208.612029 
L 511.722645 -2243.619175 
L 517.830413 -2278.626321 
L 523.938182 -2313.633468 
L 530.04595 -2348.640614 
L 536.153719 -2383.64776 
L 542.261488 -2418.654907 
L 548.369256 -2453.662053 
L 554.477025 -2488.669199 
L 560.584793 -2523.676346 
L 566.692562 -2558.683492 
L 572.800331 -2593.690638 
L 578.908099 -2628.697785 
L 585.015868 -2663.704931 
L 591.123636 -2698.712077 
L 597.231405 -2733.719224 
L 603.339174 -2768.72637 
L 609.446942 -2803.733516 
L 615.554711 -2838.740663 
L 621.662479 -2873.747809 
L 627.770248 -2908.754955 
L 633.878017 -2943.762102 
L 639.985785 -2978.769248 
L 646.093554 -3013.776394 
L 652.201322 -3048.783541 
L 658.309091 -3083.790687 
L 658.309091 381.9168 
L 658.309091 381.9168 
L 652.201322 381.9168 
L 646.093554 381.9168 
L 639.985785 381.9168 
L 633.878017 381.9168 
L 627.770248 381.9168 
L 621.662479 381.9168 
L 615.554711 381.9168 
L 609.446942 381.9168 
L 603.339174 381.9168 
L 597.231405 381.9168 
L 591.123636 381.9168 
L 585.015868 381.9168 
L 578.908099 381.9168 
L 572.800331 381.9168 
L 566.692562 381.9168 
L 560.584793 381.9168 
L 554.477025 381.9168 
L 548.369256 381.9168 
L 542.261488 381.9168 
L 536.153719 381.9168 
L 530.04595 381.9168 
L 523.938182 381.9168 
L 517.830413 381.9168 
L 511.722645 381.9168 
L 505.614876 381.9168 
L 499.507107 381.9168 
L 493.399339 381.9168 
L 487.29157 381.9168 
L 481.183802 381.9168 
L 475.076033 381.9168 
L 468.968264 381.9168 
L 462.860496 381.9168 
L 456.752727 381.9168 
L 450.644959 381.9168 
L 444.53719 381.9168 
L 438.429421 381.9168 
L 432.321653 381.9168 
L 426.213884 381.9168 
L 420.106116 381.9168 
L 413.998347 381.9168 
L 407.890579 381.9168 
L 401.78281 381.9168 
L 395.675041 381.9168 
L 389.567273 381.9168 
L 383.459504 381.9168 
L 377.351736 381.9168 
L 371.243967 381.9168 
L 365.136198 381.9168 
L 359.02843 381.9168 
L 352.920661 381.9168 
L 346.812893 381.9168 
L 340.705124 381.9168 
L 334.597355 381.9168 
L 328.489587 381.9168 
L 322.381818 381.9168 
L 316.27405 381.9168 
L 310.166281 381.9168 
L 304.058512 381.9168 
L 297.950744 381.9168 
L 291.842975 381.9168 
L 285.735207 381.9168 
L 279.627438 381.9168 
L 273.519669 381.9168 
L 267.411901 381.9168 
L 261.304132 381.9168 
L 255.196364 381.9168 
L 249.088595 381.9168 
L 242.980826 381.9168 
L 236.873058 381.9168 
L 230.765289 381.9168 
L 224.657521 381.9168 
L 218.549752 381.9168 
L 212.441983 381.9168 
L 206.334215 381.9168 
L 200.226446 381.9168 
L 194.118678 381.9168 
L 188.010909 381.9168 
L 181.90314 381.9168 
L 175.795372 381.9168 
L 169.687603 381.9168 
L 163.579835 381.9168 
L 157.472066 381.9168 
L 151.364298 381.9168 
L 145.256529 381.9168 
L 139.14876 381.9168 
L 133.040992 381.9168 
L 126.933223 381.9168 
L 120.825455 381.9168 
L 114.717686 381.9168 
L 108.609917 381.9168 
L 102.502149 381.9168 
L 96.39438 381.9168 
L 90.286612 381.9168 
L 84.178843 381.9168 
L 78.071074 381.9168 
L 71.963306 381.9168 
L 65.855537 381.9168 
L 59.747769 381.9168 
L 53.64 381.9168 
z
" clip-path="url(#p62501d7bfb)" style="fill: #cccccc; stroke: #cccccc"/>
   </g>
   <g id="PolyCollection_2">
    <path d="M 53.64 -218.8512 
L 53.64 381.9168 
L 59.747769 346.909654 
L 65.855537 311.902507 
L 71.963306 276.895361 
L 78.071074 241.888215 
L 84.178843 206.881068 
L 90.286612 171.873922 
L 96.39438 136.866776 
L 102.502149 101.859629 
L 108.609917 66.852483 
L 114.717686 31.845337 
L 120.825455 -3.16181 
L 126.933223 -38.168956 
L 133.040992 -73.176102 
L 139.14876 -108.183249 
L 145.256529 -143.190395 
L 151.364298 -178.197541 
L 157.472066 -213.204688 
L 163.579835 -248.211834 
L 169.687603 -283.21898 
L 175.795372 -318.226127 
L 181.90314 -353.233273 
L 188.010909 -388.240419 
L 194.118678 -423.247566 
L 200.226446 -458.254712 
L 206.334215 -493.261858 
L 212.441983 -528.269005 
L 218.549752 -563.276151 
L 224.657521 -598.283297 
L 230.765289 -633.290444 
L 236.873058 -668.29759 
L 242.980826 -703.304736 
L 249.088595 -738.311883 
L 255.196364 -773.319029 
L 261.304132 -808.326175 
L 267.411901 -843.333322 
L 273.519669 -878.340468 
L 279.627438 -913.347614 
L 285.735207 -948.354761 
L 291.842975 -983.361907 
L 297.950744 -1018.369053 
L 304.058512 -1053.3762 
L 310.166281 -1088.383346 
L 316.27405 -1123.390492 
L 322.381818 -1158.397639 
L 328.489587 -1193.404785 
L 334.597355 -1228.411931 
L 340.705124 -1263.419078 
L 346.812893 -1298.426224 
L 352.920661 -1333.43337 
L 359.02843 -1368.440517 
L 365.136198 -1403.447663 
L 371.243967 -1438.454809 
L 377.351736 -1473.461956 
L 383.459504 -1508.469102 
L 389.567273 -1543.476248 
L 395.675041 -1578.483395 
L 401.78281 -1613.490541 
L 407.890579 -1648.497687 
L 413.998347 -1683.504834 
L 420.106116 -1718.51198 
L 426.213884 -1753.519126 
L 432.321653 -1788.526273 
L 438.429421 -1823.533419 
L 444.53719 -1858.540565 
L 450.644959 -1893.547712 
L 456.752727 -1928.554858 
L 462.860496 -1963.562004 
L 468.968264 -1998.569151 
L 475.076033 -2033.576297 
L 481.183802 -2068.583443 
L 487.29157 -2103.59059 
L 493.399339 -2138.597736 
L 499.507107 -2173.604882 
L 505.614876 -2208.612029 
L 511.722645 -2243.619175 
L 517.830413 -2278.626321 
L 523.938182 -2313.633468 
L 530.04595 -2348.640614 
L 536.153719 -2383.64776 
L 542.261488 -2418.654907 
L 548.369256 -2453.662053 
L 554.477025 -2488.669199 
L 560.584793 -2523.676346 
L 566.692562 -2558.683492 
L 572.800331 -2593.690638 
L 578.908099 -2628.697785 
L 585.015868 -2663.704931 
L 591.123636 -2698.712077 
L 597.231405 -2733.719224 
L 603.339174 -2768.72637 
L 609.446942 -2803.733516 
L 615.554711 -2838.740663 
L 621.662479 -2873.747809 
L 627.770248 -2908.754955 
L 633.878017 -2943.762102 
L 639.985785 -2978.769248 
L 646.093554 -3013.776394 
L 652.201322 -3048.783541 
L 658.309091 -3083.790687 
L 658.309091 -218.8512 
L 658.309091 -218.8512 
L 652.201322 -218.8512 
L 646.093554 -218.8512 
L 639.985785 -218.8512 
L 633.878017 -218.8512 
L 627.770248 -218.8512 
L 621.662479 -218.8512 
L 615.554711 -218.8512 
L 609.446942 -218.8512 
L 603.339174 -218.8512 
L 597.231405 -218.8512 
L 591.123636 -218.8512 
L 585.015868 -218.8512 
L 578.908099 -218.8512 
L 572.800331 -218.8512 
L 566.692562 -218.8512 
L 560.584793 -218.8512 
L 554.477025 -218.8512 
L 548.369256 -218.8512 
L 542.261488 -218.8512 
L 536.153719 -218.8512 
L 530.04595 -218.8512 
L 523.938182 -218.8512 
L 517.830413 -218.8512 
L 511.722645 -218.8512 
L 505.614876 -218.8512 
L 499.507107 -218.8512 
L 493.399339 -218.8512 
L 487.29157 -218.8512 
L 481.183802 -218.8512 
L 475.076033 -218.8512 
L 468.968264 -218.8512 
L 462.860496 -218.8512 
L 456.752727 -218.8512 
L 450.644959 -218.8512 
L 444.53719 -218.8512 
L 438.429421 -218.8512 
L 432.321653 -218.8512 
L 426.213884 -218.8512 
L 420.106116 -218.8512 
L 413.998347 -218.8512 
L 407.890579 -218.8512 
L 401.78281 -218.8512 
L 395.675041 -218.8512 
L 389.567273 -218.8512 
L 383.459504 -218.8512 
L 377.351736 -218.8512 
L 371.243967 -218.8512 
L 365.136198 -218.8512 
L 359.02843 -218.8512 
L 352.920661 -218.8512 
L 346.812893 -218.8512 
L 340.705124 -218.8512 
L 334.597355 -218.8512 
L 328.489587 -218.8512 
L 322.381818 -218.8512 
L 316.27405 -218.8512 
L 310.166281 -218.8512 
L 304.058512 -218.8512 
L 297.950744 -218.8512 
L 291.842975 -218.8512 
L 285.735207 -218.8512 
L 279.627438 -218.8512 
L 273.519669 -218.8512 
L 267.411901 -218.8512 
L 261.304132 -218.8512 
L 255.196364 -218.8512 
L 249.088595 -218.8512 
L 242.980826 -218.8512 
L 236.873058 -218.8512 
L 230.765289 -218.8512 
L 224.657521 -218.8512 
L 218.549752 -218.8512 
L 212.441983 -218.8512 
L 206.334215 -218.8512 
L 200.226446 -218.8512 
L 194.118678 -218.8512 
L 188.010909 -218.8512 
L 181.90314 -218.8512 
L 175.795372 -218.8512 
L 169.687603 -218.8512 
L 163.579835 -218.8512 
L 157.472066 -218.8512 
L 151.364298 -218.8512 
L 145.256529 -218.8512 
L 139.14876 -218.8512 
L 133.040992 -218.8512 
L 126.933223 -218.8512 
L 120.825455 -218.8512 
L 114.717686 -218.8512 
L 108.609917 -218.8512 
L 102.502149 -218.8512 
L 96.39438 -218.8512 
L 90.286612 -218.8512 
L 84.178843 -218.8512 
L 78.071074 -218.8512 
L 71.963306 -218.8512 
L 65.855537 -218.8512 
L 59.747769 -218.8512 
L 53.64 -218.8512 
z
" clip-path="url(#p62501d7bfb)" style="fill: #999999; stroke: #999999"/>
   </g>
   <g id="matplotlib.axis_1">
    <g id="xtick_1">
     <g id="line2d_1">
      <defs>
       <path id="mfd21d1fc8c" d="M 0 0 
L 0 3.5 
" style="stroke: #000000; stroke-width: 0.8"/>
      </defs>
      <g>
       <use xlink:href="#mfd21d1fc8c" x="53.64" y="381.9168" style="stroke: #000000; stroke-width: 0.8"/>
      </g>
     </g>
     <g id="text_1">
      <!-- 0 -->
      <g transform="translate(49.8225 398.034925) scale(0.12 -0.12)">
       <defs>
        <path id="DejaVuSans-30" d="M 2034 4250 
Q 1547 4250 1301 3770 
Q 1056 3291 1056 2328 
Q 1056 1369 1301 889 
Q 1547 409 2034 409 
Q 2525 409 2770 889 
Q 3016 1369 3016 2328 
Q 3016 3291 2770 3770 
Q 2525 4250 2034 4250 
z
M 2034 4750 
Q 2819 4750 3233 4129 
Q 3647 3509 3647 2328 
Q 3647 1150 3233 529 
Q 2819 -91 2034 -91 
Q 1250 -91 836 529 
Q 422 1150 422 2328 
Q 422 3509 836 4129 
Q 1250 4750 2034 4750 
z
" transform="scale(0.015625)"/>
       </defs>
       <use xlink:href="#DejaVuSans-30"/>
      </g>
     </g>
    </g>
    <g id="xtick_2">
     <g id="line2d_2">
      <g>
       <use xlink:href="#mfd21d1fc8c" x="355.974545" y="381.9168" style="stroke: #000000; stroke-width: 0.8"/>
      </g>
     </g>
     <g id="text_2">
      <!-- 1 -->
      <g transform="translate(352.157045 398.034925) scale(0.12 -0.12)">
       <defs>
        <path id="DejaVuSans-31" d="M 794 531 
L 1825 531 
L 1825 4091 
L 703 3866 
L 703 4441 
L 1819 4666 
L 2450 4666 
L 2450 531 
L 3481 531 
L 3481 0 
L 794 0 
L 794 531 
z
" transform="scale(0.015625)"/>
       </defs>
       <use xlink:href="#DejaVuSans-31"/>
      </g>
     </g>
    </g>
    <g id="text_3">
     <!-- motility $d_A$ -->
     <g style="fill: #214478" transform="translate(188.364 401.65055) scale(0.12 -0.12)">
      <defs>
       <path id="DejaVuSans-6d" d="M 3328 2828 
Q 3544 3216 3844 3400 
Q 4144 3584 4550 3584 
Q 5097 3584 5394 3201 
Q 5691 2819 5691 2113 
L 5691 0 
L 5113 0 
L 5113 2094 
Q 5113 2597 4934 2840 
Q 4756 3084 4391 3084 
Q 3944 3084 3684 2787 
Q 3425 2491 3425 1978 
L 3425 0 
L 2847 0 
L 2847 2094 
Q 2847 2600 2669 2842 
Q 2491 3084 2119 3084 
Q 1678 3084 1418 2786 
Q 1159 2488 1159 1978 
L 1159 0 
L 581 0 
L 581 3500 
L 1159 3500 
L 1159 2956 
Q 1356 3278 1631 3431 
Q 1906 3584 2284 3584 
Q 2666 3584 2933 3390 
Q 3200 3197 3328 2828 
z
" transform="scale(0.015625)"/>
       <path id="DejaVuSans-6f" d="M 1959 3097 
Q 1497 3097 1228 2736 
Q 959 2375 959 1747 
Q 959 1119 1226 758 
Q 1494 397 1959 397 
Q 2419 397 2687 759 
Q 2956 1122 2956 1747 
Q 2956 2369 2687 2733 
Q 2419 3097 1959 3097 
z
M 1959 3584 
Q 2709 3584 3137 3096 
Q 3566 2609 3566 1747 
Q 3566 888 3137 398 
Q 2709 -91 1959 -91 
Q 1206 -91 779 398 
Q 353 888 353 1747 
Q 353 2609 779 3096 
Q 1206 3584 1959 3584 
z
" transform="scale(0.015625)"/>
       <path id="DejaVuSans-74" d="M 1172 4494 
L 1172 3500 
L 2356 3500 
L 2356 3053 
L 1172 3053 
L 1172 1153 
Q 1172 725 1289 603 
Q 1406 481 1766 481 
L 2356 481 
L 2356 0 
L 1766 0 
Q 1100 0 847 248 
Q 594 497 594 1153 
L 594 3053 
L 172 3053 
L 172 3500 
L 594 3500 
L 594 4494 
L 1172 4494 
z
" transform="scale(0.015625)"/>
       <path id="DejaVuSans-69" d="M 603 3500 
L 1178 3500 
L 1178 0 
L 603 0 
L 603 3500 
z
M 603 4863 
L 1178 4863 
L 1178 4134 
L 603 4134 
L 603 4863 
z
" transform="scale(0.015625)"/>
       <path id="DejaVuSans-6c" d="M 603 4863 
L 1178 4863 
L 1178 0 
L 603 0 
L 603 4863 
z
" transform="scale(0.015625)"/>
       <path id="DejaVuSans-79" d="M 2059 -325 
Q 1816 -950 1584 -1140 
Q 1353 -1331 966 -1331 
L 506 -1331 
L 506 -850 
L 844 -850 
Q 1081 -850 1212 -737 
Q 1344 -625 1503 -206 
L 1606 56 
L 191 3500 
L 800 3500 
L 1894 763 
L 2988 3500 
L 3597 3500 
L 2059 -325 
z
" transform="scale(0.015625)"/>
       <path id="DejaVuSans-20" transform="scale(0.015625)"/>
       <path id="DejaVuSans-Oblique-64" d="M 2675 525 
Q 2444 222 2128 65 
Q 1813 -91 1428 -91 
Q 903 -91 598 267 
Q 294 625 294 1247 
Q 294 1766 478 2236 
Q 663 2706 1013 3078 
Q 1244 3325 1534 3454 
Q 1825 3584 2144 3584 
Q 2481 3584 2739 3421 
Q 2997 3259 3138 2956 
L 3513 4863 
L 4091 4863 
L 3144 0 
L 2566 0 
L 2675 525 
z
M 891 1350 
Q 891 897 1095 644 
Q 1300 391 1663 391 
Q 1931 391 2161 520 
Q 2391 650 2566 903 
Q 2750 1166 2856 1509 
Q 2963 1853 2963 2188 
Q 2963 2622 2758 2865 
Q 2553 3109 2194 3109 
Q 1922 3109 1687 2981 
Q 1453 2853 1288 2613 
Q 1106 2353 998 2009 
Q 891 1666 891 1350 
z
" transform="scale(0.015625)"/>
       <path id="DejaVuSans-Oblique-41" d="M 2356 4666 
L 3072 4666 
L 3938 0 
L 3278 0 
L 3084 1197 
L 984 1197 
L 325 0 
L -341 0 
L 2356 4666 
z
M 2584 4044 
L 1275 1722 
L 2988 1722 
L 2584 4044 
z
" transform="scale(0.015625)"/>
      </defs>
      <use xlink:href="#DejaVuSans-6d" transform="translate(0 0.015625)"/>
      <use xlink:href="#DejaVuSans-6f" transform="translate(97.412109 0.015625)"/>
      <use xlink:href="#DejaVuSans-74" transform="translate(158.59375 0.015625)"/>
      <use xlink:href="#DejaVuSans-69" transform="translate(197.802734 0.015625)"/>
      <use xlink:href="#DejaVuSans-6c" transform="translate(225.585938 0.015625)"/>
      <use xlink:href="#DejaVuSans-69" transform="translate(253.369141 0.015625)"/>
      <use xlink:href="#DejaVuSans-74" transform="translate(281.152344 0.015625)"/>
      <use xlink:href="#DejaVuSans-79" transform="translate(320.361328 0.015625)"/>
      <use xlink:href="#DejaVuSans-20" transform="translate(379.541016 0.015625)"/>
      <use xlink:href="#DejaVuSans-Oblique-64" transform="translate(411.328125 0.015625)"/>
      <use xlink:href="#DejaVuSans-Oblique-41" transform="translate(474.804688 -16.390625) scale(0.7)"/>
     </g>
    </g>
   </g>
   <g id="matplotlib.axis_2">
    <g id="ytick_1">
     <g id="line2d_3">
      <defs>
       <path id="m49da17d5fb" d="M 0 0 
L -3.5 0 
" style="stroke: #000000; stroke-width: 0.8"/>
      </defs>
      <g>
       <use xlink:href="#m49da17d5fb" x="53.64" y="381.9168" style="stroke: #000000; stroke-width: 0.8"/>
      </g>
     </g>
     <g id="text_4">
      <!-- 0 -->
      <g transform="translate(39.005 386.475863) scale(0.12 -0.12)">
       <use xlink:href="#DejaVuSans-30"/>
      </g>
     </g>
    </g>
    <g id="ytick_2">
     <g id="line2d_4">
      <g>
       <use xlink:href="#m49da17d5fb" x="53.64" y="81.5328" style="stroke: #000000; stroke-width: 0.8"/>
      </g>
     </g>
     <g id="text_5">
      <!-- 1 -->
      <g transform="translate(39.005 86.091862) scale(0.12 -0.12)">
       <use xlink:href="#DejaVuSans-31"/>
      </g>
     </g>
    </g>
    <g id="text_6">
     <!-- motility $d_I$ -->
     <g style="fill: #aa0000" transform="translate(43.485 246.6456) rotate(-90) scale(0.12 -0.12)">
      <defs>
       <path id="DejaVuSans-Oblique-49" d="M 1081 4666 
L 1716 4666 
L 806 0 
L 172 0 
L 1081 4666 
z
" transform="scale(0.015625)"/>
      </defs>
      <use xlink:href="#DejaVuSans-6d" transform="translate(0 0.015625)"/>
      <use xlink:href="#DejaVuSans-6f" transform="translate(97.412109 0.015625)"/>
      <use xlink:href="#DejaVuSans-74" transform="translate(158.59375 0.015625)"/>
      <use xlink:href="#DejaVuSans-69" transform="translate(197.802734 0.015625)"/>
      <use xlink:href="#DejaVuSans-6c" transform="translate(225.585938 0.015625)"/>
      <use xlink:href="#DejaVuSans-69" transform="translate(253.369141 0.015625)"/>
      <use xlink:href="#DejaVuSans-74" transform="translate(281.152344 0.015625)"/>
      <use xlink:href="#DejaVuSans-79" transform="translate(320.361328 0.015625)"/>
      <use xlink:href="#DejaVuSans-20" transform="translate(379.541016 0.015625)"/>
      <use xlink:href="#DejaVuSans-Oblique-64" transform="translate(411.328125 0.015625)"/>
      <use xlink:href="#DejaVuSans-Oblique-49" transform="translate(474.804688 -16.390625) scale(0.7)"/>
     </g>
    </g>
   </g>
   <g id="line2d_5">
    <path d="M 53.64 381.9168 
L 59.747769 346.909654 
L 65.855537 311.902507 
L 71.963306 276.895361 
L 78.071074 241.888215 
L 84.178843 206.881068 
L 90.286612 171.873922 
L 96.39438 136.866776 
L 102.502149 101.859629 
L 108.609917 66.852483 
L 114.717686 31.845337 
L 120.448279 -1 
" clip-path="url(#p62501d7bfb)" style="fill: none; stroke-dasharray: 7.4,3.2; stroke-dashoffset: 0; stroke: #000000; stroke-width: 2"/>
   </g>
   <g id="patch_3">
    <path d="M 53.64 381.9168 
L 53.64 51.4944 
" style="fill: none; stroke: #000000; stroke-width: 0.8; stroke-linejoin: miter; stroke-linecap: square"/>
   </g>
   <g id="patch_4">
    <path d="M 386.208 381.9168 
L 386.208 51.4944 
" style="fill: none; stroke: #000000; stroke-width: 0.8; stroke-linejoin: miter; stroke-linecap: square"/>
   </g>
   <g id="patch_5">
    <path d="M 53.64 381.9168 
L 386.208 381.9168 
" style="fill: none; stroke: #000000; stroke-width: 0.8; stroke-linejoin: miter; stroke-linecap: square"/>
   </g>
   <g id="patch_6">
    <path d="M 53.64 51.4944 
L 386.208 51.4944 
" style="fill: none; stroke: #000000; stroke-width: 0.8; stroke-linejoin: miter; stroke-linecap: square"/>
   </g>
   <g id="line2d_6">
    <path d="M 83.873455 81.5328 
L 83.986062 81.549867 
L 83.873455 81.5328 
L 83.902397 81.643911 
L 83.019398 81.754235 
L 79.470174 81.847948 
L 66.822106 82.193686 
L 64.090943 82.504577 
L 61.789106 82.993795 
L 60.425024 83.470568 
L 59.063079 84.218563 
L 58.186528 84.940815 
L 57.589773 85.721116 
L 57.080377 86.761753 
L 56.482888 88.628711 
L 55.980676 90.802521 
L 55.584129 93.566837 
L 55.27504 97.402433 
L 54.823639 106.311961 
L 54.600358 115.962117 
L 54.484322 131.798669 
L 54.392395 194.017463 
L 54.3498 264.98686 
L 53.651365 299.490465 
L 53.640907 340.514032 
L 53.640907 340.514032 
" style="fill: none; stroke: #d4aa00; stroke-width: 3; stroke-linecap: square"/>
   </g>
   <g id="line2d_7">
    <path d="M 83.873455 81.5328 
" style="fill: none; stroke: #d4aa00; stroke-width: 1.5; stroke-linecap: square"/>
    <defs>
     <path id="m8f1117183c" d="M 0 5 
C 1.326016 5 2.597899 4.473168 3.535534 3.535534 
C 4.473168 2.597899 5 1.326016 5 0 
C 5 -1.326016 4.473168 -2.597899 3.535534 -3.535534 
C 2.597899 -4.473168 1.326016 -5 0 -5 
C -1.326016 -5 -2.597899 -4.473168 -3.535534 -3.535534 
C -4.473168 -2.597899 -5 -1.326016 -5 0 
C -5 1.326016 -4.473168 2.597899 -3.535534 3.535534 
C -2.597899 4.473168 -1.326016 5 0 5 
z
" style="stroke: #d4aa00"/>
    </defs>
    <g>
     <use xlink:href="#m8f1117183c" x="83.873455" y="81.5328" style="fill: #d4aa00; stroke: #d4aa00"/>
    </g>
   </g>
   <g id="line2d_8">
    <path d="M 83.793586 81.671039 
" style="fill: none; stroke: #d4aa00; stroke-width: 1.5; stroke-linecap: square"/>
    <g>
     <use xlink:href="#m8f1117183c" x="83.793586" y="81.671039" style="fill: #d4aa00; stroke: #d4aa00"/>
    </g>
   </g>
   <g id="line2d_9">
    <path d="M 59.543602 83.921622 
" style="fill: none; stroke: #d4aa00; stroke-width: 1.5; stroke-linecap: square"/>
    <g>
     <use xlink:href="#m8f1117183c" x="59.543602" y="83.921622" style="fill: #d4aa00; stroke: #d4aa00"/>
    </g>
   </g>
   <g id="line2d_10">
    <path d="M 54.393277 170.142274 
" style="fill: none; stroke: #d4aa00; stroke-width: 1.5; stroke-linecap: square"/>
    <g>
     <use xlink:href="#m8f1117183c" x="54.393277" y="170.142274" style="fill: #d4aa00; stroke: #d4aa00"/>
    </g>
   </g>
  </g>
 </g>
 <defs>
  <clipPath id="p62501d7bfb">
   <rect x="53.64" y="51.4944" width="332.568" height="330.4224"/>
  </clipPath>
 </defs>
</svg>
