<?xml version="1.0" encoding="utf-8" standalone="no"?>
<!DOCTYPE svg PUBLIC "-//W3C//DTD SVG 1.1//EN"
  "http://www.w3.org/Graphics/SVG/1.1/DTD/svg11.dtd">
<svg xmlns:xlink="http://www.w3.org/1999/xlink" width="108pt" height="72pt" viewBox="0 0 108 72" xmlns="http://www.w3.org/2000/svg" version="1.1">
 <metadata>
  <rdf:RDF xmlns:dc="http://purl.org/dc/elements/1.1/" xmlns:cc="http://creativecommons.org/ns#" xmlns:rdf="http://www.w3.org/1999/02/22-rdf-syntax-ns#">
   <cc:Work>
    <dc:type rdf:resource="http://purl.org/dc/dcmitype/StillImage"/>
    <dc:date>2022-12-20T19:18:56.326958</dc:date>
    <dc:format>image/svg+xml</dc:format>
    <dc:creator>
     <cc:Agent>
      <dc:title>Matplotlib v3.5.3, https://matplotlib.org/</dc:title>
     </cc:Agent>
    </dc:creator>
   </cc:Work>
  </rdf:RDF>
 </metadata>
 <defs>
  <style type="text/css">*{stroke-linejoin: round; stroke-linecap: butt}</style>
 </defs>
 <g id="figure_1">
  <g id="patch_1">
   <path d="M 0 72 
L 108 72 
L 108 0 
L 0 0 
z
" style="fill: #ffffff"/>
  </g>
  <g id="axes_1">
   <g id="patch_2">
    <path d="M 6.50024 21.692885 
L 104.99976 21.692885 
L 104.99976 3.00024 
L 6.50024 3.00024 
z
" style="fill: #ffffff"/>
   </g>
   <g id="QuadMesh_1">
    <path d="M 6.50024 21.692885 
L 7.314286 21.692885 
L 7.314286 3.00024 
L 6.50024 3.00024 
L 6.50024 21.692885 
" clip-path="url(#pb424dc9d0c)" style="fill: #0c56a0"/>
    <path d="M 7.314286 21.692885 
L 8.128331 21.692885 
L 8.128331 3.00024 
L 7.314286 3.00024 
L 7.314286 21.692885 
" clip-path="url(#pb424dc9d0c)" style="fill: #1f6eb3"/>
    <path d="M 8.128331 21.692885 
L 8.942377 21.692885 
L 8.942377 3.00024 
L 8.128331 3.00024 
L 8.128331 21.692885 
" clip-path="url(#pb424dc9d0c)" style="fill: #5ca4d0"/>
    <path d="M 8.942377 21.692885 
L 9.756422 21.692885 
L 9.756422 3.00024 
L 8.942377 3.00024 
L 8.942377 21.692885 
" clip-path="url(#pb424dc9d0c)" style="fill: #b5d4e9"/>
    <path d="M 9.756422 21.692885 
L 10.570468 21.692885 
L 10.570468 3.00024 
L 9.756422 3.00024 
L 9.756422 21.692885 
" clip-path="url(#pb424dc9d0c)" style="fill: #d5e5f4"/>
    <path d="M 10.570468 21.692885 
L 11.384514 21.692885 
L 11.384514 3.00024 
L 10.570468 3.00024 
L 10.570468 21.692885 
" clip-path="url(#pb424dc9d0c)" style="fill: #d6e5f4"/>
    <path d="M 11.384514 21.692885 
L 12.198559 21.692885 
L 12.198559 3.00024 
L 11.384514 3.00024 
L 11.384514 21.692885 
" clip-path="url(#pb424dc9d0c)" style="fill: #b7d4ea"/>
    <path d="M 12.198559 21.692885 
L 13.012605 21.692885 
L 13.012605 3.00024 
L 12.198559 3.00024 
L 12.198559 21.692885 
" clip-path="url(#pb424dc9d0c)" style="fill: #5da5d1"/>
    <path d="M 13.012605 21.692885 
L 13.826651 21.692885 
L 13.826651 3.00024 
L 13.012605 3.00024 
L 13.012605 21.692885 
" clip-path="url(#pb424dc9d0c)" style="fill: #2070b4"/>
    <path d="M 13.826651 21.692885 
L 14.640696 21.692885 
L 14.640696 3.00024 
L 13.826651 3.00024 
L 13.826651 21.692885 
" clip-path="url(#pb424dc9d0c)" style="fill: #0e58a2"/>
    <path d="M 14.640696 21.692885 
L 15.454742 21.692885 
L 15.454742 3.00024 
L 14.640696 3.00024 
L 14.640696 21.692885 
" clip-path="url(#pb424dc9d0c)" style="fill: #0c56a0"/>
    <path d="M 15.454742 21.692885 
L 16.268787 21.692885 
L 16.268787 3.00024 
L 15.454742 3.00024 
L 15.454742 21.692885 
" clip-path="url(#pb424dc9d0c)" style="fill: #1e6db2"/>
    <path d="M 16.268787 21.692885 
L 17.082833 21.692885 
L 17.082833 3.00024 
L 16.268787 3.00024 
L 16.268787 21.692885 
" clip-path="url(#pb424dc9d0c)" style="fill: #549fcd"/>
    <path d="M 17.082833 21.692885 
L 17.896879 21.692885 
L 17.896879 3.00024 
L 17.082833 3.00024 
L 17.082833 21.692885 
" clip-path="url(#pb424dc9d0c)" style="fill: #afd1e7"/>
    <path d="M 17.896879 21.692885 
L 18.710924 21.692885 
L 18.710924 3.00024 
L 17.896879 3.00024 
L 17.896879 21.692885 
" clip-path="url(#pb424dc9d0c)" style="fill: #d4e4f4"/>
    <path d="M 18.710924 21.692885 
L 19.52497 21.692885 
L 19.52497 3.00024 
L 18.710924 3.00024 
L 18.710924 21.692885 
" clip-path="url(#pb424dc9d0c)" style="fill: #d7e6f5"/>
    <path d="M 19.52497 21.692885 
L 20.339016 21.692885 
L 20.339016 3.00024 
L 19.52497 3.00024 
L 19.52497 21.692885 
" clip-path="url(#pb424dc9d0c)" style="fill: #bed8ec"/>
    <path d="M 20.339016 21.692885 
L 21.153061 21.692885 
L 21.153061 3.00024 
L 20.339016 3.00024 
L 20.339016 21.692885 
" clip-path="url(#pb424dc9d0c)" style="fill: #69add5"/>
    <path d="M 21.153061 21.692885 
L 21.967107 21.692885 
L 21.967107 3.00024 
L 21.153061 3.00024 
L 21.153061 21.692885 
" clip-path="url(#pb424dc9d0c)" style="fill: #2676b8"/>
    <path d="M 21.967107 21.692885 
L 22.781152 21.692885 
L 22.781152 3.00024 
L 21.967107 3.00024 
L 21.967107 21.692885 
" clip-path="url(#pb424dc9d0c)" style="fill: #0f5aa3"/>
    <path d="M 22.781152 21.692885 
L 23.595198 21.692885 
L 23.595198 3.00024 
L 22.781152 3.00024 
L 22.781152 21.692885 
" clip-path="url(#pb424dc9d0c)" style="fill: #0d57a1"/>
    <path d="M 23.595198 21.692885 
L 24.409244 21.692885 
L 24.409244 3.00024 
L 23.595198 3.00024 
L 23.595198 21.692885 
" clip-path="url(#pb424dc9d0c)" style="fill: #1a68ae"/>
    <path d="M 24.409244 21.692885 
L 25.223289 21.692885 
L 25.223289 3.00024 
L 24.409244 3.00024 
L 24.409244 21.692885 
" clip-path="url(#pb424dc9d0c)" style="fill: #4896c8"/>
    <path d="M 25.223289 21.692885 
L 26.037335 21.692885 
L 26.037335 3.00024 
L 25.223289 3.00024 
L 25.223289 21.692885 
" clip-path="url(#pb424dc9d0c)" style="fill: #9fcae1"/>
    <path d="M 26.037335 21.692885 
L 26.85138 21.692885 
L 26.85138 3.00024 
L 26.037335 3.00024 
L 26.037335 21.692885 
" clip-path="url(#pb424dc9d0c)" style="fill: #cee0f2"/>
    <path d="M 26.85138 21.692885 
L 27.665426 21.692885 
L 27.665426 3.00024 
L 26.85138 3.00024 
L 26.85138 21.692885 
" clip-path="url(#pb424dc9d0c)" style="fill: #d6e5f4"/>
    <path d="M 27.665426 21.692885 
L 28.479472 21.692885 
L 28.479472 3.00024 
L 27.665426 3.00024 
L 27.665426 21.692885 
" clip-path="url(#pb424dc9d0c)" style="fill: #c6dbef"/>
    <path d="M 28.479472 21.692885 
L 29.293517 21.692885 
L 29.293517 3.00024 
L 28.479472 3.00024 
L 28.479472 21.692885 
" clip-path="url(#pb424dc9d0c)" style="fill: #7fb9da"/>
    <path d="M 29.293517 21.692885 
L 30.107563 21.692885 
L 30.107563 3.00024 
L 29.293517 3.00024 
L 29.293517 21.692885 
" clip-path="url(#pb424dc9d0c)" style="fill: #3a8ac2"/>
    <path d="M 30.107563 21.692885 
L 30.921609 21.692885 
L 30.921609 3.00024 
L 30.107563 3.00024 
L 30.107563 21.692885 
" clip-path="url(#pb424dc9d0c)" style="fill: #2474b7"/>
    <path d="M 30.921609 21.692885 
L 31.735654 21.692885 
L 31.735654 3.00024 
L 30.921609 3.00024 
L 30.921609 21.692885 
" clip-path="url(#pb424dc9d0c)" style="fill: #3181bd"/>
    <path d="M 31.735654 21.692885 
L 32.5497 21.692885 
L 32.5497 3.00024 
L 31.735654 3.00024 
L 31.735654 21.692885 
" clip-path="url(#pb424dc9d0c)" style="fill: #4d99ca"/>
    <path d="M 32.5497 21.692885 
L 33.363745 21.692885 
L 33.363745 3.00024 
L 32.5497 3.00024 
L 32.5497 21.692885 
" clip-path="url(#pb424dc9d0c)" style="fill: #68acd5"/>
    <path d="M 33.363745 21.692885 
L 34.177791 21.692885 
L 34.177791 3.00024 
L 33.363745 3.00024 
L 33.363745 21.692885 
" clip-path="url(#pb424dc9d0c)" style="fill: #6dafd7"/>
    <path d="M 34.177791 21.692885 
L 34.991837 21.692885 
L 34.991837 3.00024 
L 34.177791 3.00024 
L 34.177791 21.692885 
" clip-path="url(#pb424dc9d0c)" style="fill: #5da5d1"/>
    <path d="M 34.991837 21.692885 
L 35.805882 21.692885 
L 35.805882 3.00024 
L 34.991837 3.00024 
L 34.991837 21.692885 
" clip-path="url(#pb424dc9d0c)" style="fill: #4896c8"/>
    <path d="M 35.805882 21.692885 
L 36.619928 21.692885 
L 36.619928 3.00024 
L 35.805882 3.00024 
L 35.805882 21.692885 
" clip-path="url(#pb424dc9d0c)" style="fill: #4896c8"/>
    <path d="M 36.619928 21.692885 
L 37.433974 21.692885 
L 37.433974 3.00024 
L 36.619928 3.00024 
L 36.619928 21.692885 
" clip-path="url(#pb424dc9d0c)" style="fill: #6fb0d7"/>
    <path d="M 37.433974 21.692885 
L 38.248019 21.692885 
L 38.248019 3.00024 
L 37.433974 3.00024 
L 37.433974 21.692885 
" clip-path="url(#pb424dc9d0c)" style="fill: #b2d2e8"/>
    <path d="M 38.248019 21.692885 
L 39.062065 21.692885 
L 39.062065 3.00024 
L 38.248019 3.00024 
L 38.248019 21.692885 
" clip-path="url(#pb424dc9d0c)" style="fill: #cfe1f2"/>
    <path d="M 39.062065 21.692885 
L 39.87611 21.692885 
L 39.87611 3.00024 
L 39.062065 3.00024 
L 39.062065 21.692885 
" clip-path="url(#pb424dc9d0c)" style="fill: #d0e2f2"/>
    <path d="M 39.87611 21.692885 
L 40.690156 21.692885 
L 40.690156 3.00024 
L 39.87611 3.00024 
L 39.87611 21.692885 
" clip-path="url(#pb424dc9d0c)" style="fill: #b5d4e9"/>
    <path d="M 40.690156 21.692885 
L 41.504202 21.692885 
L 41.504202 3.00024 
L 40.690156 3.00024 
L 40.690156 21.692885 
" clip-path="url(#pb424dc9d0c)" style="fill: #69add5"/>
    <path d="M 41.504202 21.692885 
L 42.318247 21.692885 
L 42.318247 3.00024 
L 41.504202 3.00024 
L 41.504202 21.692885 
" clip-path="url(#pb424dc9d0c)" style="fill: #2e7ebc"/>
    <path d="M 42.318247 21.692885 
L 43.132293 21.692885 
L 43.132293 3.00024 
L 42.318247 3.00024 
L 42.318247 21.692885 
" clip-path="url(#pb424dc9d0c)" style="fill: #1561a9"/>
    <path d="M 43.132293 21.692885 
L 43.946339 21.692885 
L 43.946339 3.00024 
L 43.132293 3.00024 
L 43.132293 21.692885 
" clip-path="url(#pb424dc9d0c)" style="fill: #0f5aa3"/>
    <path d="M 43.946339 21.692885 
L 44.760384 21.692885 
L 44.760384 3.00024 
L 43.946339 3.00024 
L 43.946339 21.692885 
" clip-path="url(#pb424dc9d0c)" style="fill: #1967ad"/>
    <path d="M 44.760384 21.692885 
L 45.57443 21.692885 
L 45.57443 3.00024 
L 44.760384 3.00024 
L 44.760384 21.692885 
" clip-path="url(#pb424dc9d0c)" style="fill: #4493c7"/>
    <path d="M 45.57443 21.692885 
L 46.388475 21.692885 
L 46.388475 3.00024 
L 45.57443 3.00024 
L 45.57443 21.692885 
" clip-path="url(#pb424dc9d0c)" style="fill: #9dcae1"/>
    <path d="M 46.388475 21.692885 
L 47.202521 21.692885 
L 47.202521 3.00024 
L 46.388475 3.00024 
L 46.388475 21.692885 
" clip-path="url(#pb424dc9d0c)" style="fill: #cfe1f2"/>
    <path d="M 47.202521 21.692885 
L 48.016567 21.692885 
L 48.016567 3.00024 
L 47.202521 3.00024 
L 47.202521 21.692885 
" clip-path="url(#pb424dc9d0c)" style="fill: #d6e6f4"/>
    <path d="M 48.016567 21.692885 
L 48.830612 21.692885 
L 48.830612 3.00024 
L 48.016567 3.00024 
L 48.016567 21.692885 
" clip-path="url(#pb424dc9d0c)" style="fill: #c6dbef"/>
    <path d="M 48.830612 21.692885 
L 49.644658 21.692885 
L 49.644658 3.00024 
L 48.830612 3.00024 
L 48.830612 21.692885 
" clip-path="url(#pb424dc9d0c)" style="fill: #79b5d9"/>
    <path d="M 49.644658 21.692885 
L 50.458703 21.692885 
L 50.458703 3.00024 
L 49.644658 3.00024 
L 49.644658 21.692885 
" clip-path="url(#pb424dc9d0c)" style="fill: #2c7cba"/>
    <path d="M 50.458703 21.692885 
L 51.272749 21.692885 
L 51.272749 3.00024 
L 50.458703 3.00024 
L 50.458703 21.692885 
" clip-path="url(#pb424dc9d0c)" style="fill: #0e59a2"/>
    <path d="M 51.272749 21.692885 
L 52.086795 21.692885 
L 52.086795 3.00024 
L 51.272749 3.00024 
L 51.272749 21.692885 
" clip-path="url(#pb424dc9d0c)" style="fill: #0b559f"/>
    <path d="M 52.086795 21.692885 
L 52.90084 21.692885 
L 52.90084 3.00024 
L 52.086795 3.00024 
L 52.086795 21.692885 
" clip-path="url(#pb424dc9d0c)" style="fill: #1c6ab0"/>
    <path d="M 52.90084 21.692885 
L 53.714886 21.692885 
L 53.714886 3.00024 
L 52.90084 3.00024 
L 52.90084 21.692885 
" clip-path="url(#pb424dc9d0c)" style="fill: #529dcc"/>
    <path d="M 53.714886 21.692885 
L 54.528932 21.692885 
L 54.528932 3.00024 
L 53.714886 3.00024 
L 53.714886 21.692885 
" clip-path="url(#pb424dc9d0c)" style="fill: #abd0e6"/>
    <path d="M 54.528932 21.692885 
L 55.342977 21.692885 
L 55.342977 3.00024 
L 54.528932 3.00024 
L 54.528932 21.692885 
" clip-path="url(#pb424dc9d0c)" style="fill: #d1e2f3"/>
    <path d="M 55.342977 21.692885 
L 56.157023 21.692885 
L 56.157023 3.00024 
L 55.342977 3.00024 
L 55.342977 21.692885 
" clip-path="url(#pb424dc9d0c)" style="fill: #d2e3f3"/>
    <path d="M 56.157023 21.692885 
L 56.971068 21.692885 
L 56.971068 3.00024 
L 56.157023 3.00024 
L 56.157023 21.692885 
" clip-path="url(#pb424dc9d0c)" style="fill: #b0d2e7"/>
    <path d="M 56.971068 21.692885 
L 57.785114 21.692885 
L 57.785114 3.00024 
L 56.971068 3.00024 
L 56.971068 21.692885 
" clip-path="url(#pb424dc9d0c)" style="fill: #57a0ce"/>
    <path d="M 57.785114 21.692885 
L 58.59916 21.692885 
L 58.59916 3.00024 
L 57.785114 3.00024 
L 57.785114 21.692885 
" clip-path="url(#pb424dc9d0c)" style="fill: #1c6bb0"/>
    <path d="M 58.59916 21.692885 
L 59.413205 21.692885 
L 59.413205 3.00024 
L 58.59916 3.00024 
L 58.59916 21.692885 
" clip-path="url(#pb424dc9d0c)" style="fill: #0a539e"/>
    <path d="M 59.413205 21.692885 
L 60.227251 21.692885 
L 60.227251 3.00024 
L 59.413205 3.00024 
L 59.413205 21.692885 
" clip-path="url(#pb424dc9d0c)" style="fill: #125da6"/>
    <path d="M 60.227251 21.692885 
L 61.041297 21.692885 
L 61.041297 3.00024 
L 60.227251 3.00024 
L 60.227251 21.692885 
" clip-path="url(#pb424dc9d0c)" style="fill: #3585bf"/>
    <path d="M 61.041297 21.692885 
L 61.855342 21.692885 
L 61.855342 3.00024 
L 61.041297 3.00024 
L 61.041297 21.692885 
" clip-path="url(#pb424dc9d0c)" style="fill: #89bedc"/>
    <path d="M 61.855342 21.692885 
L 62.669388 21.692885 
L 62.669388 3.00024 
L 61.855342 3.00024 
L 61.855342 21.692885 
" clip-path="url(#pb424dc9d0c)" style="fill: #c8dcf0"/>
    <path d="M 62.669388 21.692885 
L 63.483433 21.692885 
L 63.483433 3.00024 
L 62.669388 3.00024 
L 62.669388 21.692885 
" clip-path="url(#pb424dc9d0c)" style="fill: #d2e3f3"/>
    <path d="M 63.483433 21.692885 
L 64.297479 21.692885 
L 64.297479 3.00024 
L 63.483433 3.00024 
L 63.483433 21.692885 
" clip-path="url(#pb424dc9d0c)" style="fill: #bed8ec"/>
    <path d="M 64.297479 21.692885 
L 65.111525 21.692885 
L 65.111525 3.00024 
L 64.297479 3.00024 
L 64.297479 21.692885 
" clip-path="url(#pb424dc9d0c)" style="fill: #6fb0d7"/>
    <path d="M 65.111525 21.692885 
L 65.92557 21.692885 
L 65.92557 3.00024 
L 65.111525 3.00024 
L 65.111525 21.692885 
" clip-path="url(#pb424dc9d0c)" style="fill: #2777b8"/>
    <path d="M 65.92557 21.692885 
L 66.739616 21.692885 
L 66.739616 3.00024 
L 65.92557 3.00024 
L 65.92557 21.692885 
" clip-path="url(#pb424dc9d0c)" style="fill: #0d57a1"/>
    <path d="M 66.739616 21.692885 
L 67.553661 21.692885 
L 67.553661 3.00024 
L 66.739616 3.00024 
L 66.739616 21.692885 
" clip-path="url(#pb424dc9d0c)" style="fill: #0d57a1"/>
    <path d="M 67.553661 21.692885 
L 68.367707 21.692885 
L 68.367707 3.00024 
L 67.553661 3.00024 
L 67.553661 21.692885 
" clip-path="url(#pb424dc9d0c)" style="fill: #2a7ab9"/>
    <path d="M 68.367707 21.692885 
L 69.181753 21.692885 
L 69.181753 3.00024 
L 68.367707 3.00024 
L 68.367707 21.692885 
" clip-path="url(#pb424dc9d0c)" style="fill: #75b4d8"/>
    <path d="M 69.181753 21.692885 
L 69.995798 21.692885 
L 69.995798 3.00024 
L 69.181753 3.00024 
L 69.181753 21.692885 
" clip-path="url(#pb424dc9d0c)" style="fill: #c2d9ee"/>
    <path d="M 69.995798 21.692885 
L 70.809844 21.692885 
L 70.809844 3.00024 
L 69.995798 3.00024 
L 69.995798 21.692885 
" clip-path="url(#pb424dc9d0c)" style="fill: #d3e3f3"/>
    <path d="M 70.809844 21.692885 
L 71.62389 21.692885 
L 71.62389 3.00024 
L 70.809844 3.00024 
L 70.809844 21.692885 
" clip-path="url(#pb424dc9d0c)" style="fill: #c7dcef"/>
    <path d="M 71.62389 21.692885 
L 72.437935 21.692885 
L 72.437935 3.00024 
L 71.62389 3.00024 
L 71.62389 21.692885 
" clip-path="url(#pb424dc9d0c)" style="fill: #85bcdc"/>
    <path d="M 72.437935 21.692885 
L 73.251981 21.692885 
L 73.251981 3.00024 
L 72.437935 3.00024 
L 72.437935 21.692885 
" clip-path="url(#pb424dc9d0c)" style="fill: #3484bf"/>
    <path d="M 73.251981 21.692885 
L 74.066026 21.692885 
L 74.066026 3.00024 
L 73.251981 3.00024 
L 73.251981 21.692885 
" clip-path="url(#pb424dc9d0c)" style="fill: #115ca5"/>
    <path d="M 74.066026 21.692885 
L 74.880072 21.692885 
L 74.880072 3.00024 
L 74.066026 3.00024 
L 74.066026 21.692885 
" clip-path="url(#pb424dc9d0c)" style="fill: #0a549e"/>
    <path d="M 74.880072 21.692885 
L 75.694118 21.692885 
L 75.694118 3.00024 
L 74.880072 3.00024 
L 74.880072 21.692885 
" clip-path="url(#pb424dc9d0c)" style="fill: #1c6bb0"/>
    <path d="M 75.694118 21.692885 
L 76.508163 21.692885 
L 76.508163 3.00024 
L 75.694118 3.00024 
L 75.694118 21.692885 
" clip-path="url(#pb424dc9d0c)" style="fill: #56a0ce"/>
    <path d="M 76.508163 21.692885 
L 77.322209 21.692885 
L 77.322209 3.00024 
L 76.508163 3.00024 
L 76.508163 21.692885 
" clip-path="url(#pb424dc9d0c)" style="fill: #afd1e7"/>
    <path d="M 77.322209 21.692885 
L 78.136255 21.692885 
L 78.136255 3.00024 
L 77.322209 3.00024 
L 77.322209 21.692885 
" clip-path="url(#pb424dc9d0c)" style="fill: #d2e3f3"/>
    <path d="M 78.136255 21.692885 
L 78.9503 21.692885 
L 78.9503 3.00024 
L 78.136255 3.00024 
L 78.136255 21.692885 
" clip-path="url(#pb424dc9d0c)" style="fill: #d2e3f3"/>
    <path d="M 78.9503 21.692885 
L 79.764346 21.692885 
L 79.764346 3.00024 
L 78.9503 3.00024 
L 78.9503 21.692885 
" clip-path="url(#pb424dc9d0c)" style="fill: #aed1e7"/>
    <path d="M 79.764346 21.692885 
L 80.578391 21.692885 
L 80.578391 3.00024 
L 79.764346 3.00024 
L 79.764346 21.692885 
" clip-path="url(#pb424dc9d0c)" style="fill: #56a0ce"/>
    <path d="M 80.578391 21.692885 
L 81.392437 21.692885 
L 81.392437 3.00024 
L 80.578391 3.00024 
L 80.578391 21.692885 
" clip-path="url(#pb424dc9d0c)" style="fill: #1d6cb1"/>
    <path d="M 81.392437 21.692885 
L 82.206483 21.692885 
L 82.206483 3.00024 
L 81.392437 3.00024 
L 81.392437 21.692885 
" clip-path="url(#pb424dc9d0c)" style="fill: #0e58a2"/>
    <path d="M 82.206483 21.692885 
L 83.020528 21.692885 
L 83.020528 3.00024 
L 82.206483 3.00024 
L 82.206483 21.692885 
" clip-path="url(#pb424dc9d0c)" style="fill: #115ca5"/>
    <path d="M 83.020528 21.692885 
L 83.834574 21.692885 
L 83.834574 3.00024 
L 83.020528 3.00024 
L 83.020528 21.692885 
" clip-path="url(#pb424dc9d0c)" style="fill: #2b7bba"/>
    <path d="M 83.834574 21.692885 
L 84.64862 21.692885 
L 84.64862 3.00024 
L 83.834574 3.00024 
L 83.834574 21.692885 
" clip-path="url(#pb424dc9d0c)" style="fill: #6fb0d7"/>
    <path d="M 84.64862 21.692885 
L 85.462665 21.692885 
L 85.462665 3.00024 
L 84.64862 3.00024 
L 84.64862 21.692885 
" clip-path="url(#pb424dc9d0c)" style="fill: #bed8ec"/>
    <path d="M 85.462665 21.692885 
L 86.276711 21.692885 
L 86.276711 3.00024 
L 85.462665 3.00024 
L 85.462665 21.692885 
" clip-path="url(#pb424dc9d0c)" style="fill: #d4e4f4"/>
    <path d="M 86.276711 21.692885 
L 87.090756 21.692885 
L 87.090756 3.00024 
L 86.276711 3.00024 
L 86.276711 21.692885 
" clip-path="url(#pb424dc9d0c)" style="fill: #cee0f2"/>
    <path d="M 87.090756 21.692885 
L 87.904802 21.692885 
L 87.904802 3.00024 
L 87.090756 3.00024 
L 87.090756 21.692885 
" clip-path="url(#pb424dc9d0c)" style="fill: #a1cbe2"/>
    <path d="M 87.904802 21.692885 
L 88.718848 21.692885 
L 88.718848 3.00024 
L 87.904802 3.00024 
L 87.904802 21.692885 
" clip-path="url(#pb424dc9d0c)" style="fill: #4896c8"/>
    <path d="M 88.718848 21.692885 
L 89.532893 21.692885 
L 89.532893 3.00024 
L 88.718848 3.00024 
L 88.718848 21.692885 
" clip-path="url(#pb424dc9d0c)" style="fill: #1b69af"/>
    <path d="M 89.532893 21.692885 
L 90.346939 21.692885 
L 90.346939 3.00024 
L 89.532893 3.00024 
L 89.532893 21.692885 
" clip-path="url(#pb424dc9d0c)" style="fill: #115ca5"/>
    <path d="M 90.346939 21.692885 
L 91.160984 21.692885 
L 91.160984 3.00024 
L 90.346939 3.00024 
L 90.346939 21.692885 
" clip-path="url(#pb424dc9d0c)" style="fill: #1c6ab0"/>
    <path d="M 91.160984 21.692885 
L 91.97503 21.692885 
L 91.97503 3.00024 
L 91.160984 3.00024 
L 91.160984 21.692885 
" clip-path="url(#pb424dc9d0c)" style="fill: #4191c6"/>
    <path d="M 91.97503 21.692885 
L 92.789076 21.692885 
L 92.789076 3.00024 
L 91.97503 3.00024 
L 91.97503 21.692885 
" clip-path="url(#pb424dc9d0c)" style="fill: #8abfdd"/>
    <path d="M 92.789076 21.692885 
L 93.603121 21.692885 
L 93.603121 3.00024 
L 92.789076 3.00024 
L 92.789076 21.692885 
" clip-path="url(#pb424dc9d0c)" style="fill: #bfd8ed"/>
    <path d="M 93.603121 21.692885 
L 94.417167 21.692885 
L 94.417167 3.00024 
L 93.603121 3.00024 
L 93.603121 21.692885 
" clip-path="url(#pb424dc9d0c)" style="fill: #cbdef1"/>
    <path d="M 94.417167 21.692885 
L 95.231213 21.692885 
L 95.231213 3.00024 
L 94.417167 3.00024 
L 94.417167 21.692885 
" clip-path="url(#pb424dc9d0c)" style="fill: #b8d5ea"/>
    <path d="M 95.231213 21.692885 
L 96.045258 21.692885 
L 96.045258 3.00024 
L 95.231213 3.00024 
L 95.231213 21.692885 
" clip-path="url(#pb424dc9d0c)" style="fill: #77b5d9"/>
    <path d="M 96.045258 21.692885 
L 96.859304 21.692885 
L 96.859304 3.00024 
L 96.045258 3.00024 
L 96.045258 21.692885 
" clip-path="url(#pb424dc9d0c)" style="fill: #3787c0"/>
    <path d="M 96.859304 21.692885 
L 97.673349 21.692885 
L 97.673349 3.00024 
L 96.859304 3.00024 
L 96.859304 21.692885 
" clip-path="url(#pb424dc9d0c)" style="fill: #1c6ab0"/>
    <path d="M 97.673349 21.692885 
L 98.487395 21.692885 
L 98.487395 3.00024 
L 97.673349 3.00024 
L 97.673349 21.692885 
" clip-path="url(#pb424dc9d0c)" style="fill: #1d6cb1"/>
    <path d="M 98.487395 21.692885 
L 99.301441 21.692885 
L 99.301441 3.00024 
L 98.487395 3.00024 
L 98.487395 21.692885 
" clip-path="url(#pb424dc9d0c)" style="fill: #3b8bc2"/>
    <path d="M 99.301441 21.692885 
L 100.115486 21.692885 
L 100.115486 3.00024 
L 99.301441 3.00024 
L 99.301441 21.692885 
" clip-path="url(#pb424dc9d0c)" style="fill: #7ab6d9"/>
    <path d="M 100.115486 21.692885 
L 100.929532 21.692885 
L 100.929532 3.00024 
L 100.115486 3.00024 
L 100.115486 21.692885 
" clip-path="url(#pb424dc9d0c)" style="fill: #b3d3e8"/>
    <path d="M 100.929532 21.692885 
L 101.743578 21.692885 
L 101.743578 3.00024 
L 100.929532 3.00024 
L 100.929532 21.692885 
" clip-path="url(#pb424dc9d0c)" style="fill: #c4daee"/>
    <path d="M 101.743578 21.692885 
L 102.557623 21.692885 
L 102.557623 3.00024 
L 101.743578 3.00024 
L 101.743578 21.692885 
" clip-path="url(#pb424dc9d0c)" style="fill: #b3d3e8"/>
    <path d="M 102.557623 21.692885 
L 103.371669 21.692885 
L 103.371669 3.00024 
L 102.557623 3.00024 
L 102.557623 21.692885 
" clip-path="url(#pb424dc9d0c)" style="fill: #7ab6d9"/>
    <path d="M 103.371669 21.692885 
L 104.185714 21.692885 
L 104.185714 3.00024 
L 103.371669 3.00024 
L 103.371669 21.692885 
" clip-path="url(#pb424dc9d0c)" style="fill: #3d8dc4"/>
    <path d="M 104.185714 21.692885 
L 104.99976 21.692885 
L 104.99976 3.00024 
L 104.185714 3.00024 
L 104.185714 21.692885 
" clip-path="url(#pb424dc9d0c)" style="fill: #2070b4"/>
   </g>
   <g id="matplotlib.axis_1"/>
   <g id="matplotlib.axis_2"/>
   <g id="patch_3">
    <path d="M 6.50024 21.692885 
L 6.50024 3.00024 
" style="fill: none; stroke: #000000; stroke-width: 0.8; stroke-linejoin: miter; stroke-linecap: square"/>
   </g>
   <g id="patch_4">
    <path d="M 104.99976 21.692885 
L 104.99976 3.00024 
" style="fill: none; stroke: #000000; stroke-width: 0.8; stroke-linejoin: miter; stroke-linecap: square"/>
   </g>
   <g id="patch_5">
    <path d="M 6.50024 21.692885 
L 104.99976 21.692885 
" style="fill: none; stroke: #000000; stroke-width: 0.8; stroke-linejoin: miter; stroke-linecap: square"/>
   </g>
   <g id="patch_6">
    <path d="M 6.50024 3.00024 
L 104.99976 3.00024 
" style="fill: none; stroke: #000000; stroke-width: 0.8; stroke-linejoin: miter; stroke-linecap: square"/>
   </g>
  </g>
  <g id="axes_2">
   <g id="patch_7">
    <path d="M 6.50024 49.88601 
L 104.99976 49.88601 
L 104.99976 31.193365 
L 6.50024 31.193365 
z
" style="fill: #ffffff"/>
   </g>
   <g id="QuadMesh_2">
    <path d="M 6.50024 49.88601 
L 7.314286 49.88601 
L 7.314286 31.193365 
L 6.50024 31.193365 
L 6.50024 49.88601 
" clip-path="url(#p60349a63b6)" style="fill: #960b13"/>
    <path d="M 7.314286 49.88601 
L 8.128331 49.88601 
L 8.128331 31.193365 
L 7.314286 31.193365 
L 7.314286 49.88601 
" clip-path="url(#p60349a63b6)" style="fill: #aa1016"/>
    <path d="M 8.128331 49.88601 
L 8.942377 49.88601 
L 8.942377 31.193365 
L 8.128331 31.193365 
L 8.128331 49.88601 
" clip-path="url(#p60349a63b6)" style="fill: #c5171c"/>
    <path d="M 8.942377 49.88601 
L 9.756422 49.88601 
L 9.756422 31.193365 
L 8.942377 31.193365 
L 8.942377 49.88601 
" clip-path="url(#p60349a63b6)" style="fill: #e22e27"/>
    <path d="M 9.756422 49.88601 
L 10.570468 49.88601 
L 10.570468 31.193365 
L 9.756422 31.193365 
L 9.756422 49.88601 
" clip-path="url(#p60349a63b6)" style="fill: #f14130"/>
    <path d="M 10.570468 49.88601 
L 11.384514 49.88601 
L 11.384514 31.193365 
L 10.570468 31.193365 
L 10.570468 49.88601 
" clip-path="url(#p60349a63b6)" style="fill: #f14130"/>
    <path d="M 11.384514 49.88601 
L 12.198559 49.88601 
L 12.198559 31.193365 
L 11.384514 31.193365 
L 11.384514 49.88601 
" clip-path="url(#p60349a63b6)" style="fill: #e22e27"/>
    <path d="M 12.198559 49.88601 
L 13.012605 49.88601 
L 13.012605 31.193365 
L 12.198559 31.193365 
L 12.198559 49.88601 
" clip-path="url(#p60349a63b6)" style="fill: #c5171c"/>
    <path d="M 13.012605 49.88601 
L 13.826651 49.88601 
L 13.826651 31.193365 
L 13.012605 31.193365 
L 13.012605 49.88601 
" clip-path="url(#p60349a63b6)" style="fill: #aa1016"/>
    <path d="M 13.826651 49.88601 
L 14.640696 49.88601 
L 14.640696 31.193365 
L 13.826651 31.193365 
L 13.826651 49.88601 
" clip-path="url(#p60349a63b6)" style="fill: #960b13"/>
    <path d="M 14.640696 49.88601 
L 15.454742 49.88601 
L 15.454742 31.193365 
L 14.640696 31.193365 
L 14.640696 49.88601 
" clip-path="url(#p60349a63b6)" style="fill: #940b13"/>
    <path d="M 15.454742 49.88601 
L 16.268787 49.88601 
L 16.268787 31.193365 
L 15.454742 31.193365 
L 15.454742 49.88601 
" clip-path="url(#p60349a63b6)" style="fill: #a91016"/>
    <path d="M 16.268787 49.88601 
L 17.082833 49.88601 
L 17.082833 31.193365 
L 16.268787 31.193365 
L 16.268787 49.88601 
" clip-path="url(#p60349a63b6)" style="fill: #c3161b"/>
    <path d="M 17.082833 49.88601 
L 17.896879 49.88601 
L 17.896879 31.193365 
L 17.082833 31.193365 
L 17.082833 49.88601 
" clip-path="url(#p60349a63b6)" style="fill: #e02c26"/>
    <path d="M 17.896879 49.88601 
L 18.710924 49.88601 
L 18.710924 31.193365 
L 17.896879 31.193365 
L 17.896879 49.88601 
" clip-path="url(#p60349a63b6)" style="fill: #f14130"/>
    <path d="M 18.710924 49.88601 
L 19.52497 49.88601 
L 19.52497 31.193365 
L 18.710924 31.193365 
L 18.710924 49.88601 
" clip-path="url(#p60349a63b6)" style="fill: #f14432"/>
    <path d="M 19.52497 49.88601 
L 20.339016 49.88601 
L 20.339016 31.193365 
L 19.52497 31.193365 
L 19.52497 49.88601 
" clip-path="url(#p60349a63b6)" style="fill: #e63328"/>
    <path d="M 20.339016 49.88601 
L 21.153061 49.88601 
L 21.153061 31.193365 
L 20.339016 31.193365 
L 20.339016 49.88601 
" clip-path="url(#p60349a63b6)" style="fill: #ca181d"/>
    <path d="M 21.153061 49.88601 
L 21.967107 49.88601 
L 21.967107 31.193365 
L 21.153061 31.193365 
L 21.153061 49.88601 
" clip-path="url(#p60349a63b6)" style="fill: #af1117"/>
    <path d="M 21.967107 49.88601 
L 22.781152 49.88601 
L 22.781152 31.193365 
L 21.967107 31.193365 
L 21.967107 49.88601 
" clip-path="url(#p60349a63b6)" style="fill: #980c13"/>
    <path d="M 22.781152 49.88601 
L 23.595198 49.88601 
L 23.595198 31.193365 
L 22.781152 31.193365 
L 22.781152 49.88601 
" clip-path="url(#p60349a63b6)" style="fill: #920a13"/>
    <path d="M 23.595198 49.88601 
L 24.409244 49.88601 
L 24.409244 31.193365 
L 23.595198 31.193365 
L 23.595198 49.88601 
" clip-path="url(#p60349a63b6)" style="fill: #a50f15"/>
    <path d="M 24.409244 49.88601 
L 25.223289 49.88601 
L 25.223289 31.193365 
L 24.409244 31.193365 
L 24.409244 49.88601 
" clip-path="url(#p60349a63b6)" style="fill: #bd151a"/>
    <path d="M 25.223289 49.88601 
L 26.037335 49.88601 
L 26.037335 31.193365 
L 25.223289 31.193365 
L 25.223289 49.88601 
" clip-path="url(#p60349a63b6)" style="fill: #db2824"/>
    <path d="M 26.037335 49.88601 
L 26.85138 49.88601 
L 26.85138 31.193365 
L 26.037335 31.193365 
L 26.037335 49.88601 
" clip-path="url(#p60349a63b6)" style="fill: #f03d2d"/>
    <path d="M 26.85138 49.88601 
L 27.665426 49.88601 
L 27.665426 31.193365 
L 26.85138 31.193365 
L 26.85138 49.88601 
" clip-path="url(#p60349a63b6)" style="fill: #f24734"/>
    <path d="M 27.665426 49.88601 
L 28.479472 49.88601 
L 28.479472 31.193365 
L 27.665426 31.193365 
L 27.665426 49.88601 
" clip-path="url(#p60349a63b6)" style="fill: #ee3a2c"/>
    <path d="M 28.479472 49.88601 
L 29.293517 49.88601 
L 29.293517 31.193365 
L 28.479472 31.193365 
L 28.479472 49.88601 
" clip-path="url(#p60349a63b6)" style="fill: #d82422"/>
    <path d="M 29.293517 49.88601 
L 30.107563 49.88601 
L 30.107563 31.193365 
L 29.293517 31.193365 
L 29.293517 49.88601 
" clip-path="url(#p60349a63b6)" style="fill: #bf151b"/>
    <path d="M 30.107563 49.88601 
L 30.921609 49.88601 
L 30.921609 31.193365 
L 30.107563 31.193365 
L 30.107563 49.88601 
" clip-path="url(#p60349a63b6)" style="fill: #b01217"/>
    <path d="M 30.921609 49.88601 
L 31.735654 49.88601 
L 31.735654 31.193365 
L 30.921609 31.193365 
L 30.921609 49.88601 
" clip-path="url(#p60349a63b6)" style="fill: #ab1016"/>
    <path d="M 31.735654 49.88601 
L 32.5497 49.88601 
L 32.5497 31.193365 
L 31.735654 31.193365 
L 31.735654 49.88601 
" clip-path="url(#p60349a63b6)" style="fill: #af1117"/>
    <path d="M 32.5497 49.88601 
L 33.363745 49.88601 
L 33.363745 31.193365 
L 32.5497 31.193365 
L 32.5497 49.88601 
" clip-path="url(#p60349a63b6)" style="fill: #b61319"/>
    <path d="M 33.363745 49.88601 
L 34.177791 49.88601 
L 34.177791 31.193365 
L 33.363745 31.193365 
L 33.363745 49.88601 
" clip-path="url(#p60349a63b6)" style="fill: #bb141a"/>
    <path d="M 34.177791 49.88601 
L 34.991837 49.88601 
L 34.991837 31.193365 
L 34.177791 31.193365 
L 34.177791 49.88601 
" clip-path="url(#p60349a63b6)" style="fill: #bd151a"/>
    <path d="M 34.991837 49.88601 
L 35.805882 49.88601 
L 35.805882 31.193365 
L 34.991837 31.193365 
L 34.991837 49.88601 
" clip-path="url(#p60349a63b6)" style="fill: #c2161b"/>
    <path d="M 35.805882 49.88601 
L 36.619928 49.88601 
L 36.619928 31.193365 
L 35.805882 31.193365 
L 35.805882 49.88601 
" clip-path="url(#p60349a63b6)" style="fill: #cb181d"/>
    <path d="M 36.619928 49.88601 
L 37.433974 49.88601 
L 37.433974 31.193365 
L 36.619928 31.193365 
L 36.619928 49.88601 
" clip-path="url(#p60349a63b6)" style="fill: #dc2924"/>
    <path d="M 37.433974 49.88601 
L 38.248019 49.88601 
L 38.248019 31.193365 
L 37.433974 31.193365 
L 37.433974 49.88601 
" clip-path="url(#p60349a63b6)" style="fill: #ef3c2c"/>
    <path d="M 38.248019 49.88601 
L 39.062065 49.88601 
L 39.062065 31.193365 
L 38.248019 31.193365 
L 38.248019 49.88601 
" clip-path="url(#p60349a63b6)" style="fill: #f34a36"/>
    <path d="M 39.062065 49.88601 
L 39.87611 49.88601 
L 39.87611 31.193365 
L 39.062065 31.193365 
L 39.062065 49.88601 
" clip-path="url(#p60349a63b6)" style="fill: #f24734"/>
    <path d="M 39.87611 49.88601 
L 40.690156 49.88601 
L 40.690156 31.193365 
L 39.87611 31.193365 
L 39.87611 49.88601 
" clip-path="url(#p60349a63b6)" style="fill: #e63328"/>
    <path d="M 40.690156 49.88601 
L 41.504202 49.88601 
L 41.504202 31.193365 
L 40.690156 31.193365 
L 40.690156 49.88601 
" clip-path="url(#p60349a63b6)" style="fill: #cc191e"/>
    <path d="M 41.504202 49.88601 
L 42.318247 49.88601 
L 42.318247 31.193365 
L 41.504202 31.193365 
L 41.504202 49.88601 
" clip-path="url(#p60349a63b6)" style="fill: #b11218"/>
    <path d="M 42.318247 49.88601 
L 43.132293 49.88601 
L 43.132293 31.193365 
L 42.318247 31.193365 
L 42.318247 49.88601 
" clip-path="url(#p60349a63b6)" style="fill: #9c0d14"/>
    <path d="M 43.132293 49.88601 
L 43.946339 49.88601 
L 43.946339 31.193365 
L 43.132293 31.193365 
L 43.132293 49.88601 
" clip-path="url(#p60349a63b6)" style="fill: #960b13"/>
    <path d="M 43.946339 49.88601 
L 44.760384 49.88601 
L 44.760384 31.193365 
L 43.946339 31.193365 
L 43.946339 49.88601 
" clip-path="url(#p60349a63b6)" style="fill: #a50f15"/>
    <path d="M 44.760384 49.88601 
L 45.57443 49.88601 
L 45.57443 31.193365 
L 44.760384 31.193365 
L 44.760384 49.88601 
" clip-path="url(#p60349a63b6)" style="fill: #bc141a"/>
    <path d="M 45.57443 49.88601 
L 46.388475 49.88601 
L 46.388475 31.193365 
L 45.57443 31.193365 
L 45.57443 49.88601 
" clip-path="url(#p60349a63b6)" style="fill: #d92523"/>
    <path d="M 46.388475 49.88601 
L 47.202521 49.88601 
L 47.202521 31.193365 
L 46.388475 31.193365 
L 46.388475 49.88601 
" clip-path="url(#p60349a63b6)" style="fill: #ee3a2c"/>
    <path d="M 47.202521 49.88601 
L 48.016567 49.88601 
L 48.016567 31.193365 
L 47.202521 31.193365 
L 47.202521 49.88601 
" clip-path="url(#p60349a63b6)" style="fill: #f14130"/>
    <path d="M 48.016567 49.88601 
L 48.830612 49.88601 
L 48.830612 31.193365 
L 48.016567 31.193365 
L 48.016567 49.88601 
" clip-path="url(#p60349a63b6)" style="fill: #e83429"/>
    <path d="M 48.830612 49.88601 
L 49.644658 49.88601 
L 49.644658 31.193365 
L 48.830612 31.193365 
L 48.830612 49.88601 
" clip-path="url(#p60349a63b6)" style="fill: #ce1a1e"/>
    <path d="M 49.644658 49.88601 
L 50.458703 49.88601 
L 50.458703 31.193365 
L 49.644658 31.193365 
L 49.644658 49.88601 
" clip-path="url(#p60349a63b6)" style="fill: #b11218"/>
    <path d="M 50.458703 49.88601 
L 51.272749 49.88601 
L 51.272749 31.193365 
L 50.458703 31.193365 
L 50.458703 49.88601 
" clip-path="url(#p60349a63b6)" style="fill: #9c0d14"/>
    <path d="M 51.272749 49.88601 
L 52.086795 49.88601 
L 52.086795 31.193365 
L 51.272749 31.193365 
L 51.272749 49.88601 
" clip-path="url(#p60349a63b6)" style="fill: #960b13"/>
    <path d="M 52.086795 49.88601 
L 52.90084 49.88601 
L 52.90084 31.193365 
L 52.086795 31.193365 
L 52.086795 49.88601 
" clip-path="url(#p60349a63b6)" style="fill: #a60f15"/>
    <path d="M 52.90084 49.88601 
L 53.714886 49.88601 
L 53.714886 31.193365 
L 52.90084 31.193365 
L 52.90084 49.88601 
" clip-path="url(#p60349a63b6)" style="fill: #bf151b"/>
    <path d="M 53.714886 49.88601 
L 54.528932 49.88601 
L 54.528932 31.193365 
L 53.714886 31.193365 
L 53.714886 49.88601 
" clip-path="url(#p60349a63b6)" style="fill: #da2723"/>
    <path d="M 54.528932 49.88601 
L 55.342977 49.88601 
L 55.342977 31.193365 
L 54.528932 31.193365 
L 54.528932 49.88601 
" clip-path="url(#p60349a63b6)" style="fill: #ec382b"/>
    <path d="M 55.342977 49.88601 
L 56.157023 49.88601 
L 56.157023 31.193365 
L 55.342977 31.193365 
L 55.342977 49.88601 
" clip-path="url(#p60349a63b6)" style="fill: #ed392b"/>
    <path d="M 56.157023 49.88601 
L 56.971068 49.88601 
L 56.971068 31.193365 
L 56.157023 31.193365 
L 56.157023 49.88601 
" clip-path="url(#p60349a63b6)" style="fill: #dc2924"/>
    <path d="M 56.971068 49.88601 
L 57.785114 49.88601 
L 57.785114 31.193365 
L 56.971068 31.193365 
L 56.971068 49.88601 
" clip-path="url(#p60349a63b6)" style="fill: #c2161b"/>
    <path d="M 57.785114 49.88601 
L 58.59916 49.88601 
L 58.59916 31.193365 
L 57.785114 31.193365 
L 57.785114 49.88601 
" clip-path="url(#p60349a63b6)" style="fill: #a91016"/>
    <path d="M 58.59916 49.88601 
L 59.413205 49.88601 
L 59.413205 31.193365 
L 58.59916 31.193365 
L 58.59916 49.88601 
" clip-path="url(#p60349a63b6)" style="fill: #9a0c14"/>
    <path d="M 59.413205 49.88601 
L 60.227251 49.88601 
L 60.227251 31.193365 
L 59.413205 31.193365 
L 59.413205 49.88601 
" clip-path="url(#p60349a63b6)" style="fill: #9f0e14"/>
    <path d="M 60.227251 49.88601 
L 61.041297 49.88601 
L 61.041297 31.193365 
L 60.227251 31.193365 
L 60.227251 49.88601 
" clip-path="url(#p60349a63b6)" style="fill: #b31218"/>
    <path d="M 61.041297 49.88601 
L 61.855342 49.88601 
L 61.855342 31.193365 
L 61.041297 31.193365 
L 61.041297 49.88601 
" clip-path="url(#p60349a63b6)" style="fill: #cf1c1f"/>
    <path d="M 61.855342 49.88601 
L 62.669388 49.88601 
L 62.669388 31.193365 
L 61.855342 31.193365 
L 61.855342 49.88601 
" clip-path="url(#p60349a63b6)" style="fill: #e43027"/>
    <path d="M 62.669388 49.88601 
L 63.483433 49.88601 
L 63.483433 31.193365 
L 62.669388 31.193365 
L 62.669388 49.88601 
" clip-path="url(#p60349a63b6)" style="fill: #eb372a"/>
    <path d="M 63.483433 49.88601 
L 64.297479 49.88601 
L 64.297479 31.193365 
L 63.483433 31.193365 
L 63.483433 49.88601 
" clip-path="url(#p60349a63b6)" style="fill: #e02c26"/>
    <path d="M 64.297479 49.88601 
L 65.111525 49.88601 
L 65.111525 31.193365 
L 64.297479 31.193365 
L 64.297479 49.88601 
" clip-path="url(#p60349a63b6)" style="fill: #c8171c"/>
    <path d="M 65.111525 49.88601 
L 65.92557 49.88601 
L 65.92557 31.193365 
L 65.111525 31.193365 
L 65.111525 49.88601 
" clip-path="url(#p60349a63b6)" style="fill: #af1117"/>
    <path d="M 65.92557 49.88601 
L 66.739616 49.88601 
L 66.739616 31.193365 
L 65.92557 31.193365 
L 65.92557 49.88601 
" clip-path="url(#p60349a63b6)" style="fill: #9c0d14"/>
    <path d="M 66.739616 49.88601 
L 67.553661 49.88601 
L 67.553661 31.193365 
L 66.739616 31.193365 
L 66.739616 49.88601 
" clip-path="url(#p60349a63b6)" style="fill: #9d0d14"/>
    <path d="M 67.553661 49.88601 
L 68.367707 49.88601 
L 68.367707 31.193365 
L 67.553661 31.193365 
L 67.553661 49.88601 
" clip-path="url(#p60349a63b6)" style="fill: #b01217"/>
    <path d="M 68.367707 49.88601 
L 69.181753 49.88601 
L 69.181753 31.193365 
L 68.367707 31.193365 
L 68.367707 49.88601 
" clip-path="url(#p60349a63b6)" style="fill: #ca181d"/>
    <path d="M 69.181753 49.88601 
L 69.995798 49.88601 
L 69.995798 31.193365 
L 69.181753 31.193365 
L 69.181753 49.88601 
" clip-path="url(#p60349a63b6)" style="fill: #e22e27"/>
    <path d="M 69.995798 49.88601 
L 70.809844 49.88601 
L 70.809844 31.193365 
L 69.995798 31.193365 
L 69.995798 49.88601 
" clip-path="url(#p60349a63b6)" style="fill: #ec382b"/>
    <path d="M 70.809844 49.88601 
L 71.62389 49.88601 
L 71.62389 31.193365 
L 70.809844 31.193365 
L 70.809844 49.88601 
" clip-path="url(#p60349a63b6)" style="fill: #e43027"/>
    <path d="M 71.62389 49.88601 
L 72.437935 49.88601 
L 72.437935 31.193365 
L 71.62389 31.193365 
L 71.62389 49.88601 
" clip-path="url(#p60349a63b6)" style="fill: #ce1a1e"/>
    <path d="M 72.437935 49.88601 
L 73.251981 49.88601 
L 73.251981 31.193365 
L 72.437935 31.193365 
L 72.437935 49.88601 
" clip-path="url(#p60349a63b6)" style="fill: #b21218"/>
    <path d="M 73.251981 49.88601 
L 74.066026 49.88601 
L 74.066026 31.193365 
L 73.251981 31.193365 
L 73.251981 49.88601 
" clip-path="url(#p60349a63b6)" style="fill: #9d0d14"/>
    <path d="M 74.066026 49.88601 
L 74.880072 49.88601 
L 74.880072 31.193365 
L 74.066026 31.193365 
L 74.066026 49.88601 
" clip-path="url(#p60349a63b6)" style="fill: #980c13"/>
    <path d="M 74.880072 49.88601 
L 75.694118 49.88601 
L 75.694118 31.193365 
L 74.880072 31.193365 
L 74.880072 49.88601 
" clip-path="url(#p60349a63b6)" style="fill: #a91016"/>
    <path d="M 75.694118 49.88601 
L 76.508163 49.88601 
L 76.508163 31.193365 
L 75.694118 31.193365 
L 75.694118 49.88601 
" clip-path="url(#p60349a63b6)" style="fill: #c2161b"/>
    <path d="M 76.508163 49.88601 
L 77.322209 49.88601 
L 77.322209 31.193365 
L 76.508163 31.193365 
L 76.508163 49.88601 
" clip-path="url(#p60349a63b6)" style="fill: #dc2924"/>
    <path d="M 77.322209 49.88601 
L 78.136255 49.88601 
L 78.136255 31.193365 
L 77.322209 31.193365 
L 77.322209 49.88601 
" clip-path="url(#p60349a63b6)" style="fill: #ee3a2c"/>
    <path d="M 78.136255 49.88601 
L 78.9503 49.88601 
L 78.9503 31.193365 
L 78.136255 31.193365 
L 78.136255 49.88601 
" clip-path="url(#p60349a63b6)" style="fill: #ed392b"/>
    <path d="M 78.9503 49.88601 
L 79.764346 49.88601 
L 79.764346 31.193365 
L 78.9503 31.193365 
L 78.9503 49.88601 
" clip-path="url(#p60349a63b6)" style="fill: #dc2924"/>
    <path d="M 79.764346 49.88601 
L 80.578391 49.88601 
L 80.578391 31.193365 
L 79.764346 31.193365 
L 79.764346 49.88601 
" clip-path="url(#p60349a63b6)" style="fill: #c1161b"/>
    <path d="M 80.578391 49.88601 
L 81.392437 49.88601 
L 81.392437 31.193365 
L 80.578391 31.193365 
L 80.578391 49.88601 
" clip-path="url(#p60349a63b6)" style="fill: #a91016"/>
    <path d="M 81.392437 49.88601 
L 82.206483 49.88601 
L 82.206483 31.193365 
L 81.392437 31.193365 
L 81.392437 49.88601 
" clip-path="url(#p60349a63b6)" style="fill: #980c13"/>
    <path d="M 82.206483 49.88601 
L 83.020528 49.88601 
L 83.020528 31.193365 
L 82.206483 31.193365 
L 82.206483 49.88601 
" clip-path="url(#p60349a63b6)" style="fill: #9c0d14"/>
    <path d="M 83.020528 49.88601 
L 83.834574 49.88601 
L 83.834574 31.193365 
L 83.020528 31.193365 
L 83.020528 49.88601 
" clip-path="url(#p60349a63b6)" style="fill: #b01217"/>
    <path d="M 83.834574 49.88601 
L 84.64862 49.88601 
L 84.64862 31.193365 
L 83.834574 31.193365 
L 83.834574 49.88601 
" clip-path="url(#p60349a63b6)" style="fill: #cb181d"/>
    <path d="M 84.64862 49.88601 
L 85.462665 49.88601 
L 85.462665 31.193365 
L 84.64862 31.193365 
L 84.64862 49.88601 
" clip-path="url(#p60349a63b6)" style="fill: #e53228"/>
    <path d="M 85.462665 49.88601 
L 86.276711 49.88601 
L 86.276711 31.193365 
L 85.462665 31.193365 
L 85.462665 49.88601 
" clip-path="url(#p60349a63b6)" style="fill: #f0402f"/>
    <path d="M 86.276711 49.88601 
L 87.090756 49.88601 
L 87.090756 31.193365 
L 86.276711 31.193365 
L 86.276711 49.88601 
" clip-path="url(#p60349a63b6)" style="fill: #ee3a2c"/>
    <path d="M 87.090756 49.88601 
L 87.904802 49.88601 
L 87.904802 31.193365 
L 87.090756 31.193365 
L 87.090756 49.88601 
" clip-path="url(#p60349a63b6)" style="fill: #db2824"/>
    <path d="M 87.904802 49.88601 
L 88.718848 49.88601 
L 88.718848 31.193365 
L 87.904802 31.193365 
L 87.904802 49.88601 
" clip-path="url(#p60349a63b6)" style="fill: #bf151b"/>
    <path d="M 88.718848 49.88601 
L 89.532893 49.88601 
L 89.532893 31.193365 
L 88.718848 31.193365 
L 88.718848 49.88601 
" clip-path="url(#p60349a63b6)" style="fill: #aa1016"/>
    <path d="M 89.532893 49.88601 
L 90.346939 49.88601 
L 90.346939 31.193365 
L 89.532893 31.193365 
L 89.532893 49.88601 
" clip-path="url(#p60349a63b6)" style="fill: #9d0d14"/>
    <path d="M 90.346939 49.88601 
L 91.160984 49.88601 
L 91.160984 31.193365 
L 90.346939 31.193365 
L 90.346939 49.88601 
" clip-path="url(#p60349a63b6)" style="fill: #a60f15"/>
    <path d="M 91.160984 49.88601 
L 91.97503 49.88601 
L 91.97503 31.193365 
L 91.160984 31.193365 
L 91.160984 49.88601 
" clip-path="url(#p60349a63b6)" style="fill: #b81419"/>
    <path d="M 91.97503 49.88601 
L 92.789076 49.88601 
L 92.789076 31.193365 
L 91.97503 31.193365 
L 91.97503 49.88601 
" clip-path="url(#p60349a63b6)" style="fill: #d01d1f"/>
    <path d="M 92.789076 49.88601 
L 93.603121 49.88601 
L 93.603121 31.193365 
L 92.789076 31.193365 
L 92.789076 49.88601 
" clip-path="url(#p60349a63b6)" style="fill: #e32f27"/>
    <path d="M 93.603121 49.88601 
L 94.417167 49.88601 
L 94.417167 31.193365 
L 93.603121 31.193365 
L 93.603121 49.88601 
" clip-path="url(#p60349a63b6)" style="fill: #ea362a"/>
    <path d="M 94.417167 49.88601 
L 95.231213 49.88601 
L 95.231213 31.193365 
L 94.417167 31.193365 
L 94.417167 49.88601 
" clip-path="url(#p60349a63b6)" style="fill: #e12d26"/>
    <path d="M 95.231213 49.88601 
L 96.045258 49.88601 
L 96.045258 31.193365 
L 95.231213 31.193365 
L 95.231213 49.88601 
" clip-path="url(#p60349a63b6)" style="fill: #ce1a1e"/>
    <path d="M 96.045258 49.88601 
L 96.859304 49.88601 
L 96.859304 31.193365 
L 96.045258 31.193365 
L 96.045258 49.88601 
" clip-path="url(#p60349a63b6)" style="fill: #b81419"/>
    <path d="M 96.859304 49.88601 
L 97.673349 49.88601 
L 97.673349 31.193365 
L 96.859304 31.193365 
L 96.859304 49.88601 
" clip-path="url(#p60349a63b6)" style="fill: #ac1117"/>
    <path d="M 97.673349 49.88601 
L 98.487395 49.88601 
L 98.487395 31.193365 
L 97.673349 31.193365 
L 97.673349 49.88601 
" clip-path="url(#p60349a63b6)" style="fill: #ac1117"/>
    <path d="M 98.487395 49.88601 
L 99.301441 49.88601 
L 99.301441 31.193365 
L 98.487395 31.193365 
L 98.487395 49.88601 
" clip-path="url(#p60349a63b6)" style="fill: #b81419"/>
    <path d="M 99.301441 49.88601 
L 100.115486 49.88601 
L 100.115486 31.193365 
L 99.301441 31.193365 
L 99.301441 49.88601 
" clip-path="url(#p60349a63b6)" style="fill: #cc191e"/>
    <path d="M 100.115486 49.88601 
L 100.929532 49.88601 
L 100.929532 31.193365 
L 100.115486 31.193365 
L 100.115486 49.88601 
" clip-path="url(#p60349a63b6)" style="fill: #dd2a25"/>
    <path d="M 100.929532 49.88601 
L 101.743578 49.88601 
L 101.743578 31.193365 
L 100.929532 31.193365 
L 100.929532 49.88601 
" clip-path="url(#p60349a63b6)" style="fill: #e43027"/>
    <path d="M 101.743578 49.88601 
L 102.557623 49.88601 
L 102.557623 31.193365 
L 101.743578 31.193365 
L 101.743578 49.88601 
" clip-path="url(#p60349a63b6)" style="fill: #dd2a25"/>
    <path d="M 102.557623 49.88601 
L 103.371669 49.88601 
L 103.371669 31.193365 
L 102.557623 31.193365 
L 102.557623 49.88601 
" clip-path="url(#p60349a63b6)" style="fill: #ce1a1e"/>
    <path d="M 103.371669 49.88601 
L 104.185714 49.88601 
L 104.185714 31.193365 
L 103.371669 31.193365 
L 103.371669 49.88601 
" clip-path="url(#p60349a63b6)" style="fill: #b91419"/>
    <path d="M 104.185714 49.88601 
L 104.99976 49.88601 
L 104.99976 31.193365 
L 104.185714 31.193365 
L 104.185714 49.88601 
" clip-path="url(#p60349a63b6)" style="fill: #ad1117"/>
   </g>
   <g id="matplotlib.axis_3">
    <g id="text_1">
     <!-- space $x$ -->
     <g transform="translate(32.65 66.47976)scale(0.12 -0.12)">
      <defs>
       <path id="DejaVuSans-73" d="M 2834 3397 
L 2834 2853 
Q 2591 2978 2328 3040 
Q 2066 3103 1784 3103 
Q 1356 3103 1142 2972 
Q 928 2841 928 2578 
Q 928 2378 1081 2264 
Q 1234 2150 1697 2047 
L 1894 2003 
Q 2506 1872 2764 1633 
Q 3022 1394 3022 966 
Q 3022 478 2636 193 
Q 2250 -91 1575 -91 
Q 1294 -91 989 -36 
Q 684 19 347 128 
L 347 722 
Q 666 556 975 473 
Q 1284 391 1588 391 
Q 1994 391 2212 530 
Q 2431 669 2431 922 
Q 2431 1156 2273 1281 
Q 2116 1406 1581 1522 
L 1381 1569 
Q 847 1681 609 1914 
Q 372 2147 372 2553 
Q 372 3047 722 3315 
Q 1072 3584 1716 3584 
Q 2034 3584 2315 3537 
Q 2597 3491 2834 3397 
z
" transform="scale(0.015625)"/>
       <path id="DejaVuSans-70" d="M 1159 525 
L 1159 -1331 
L 581 -1331 
L 581 3500 
L 1159 3500 
L 1159 2969 
Q 1341 3281 1617 3432 
Q 1894 3584 2278 3584 
Q 2916 3584 3314 3078 
Q 3713 2572 3713 1747 
Q 3713 922 3314 415 
Q 2916 -91 2278 -91 
Q 1894 -91 1617 61 
Q 1341 213 1159 525 
z
M 3116 1747 
Q 3116 2381 2855 2742 
Q 2594 3103 2138 3103 
Q 1681 3103 1420 2742 
Q 1159 2381 1159 1747 
Q 1159 1113 1420 752 
Q 1681 391 2138 391 
Q 2594 391 2855 752 
Q 3116 1113 3116 1747 
z
" transform="scale(0.015625)"/>
       <path id="DejaVuSans-61" d="M 2194 1759 
Q 1497 1759 1228 1600 
Q 959 1441 959 1056 
Q 959 750 1161 570 
Q 1363 391 1709 391 
Q 2188 391 2477 730 
Q 2766 1069 2766 1631 
L 2766 1759 
L 2194 1759 
z
M 3341 1997 
L 3341 0 
L 2766 0 
L 2766 531 
Q 2569 213 2275 61 
Q 1981 -91 1556 -91 
Q 1019 -91 701 211 
Q 384 513 384 1019 
Q 384 1609 779 1909 
Q 1175 2209 1959 2209 
L 2766 2209 
L 2766 2266 
Q 2766 2663 2505 2880 
Q 2244 3097 1772 3097 
Q 1472 3097 1187 3025 
Q 903 2953 641 2809 
L 641 3341 
Q 956 3463 1253 3523 
Q 1550 3584 1831 3584 
Q 2591 3584 2966 3190 
Q 3341 2797 3341 1997 
z
" transform="scale(0.015625)"/>
       <path id="DejaVuSans-63" d="M 3122 3366 
L 3122 2828 
Q 2878 2963 2633 3030 
Q 2388 3097 2138 3097 
Q 1578 3097 1268 2742 
Q 959 2388 959 1747 
Q 959 1106 1268 751 
Q 1578 397 2138 397 
Q 2388 397 2633 464 
Q 2878 531 3122 666 
L 3122 134 
Q 2881 22 2623 -34 
Q 2366 -91 2075 -91 
Q 1284 -91 818 406 
Q 353 903 353 1747 
Q 353 2603 823 3093 
Q 1294 3584 2113 3584 
Q 2378 3584 2631 3529 
Q 2884 3475 3122 3366 
z
" transform="scale(0.015625)"/>
       <path id="DejaVuSans-65" d="M 3597 1894 
L 3597 1613 
L 953 1613 
Q 991 1019 1311 708 
Q 1631 397 2203 397 
Q 2534 397 2845 478 
Q 3156 559 3463 722 
L 3463 178 
Q 3153 47 2828 -22 
Q 2503 -91 2169 -91 
Q 1331 -91 842 396 
Q 353 884 353 1716 
Q 353 2575 817 3079 
Q 1281 3584 2069 3584 
Q 2775 3584 3186 3129 
Q 3597 2675 3597 1894 
z
M 3022 2063 
Q 3016 2534 2758 2815 
Q 2500 3097 2075 3097 
Q 1594 3097 1305 2825 
Q 1016 2553 972 2059 
L 3022 2063 
z
" transform="scale(0.015625)"/>
       <path id="DejaVuSans-20" transform="scale(0.015625)"/>
       <path id="DejaVuSans-Oblique-78" d="M 3841 3500 
L 2234 1784 
L 3219 0 
L 2559 0 
L 1819 1388 
L 531 0 
L -166 0 
L 1556 1844 
L 641 3500 
L 1300 3500 
L 1972 2234 
L 3144 3500 
L 3841 3500 
z
" transform="scale(0.015625)"/>
      </defs>
      <use xlink:href="#DejaVuSans-73"/>
      <use xlink:href="#DejaVuSans-70" transform="translate(52.099609 0)"/>
      <use xlink:href="#DejaVuSans-61" transform="translate(115.576172 0)"/>
      <use xlink:href="#DejaVuSans-63" transform="translate(176.855469 0)"/>
      <use xlink:href="#DejaVuSans-65" transform="translate(231.835938 0)"/>
      <use xlink:href="#DejaVuSans-20" transform="translate(293.359375 0)"/>
      <use xlink:href="#DejaVuSans-Oblique-78" transform="translate(325.146484 0)"/>
     </g>
    </g>
   </g>
   <g id="matplotlib.axis_4"/>
   <g id="patch_8">
    <path d="M 6.50024 49.88601 
L 6.50024 31.193365 
" style="fill: none; stroke: #000000; stroke-width: 0.8; stroke-linejoin: miter; stroke-linecap: square"/>
   </g>
   <g id="patch_9">
    <path d="M 104.99976 49.88601 
L 104.99976 31.193365 
" style="fill: none; stroke: #000000; stroke-width: 0.8; stroke-linejoin: miter; stroke-linecap: square"/>
   </g>
   <g id="patch_10">
    <path d="M 6.50024 49.88601 
L 104.99976 49.88601 
" style="fill: none; stroke: #000000; stroke-width: 0.8; stroke-linejoin: miter; stroke-linecap: square"/>
   </g>
   <g id="patch_11">
    <path d="M 6.50024 31.193365 
L 104.99976 31.193365 
" style="fill: none; stroke: #000000; stroke-width: 0.8; stroke-linejoin: miter; stroke-linecap: square"/>
   </g>
  </g>
 </g>
 <defs>
  <clipPath id="pb424dc9d0c">
   <rect x="6.50024" y="3.00024" width="98.49952" height="18.692645"/>
  </clipPath>
  <clipPath id="p60349a63b6">
   <rect x="6.50024" y="31.193365" width="98.49952" height="18.692645"/>
  </clipPath>
 </defs>
</svg>
