<?xml version="1.0" encoding="utf-8" standalone="no"?>
<!DOCTYPE svg PUBLIC "-//W3C//DTD SVG 1.1//EN"
  "http://www.w3.org/Graphics/SVG/1.1/DTD/svg11.dtd">
<svg xmlns:xlink="http://www.w3.org/1999/xlink" width="108pt" height="72pt" viewBox="0 0 108 72" xmlns="http://www.w3.org/2000/svg" version="1.1">
 <metadata>
  <rdf:RDF xmlns:dc="http://purl.org/dc/elements/1.1/" xmlns:cc="http://creativecommons.org/ns#" xmlns:rdf="http://www.w3.org/1999/02/22-rdf-syntax-ns#">
   <cc:Work>
    <dc:type rdf:resource="http://purl.org/dc/dcmitype/StillImage"/>
    <dc:date>2022-11-30T13:50:19.545165</dc:date>
    <dc:format>image/svg+xml</dc:format>
    <dc:creator>
     <cc:Agent>
      <dc:title>Matplotlib v3.5.3, https://matplotlib.org/</dc:title>
     </cc:Agent>
    </dc:creator>
   </cc:Work>
  </rdf:RDF>
 </metadata>
 <defs>
  <style type="text/css">*{stroke-linejoin: round; stroke-linecap: butt}</style>
 </defs>
 <g id="figure_1">
  <g id="patch_1">
   <path d="M 0 72 
L 108 72 
L 108 0 
L 0 0 
z
" style="fill: #ffffff"/>
  </g>
  <g id="axes_1">
   <g id="patch_2">
    <path d="M 6.50024 21.692885 
L 104.99976 21.692885 
L 104.99976 3.00024 
L 6.50024 3.00024 
z
" style="fill: #ffffff"/>
   </g>
   <g id="QuadMesh_1">
    <path d="M 6.50024 21.692885 
L 7.485235 21.692885 
L 7.485235 3.00024 
L 6.50024 3.00024 
L 6.50024 21.692885 
" clip-path="url(#p9bdb896952)" style="fill: #f7fbff"/>
    <path d="M 7.485235 21.692885 
L 8.47023 21.692885 
L 8.47023 3.00024 
L 7.485235 3.00024 
L 7.485235 21.692885 
" clip-path="url(#p9bdb896952)" style="fill: #f6faff"/>
    <path d="M 8.47023 21.692885 
L 9.455226 21.692885 
L 9.455226 3.00024 
L 8.47023 3.00024 
L 8.47023 21.692885 
" clip-path="url(#p9bdb896952)" style="fill: #08306b"/>
    <path d="M 9.455226 21.692885 
L 10.440221 21.692885 
L 10.440221 3.00024 
L 9.455226 3.00024 
L 9.455226 21.692885 
" clip-path="url(#p9bdb896952)" style="fill: #08306b"/>
    <path d="M 10.440221 21.692885 
L 11.425216 21.692885 
L 11.425216 3.00024 
L 10.440221 3.00024 
L 10.440221 21.692885 
" clip-path="url(#p9bdb896952)" style="fill: #08306b"/>
    <path d="M 11.425216 21.692885 
L 12.410211 21.692885 
L 12.410211 3.00024 
L 11.425216 3.00024 
L 11.425216 21.692885 
" clip-path="url(#p9bdb896952)" style="fill: #f6faff"/>
    <path d="M 12.410211 21.692885 
L 13.395206 21.692885 
L 13.395206 3.00024 
L 12.410211 3.00024 
L 12.410211 21.692885 
" clip-path="url(#p9bdb896952)" style="fill: #f7fbff"/>
    <path d="M 13.395206 21.692885 
L 14.380202 21.692885 
L 14.380202 3.00024 
L 13.395206 3.00024 
L 13.395206 21.692885 
" clip-path="url(#p9bdb896952)" style="fill: #f7fbff"/>
    <path d="M 14.380202 21.692885 
L 15.365197 21.692885 
L 15.365197 3.00024 
L 14.380202 3.00024 
L 14.380202 21.692885 
" clip-path="url(#p9bdb896952)" style="fill: #f7fbff"/>
    <path d="M 15.365197 21.692885 
L 16.350192 21.692885 
L 16.350192 3.00024 
L 15.365197 3.00024 
L 15.365197 21.692885 
" clip-path="url(#p9bdb896952)" style="fill: #f7fbff"/>
    <path d="M 16.350192 21.692885 
L 17.335187 21.692885 
L 17.335187 3.00024 
L 16.350192 3.00024 
L 16.350192 21.692885 
" clip-path="url(#p9bdb896952)" style="fill: #08306b"/>
    <path d="M 17.335187 21.692885 
L 18.320182 21.692885 
L 18.320182 3.00024 
L 17.335187 3.00024 
L 17.335187 21.692885 
" clip-path="url(#p9bdb896952)" style="fill: #f7fbff"/>
    <path d="M 18.320182 21.692885 
L 19.305178 21.692885 
L 19.305178 3.00024 
L 18.320182 3.00024 
L 18.320182 21.692885 
" clip-path="url(#p9bdb896952)" style="fill: #08306b"/>
    <path d="M 19.305178 21.692885 
L 20.290173 21.692885 
L 20.290173 3.00024 
L 19.305178 3.00024 
L 19.305178 21.692885 
" clip-path="url(#p9bdb896952)" style="fill: #08306b"/>
    <path d="M 20.290173 21.692885 
L 21.275168 21.692885 
L 21.275168 3.00024 
L 20.290173 3.00024 
L 20.290173 21.692885 
" clip-path="url(#p9bdb896952)" style="fill: #f7fbff"/>
    <path d="M 21.275168 21.692885 
L 22.260163 21.692885 
L 22.260163 3.00024 
L 21.275168 3.00024 
L 21.275168 21.692885 
" clip-path="url(#p9bdb896952)" style="fill: #f7fbff"/>
    <path d="M 22.260163 21.692885 
L 23.245158 21.692885 
L 23.245158 3.00024 
L 22.260163 3.00024 
L 22.260163 21.692885 
" clip-path="url(#p9bdb896952)" style="fill: #f7fbff"/>
    <path d="M 23.245158 21.692885 
L 24.230154 21.692885 
L 24.230154 3.00024 
L 23.245158 3.00024 
L 23.245158 21.692885 
" clip-path="url(#p9bdb896952)" style="fill: #f7fbff"/>
    <path d="M 24.230154 21.692885 
L 25.215149 21.692885 
L 25.215149 3.00024 
L 24.230154 3.00024 
L 24.230154 21.692885 
" clip-path="url(#p9bdb896952)" style="fill: #08306b"/>
    <path d="M 25.215149 21.692885 
L 26.200144 21.692885 
L 26.200144 3.00024 
L 25.215149 3.00024 
L 25.215149 21.692885 
" clip-path="url(#p9bdb896952)" style="fill: #08306b"/>
    <path d="M 26.200144 21.692885 
L 27.185139 21.692885 
L 27.185139 3.00024 
L 26.200144 3.00024 
L 26.200144 21.692885 
" clip-path="url(#p9bdb896952)" style="fill: #f7fbff"/>
    <path d="M 27.185139 21.692885 
L 28.170134 21.692885 
L 28.170134 3.00024 
L 27.185139 3.00024 
L 27.185139 21.692885 
" clip-path="url(#p9bdb896952)" style="fill: #08306b"/>
    <path d="M 28.170134 21.692885 
L 29.15513 21.692885 
L 29.15513 3.00024 
L 28.170134 3.00024 
L 28.170134 21.692885 
" clip-path="url(#p9bdb896952)" style="fill: #f7fbff"/>
    <path d="M 29.15513 21.692885 
L 30.140125 21.692885 
L 30.140125 3.00024 
L 29.15513 3.00024 
L 29.15513 21.692885 
" clip-path="url(#p9bdb896952)" style="fill: #f7fbff"/>
    <path d="M 30.140125 21.692885 
L 31.12512 21.692885 
L 31.12512 3.00024 
L 30.140125 3.00024 
L 30.140125 21.692885 
" clip-path="url(#p9bdb896952)" style="fill: #f7fbff"/>
    <path d="M 31.12512 21.692885 
L 32.110115 21.692885 
L 32.110115 3.00024 
L 31.12512 3.00024 
L 31.12512 21.692885 
" clip-path="url(#p9bdb896952)" style="fill: #f7fbff"/>
    <path d="M 32.110115 21.692885 
L 33.09511 21.692885 
L 33.09511 3.00024 
L 32.110115 3.00024 
L 32.110115 21.692885 
" clip-path="url(#p9bdb896952)" style="fill: #f7fbff"/>
    <path d="M 33.09511 21.692885 
L 34.080106 21.692885 
L 34.080106 3.00024 
L 33.09511 3.00024 
L 33.09511 21.692885 
" clip-path="url(#p9bdb896952)" style="fill: #08306b"/>
    <path d="M 34.080106 21.692885 
L 35.065101 21.692885 
L 35.065101 3.00024 
L 34.080106 3.00024 
L 34.080106 21.692885 
" clip-path="url(#p9bdb896952)" style="fill: #f7fbff"/>
    <path d="M 35.065101 21.692885 
L 36.050096 21.692885 
L 36.050096 3.00024 
L 35.065101 3.00024 
L 35.065101 21.692885 
" clip-path="url(#p9bdb896952)" style="fill: #08306b"/>
    <path d="M 36.050096 21.692885 
L 37.035091 21.692885 
L 37.035091 3.00024 
L 36.050096 3.00024 
L 36.050096 21.692885 
" clip-path="url(#p9bdb896952)" style="fill: #f7fbff"/>
    <path d="M 37.035091 21.692885 
L 38.020086 21.692885 
L 38.020086 3.00024 
L 37.035091 3.00024 
L 37.035091 21.692885 
" clip-path="url(#p9bdb896952)" style="fill: #f7fbff"/>
    <path d="M 38.020086 21.692885 
L 39.005082 21.692885 
L 39.005082 3.00024 
L 38.020086 3.00024 
L 38.020086 21.692885 
" clip-path="url(#p9bdb896952)" style="fill: #f7fbff"/>
    <path d="M 39.005082 21.692885 
L 39.990077 21.692885 
L 39.990077 3.00024 
L 39.005082 3.00024 
L 39.005082 21.692885 
" clip-path="url(#p9bdb896952)" style="fill: #f5fafe"/>
    <path d="M 39.990077 21.692885 
L 40.975072 21.692885 
L 40.975072 3.00024 
L 39.990077 3.00024 
L 39.990077 21.692885 
" clip-path="url(#p9bdb896952)" style="fill: #f2f8fd"/>
    <path d="M 40.975072 21.692885 
L 41.960067 21.692885 
L 41.960067 3.00024 
L 40.975072 3.00024 
L 40.975072 21.692885 
" clip-path="url(#p9bdb896952)" style="fill: #08306b"/>
    <path d="M 41.960067 21.692885 
L 42.945062 21.692885 
L 42.945062 3.00024 
L 41.960067 3.00024 
L 41.960067 21.692885 
" clip-path="url(#p9bdb896952)" style="fill: #08306b"/>
    <path d="M 42.945062 21.692885 
L 43.930058 21.692885 
L 43.930058 3.00024 
L 42.945062 3.00024 
L 42.945062 21.692885 
" clip-path="url(#p9bdb896952)" style="fill: #08306b"/>
    <path d="M 43.930058 21.692885 
L 44.915053 21.692885 
L 44.915053 3.00024 
L 43.930058 3.00024 
L 43.930058 21.692885 
" clip-path="url(#p9bdb896952)" style="fill: #08306b"/>
    <path d="M 44.915053 21.692885 
L 45.900048 21.692885 
L 45.900048 3.00024 
L 44.915053 3.00024 
L 44.915053 21.692885 
" clip-path="url(#p9bdb896952)" style="fill: #f2f8fd"/>
    <path d="M 45.900048 21.692885 
L 46.885043 21.692885 
L 46.885043 3.00024 
L 45.900048 3.00024 
L 45.900048 21.692885 
" clip-path="url(#p9bdb896952)" style="fill: #f6faff"/>
    <path d="M 46.885043 21.692885 
L 47.870038 21.692885 
L 47.870038 3.00024 
L 46.885043 3.00024 
L 46.885043 21.692885 
" clip-path="url(#p9bdb896952)" style="fill: #f7fbff"/>
    <path d="M 47.870038 21.692885 
L 48.855034 21.692885 
L 48.855034 3.00024 
L 47.870038 3.00024 
L 47.870038 21.692885 
" clip-path="url(#p9bdb896952)" style="fill: #f7fbff"/>
    <path d="M 48.855034 21.692885 
L 49.840029 21.692885 
L 49.840029 3.00024 
L 48.855034 3.00024 
L 48.855034 21.692885 
" clip-path="url(#p9bdb896952)" style="fill: #08306b"/>
    <path d="M 49.840029 21.692885 
L 50.825024 21.692885 
L 50.825024 3.00024 
L 49.840029 3.00024 
L 49.840029 21.692885 
" clip-path="url(#p9bdb896952)" style="fill: #08306b"/>
    <path d="M 50.825024 21.692885 
L 51.810019 21.692885 
L 51.810019 3.00024 
L 50.825024 3.00024 
L 50.825024 21.692885 
" clip-path="url(#p9bdb896952)" style="fill: #08306b"/>
    <path d="M 51.810019 21.692885 
L 52.795014 21.692885 
L 52.795014 3.00024 
L 51.810019 3.00024 
L 51.810019 21.692885 
" clip-path="url(#p9bdb896952)" style="fill: #f7fbff"/>
    <path d="M 52.795014 21.692885 
L 53.78001 21.692885 
L 53.78001 3.00024 
L 52.795014 3.00024 
L 52.795014 21.692885 
" clip-path="url(#p9bdb896952)" style="fill: #f7fbff"/>
    <path d="M 53.78001 21.692885 
L 54.765005 21.692885 
L 54.765005 3.00024 
L 53.78001 3.00024 
L 53.78001 21.692885 
" clip-path="url(#p9bdb896952)" style="fill: #f7fbff"/>
    <path d="M 54.765005 21.692885 
L 55.75 21.692885 
L 55.75 3.00024 
L 54.765005 3.00024 
L 54.765005 21.692885 
" clip-path="url(#p9bdb896952)" style="fill: #f7fbff"/>
    <path d="M 55.75 21.692885 
L 56.734995 21.692885 
L 56.734995 3.00024 
L 55.75 3.00024 
L 55.75 21.692885 
" clip-path="url(#p9bdb896952)" style="fill: #08306b"/>
    <path d="M 56.734995 21.692885 
L 57.71999 21.692885 
L 57.71999 3.00024 
L 56.734995 3.00024 
L 56.734995 21.692885 
" clip-path="url(#p9bdb896952)" style="fill: #08306b"/>
    <path d="M 57.71999 21.692885 
L 58.704986 21.692885 
L 58.704986 3.00024 
L 57.71999 3.00024 
L 57.71999 21.692885 
" clip-path="url(#p9bdb896952)" style="fill: #08306b"/>
    <path d="M 58.704986 21.692885 
L 59.689981 21.692885 
L 59.689981 3.00024 
L 58.704986 3.00024 
L 58.704986 21.692885 
" clip-path="url(#p9bdb896952)" style="fill: #f7fbff"/>
    <path d="M 59.689981 21.692885 
L 60.674976 21.692885 
L 60.674976 3.00024 
L 59.689981 3.00024 
L 59.689981 21.692885 
" clip-path="url(#p9bdb896952)" style="fill: #f7fbff"/>
    <path d="M 60.674976 21.692885 
L 61.659971 21.692885 
L 61.659971 3.00024 
L 60.674976 3.00024 
L 60.674976 21.692885 
" clip-path="url(#p9bdb896952)" style="fill: #f7fbff"/>
    <path d="M 61.659971 21.692885 
L 62.644966 21.692885 
L 62.644966 3.00024 
L 61.659971 3.00024 
L 61.659971 21.692885 
" clip-path="url(#p9bdb896952)" style="fill: #f7fbff"/>
    <path d="M 62.644966 21.692885 
L 63.629962 21.692885 
L 63.629962 3.00024 
L 62.644966 3.00024 
L 62.644966 21.692885 
" clip-path="url(#p9bdb896952)" style="fill: #f7fbff"/>
    <path d="M 63.629962 21.692885 
L 64.614957 21.692885 
L 64.614957 3.00024 
L 63.629962 3.00024 
L 63.629962 21.692885 
" clip-path="url(#p9bdb896952)" style="fill: #08306b"/>
    <path d="M 64.614957 21.692885 
L 65.599952 21.692885 
L 65.599952 3.00024 
L 64.614957 3.00024 
L 64.614957 21.692885 
" clip-path="url(#p9bdb896952)" style="fill: #08306b"/>
    <path d="M 65.599952 21.692885 
L 66.584947 21.692885 
L 66.584947 3.00024 
L 65.599952 3.00024 
L 65.599952 21.692885 
" clip-path="url(#p9bdb896952)" style="fill: #f7fbff"/>
    <path d="M 66.584947 21.692885 
L 67.569942 21.692885 
L 67.569942 3.00024 
L 66.584947 3.00024 
L 66.584947 21.692885 
" clip-path="url(#p9bdb896952)" style="fill: #f7fbff"/>
    <path d="M 67.569942 21.692885 
L 68.554938 21.692885 
L 68.554938 3.00024 
L 67.569942 3.00024 
L 67.569942 21.692885 
" clip-path="url(#p9bdb896952)" style="fill: #f7fbff"/>
    <path d="M 68.554938 21.692885 
L 69.539933 21.692885 
L 69.539933 3.00024 
L 68.554938 3.00024 
L 68.554938 21.692885 
" clip-path="url(#p9bdb896952)" style="fill: #f7fbff"/>
    <path d="M 69.539933 21.692885 
L 70.524928 21.692885 
L 70.524928 3.00024 
L 69.539933 3.00024 
L 69.539933 21.692885 
" clip-path="url(#p9bdb896952)" style="fill: #f7fbff"/>
    <path d="M 70.524928 21.692885 
L 71.509923 21.692885 
L 71.509923 3.00024 
L 70.524928 3.00024 
L 70.524928 21.692885 
" clip-path="url(#p9bdb896952)" style="fill: #08306b"/>
    <path d="M 71.509923 21.692885 
L 72.494918 21.692885 
L 72.494918 3.00024 
L 71.509923 3.00024 
L 71.509923 21.692885 
" clip-path="url(#p9bdb896952)" style="fill: #08306b"/>
    <path d="M 72.494918 21.692885 
L 73.479914 21.692885 
L 73.479914 3.00024 
L 72.494918 3.00024 
L 72.494918 21.692885 
" clip-path="url(#p9bdb896952)" style="fill: #f7fbff"/>
    <path d="M 73.479914 21.692885 
L 74.464909 21.692885 
L 74.464909 3.00024 
L 73.479914 3.00024 
L 73.479914 21.692885 
" clip-path="url(#p9bdb896952)" style="fill: #f7fbff"/>
    <path d="M 74.464909 21.692885 
L 75.449904 21.692885 
L 75.449904 3.00024 
L 74.464909 3.00024 
L 74.464909 21.692885 
" clip-path="url(#p9bdb896952)" style="fill: #f7fbff"/>
    <path d="M 75.449904 21.692885 
L 76.434899 21.692885 
L 76.434899 3.00024 
L 75.449904 3.00024 
L 75.449904 21.692885 
" clip-path="url(#p9bdb896952)" style="fill: #f7fbff"/>
    <path d="M 76.434899 21.692885 
L 77.419894 21.692885 
L 77.419894 3.00024 
L 76.434899 3.00024 
L 76.434899 21.692885 
" clip-path="url(#p9bdb896952)" style="fill: #f7fbff"/>
    <path d="M 77.419894 21.692885 
L 78.40489 21.692885 
L 78.40489 3.00024 
L 77.419894 3.00024 
L 77.419894 21.692885 
" clip-path="url(#p9bdb896952)" style="fill: #08306b"/>
    <path d="M 78.40489 21.692885 
L 79.389885 21.692885 
L 79.389885 3.00024 
L 78.40489 3.00024 
L 78.40489 21.692885 
" clip-path="url(#p9bdb896952)" style="fill: #08306b"/>
    <path d="M 79.389885 21.692885 
L 80.37488 21.692885 
L 80.37488 3.00024 
L 79.389885 3.00024 
L 79.389885 21.692885 
" clip-path="url(#p9bdb896952)" style="fill: #08306b"/>
    <path d="M 80.37488 21.692885 
L 81.359875 21.692885 
L 81.359875 3.00024 
L 80.37488 3.00024 
L 80.37488 21.692885 
" clip-path="url(#p9bdb896952)" style="fill: #f7fbff"/>
    <path d="M 81.359875 21.692885 
L 82.34487 21.692885 
L 82.34487 3.00024 
L 81.359875 3.00024 
L 81.359875 21.692885 
" clip-path="url(#p9bdb896952)" style="fill: #f7fbff"/>
    <path d="M 82.34487 21.692885 
L 83.329866 21.692885 
L 83.329866 3.00024 
L 82.34487 3.00024 
L 82.34487 21.692885 
" clip-path="url(#p9bdb896952)" style="fill: #f7fbff"/>
    <path d="M 83.329866 21.692885 
L 84.314861 21.692885 
L 84.314861 3.00024 
L 83.329866 3.00024 
L 83.329866 21.692885 
" clip-path="url(#p9bdb896952)" style="fill: #f7fbff"/>
    <path d="M 84.314861 21.692885 
L 85.299856 21.692885 
L 85.299856 3.00024 
L 84.314861 3.00024 
L 84.314861 21.692885 
" clip-path="url(#p9bdb896952)" style="fill: #f7fbff"/>
    <path d="M 85.299856 21.692885 
L 86.284851 21.692885 
L 86.284851 3.00024 
L 85.299856 3.00024 
L 85.299856 21.692885 
" clip-path="url(#p9bdb896952)" style="fill: #08306b"/>
    <path d="M 86.284851 21.692885 
L 87.269846 21.692885 
L 87.269846 3.00024 
L 86.284851 3.00024 
L 86.284851 21.692885 
" clip-path="url(#p9bdb896952)" style="fill: #f7fbff"/>
    <path d="M 87.269846 21.692885 
L 88.254842 21.692885 
L 88.254842 3.00024 
L 87.269846 3.00024 
L 87.269846 21.692885 
" clip-path="url(#p9bdb896952)" style="fill: #08306b"/>
    <path d="M 88.254842 21.692885 
L 89.239837 21.692885 
L 89.239837 3.00024 
L 88.254842 3.00024 
L 88.254842 21.692885 
" clip-path="url(#p9bdb896952)" style="fill: #08306b"/>
    <path d="M 89.239837 21.692885 
L 90.224832 21.692885 
L 90.224832 3.00024 
L 89.239837 3.00024 
L 89.239837 21.692885 
" clip-path="url(#p9bdb896952)" style="fill: #f7fbff"/>
    <path d="M 90.224832 21.692885 
L 91.209827 21.692885 
L 91.209827 3.00024 
L 90.224832 3.00024 
L 90.224832 21.692885 
" clip-path="url(#p9bdb896952)" style="fill: #f7fbff"/>
    <path d="M 91.209827 21.692885 
L 92.194822 21.692885 
L 92.194822 3.00024 
L 91.209827 3.00024 
L 91.209827 21.692885 
" clip-path="url(#p9bdb896952)" style="fill: #f7fbff"/>
    <path d="M 92.194822 21.692885 
L 93.179818 21.692885 
L 93.179818 3.00024 
L 92.194822 3.00024 
L 92.194822 21.692885 
" clip-path="url(#p9bdb896952)" style="fill: #f7fbff"/>
    <path d="M 93.179818 21.692885 
L 94.164813 21.692885 
L 94.164813 3.00024 
L 93.179818 3.00024 
L 93.179818 21.692885 
" clip-path="url(#p9bdb896952)" style="fill: #f7fbff"/>
    <path d="M 94.164813 21.692885 
L 95.149808 21.692885 
L 95.149808 3.00024 
L 94.164813 3.00024 
L 94.164813 21.692885 
" clip-path="url(#p9bdb896952)" style="fill: #08306b"/>
    <path d="M 95.149808 21.692885 
L 96.134803 21.692885 
L 96.134803 3.00024 
L 95.149808 3.00024 
L 95.149808 21.692885 
" clip-path="url(#p9bdb896952)" style="fill: #f7fbff"/>
    <path d="M 96.134803 21.692885 
L 97.119798 21.692885 
L 97.119798 3.00024 
L 96.134803 3.00024 
L 96.134803 21.692885 
" clip-path="url(#p9bdb896952)" style="fill: #f7fbff"/>
    <path d="M 97.119798 21.692885 
L 98.104794 21.692885 
L 98.104794 3.00024 
L 97.119798 3.00024 
L 97.119798 21.692885 
" clip-path="url(#p9bdb896952)" style="fill: #08306b"/>
    <path d="M 98.104794 21.692885 
L 99.089789 21.692885 
L 99.089789 3.00024 
L 98.104794 3.00024 
L 98.104794 21.692885 
" clip-path="url(#p9bdb896952)" style="fill: #f7fbff"/>
    <path d="M 99.089789 21.692885 
L 100.074784 21.692885 
L 100.074784 3.00024 
L 99.089789 3.00024 
L 99.089789 21.692885 
" clip-path="url(#p9bdb896952)" style="fill: #f7fbff"/>
    <path d="M 100.074784 21.692885 
L 101.059779 21.692885 
L 101.059779 3.00024 
L 100.074784 3.00024 
L 100.074784 21.692885 
" clip-path="url(#p9bdb896952)" style="fill: #f5fafe"/>
    <path d="M 101.059779 21.692885 
L 102.044774 21.692885 
L 102.044774 3.00024 
L 101.059779 3.00024 
L 101.059779 21.692885 
" clip-path="url(#p9bdb896952)" style="fill: #f2f7fd"/>
    <path d="M 102.044774 21.692885 
L 103.02977 21.692885 
L 103.02977 3.00024 
L 102.044774 3.00024 
L 102.044774 21.692885 
" clip-path="url(#p9bdb896952)" style="fill: #08306b"/>
    <path d="M 103.02977 21.692885 
L 104.014765 21.692885 
L 104.014765 3.00024 
L 103.02977 3.00024 
L 103.02977 21.692885 
" clip-path="url(#p9bdb896952)" style="fill: #08306b"/>
    <path d="M 104.014765 21.692885 
L 104.99976 21.692885 
L 104.99976 3.00024 
L 104.014765 3.00024 
L 104.014765 21.692885 
" clip-path="url(#p9bdb896952)" style="fill: #eef5fc"/>
   </g>
   <g id="matplotlib.axis_1"/>
   <g id="matplotlib.axis_2"/>
   <g id="patch_3">
    <path d="M 6.50024 21.692885 
L 6.50024 3.00024 
" style="fill: none; stroke: #000000; stroke-width: 0.8; stroke-linejoin: miter; stroke-linecap: square"/>
   </g>
   <g id="patch_4">
    <path d="M 104.99976 21.692885 
L 104.99976 3.00024 
" style="fill: none; stroke: #000000; stroke-width: 0.8; stroke-linejoin: miter; stroke-linecap: square"/>
   </g>
   <g id="patch_5">
    <path d="M 6.50024 21.692885 
L 104.99976 21.692885 
" style="fill: none; stroke: #000000; stroke-width: 0.8; stroke-linejoin: miter; stroke-linecap: square"/>
   </g>
   <g id="patch_6">
    <path d="M 6.50024 3.00024 
L 104.99976 3.00024 
" style="fill: none; stroke: #000000; stroke-width: 0.8; stroke-linejoin: miter; stroke-linecap: square"/>
   </g>
  </g>
  <g id="axes_2">
   <g id="patch_7">
    <path d="M 6.50024 49.88601 
L 104.99976 49.88601 
L 104.99976 31.193365 
L 6.50024 31.193365 
z
" style="fill: #ffffff"/>
   </g>
   <g id="QuadMesh_2">
    <path d="M 6.50024 49.88601 
L 7.485235 49.88601 
L 7.485235 31.193365 
L 6.50024 31.193365 
L 6.50024 49.88601 
" clip-path="url(#paa24c9a91e)" style="fill: #fcb99f"/>
    <path d="M 7.485235 49.88601 
L 8.47023 49.88601 
L 8.47023 31.193365 
L 7.485235 31.193365 
L 7.485235 49.88601 
" clip-path="url(#paa24c9a91e)" style="fill: #fca689"/>
    <path d="M 8.47023 49.88601 
L 9.455226 49.88601 
L 9.455226 31.193365 
L 8.47023 31.193365 
L 8.47023 49.88601 
" clip-path="url(#paa24c9a91e)" style="fill: #fb7b5b"/>
    <path d="M 9.455226 49.88601 
L 10.440221 49.88601 
L 10.440221 31.193365 
L 9.455226 31.193365 
L 9.455226 49.88601 
" clip-path="url(#paa24c9a91e)" style="fill: #fb6e4e"/>
    <path d="M 10.440221 49.88601 
L 11.425216 49.88601 
L 11.425216 31.193365 
L 10.440221 31.193365 
L 10.440221 49.88601 
" clip-path="url(#paa24c9a91e)" style="fill: #fc8262"/>
    <path d="M 11.425216 49.88601 
L 12.410211 49.88601 
L 12.410211 31.193365 
L 11.425216 31.193365 
L 11.425216 49.88601 
" clip-path="url(#paa24c9a91e)" style="fill: #fcb499"/>
    <path d="M 12.410211 49.88601 
L 13.395206 49.88601 
L 13.395206 31.193365 
L 12.410211 31.193365 
L 12.410211 49.88601 
" clip-path="url(#paa24c9a91e)" style="fill: #fdd0bc"/>
    <path d="M 13.395206 49.88601 
L 14.380202 49.88601 
L 14.380202 31.193365 
L 13.395206 31.193365 
L 13.395206 49.88601 
" clip-path="url(#paa24c9a91e)" style="fill: #fedfd0"/>
    <path d="M 14.380202 49.88601 
L 15.365197 49.88601 
L 15.365197 31.193365 
L 14.380202 31.193365 
L 14.380202 49.88601 
" clip-path="url(#paa24c9a91e)" style="fill: #fee3d6"/>
    <path d="M 15.365197 49.88601 
L 16.350192 49.88601 
L 16.350192 31.193365 
L 15.365197 31.193365 
L 15.365197 49.88601 
" clip-path="url(#paa24c9a91e)" style="fill: #fee2d5"/>
    <path d="M 16.350192 49.88601 
L 17.335187 49.88601 
L 17.335187 31.193365 
L 16.350192 31.193365 
L 16.350192 49.88601 
" clip-path="url(#paa24c9a91e)" style="fill: #fedbcc"/>
    <path d="M 17.335187 49.88601 
L 18.320182 49.88601 
L 18.320182 31.193365 
L 17.335187 31.193365 
L 17.335187 49.88601 
" clip-path="url(#paa24c9a91e)" style="fill: #fedccd"/>
    <path d="M 18.320182 49.88601 
L 19.305178 49.88601 
L 19.305178 31.193365 
L 18.320182 31.193365 
L 18.320182 49.88601 
" clip-path="url(#paa24c9a91e)" style="fill: #fdd5c4"/>
    <path d="M 19.305178 49.88601 
L 20.290173 49.88601 
L 20.290173 31.193365 
L 19.305178 31.193365 
L 19.305178 49.88601 
" clip-path="url(#paa24c9a91e)" style="fill: #fed9c9"/>
    <path d="M 20.290173 49.88601 
L 21.275168 49.88601 
L 21.275168 31.193365 
L 20.290173 31.193365 
L 20.290173 49.88601 
" clip-path="url(#paa24c9a91e)" style="fill: #fee3d7"/>
    <path d="M 21.275168 49.88601 
L 22.260163 49.88601 
L 22.260163 31.193365 
L 21.275168 31.193365 
L 21.275168 49.88601 
" clip-path="url(#paa24c9a91e)" style="fill: #fee7dc"/>
    <path d="M 22.260163 49.88601 
L 23.245158 49.88601 
L 23.245158 31.193365 
L 22.260163 31.193365 
L 22.260163 49.88601 
" clip-path="url(#paa24c9a91e)" style="fill: #fee8dd"/>
    <path d="M 23.245158 49.88601 
L 24.230154 49.88601 
L 24.230154 31.193365 
L 23.245158 31.193365 
L 23.245158 49.88601 
" clip-path="url(#paa24c9a91e)" style="fill: #fee6da"/>
    <path d="M 24.230154 49.88601 
L 25.215149 49.88601 
L 25.215149 31.193365 
L 24.230154 31.193365 
L 24.230154 49.88601 
" clip-path="url(#paa24c9a91e)" style="fill: #fee1d3"/>
    <path d="M 25.215149 49.88601 
L 26.200144 49.88601 
L 26.200144 31.193365 
L 25.215149 31.193365 
L 25.215149 49.88601 
" clip-path="url(#paa24c9a91e)" style="fill: #fee1d3"/>
    <path d="M 26.200144 49.88601 
L 27.185139 49.88601 
L 27.185139 31.193365 
L 26.200144 31.193365 
L 26.200144 49.88601 
" clip-path="url(#paa24c9a91e)" style="fill: #fee5d9"/>
    <path d="M 27.185139 49.88601 
L 28.170134 49.88601 
L 28.170134 31.193365 
L 27.185139 31.193365 
L 27.185139 49.88601 
" clip-path="url(#paa24c9a91e)" style="fill: #fee6da"/>
    <path d="M 28.170134 49.88601 
L 29.15513 49.88601 
L 29.15513 31.193365 
L 28.170134 31.193365 
L 28.170134 49.88601 
" clip-path="url(#paa24c9a91e)" style="fill: #feeae1"/>
    <path d="M 29.15513 49.88601 
L 30.140125 49.88601 
L 30.140125 31.193365 
L 29.15513 31.193365 
L 29.15513 49.88601 
" clip-path="url(#paa24c9a91e)" style="fill: #ffede5"/>
    <path d="M 30.140125 49.88601 
L 31.12512 49.88601 
L 31.12512 31.193365 
L 30.140125 31.193365 
L 30.140125 49.88601 
" clip-path="url(#paa24c9a91e)" style="fill: #ffeee7"/>
    <path d="M 31.12512 49.88601 
L 32.110115 49.88601 
L 32.110115 31.193365 
L 31.12512 31.193365 
L 31.12512 49.88601 
" clip-path="url(#paa24c9a91e)" style="fill: #ffeee6"/>
    <path d="M 32.110115 49.88601 
L 33.09511 49.88601 
L 33.09511 31.193365 
L 32.110115 31.193365 
L 32.110115 49.88601 
" clip-path="url(#paa24c9a91e)" style="fill: #ffebe2"/>
    <path d="M 33.09511 49.88601 
L 34.080106 49.88601 
L 34.080106 31.193365 
L 33.09511 31.193365 
L 33.09511 49.88601 
" clip-path="url(#paa24c9a91e)" style="fill: #fee7dc"/>
    <path d="M 34.080106 49.88601 
L 35.065101 49.88601 
L 35.065101 31.193365 
L 34.080106 31.193365 
L 34.080106 49.88601 
" clip-path="url(#paa24c9a91e)" style="fill: #fee6da"/>
    <path d="M 35.065101 49.88601 
L 36.050096 49.88601 
L 36.050096 31.193365 
L 35.065101 31.193365 
L 35.065101 49.88601 
" clip-path="url(#paa24c9a91e)" style="fill: #fee2d5"/>
    <path d="M 36.050096 49.88601 
L 37.035091 49.88601 
L 37.035091 31.193365 
L 36.050096 31.193365 
L 36.050096 49.88601 
" clip-path="url(#paa24c9a91e)" style="fill: #fee1d4"/>
    <path d="M 37.035091 49.88601 
L 38.020086 49.88601 
L 38.020086 31.193365 
L 37.035091 31.193365 
L 37.035091 49.88601 
" clip-path="url(#paa24c9a91e)" style="fill: #fedbcc"/>
    <path d="M 38.020086 49.88601 
L 39.005082 49.88601 
L 39.005082 31.193365 
L 38.020086 31.193365 
L 38.020086 49.88601 
" clip-path="url(#paa24c9a91e)" style="fill: #fdcab5"/>
    <path d="M 39.005082 49.88601 
L 39.990077 49.88601 
L 39.990077 31.193365 
L 39.005082 31.193365 
L 39.005082 49.88601 
" clip-path="url(#paa24c9a91e)" style="fill: #fca98c"/>
    <path d="M 39.990077 49.88601 
L 40.975072 49.88601 
L 40.975072 31.193365 
L 39.990077 31.193365 
L 39.990077 49.88601 
" clip-path="url(#paa24c9a91e)" style="fill: #fb7050"/>
    <path d="M 40.975072 49.88601 
L 41.960067 49.88601 
L 41.960067 31.193365 
L 40.975072 31.193365 
L 40.975072 49.88601 
" clip-path="url(#paa24c9a91e)" style="fill: #c2161b"/>
    <path d="M 41.960067 49.88601 
L 42.945062 49.88601 
L 42.945062 31.193365 
L 41.960067 31.193365 
L 41.960067 49.88601 
" clip-path="url(#paa24c9a91e)" style="fill: #880811"/>
    <path d="M 42.945062 49.88601 
L 43.930058 49.88601 
L 43.930058 31.193365 
L 42.945062 31.193365 
L 42.945062 49.88601 
" clip-path="url(#paa24c9a91e)" style="fill: #840711"/>
    <path d="M 43.930058 49.88601 
L 44.915053 49.88601 
L 44.915053 31.193365 
L 43.930058 31.193365 
L 43.930058 49.88601 
" clip-path="url(#paa24c9a91e)" style="fill: #b71319"/>
    <path d="M 44.915053 49.88601 
L 45.900048 49.88601 
L 45.900048 31.193365 
L 44.915053 31.193365 
L 44.915053 49.88601 
" clip-path="url(#paa24c9a91e)" style="fill: #f75b40"/>
    <path d="M 45.900048 49.88601 
L 46.885043 49.88601 
L 46.885043 31.193365 
L 45.900048 31.193365 
L 45.900048 49.88601 
" clip-path="url(#paa24c9a91e)" style="fill: #fc8969"/>
    <path d="M 46.885043 49.88601 
L 47.870038 49.88601 
L 47.870038 31.193365 
L 46.885043 31.193365 
L 46.885043 49.88601 
" clip-path="url(#paa24c9a91e)" style="fill: #fc9474"/>
    <path d="M 47.870038 49.88601 
L 48.855034 49.88601 
L 48.855034 31.193365 
L 47.870038 31.193365 
L 47.870038 49.88601 
" clip-path="url(#paa24c9a91e)" style="fill: #fc8161"/>
    <path d="M 48.855034 49.88601 
L 49.840029 49.88601 
L 49.840029 31.193365 
L 48.855034 31.193365 
L 48.855034 49.88601 
" clip-path="url(#paa24c9a91e)" style="fill: #f24734"/>
    <path d="M 49.840029 49.88601 
L 50.825024 49.88601 
L 50.825024 31.193365 
L 49.840029 31.193365 
L 49.840029 49.88601 
" clip-path="url(#paa24c9a91e)" style="fill: #ea362a"/>
    <path d="M 50.825024 49.88601 
L 51.810019 49.88601 
L 51.810019 31.193365 
L 50.825024 31.193365 
L 50.825024 49.88601 
" clip-path="url(#paa24c9a91e)" style="fill: #f4503a"/>
    <path d="M 51.810019 49.88601 
L 52.795014 49.88601 
L 52.795014 31.193365 
L 51.810019 31.193365 
L 51.810019 49.88601 
" clip-path="url(#paa24c9a91e)" style="fill: #fc9070"/>
    <path d="M 52.795014 49.88601 
L 53.78001 49.88601 
L 53.78001 31.193365 
L 52.795014 31.193365 
L 52.795014 49.88601 
" clip-path="url(#paa24c9a91e)" style="fill: #fcaf93"/>
    <path d="M 53.78001 49.88601 
L 54.765005 49.88601 
L 54.765005 31.193365 
L 53.78001 31.193365 
L 53.78001 49.88601 
" clip-path="url(#paa24c9a91e)" style="fill: #fcb69b"/>
    <path d="M 54.765005 49.88601 
L 55.75 49.88601 
L 55.75 31.193365 
L 54.765005 31.193365 
L 54.765005 49.88601 
" clip-path="url(#paa24c9a91e)" style="fill: #fca98c"/>
    <path d="M 55.75 49.88601 
L 56.734995 49.88601 
L 56.734995 31.193365 
L 55.75 31.193365 
L 55.75 49.88601 
" clip-path="url(#paa24c9a91e)" style="fill: #fc8464"/>
    <path d="M 56.734995 49.88601 
L 57.71999 49.88601 
L 57.71999 31.193365 
L 56.734995 31.193365 
L 56.734995 49.88601 
" clip-path="url(#paa24c9a91e)" style="fill: #fb7a5a"/>
    <path d="M 57.71999 49.88601 
L 58.704986 49.88601 
L 58.704986 31.193365 
L 57.71999 31.193365 
L 57.71999 49.88601 
" clip-path="url(#paa24c9a91e)" style="fill: #fc8e6e"/>
    <path d="M 58.704986 49.88601 
L 59.689981 49.88601 
L 59.689981 31.193365 
L 58.704986 31.193365 
L 58.704986 49.88601 
" clip-path="url(#paa24c9a91e)" style="fill: #fcbda4"/>
    <path d="M 59.689981 49.88601 
L 60.674976 49.88601 
L 60.674976 31.193365 
L 59.689981 31.193365 
L 59.689981 49.88601 
" clip-path="url(#paa24c9a91e)" style="fill: #fdd7c6"/>
    <path d="M 60.674976 49.88601 
L 61.659971 49.88601 
L 61.659971 31.193365 
L 60.674976 31.193365 
L 60.674976 49.88601 
" clip-path="url(#paa24c9a91e)" style="fill: #fee3d6"/>
    <path d="M 61.659971 49.88601 
L 62.644966 49.88601 
L 62.644966 31.193365 
L 61.659971 31.193365 
L 61.659971 49.88601 
" clip-path="url(#paa24c9a91e)" style="fill: #fee7dc"/>
    <path d="M 62.644966 49.88601 
L 63.629962 49.88601 
L 63.629962 31.193365 
L 62.644966 31.193365 
L 62.644966 49.88601 
" clip-path="url(#paa24c9a91e)" style="fill: #fee8de"/>
    <path d="M 63.629962 49.88601 
L 64.614957 49.88601 
L 64.614957 31.193365 
L 63.629962 31.193365 
L 63.629962 49.88601 
" clip-path="url(#paa24c9a91e)" style="fill: #fee7db"/>
    <path d="M 64.614957 49.88601 
L 65.599952 49.88601 
L 65.599952 31.193365 
L 64.614957 31.193365 
L 64.614957 49.88601 
" clip-path="url(#paa24c9a91e)" style="fill: #fee8dd"/>
    <path d="M 65.599952 49.88601 
L 66.584947 49.88601 
L 66.584947 31.193365 
L 65.599952 31.193365 
L 65.599952 49.88601 
" clip-path="url(#paa24c9a91e)" style="fill: #ffece4"/>
    <path d="M 66.584947 49.88601 
L 67.569942 49.88601 
L 67.569942 31.193365 
L 66.584947 31.193365 
L 66.584947 49.88601 
" clip-path="url(#paa24c9a91e)" style="fill: #ffefe8"/>
    <path d="M 67.569942 49.88601 
L 68.554938 49.88601 
L 68.554938 31.193365 
L 67.569942 31.193365 
L 67.569942 49.88601 
" clip-path="url(#paa24c9a91e)" style="fill: #fff0e9"/>
    <path d="M 68.554938 49.88601 
L 69.539933 49.88601 
L 69.539933 31.193365 
L 68.554938 31.193365 
L 68.554938 49.88601 
" clip-path="url(#paa24c9a91e)" style="fill: #fff0e9"/>
    <path d="M 69.539933 49.88601 
L 70.524928 49.88601 
L 70.524928 31.193365 
L 69.539933 31.193365 
L 69.539933 49.88601 
" clip-path="url(#paa24c9a91e)" style="fill: #ffefe8"/>
    <path d="M 70.524928 49.88601 
L 71.509923 49.88601 
L 71.509923 31.193365 
L 70.524928 31.193365 
L 70.524928 49.88601 
" clip-path="url(#paa24c9a91e)" style="fill: #ffede5"/>
    <path d="M 71.509923 49.88601 
L 72.494918 49.88601 
L 72.494918 31.193365 
L 71.509923 31.193365 
L 71.509923 49.88601 
" clip-path="url(#paa24c9a91e)" style="fill: #ffece4"/>
    <path d="M 72.494918 49.88601 
L 73.479914 49.88601 
L 73.479914 31.193365 
L 72.494918 31.193365 
L 72.494918 49.88601 
" clip-path="url(#paa24c9a91e)" style="fill: #ffeee7"/>
    <path d="M 73.479914 49.88601 
L 74.464909 49.88601 
L 74.464909 31.193365 
L 73.479914 31.193365 
L 73.479914 49.88601 
" clip-path="url(#paa24c9a91e)" style="fill: #ffeee7"/>
    <path d="M 74.464909 49.88601 
L 75.449904 49.88601 
L 75.449904 31.193365 
L 74.464909 31.193365 
L 74.464909 49.88601 
" clip-path="url(#paa24c9a91e)" style="fill: #ffede5"/>
    <path d="M 75.449904 49.88601 
L 76.434899 49.88601 
L 76.434899 31.193365 
L 75.449904 31.193365 
L 75.449904 49.88601 
" clip-path="url(#paa24c9a91e)" style="fill: #feeae0"/>
    <path d="M 76.434899 49.88601 
L 77.419894 49.88601 
L 77.419894 31.193365 
L 76.434899 31.193365 
L 76.434899 49.88601 
" clip-path="url(#paa24c9a91e)" style="fill: #fee5d8"/>
    <path d="M 77.419894 49.88601 
L 78.40489 49.88601 
L 78.40489 31.193365 
L 77.419894 31.193365 
L 77.419894 49.88601 
" clip-path="url(#paa24c9a91e)" style="fill: #fed8c7"/>
    <path d="M 78.40489 49.88601 
L 79.389885 49.88601 
L 79.389885 31.193365 
L 78.40489 31.193365 
L 78.40489 49.88601 
" clip-path="url(#paa24c9a91e)" style="fill: #fdd2bf"/>
    <path d="M 79.389885 49.88601 
L 80.37488 49.88601 
L 80.37488 31.193365 
L 79.389885 31.193365 
L 79.389885 49.88601 
" clip-path="url(#paa24c9a91e)" style="fill: #fed8c7"/>
    <path d="M 80.37488 49.88601 
L 81.359875 49.88601 
L 81.359875 31.193365 
L 80.37488 31.193365 
L 80.37488 49.88601 
" clip-path="url(#paa24c9a91e)" style="fill: #fee5d8"/>
    <path d="M 81.359875 49.88601 
L 82.34487 49.88601 
L 82.34487 31.193365 
L 81.359875 31.193365 
L 81.359875 49.88601 
" clip-path="url(#paa24c9a91e)" style="fill: #feeae0"/>
    <path d="M 82.34487 49.88601 
L 83.329866 49.88601 
L 83.329866 31.193365 
L 82.34487 31.193365 
L 82.34487 49.88601 
" clip-path="url(#paa24c9a91e)" style="fill: #ffede5"/>
    <path d="M 83.329866 49.88601 
L 84.314861 49.88601 
L 84.314861 31.193365 
L 83.329866 31.193365 
L 83.329866 49.88601 
" clip-path="url(#paa24c9a91e)" style="fill: #ffeee6"/>
    <path d="M 84.314861 49.88601 
L 85.299856 49.88601 
L 85.299856 31.193365 
L 84.314861 31.193365 
L 84.314861 49.88601 
" clip-path="url(#paa24c9a91e)" style="fill: #ffeee6"/>
    <path d="M 85.299856 49.88601 
L 86.284851 49.88601 
L 86.284851 31.193365 
L 85.299856 31.193365 
L 85.299856 49.88601 
" clip-path="url(#paa24c9a91e)" style="fill: #ffece3"/>
    <path d="M 86.284851 49.88601 
L 87.269846 49.88601 
L 87.269846 31.193365 
L 86.284851 31.193365 
L 86.284851 49.88601 
" clip-path="url(#paa24c9a91e)" style="fill: #ffece4"/>
    <path d="M 87.269846 49.88601 
L 88.254842 49.88601 
L 88.254842 31.193365 
L 87.269846 31.193365 
L 87.269846 49.88601 
" clip-path="url(#paa24c9a91e)" style="fill: #feeae1"/>
    <path d="M 88.254842 49.88601 
L 89.239837 49.88601 
L 89.239837 31.193365 
L 88.254842 31.193365 
L 88.254842 49.88601 
" clip-path="url(#paa24c9a91e)" style="fill: #ffece3"/>
    <path d="M 89.239837 49.88601 
L 90.224832 49.88601 
L 90.224832 31.193365 
L 89.239837 31.193365 
L 89.239837 49.88601 
" clip-path="url(#paa24c9a91e)" style="fill: #ffeee7"/>
    <path d="M 90.224832 49.88601 
L 91.209827 49.88601 
L 91.209827 31.193365 
L 90.224832 31.193365 
L 90.224832 49.88601 
" clip-path="url(#paa24c9a91e)" style="fill: #fff0e9"/>
    <path d="M 91.209827 49.88601 
L 92.194822 49.88601 
L 92.194822 31.193365 
L 91.209827 31.193365 
L 91.209827 49.88601 
" clip-path="url(#paa24c9a91e)" style="fill: #fff1ea"/>
    <path d="M 92.194822 49.88601 
L 93.179818 49.88601 
L 93.179818 31.193365 
L 92.194822 31.193365 
L 92.194822 49.88601 
" clip-path="url(#paa24c9a91e)" style="fill: #fff0e9"/>
    <path d="M 93.179818 49.88601 
L 94.164813 49.88601 
L 94.164813 31.193365 
L 93.179818 31.193365 
L 93.179818 49.88601 
" clip-path="url(#paa24c9a91e)" style="fill: #ffefe8"/>
    <path d="M 94.164813 49.88601 
L 95.149808 49.88601 
L 95.149808 31.193365 
L 94.164813 31.193365 
L 94.164813 49.88601 
" clip-path="url(#paa24c9a91e)" style="fill: #ffede5"/>
    <path d="M 95.149808 49.88601 
L 96.134803 49.88601 
L 96.134803 31.193365 
L 95.149808 31.193365 
L 95.149808 49.88601 
" clip-path="url(#paa24c9a91e)" style="fill: #ffece4"/>
    <path d="M 96.134803 49.88601 
L 97.119798 49.88601 
L 97.119798 31.193365 
L 96.134803 31.193365 
L 96.134803 49.88601 
" clip-path="url(#paa24c9a91e)" style="fill: #feeae1"/>
    <path d="M 97.119798 49.88601 
L 98.104794 49.88601 
L 98.104794 31.193365 
L 97.119798 31.193365 
L 97.119798 49.88601 
" clip-path="url(#paa24c9a91e)" style="fill: #fee6da"/>
    <path d="M 98.104794 49.88601 
L 99.089789 49.88601 
L 99.089789 31.193365 
L 98.104794 31.193365 
L 98.104794 49.88601 
" clip-path="url(#paa24c9a91e)" style="fill: #fee5d9"/>
    <path d="M 99.089789 49.88601 
L 100.074784 49.88601 
L 100.074784 31.193365 
L 99.089789 31.193365 
L 99.089789 49.88601 
" clip-path="url(#paa24c9a91e)" style="fill: #fee2d5"/>
    <path d="M 100.074784 49.88601 
L 101.059779 49.88601 
L 101.059779 31.193365 
L 100.074784 31.193365 
L 100.074784 49.88601 
" clip-path="url(#paa24c9a91e)" style="fill: #fdd5c4"/>
    <path d="M 101.059779 49.88601 
L 102.044774 49.88601 
L 102.044774 31.193365 
L 101.059779 31.193365 
L 101.059779 49.88601 
" clip-path="url(#paa24c9a91e)" style="fill: #fcbfa7"/>
    <path d="M 102.044774 49.88601 
L 103.02977 49.88601 
L 103.02977 31.193365 
L 102.044774 31.193365 
L 102.044774 49.88601 
" clip-path="url(#paa24c9a91e)" style="fill: #fc9879"/>
    <path d="M 103.02977 49.88601 
L 104.014765 49.88601 
L 104.014765 31.193365 
L 103.02977 31.193365 
L 103.02977 49.88601 
" clip-path="url(#paa24c9a91e)" style="fill: #fc8e6e"/>
    <path d="M 104.014765 49.88601 
L 104.99976 49.88601 
L 104.99976 31.193365 
L 104.014765 31.193365 
L 104.014765 49.88601 
" clip-path="url(#paa24c9a91e)" style="fill: #fca183"/>
   </g>
   <g id="matplotlib.axis_3">
    <g id="text_1">
     <!-- space $x$ -->
     <g transform="translate(32.65 66.47976)scale(0.12 -0.12)">
      <defs>
       <path id="DejaVuSans-73" d="M 2834 3397 
L 2834 2853 
Q 2591 2978 2328 3040 
Q 2066 3103 1784 3103 
Q 1356 3103 1142 2972 
Q 928 2841 928 2578 
Q 928 2378 1081 2264 
Q 1234 2150 1697 2047 
L 1894 2003 
Q 2506 1872 2764 1633 
Q 3022 1394 3022 966 
Q 3022 478 2636 193 
Q 2250 -91 1575 -91 
Q 1294 -91 989 -36 
Q 684 19 347 128 
L 347 722 
Q 666 556 975 473 
Q 1284 391 1588 391 
Q 1994 391 2212 530 
Q 2431 669 2431 922 
Q 2431 1156 2273 1281 
Q 2116 1406 1581 1522 
L 1381 1569 
Q 847 1681 609 1914 
Q 372 2147 372 2553 
Q 372 3047 722 3315 
Q 1072 3584 1716 3584 
Q 2034 3584 2315 3537 
Q 2597 3491 2834 3397 
z
" transform="scale(0.015625)"/>
       <path id="DejaVuSans-70" d="M 1159 525 
L 1159 -1331 
L 581 -1331 
L 581 3500 
L 1159 3500 
L 1159 2969 
Q 1341 3281 1617 3432 
Q 1894 3584 2278 3584 
Q 2916 3584 3314 3078 
Q 3713 2572 3713 1747 
Q 3713 922 3314 415 
Q 2916 -91 2278 -91 
Q 1894 -91 1617 61 
Q 1341 213 1159 525 
z
M 3116 1747 
Q 3116 2381 2855 2742 
Q 2594 3103 2138 3103 
Q 1681 3103 1420 2742 
Q 1159 2381 1159 1747 
Q 1159 1113 1420 752 
Q 1681 391 2138 391 
Q 2594 391 2855 752 
Q 3116 1113 3116 1747 
z
" transform="scale(0.015625)"/>
       <path id="DejaVuSans-61" d="M 2194 1759 
Q 1497 1759 1228 1600 
Q 959 1441 959 1056 
Q 959 750 1161 570 
Q 1363 391 1709 391 
Q 2188 391 2477 730 
Q 2766 1069 2766 1631 
L 2766 1759 
L 2194 1759 
z
M 3341 1997 
L 3341 0 
L 2766 0 
L 2766 531 
Q 2569 213 2275 61 
Q 1981 -91 1556 -91 
Q 1019 -91 701 211 
Q 384 513 384 1019 
Q 384 1609 779 1909 
Q 1175 2209 1959 2209 
L 2766 2209 
L 2766 2266 
Q 2766 2663 2505 2880 
Q 2244 3097 1772 3097 
Q 1472 3097 1187 3025 
Q 903 2953 641 2809 
L 641 3341 
Q 956 3463 1253 3523 
Q 1550 3584 1831 3584 
Q 2591 3584 2966 3190 
Q 3341 2797 3341 1997 
z
" transform="scale(0.015625)"/>
       <path id="DejaVuSans-63" d="M 3122 3366 
L 3122 2828 
Q 2878 2963 2633 3030 
Q 2388 3097 2138 3097 
Q 1578 3097 1268 2742 
Q 959 2388 959 1747 
Q 959 1106 1268 751 
Q 1578 397 2138 397 
Q 2388 397 2633 464 
Q 2878 531 3122 666 
L 3122 134 
Q 2881 22 2623 -34 
Q 2366 -91 2075 -91 
Q 1284 -91 818 406 
Q 353 903 353 1747 
Q 353 2603 823 3093 
Q 1294 3584 2113 3584 
Q 2378 3584 2631 3529 
Q 2884 3475 3122 3366 
z
" transform="scale(0.015625)"/>
       <path id="DejaVuSans-65" d="M 3597 1894 
L 3597 1613 
L 953 1613 
Q 991 1019 1311 708 
Q 1631 397 2203 397 
Q 2534 397 2845 478 
Q 3156 559 3463 722 
L 3463 178 
Q 3153 47 2828 -22 
Q 2503 -91 2169 -91 
Q 1331 -91 842 396 
Q 353 884 353 1716 
Q 353 2575 817 3079 
Q 1281 3584 2069 3584 
Q 2775 3584 3186 3129 
Q 3597 2675 3597 1894 
z
M 3022 2063 
Q 3016 2534 2758 2815 
Q 2500 3097 2075 3097 
Q 1594 3097 1305 2825 
Q 1016 2553 972 2059 
L 3022 2063 
z
" transform="scale(0.015625)"/>
       <path id="DejaVuSans-20" transform="scale(0.015625)"/>
       <path id="DejaVuSans-Oblique-78" d="M 3841 3500 
L 2234 1784 
L 3219 0 
L 2559 0 
L 1819 1388 
L 531 0 
L -166 0 
L 1556 1844 
L 641 3500 
L 1300 3500 
L 1972 2234 
L 3144 3500 
L 3841 3500 
z
" transform="scale(0.015625)"/>
      </defs>
      <use xlink:href="#DejaVuSans-73"/>
      <use xlink:href="#DejaVuSans-70" transform="translate(52.099609 0)"/>
      <use xlink:href="#DejaVuSans-61" transform="translate(115.576172 0)"/>
      <use xlink:href="#DejaVuSans-63" transform="translate(176.855469 0)"/>
      <use xlink:href="#DejaVuSans-65" transform="translate(231.835938 0)"/>
      <use xlink:href="#DejaVuSans-20" transform="translate(293.359375 0)"/>
      <use xlink:href="#DejaVuSans-Oblique-78" transform="translate(325.146484 0)"/>
     </g>
    </g>
   </g>
   <g id="matplotlib.axis_4"/>
   <g id="patch_8">
    <path d="M 6.50024 49.88601 
L 6.50024 31.193365 
" style="fill: none; stroke: #000000; stroke-width: 0.8; stroke-linejoin: miter; stroke-linecap: square"/>
   </g>
   <g id="patch_9">
    <path d="M 104.99976 49.88601 
L 104.99976 31.193365 
" style="fill: none; stroke: #000000; stroke-width: 0.8; stroke-linejoin: miter; stroke-linecap: square"/>
   </g>
   <g id="patch_10">
    <path d="M 6.50024 49.88601 
L 104.99976 49.88601 
" style="fill: none; stroke: #000000; stroke-width: 0.8; stroke-linejoin: miter; stroke-linecap: square"/>
   </g>
   <g id="patch_11">
    <path d="M 6.50024 31.193365 
L 104.99976 31.193365 
" style="fill: none; stroke: #000000; stroke-width: 0.8; stroke-linejoin: miter; stroke-linecap: square"/>
   </g>
  </g>
 </g>
 <defs>
  <clipPath id="p9bdb896952">
   <rect x="6.50024" y="3.00024" width="98.49952" height="18.692645"/>
  </clipPath>
  <clipPath id="paa24c9a91e">
   <rect x="6.50024" y="31.193365" width="98.49952" height="18.692645"/>
  </clipPath>
 </defs>
</svg>
