<?xml version="1.0" encoding="utf-8" standalone="no"?>
<!DOCTYPE svg PUBLIC "-//W3C//DTD SVG 1.1//EN"
  "http://www.w3.org/Graphics/SVG/1.1/DTD/svg11.dtd">
<svg xmlns:xlink="http://www.w3.org/1999/xlink" width="108pt" height="72pt" viewBox="0 0 108 72" xmlns="http://www.w3.org/2000/svg" version="1.1">
 <metadata>
  <rdf:RDF xmlns:dc="http://purl.org/dc/elements/1.1/" xmlns:cc="http://creativecommons.org/ns#" xmlns:rdf="http://www.w3.org/1999/02/22-rdf-syntax-ns#">
   <cc:Work>
    <dc:type rdf:resource="http://purl.org/dc/dcmitype/StillImage"/>
    <dc:date>2022-12-20T19:29:08.329602</dc:date>
    <dc:format>image/svg+xml</dc:format>
    <dc:creator>
     <cc:Agent>
      <dc:title>Matplotlib v3.5.3, https://matplotlib.org/</dc:title>
     </cc:Agent>
    </dc:creator>
   </cc:Work>
  </rdf:RDF>
 </metadata>
 <defs>
  <style type="text/css">*{stroke-linejoin: round; stroke-linecap: butt}</style>
 </defs>
 <g id="figure_1">
  <g id="patch_1">
   <path d="M 0 72 
L 108 72 
L 108 0 
L 0 0 
z
" style="fill: #ffffff"/>
  </g>
  <g id="axes_1">
   <g id="patch_2">
    <path d="M 6.50024 21.692885 
L 104.99976 21.692885 
L 104.99976 3.00024 
L 6.50024 3.00024 
z
" style="fill: #ffffff"/>
   </g>
   <g id="QuadMesh_1">
    <path d="M 6.50024 21.692885 
L 7.475483 21.692885 
L 7.475483 3.00024 
L 6.50024 3.00024 
L 6.50024 21.692885 
" clip-path="url(#p8f0163f70f)" style="fill: #1562a9"/>
    <path d="M 7.475483 21.692885 
L 8.450726 21.692885 
L 8.450726 3.00024 
L 7.475483 3.00024 
L 7.475483 21.692885 
" clip-path="url(#p8f0163f70f)" style="fill: #3888c1"/>
    <path d="M 8.450726 21.692885 
L 9.425968 21.692885 
L 9.425968 3.00024 
L 8.450726 3.00024 
L 8.450726 21.692885 
" clip-path="url(#p8f0163f70f)" style="fill: #d0e1f2"/>
    <path d="M 9.425968 21.692885 
L 10.401211 21.692885 
L 10.401211 3.00024 
L 9.425968 3.00024 
L 9.425968 21.692885 
" clip-path="url(#p8f0163f70f)" style="fill: #d9e7f5"/>
    <path d="M 10.401211 21.692885 
L 11.376454 21.692885 
L 11.376454 3.00024 
L 10.401211 3.00024 
L 10.401211 21.692885 
" clip-path="url(#p8f0163f70f)" style="fill: #56a0ce"/>
    <path d="M 11.376454 21.692885 
L 12.351697 21.692885 
L 12.351697 3.00024 
L 11.376454 3.00024 
L 11.376454 21.692885 
" clip-path="url(#p8f0163f70f)" style="fill: #2373b6"/>
    <path d="M 12.351697 21.692885 
L 13.326939 21.692885 
L 13.326939 3.00024 
L 12.351697 3.00024 
L 12.351697 21.692885 
" clip-path="url(#p8f0163f70f)" style="fill: #1e6db2"/>
    <path d="M 13.326939 21.692885 
L 14.302182 21.692885 
L 14.302182 3.00024 
L 13.326939 3.00024 
L 13.326939 21.692885 
" clip-path="url(#p8f0163f70f)" style="fill: #2575b7"/>
    <path d="M 14.302182 21.692885 
L 15.277425 21.692885 
L 15.277425 3.00024 
L 14.302182 3.00024 
L 14.302182 21.692885 
" clip-path="url(#p8f0163f70f)" style="fill: #5ca4d0"/>
    <path d="M 15.277425 21.692885 
L 16.252668 21.692885 
L 16.252668 3.00024 
L 15.277425 3.00024 
L 15.277425 21.692885 
" clip-path="url(#p8f0163f70f)" style="fill: #dae8f6"/>
    <path d="M 16.252668 21.692885 
L 17.22791 21.692885 
L 17.22791 3.00024 
L 16.252668 3.00024 
L 16.252668 21.692885 
" clip-path="url(#p8f0163f70f)" style="fill: #cfe1f2"/>
    <path d="M 17.22791 21.692885 
L 18.203153 21.692885 
L 18.203153 3.00024 
L 17.22791 3.00024 
L 17.22791 21.692885 
" clip-path="url(#p8f0163f70f)" style="fill: #3484bf"/>
    <path d="M 18.203153 21.692885 
L 19.178396 21.692885 
L 19.178396 3.00024 
L 18.203153 3.00024 
L 18.203153 21.692885 
" clip-path="url(#p8f0163f70f)" style="fill: #1562a9"/>
    <path d="M 19.178396 21.692885 
L 20.153639 21.692885 
L 20.153639 3.00024 
L 19.178396 3.00024 
L 19.178396 21.692885 
" clip-path="url(#p8f0163f70f)" style="fill: #1562a9"/>
    <path d="M 20.153639 21.692885 
L 21.128882 21.692885 
L 21.128882 3.00024 
L 20.153639 3.00024 
L 20.153639 21.692885 
" clip-path="url(#p8f0163f70f)" style="fill: #3686c0"/>
    <path d="M 21.128882 21.692885 
L 22.104124 21.692885 
L 22.104124 3.00024 
L 21.128882 3.00024 
L 21.128882 21.692885 
" clip-path="url(#p8f0163f70f)" style="fill: #d0e2f2"/>
    <path d="M 22.104124 21.692885 
L 23.079367 21.692885 
L 23.079367 3.00024 
L 22.104124 3.00024 
L 22.104124 21.692885 
" clip-path="url(#p8f0163f70f)" style="fill: #d9e8f5"/>
    <path d="M 23.079367 21.692885 
L 24.05461 21.692885 
L 24.05461 3.00024 
L 23.079367 3.00024 
L 23.079367 21.692885 
" clip-path="url(#p8f0163f70f)" style="fill: #549fcd"/>
    <path d="M 24.05461 21.692885 
L 25.029853 21.692885 
L 25.029853 3.00024 
L 24.05461 3.00024 
L 24.05461 21.692885 
" clip-path="url(#p8f0163f70f)" style="fill: #2474b7"/>
    <path d="M 25.029853 21.692885 
L 26.005095 21.692885 
L 26.005095 3.00024 
L 25.029853 3.00024 
L 25.029853 21.692885 
" clip-path="url(#p8f0163f70f)" style="fill: #1f6eb3"/>
    <path d="M 26.005095 21.692885 
L 26.980338 21.692885 
L 26.980338 3.00024 
L 26.005095 3.00024 
L 26.005095 21.692885 
" clip-path="url(#p8f0163f70f)" style="fill: #2575b7"/>
    <path d="M 26.980338 21.692885 
L 27.955581 21.692885 
L 27.955581 3.00024 
L 26.980338 3.00024 
L 26.980338 21.692885 
" clip-path="url(#p8f0163f70f)" style="fill: #5aa2cf"/>
    <path d="M 27.955581 21.692885 
L 28.930824 21.692885 
L 28.930824 3.00024 
L 27.955581 3.00024 
L 27.955581 21.692885 
" clip-path="url(#p8f0163f70f)" style="fill: #d9e8f5"/>
    <path d="M 28.930824 21.692885 
L 29.906067 21.692885 
L 29.906067 3.00024 
L 28.930824 3.00024 
L 28.930824 21.692885 
" clip-path="url(#p8f0163f70f)" style="fill: #cfe1f2"/>
    <path d="M 29.906067 21.692885 
L 30.881309 21.692885 
L 30.881309 3.00024 
L 29.906067 3.00024 
L 29.906067 21.692885 
" clip-path="url(#p8f0163f70f)" style="fill: #3383be"/>
    <path d="M 30.881309 21.692885 
L 31.856552 21.692885 
L 31.856552 3.00024 
L 30.881309 3.00024 
L 30.881309 21.692885 
" clip-path="url(#p8f0163f70f)" style="fill: #1562a9"/>
    <path d="M 31.856552 21.692885 
L 32.831795 21.692885 
L 32.831795 3.00024 
L 31.856552 3.00024 
L 31.856552 21.692885 
" clip-path="url(#p8f0163f70f)" style="fill: #1865ac"/>
    <path d="M 32.831795 21.692885 
L 33.807038 21.692885 
L 33.807038 3.00024 
L 32.831795 3.00024 
L 32.831795 21.692885 
" clip-path="url(#p8f0163f70f)" style="fill: #4090c5"/>
    <path d="M 33.807038 21.692885 
L 34.78228 21.692885 
L 34.78228 3.00024 
L 33.807038 3.00024 
L 33.807038 21.692885 
" clip-path="url(#p8f0163f70f)" style="fill: #d2e3f3"/>
    <path d="M 34.78228 21.692885 
L 35.757523 21.692885 
L 35.757523 3.00024 
L 34.78228 3.00024 
L 34.78228 21.692885 
" clip-path="url(#p8f0163f70f)" style="fill: #d2e3f3"/>
    <path d="M 35.757523 21.692885 
L 36.732766 21.692885 
L 36.732766 3.00024 
L 35.757523 3.00024 
L 35.757523 21.692885 
" clip-path="url(#p8f0163f70f)" style="fill: #4090c5"/>
    <path d="M 36.732766 21.692885 
L 37.708009 21.692885 
L 37.708009 3.00024 
L 36.732766 3.00024 
L 36.732766 21.692885 
" clip-path="url(#p8f0163f70f)" style="fill: #1865ac"/>
    <path d="M 37.708009 21.692885 
L 38.683251 21.692885 
L 38.683251 3.00024 
L 37.708009 3.00024 
L 37.708009 21.692885 
" clip-path="url(#p8f0163f70f)" style="fill: #1562a9"/>
    <path d="M 38.683251 21.692885 
L 39.658494 21.692885 
L 39.658494 3.00024 
L 38.683251 3.00024 
L 38.683251 21.692885 
" clip-path="url(#p8f0163f70f)" style="fill: #3787c0"/>
    <path d="M 39.658494 21.692885 
L 40.633737 21.692885 
L 40.633737 3.00024 
L 39.658494 3.00024 
L 39.658494 21.692885 
" clip-path="url(#p8f0163f70f)" style="fill: #d0e2f2"/>
    <path d="M 40.633737 21.692885 
L 41.60898 21.692885 
L 41.60898 3.00024 
L 40.633737 3.00024 
L 40.633737 21.692885 
" clip-path="url(#p8f0163f70f)" style="fill: #d8e7f5"/>
    <path d="M 41.60898 21.692885 
L 42.584223 21.692885 
L 42.584223 3.00024 
L 41.60898 3.00024 
L 41.60898 21.692885 
" clip-path="url(#p8f0163f70f)" style="fill: #539ecd"/>
    <path d="M 42.584223 21.692885 
L 43.559465 21.692885 
L 43.559465 3.00024 
L 42.584223 3.00024 
L 42.584223 21.692885 
" clip-path="url(#p8f0163f70f)" style="fill: #2373b6"/>
    <path d="M 43.559465 21.692885 
L 44.534708 21.692885 
L 44.534708 3.00024 
L 43.559465 3.00024 
L 43.559465 21.692885 
" clip-path="url(#p8f0163f70f)" style="fill: #1e6db2"/>
    <path d="M 44.534708 21.692885 
L 45.509951 21.692885 
L 45.509951 3.00024 
L 44.534708 3.00024 
L 44.534708 21.692885 
" clip-path="url(#p8f0163f70f)" style="fill: #2575b7"/>
    <path d="M 45.509951 21.692885 
L 46.485194 21.692885 
L 46.485194 3.00024 
L 45.509951 3.00024 
L 45.509951 21.692885 
" clip-path="url(#p8f0163f70f)" style="fill: #61a7d2"/>
    <path d="M 46.485194 21.692885 
L 47.460436 21.692885 
L 47.460436 3.00024 
L 46.485194 3.00024 
L 46.485194 21.692885 
" clip-path="url(#p8f0163f70f)" style="fill: #dbe9f6"/>
    <path d="M 47.460436 21.692885 
L 48.435679 21.692885 
L 48.435679 3.00024 
L 47.460436 3.00024 
L 47.460436 21.692885 
" clip-path="url(#p8f0163f70f)" style="fill: #cde0f1"/>
    <path d="M 48.435679 21.692885 
L 49.410922 21.692885 
L 49.410922 3.00024 
L 48.435679 3.00024 
L 48.435679 21.692885 
" clip-path="url(#p8f0163f70f)" style="fill: #3585bf"/>
    <path d="M 49.410922 21.692885 
L 50.386165 21.692885 
L 50.386165 3.00024 
L 49.410922 3.00024 
L 49.410922 21.692885 
" clip-path="url(#p8f0163f70f)" style="fill: #1562a9"/>
    <path d="M 50.386165 21.692885 
L 51.361408 21.692885 
L 51.361408 3.00024 
L 50.386165 3.00024 
L 50.386165 21.692885 
" clip-path="url(#p8f0163f70f)" style="fill: #1562a9"/>
    <path d="M 51.361408 21.692885 
L 52.33665 21.692885 
L 52.33665 3.00024 
L 51.361408 3.00024 
L 51.361408 21.692885 
" clip-path="url(#p8f0163f70f)" style="fill: #3585bf"/>
    <path d="M 52.33665 21.692885 
L 53.311893 21.692885 
L 53.311893 3.00024 
L 52.33665 3.00024 
L 52.33665 21.692885 
" clip-path="url(#p8f0163f70f)" style="fill: #d0e2f2"/>
    <path d="M 53.311893 21.692885 
L 54.287136 21.692885 
L 54.287136 3.00024 
L 53.311893 3.00024 
L 53.311893 21.692885 
" clip-path="url(#p8f0163f70f)" style="fill: #dae8f6"/>
    <path d="M 54.287136 21.692885 
L 55.262379 21.692885 
L 55.262379 3.00024 
L 54.287136 3.00024 
L 54.287136 21.692885 
" clip-path="url(#p8f0163f70f)" style="fill: #5aa2cf"/>
    <path d="M 55.262379 21.692885 
L 56.237621 21.692885 
L 56.237621 3.00024 
L 55.262379 3.00024 
L 55.262379 21.692885 
" clip-path="url(#p8f0163f70f)" style="fill: #2575b7"/>
    <path d="M 56.237621 21.692885 
L 57.212864 21.692885 
L 57.212864 3.00024 
L 56.237621 3.00024 
L 56.237621 21.692885 
" clip-path="url(#p8f0163f70f)" style="fill: #206fb4"/>
    <path d="M 57.212864 21.692885 
L 58.188107 21.692885 
L 58.188107 3.00024 
L 57.212864 3.00024 
L 57.212864 21.692885 
" clip-path="url(#p8f0163f70f)" style="fill: #2070b4"/>
    <path d="M 58.188107 21.692885 
L 59.16335 21.692885 
L 59.16335 3.00024 
L 58.188107 3.00024 
L 58.188107 21.692885 
" clip-path="url(#p8f0163f70f)" style="fill: #4292c6"/>
    <path d="M 59.16335 21.692885 
L 60.138592 21.692885 
L 60.138592 3.00024 
L 59.16335 3.00024 
L 59.16335 21.692885 
" clip-path="url(#p8f0163f70f)" style="fill: #d7e6f5"/>
    <path d="M 60.138592 21.692885 
L 61.113835 21.692885 
L 61.113835 3.00024 
L 60.138592 3.00024 
L 60.138592 21.692885 
" clip-path="url(#p8f0163f70f)" style="fill: #d9e7f5"/>
    <path d="M 61.113835 21.692885 
L 62.089078 21.692885 
L 62.089078 3.00024 
L 61.113835 3.00024 
L 61.113835 21.692885 
" clip-path="url(#p8f0163f70f)" style="fill: #4b98ca"/>
    <path d="M 62.089078 21.692885 
L 63.064321 21.692885 
L 63.064321 3.00024 
L 62.089078 3.00024 
L 62.089078 21.692885 
" clip-path="url(#p8f0163f70f)" style="fill: #2272b6"/>
    <path d="M 63.064321 21.692885 
L 64.039564 21.692885 
L 64.039564 3.00024 
L 63.064321 3.00024 
L 63.064321 21.692885 
" clip-path="url(#p8f0163f70f)" style="fill: #1f6eb3"/>
    <path d="M 64.039564 21.692885 
L 65.014806 21.692885 
L 65.014806 3.00024 
L 64.039564 3.00024 
L 64.039564 21.692885 
" clip-path="url(#p8f0163f70f)" style="fill: #2171b5"/>
    <path d="M 65.014806 21.692885 
L 65.990049 21.692885 
L 65.990049 3.00024 
L 65.014806 3.00024 
L 65.014806 21.692885 
" clip-path="url(#p8f0163f70f)" style="fill: #4493c7"/>
    <path d="M 65.990049 21.692885 
L 66.965292 21.692885 
L 66.965292 3.00024 
L 65.990049 3.00024 
L 65.990049 21.692885 
" clip-path="url(#p8f0163f70f)" style="fill: #d8e7f5"/>
    <path d="M 66.965292 21.692885 
L 67.940535 21.692885 
L 67.940535 3.00024 
L 66.965292 3.00024 
L 66.965292 21.692885 
" clip-path="url(#p8f0163f70f)" style="fill: #d9e7f5"/>
    <path d="M 67.940535 21.692885 
L 68.915777 21.692885 
L 68.915777 3.00024 
L 67.940535 3.00024 
L 67.940535 21.692885 
" clip-path="url(#p8f0163f70f)" style="fill: #4a98c9"/>
    <path d="M 68.915777 21.692885 
L 69.89102 21.692885 
L 69.89102 3.00024 
L 68.915777 3.00024 
L 68.915777 21.692885 
" clip-path="url(#p8f0163f70f)" style="fill: #2272b6"/>
    <path d="M 69.89102 21.692885 
L 70.866263 21.692885 
L 70.866263 3.00024 
L 69.89102 3.00024 
L 69.89102 21.692885 
" clip-path="url(#p8f0163f70f)" style="fill: #206fb4"/>
    <path d="M 70.866263 21.692885 
L 71.841506 21.692885 
L 71.841506 3.00024 
L 70.866263 3.00024 
L 70.866263 21.692885 
" clip-path="url(#p8f0163f70f)" style="fill: #2171b5"/>
    <path d="M 71.841506 21.692885 
L 72.816749 21.692885 
L 72.816749 3.00024 
L 71.841506 3.00024 
L 71.841506 21.692885 
" clip-path="url(#p8f0163f70f)" style="fill: #4493c7"/>
    <path d="M 72.816749 21.692885 
L 73.791991 21.692885 
L 73.791991 3.00024 
L 72.816749 3.00024 
L 72.816749 21.692885 
" clip-path="url(#p8f0163f70f)" style="fill: #d8e7f5"/>
    <path d="M 73.791991 21.692885 
L 74.767234 21.692885 
L 74.767234 3.00024 
L 73.791991 3.00024 
L 73.791991 21.692885 
" clip-path="url(#p8f0163f70f)" style="fill: #d8e7f5"/>
    <path d="M 74.767234 21.692885 
L 75.742477 21.692885 
L 75.742477 3.00024 
L 74.767234 3.00024 
L 74.767234 21.692885 
" clip-path="url(#p8f0163f70f)" style="fill: #4997c9"/>
    <path d="M 75.742477 21.692885 
L 76.71772 21.692885 
L 76.71772 3.00024 
L 75.742477 3.00024 
L 75.742477 21.692885 
" clip-path="url(#p8f0163f70f)" style="fill: #2070b4"/>
    <path d="M 76.71772 21.692885 
L 77.692962 21.692885 
L 77.692962 3.00024 
L 76.71772 3.00024 
L 76.71772 21.692885 
" clip-path="url(#p8f0163f70f)" style="fill: #206fb4"/>
    <path d="M 77.692962 21.692885 
L 78.668205 21.692885 
L 78.668205 3.00024 
L 77.692962 3.00024 
L 77.692962 21.692885 
" clip-path="url(#p8f0163f70f)" style="fill: #2a7ab9"/>
    <path d="M 78.668205 21.692885 
L 79.643448 21.692885 
L 79.643448 3.00024 
L 78.668205 3.00024 
L 78.668205 21.692885 
" clip-path="url(#p8f0163f70f)" style="fill: #60a7d2"/>
    <path d="M 79.643448 21.692885 
L 80.618691 21.692885 
L 80.618691 3.00024 
L 79.643448 3.00024 
L 79.643448 21.692885 
" clip-path="url(#p8f0163f70f)" style="fill: #d9e7f5"/>
    <path d="M 80.618691 21.692885 
L 81.593933 21.692885 
L 81.593933 3.00024 
L 80.618691 3.00024 
L 80.618691 21.692885 
" clip-path="url(#p8f0163f70f)" style="fill: #c8dcf0"/>
    <path d="M 81.593933 21.692885 
L 82.569176 21.692885 
L 82.569176 3.00024 
L 81.593933 3.00024 
L 81.593933 21.692885 
" clip-path="url(#p8f0163f70f)" style="fill: #2c7cba"/>
    <path d="M 82.569176 21.692885 
L 83.544419 21.692885 
L 83.544419 3.00024 
L 82.569176 3.00024 
L 82.569176 21.692885 
" clip-path="url(#p8f0163f70f)" style="fill: #1562a9"/>
    <path d="M 83.544419 21.692885 
L 84.519662 21.692885 
L 84.519662 3.00024 
L 83.544419 3.00024 
L 83.544419 21.692885 
" clip-path="url(#p8f0163f70f)" style="fill: #2d7dbb"/>
    <path d="M 84.519662 21.692885 
L 85.494905 21.692885 
L 85.494905 3.00024 
L 84.519662 3.00024 
L 84.519662 21.692885 
" clip-path="url(#p8f0163f70f)" style="fill: #9dcae1"/>
    <path d="M 85.494905 21.692885 
L 86.470147 21.692885 
L 86.470147 3.00024 
L 85.494905 3.00024 
L 85.494905 21.692885 
" clip-path="url(#p8f0163f70f)" style="fill: #d0e1f2"/>
    <path d="M 86.470147 21.692885 
L 87.44539 21.692885 
L 87.44539 3.00024 
L 86.470147 3.00024 
L 86.470147 21.692885 
" clip-path="url(#p8f0163f70f)" style="fill: #72b2d8"/>
    <path d="M 87.44539 21.692885 
L 88.420633 21.692885 
L 88.420633 3.00024 
L 87.44539 3.00024 
L 87.44539 21.692885 
" clip-path="url(#p8f0163f70f)" style="fill: #2474b7"/>
    <path d="M 88.420633 21.692885 
L 89.395876 21.692885 
L 89.395876 3.00024 
L 88.420633 3.00024 
L 88.420633 21.692885 
" clip-path="url(#p8f0163f70f)" style="fill: #1663aa"/>
    <path d="M 89.395876 21.692885 
L 90.371118 21.692885 
L 90.371118 3.00024 
L 89.395876 3.00024 
L 89.395876 21.692885 
" clip-path="url(#p8f0163f70f)" style="fill: #3686c0"/>
    <path d="M 90.371118 21.692885 
L 91.346361 21.692885 
L 91.346361 3.00024 
L 90.371118 3.00024 
L 90.371118 21.692885 
" clip-path="url(#p8f0163f70f)" style="fill: #cfe1f2"/>
    <path d="M 91.346361 21.692885 
L 92.321604 21.692885 
L 92.321604 3.00024 
L 91.346361 3.00024 
L 91.346361 21.692885 
" clip-path="url(#p8f0163f70f)" style="fill: #d7e6f5"/>
    <path d="M 92.321604 21.692885 
L 93.296847 21.692885 
L 93.296847 3.00024 
L 92.321604 3.00024 
L 92.321604 21.692885 
" clip-path="url(#p8f0163f70f)" style="fill: #549fcd"/>
    <path d="M 93.296847 21.692885 
L 94.27209 21.692885 
L 94.27209 3.00024 
L 93.296847 3.00024 
L 93.296847 21.692885 
" clip-path="url(#p8f0163f70f)" style="fill: #2676b8"/>
    <path d="M 94.27209 21.692885 
L 95.247332 21.692885 
L 95.247332 3.00024 
L 94.27209 3.00024 
L 94.27209 21.692885 
" clip-path="url(#p8f0163f70f)" style="fill: #1f6eb3"/>
    <path d="M 95.247332 21.692885 
L 96.222575 21.692885 
L 96.222575 3.00024 
L 95.247332 3.00024 
L 95.247332 21.692885 
" clip-path="url(#p8f0163f70f)" style="fill: #2171b5"/>
    <path d="M 96.222575 21.692885 
L 97.197818 21.692885 
L 97.197818 3.00024 
L 96.222575 3.00024 
L 96.222575 21.692885 
" clip-path="url(#p8f0163f70f)" style="fill: #4f9bcb"/>
    <path d="M 97.197818 21.692885 
L 98.173061 21.692885 
L 98.173061 3.00024 
L 97.197818 3.00024 
L 97.197818 21.692885 
" clip-path="url(#p8f0163f70f)" style="fill: #dae8f6"/>
    <path d="M 98.173061 21.692885 
L 99.148303 21.692885 
L 99.148303 3.00024 
L 98.173061 3.00024 
L 98.173061 21.692885 
" clip-path="url(#p8f0163f70f)" style="fill: #d7e6f5"/>
    <path d="M 99.148303 21.692885 
L 100.123546 21.692885 
L 100.123546 3.00024 
L 99.148303 3.00024 
L 99.148303 21.692885 
" clip-path="url(#p8f0163f70f)" style="fill: #4191c6"/>
    <path d="M 100.123546 21.692885 
L 101.098789 21.692885 
L 101.098789 3.00024 
L 100.123546 3.00024 
L 100.123546 21.692885 
" clip-path="url(#p8f0163f70f)" style="fill: #2171b5"/>
    <path d="M 101.098789 21.692885 
L 102.074032 21.692885 
L 102.074032 3.00024 
L 101.098789 3.00024 
L 101.098789 21.692885 
" clip-path="url(#p8f0163f70f)" style="fill: #206fb4"/>
    <path d="M 102.074032 21.692885 
L 103.049274 21.692885 
L 103.049274 3.00024 
L 102.074032 3.00024 
L 102.074032 21.692885 
" clip-path="url(#p8f0163f70f)" style="fill: #2272b6"/>
    <path d="M 103.049274 21.692885 
L 104.024517 21.692885 
L 104.024517 3.00024 
L 103.049274 3.00024 
L 103.049274 21.692885 
" clip-path="url(#p8f0163f70f)" style="fill: #4b98ca"/>
    <path d="M 104.024517 21.692885 
L 104.99976 21.692885 
L 104.99976 3.00024 
L 104.024517 3.00024 
L 104.024517 21.692885 
" clip-path="url(#p8f0163f70f)" style="fill: #d9e7f5"/>
   </g>
   <g id="matplotlib.axis_1"/>
   <g id="matplotlib.axis_2"/>
   <g id="patch_3">
    <path d="M 6.50024 21.692885 
L 6.50024 3.00024 
" style="fill: none; stroke: #000000; stroke-width: 0.8; stroke-linejoin: miter; stroke-linecap: square"/>
   </g>
   <g id="patch_4">
    <path d="M 104.99976 21.692885 
L 104.99976 3.00024 
" style="fill: none; stroke: #000000; stroke-width: 0.8; stroke-linejoin: miter; stroke-linecap: square"/>
   </g>
   <g id="patch_5">
    <path d="M 6.50024 21.692885 
L 104.99976 21.692885 
" style="fill: none; stroke: #000000; stroke-width: 0.8; stroke-linejoin: miter; stroke-linecap: square"/>
   </g>
   <g id="patch_6">
    <path d="M 6.50024 3.00024 
L 104.99976 3.00024 
" style="fill: none; stroke: #000000; stroke-width: 0.8; stroke-linejoin: miter; stroke-linecap: square"/>
   </g>
  </g>
  <g id="axes_2">
   <g id="patch_7">
    <path d="M 6.50024 49.88601 
L 104.99976 49.88601 
L 104.99976 31.193365 
L 6.50024 31.193365 
z
" style="fill: #ffffff"/>
   </g>
   <g id="QuadMesh_2">
    <path d="M 6.50024 49.88601 
L 7.475483 49.88601 
L 7.475483 31.193365 
L 6.50024 31.193365 
L 6.50024 49.88601 
" clip-path="url(#pd36b6aa0dc)" style="fill: #b51318"/>
    <path d="M 7.475483 49.88601 
L 8.450726 49.88601 
L 8.450726 31.193365 
L 7.475483 31.193365 
L 7.475483 49.88601 
" clip-path="url(#pd36b6aa0dc)" style="fill: #cc191e"/>
    <path d="M 8.450726 49.88601 
L 9.425968 49.88601 
L 9.425968 31.193365 
L 8.450726 31.193365 
L 8.450726 49.88601 
" clip-path="url(#pd36b6aa0dc)" style="fill: #f03d2d"/>
    <path d="M 9.425968 49.88601 
L 10.401211 49.88601 
L 10.401211 31.193365 
L 9.425968 31.193365 
L 9.425968 49.88601 
" clip-path="url(#pd36b6aa0dc)" style="fill: #f14432"/>
    <path d="M 10.401211 49.88601 
L 11.376454 49.88601 
L 11.376454 31.193365 
L 10.401211 31.193365 
L 10.401211 49.88601 
" clip-path="url(#pd36b6aa0dc)" style="fill: #d32020"/>
    <path d="M 11.376454 49.88601 
L 12.351697 49.88601 
L 12.351697 31.193365 
L 11.376454 31.193365 
L 11.376454 49.88601 
" clip-path="url(#pd36b6aa0dc)" style="fill: #b81419"/>
    <path d="M 12.351697 49.88601 
L 13.326939 49.88601 
L 13.326939 31.193365 
L 12.351697 31.193365 
L 12.351697 49.88601 
" clip-path="url(#pd36b6aa0dc)" style="fill: #af1117"/>
    <path d="M 13.326939 49.88601 
L 14.302182 49.88601 
L 14.302182 31.193365 
L 13.326939 31.193365 
L 13.326939 49.88601 
" clip-path="url(#pd36b6aa0dc)" style="fill: #b91419"/>
    <path d="M 14.302182 49.88601 
L 15.277425 49.88601 
L 15.277425 31.193365 
L 14.302182 31.193365 
L 14.302182 49.88601 
" clip-path="url(#pd36b6aa0dc)" style="fill: #d52221"/>
    <path d="M 15.277425 49.88601 
L 16.252668 49.88601 
L 16.252668 31.193365 
L 15.277425 31.193365 
L 15.277425 49.88601 
" clip-path="url(#pd36b6aa0dc)" style="fill: #f24633"/>
    <path d="M 16.252668 49.88601 
L 17.22791 49.88601 
L 17.22791 31.193365 
L 16.252668 31.193365 
L 16.252668 49.88601 
" clip-path="url(#pd36b6aa0dc)" style="fill: #f03d2d"/>
    <path d="M 17.22791 49.88601 
L 18.203153 49.88601 
L 18.203153 31.193365 
L 17.22791 31.193365 
L 17.22791 49.88601 
" clip-path="url(#pd36b6aa0dc)" style="fill: #cb181d"/>
    <path d="M 18.203153 49.88601 
L 19.178396 49.88601 
L 19.178396 31.193365 
L 18.203153 31.193365 
L 18.203153 49.88601 
" clip-path="url(#pd36b6aa0dc)" style="fill: #b51318"/>
    <path d="M 19.178396 49.88601 
L 20.153639 49.88601 
L 20.153639 31.193365 
L 19.178396 31.193365 
L 19.178396 49.88601 
" clip-path="url(#pd36b6aa0dc)" style="fill: #b51318"/>
    <path d="M 20.153639 49.88601 
L 21.128882 49.88601 
L 21.128882 31.193365 
L 20.153639 31.193365 
L 20.153639 49.88601 
" clip-path="url(#pd36b6aa0dc)" style="fill: #cb181d"/>
    <path d="M 21.128882 49.88601 
L 22.104124 49.88601 
L 22.104124 31.193365 
L 21.128882 31.193365 
L 21.128882 49.88601 
" clip-path="url(#pd36b6aa0dc)" style="fill: #f03d2d"/>
    <path d="M 22.104124 49.88601 
L 23.079367 49.88601 
L 23.079367 31.193365 
L 22.104124 31.193365 
L 22.104124 49.88601 
" clip-path="url(#pd36b6aa0dc)" style="fill: #f14432"/>
    <path d="M 23.079367 49.88601 
L 24.05461 49.88601 
L 24.05461 31.193365 
L 23.079367 31.193365 
L 23.079367 49.88601 
" clip-path="url(#pd36b6aa0dc)" style="fill: #d32020"/>
    <path d="M 24.05461 49.88601 
L 25.029853 49.88601 
L 25.029853 31.193365 
L 24.05461 31.193365 
L 24.05461 49.88601 
" clip-path="url(#pd36b6aa0dc)" style="fill: #b81419"/>
    <path d="M 25.029853 49.88601 
L 26.005095 49.88601 
L 26.005095 31.193365 
L 25.029853 31.193365 
L 25.029853 49.88601 
" clip-path="url(#pd36b6aa0dc)" style="fill: #af1117"/>
    <path d="M 26.005095 49.88601 
L 26.980338 49.88601 
L 26.980338 31.193365 
L 26.005095 31.193365 
L 26.005095 49.88601 
" clip-path="url(#pd36b6aa0dc)" style="fill: #b81419"/>
    <path d="M 26.980338 49.88601 
L 27.955581 49.88601 
L 27.955581 31.193365 
L 26.980338 31.193365 
L 26.980338 49.88601 
" clip-path="url(#pd36b6aa0dc)" style="fill: #d42121"/>
    <path d="M 27.955581 49.88601 
L 28.930824 49.88601 
L 28.930824 31.193365 
L 27.955581 31.193365 
L 27.955581 49.88601 
" clip-path="url(#pd36b6aa0dc)" style="fill: #f14432"/>
    <path d="M 28.930824 49.88601 
L 29.906067 49.88601 
L 29.906067 31.193365 
L 28.930824 31.193365 
L 28.930824 49.88601 
" clip-path="url(#pd36b6aa0dc)" style="fill: #f03d2d"/>
    <path d="M 29.906067 49.88601 
L 30.881309 49.88601 
L 30.881309 31.193365 
L 29.906067 31.193365 
L 29.906067 49.88601 
" clip-path="url(#pd36b6aa0dc)" style="fill: #cb181d"/>
    <path d="M 30.881309 49.88601 
L 31.856552 49.88601 
L 31.856552 31.193365 
L 30.881309 31.193365 
L 30.881309 49.88601 
" clip-path="url(#pd36b6aa0dc)" style="fill: #b51318"/>
    <path d="M 31.856552 49.88601 
L 32.831795 49.88601 
L 32.831795 31.193365 
L 31.856552 31.193365 
L 31.856552 49.88601 
" clip-path="url(#pd36b6aa0dc)" style="fill: #b61319"/>
    <path d="M 32.831795 49.88601 
L 33.807038 49.88601 
L 33.807038 31.193365 
L 32.831795 31.193365 
L 32.831795 49.88601 
" clip-path="url(#pd36b6aa0dc)" style="fill: #cc191e"/>
    <path d="M 33.807038 49.88601 
L 34.78228 49.88601 
L 34.78228 31.193365 
L 33.807038 31.193365 
L 33.807038 49.88601 
" clip-path="url(#pd36b6aa0dc)" style="fill: #ef3c2c"/>
    <path d="M 34.78228 49.88601 
L 35.757523 49.88601 
L 35.757523 31.193365 
L 34.78228 31.193365 
L 34.78228 49.88601 
" clip-path="url(#pd36b6aa0dc)" style="fill: #ee3a2c"/>
    <path d="M 35.757523 49.88601 
L 36.732766 49.88601 
L 36.732766 31.193365 
L 35.757523 31.193365 
L 35.757523 49.88601 
" clip-path="url(#pd36b6aa0dc)" style="fill: #cc191e"/>
    <path d="M 36.732766 49.88601 
L 37.708009 49.88601 
L 37.708009 31.193365 
L 36.732766 31.193365 
L 36.732766 49.88601 
" clip-path="url(#pd36b6aa0dc)" style="fill: #b61319"/>
    <path d="M 37.708009 49.88601 
L 38.683251 49.88601 
L 38.683251 31.193365 
L 37.708009 31.193365 
L 37.708009 49.88601 
" clip-path="url(#pd36b6aa0dc)" style="fill: #b61319"/>
    <path d="M 38.683251 49.88601 
L 39.658494 49.88601 
L 39.658494 31.193365 
L 38.683251 31.193365 
L 38.683251 49.88601 
" clip-path="url(#pd36b6aa0dc)" style="fill: #cc191e"/>
    <path d="M 39.658494 49.88601 
L 40.633737 49.88601 
L 40.633737 31.193365 
L 39.658494 31.193365 
L 39.658494 49.88601 
" clip-path="url(#pd36b6aa0dc)" style="fill: #f03d2d"/>
    <path d="M 40.633737 49.88601 
L 41.60898 49.88601 
L 41.60898 31.193365 
L 40.633737 31.193365 
L 40.633737 49.88601 
" clip-path="url(#pd36b6aa0dc)" style="fill: #f14331"/>
    <path d="M 41.60898 49.88601 
L 42.584223 49.88601 
L 42.584223 31.193365 
L 41.60898 31.193365 
L 41.60898 49.88601 
" clip-path="url(#pd36b6aa0dc)" style="fill: #d21f20"/>
    <path d="M 42.584223 49.88601 
L 43.559465 49.88601 
L 43.559465 31.193365 
L 42.584223 31.193365 
L 42.584223 49.88601 
" clip-path="url(#pd36b6aa0dc)" style="fill: #b71319"/>
    <path d="M 43.559465 49.88601 
L 44.534708 49.88601 
L 44.534708 31.193365 
L 43.559465 31.193365 
L 43.559465 49.88601 
" clip-path="url(#pd36b6aa0dc)" style="fill: #af1117"/>
    <path d="M 44.534708 49.88601 
L 45.509951 49.88601 
L 45.509951 31.193365 
L 44.534708 31.193365 
L 44.534708 49.88601 
" clip-path="url(#pd36b6aa0dc)" style="fill: #bb141a"/>
    <path d="M 45.509951 49.88601 
L 46.485194 49.88601 
L 46.485194 31.193365 
L 45.509951 31.193365 
L 45.509951 49.88601 
" clip-path="url(#pd36b6aa0dc)" style="fill: #d72322"/>
    <path d="M 46.485194 49.88601 
L 47.460436 49.88601 
L 47.460436 31.193365 
L 46.485194 31.193365 
L 46.485194 49.88601 
" clip-path="url(#pd36b6aa0dc)" style="fill: #f24734"/>
    <path d="M 47.460436 49.88601 
L 48.435679 49.88601 
L 48.435679 31.193365 
L 47.460436 31.193365 
L 47.460436 49.88601 
" clip-path="url(#pd36b6aa0dc)" style="fill: #ef3c2c"/>
    <path d="M 48.435679 49.88601 
L 49.410922 49.88601 
L 49.410922 31.193365 
L 48.435679 31.193365 
L 48.435679 49.88601 
" clip-path="url(#pd36b6aa0dc)" style="fill: #cb181d"/>
    <path d="M 49.410922 49.88601 
L 50.386165 49.88601 
L 50.386165 31.193365 
L 49.410922 31.193365 
L 49.410922 49.88601 
" clip-path="url(#pd36b6aa0dc)" style="fill: #b51318"/>
    <path d="M 50.386165 49.88601 
L 51.361408 49.88601 
L 51.361408 31.193365 
L 50.386165 31.193365 
L 50.386165 49.88601 
" clip-path="url(#pd36b6aa0dc)" style="fill: #b51318"/>
    <path d="M 51.361408 49.88601 
L 52.33665 49.88601 
L 52.33665 31.193365 
L 51.361408 31.193365 
L 51.361408 49.88601 
" clip-path="url(#pd36b6aa0dc)" style="fill: #cb181d"/>
    <path d="M 52.33665 49.88601 
L 53.311893 49.88601 
L 53.311893 31.193365 
L 52.33665 31.193365 
L 52.33665 49.88601 
" clip-path="url(#pd36b6aa0dc)" style="fill: #f03f2e"/>
    <path d="M 53.311893 49.88601 
L 54.287136 49.88601 
L 54.287136 31.193365 
L 53.311893 31.193365 
L 53.311893 49.88601 
" clip-path="url(#pd36b6aa0dc)" style="fill: #f24633"/>
    <path d="M 54.287136 49.88601 
L 55.262379 49.88601 
L 55.262379 31.193365 
L 54.287136 31.193365 
L 54.287136 49.88601 
" clip-path="url(#pd36b6aa0dc)" style="fill: #d42121"/>
    <path d="M 55.262379 49.88601 
L 56.237621 49.88601 
L 56.237621 31.193365 
L 55.262379 31.193365 
L 55.262379 49.88601 
" clip-path="url(#pd36b6aa0dc)" style="fill: #b81419"/>
    <path d="M 56.237621 49.88601 
L 57.212864 49.88601 
L 57.212864 31.193365 
L 56.237621 31.193365 
L 56.237621 49.88601 
" clip-path="url(#pd36b6aa0dc)" style="fill: #ad1117"/>
    <path d="M 57.212864 49.88601 
L 58.188107 49.88601 
L 58.188107 31.193365 
L 57.212864 31.193365 
L 57.212864 49.88601 
" clip-path="url(#pd36b6aa0dc)" style="fill: #b61319"/>
    <path d="M 58.188107 49.88601 
L 59.16335 49.88601 
L 59.16335 31.193365 
L 58.188107 31.193365 
L 58.188107 49.88601 
" clip-path="url(#pd36b6aa0dc)" style="fill: #d11e1f"/>
    <path d="M 59.16335 49.88601 
L 60.138592 49.88601 
L 60.138592 31.193365 
L 59.16335 31.193365 
L 59.16335 49.88601 
" clip-path="url(#pd36b6aa0dc)" style="fill: #f24633"/>
    <path d="M 60.138592 49.88601 
L 61.113835 49.88601 
L 61.113835 31.193365 
L 60.138592 31.193365 
L 60.138592 49.88601 
" clip-path="url(#pd36b6aa0dc)" style="fill: #f24734"/>
    <path d="M 61.113835 49.88601 
L 62.089078 49.88601 
L 62.089078 31.193365 
L 61.113835 31.193365 
L 61.113835 49.88601 
" clip-path="url(#pd36b6aa0dc)" style="fill: #d21f20"/>
    <path d="M 62.089078 49.88601 
L 63.064321 49.88601 
L 63.064321 31.193365 
L 62.089078 31.193365 
L 62.089078 49.88601 
" clip-path="url(#pd36b6aa0dc)" style="fill: #b71319"/>
    <path d="M 63.064321 49.88601 
L 64.039564 49.88601 
L 64.039564 31.193365 
L 63.064321 31.193365 
L 63.064321 49.88601 
" clip-path="url(#pd36b6aa0dc)" style="fill: #ad1117"/>
    <path d="M 64.039564 49.88601 
L 65.014806 49.88601 
L 65.014806 31.193365 
L 64.039564 31.193365 
L 64.039564 49.88601 
" clip-path="url(#pd36b6aa0dc)" style="fill: #b61319"/>
    <path d="M 65.014806 49.88601 
L 65.990049 49.88601 
L 65.990049 31.193365 
L 65.014806 31.193365 
L 65.014806 49.88601 
" clip-path="url(#pd36b6aa0dc)" style="fill: #d11e1f"/>
    <path d="M 65.990049 49.88601 
L 66.965292 49.88601 
L 66.965292 31.193365 
L 65.990049 31.193365 
L 65.990049 49.88601 
" clip-path="url(#pd36b6aa0dc)" style="fill: #f24633"/>
    <path d="M 66.965292 49.88601 
L 67.940535 49.88601 
L 67.940535 31.193365 
L 66.965292 31.193365 
L 66.965292 49.88601 
" clip-path="url(#pd36b6aa0dc)" style="fill: #f24734"/>
    <path d="M 67.940535 49.88601 
L 68.915777 49.88601 
L 68.915777 31.193365 
L 67.940535 31.193365 
L 67.940535 49.88601 
" clip-path="url(#pd36b6aa0dc)" style="fill: #d21f20"/>
    <path d="M 68.915777 49.88601 
L 69.89102 49.88601 
L 69.89102 31.193365 
L 68.915777 31.193365 
L 68.915777 49.88601 
" clip-path="url(#pd36b6aa0dc)" style="fill: #b61319"/>
    <path d="M 69.89102 49.88601 
L 70.866263 49.88601 
L 70.866263 31.193365 
L 69.89102 31.193365 
L 69.89102 49.88601 
" clip-path="url(#pd36b6aa0dc)" style="fill: #ad1117"/>
    <path d="M 70.866263 49.88601 
L 71.841506 49.88601 
L 71.841506 31.193365 
L 70.866263 31.193365 
L 70.866263 49.88601 
" clip-path="url(#pd36b6aa0dc)" style="fill: #b61319"/>
    <path d="M 71.841506 49.88601 
L 72.816749 49.88601 
L 72.816749 31.193365 
L 71.841506 31.193365 
L 71.841506 49.88601 
" clip-path="url(#pd36b6aa0dc)" style="fill: #d11e1f"/>
    <path d="M 72.816749 49.88601 
L 73.791991 49.88601 
L 73.791991 31.193365 
L 72.816749 31.193365 
L 72.816749 49.88601 
" clip-path="url(#pd36b6aa0dc)" style="fill: #f24633"/>
    <path d="M 73.791991 49.88601 
L 74.767234 49.88601 
L 74.767234 31.193365 
L 73.791991 31.193365 
L 73.791991 49.88601 
" clip-path="url(#pd36b6aa0dc)" style="fill: #f24734"/>
    <path d="M 74.767234 49.88601 
L 75.742477 49.88601 
L 75.742477 31.193365 
L 74.767234 31.193365 
L 74.767234 49.88601 
" clip-path="url(#pd36b6aa0dc)" style="fill: #d21f20"/>
    <path d="M 75.742477 49.88601 
L 76.71772 49.88601 
L 76.71772 31.193365 
L 75.742477 31.193365 
L 75.742477 49.88601 
" clip-path="url(#pd36b6aa0dc)" style="fill: #b71319"/>
    <path d="M 76.71772 49.88601 
L 77.692962 49.88601 
L 77.692962 31.193365 
L 76.71772 31.193365 
L 76.71772 49.88601 
" clip-path="url(#pd36b6aa0dc)" style="fill: #af1117"/>
    <path d="M 77.692962 49.88601 
L 78.668205 49.88601 
L 78.668205 31.193365 
L 77.692962 31.193365 
L 77.692962 49.88601 
" clip-path="url(#pd36b6aa0dc)" style="fill: #b91419"/>
    <path d="M 78.668205 49.88601 
L 79.643448 49.88601 
L 79.643448 31.193365 
L 78.668205 31.193365 
L 78.668205 49.88601 
" clip-path="url(#pd36b6aa0dc)" style="fill: #d32020"/>
    <path d="M 79.643448 49.88601 
L 80.618691 49.88601 
L 80.618691 31.193365 
L 79.643448 31.193365 
L 79.643448 49.88601 
" clip-path="url(#pd36b6aa0dc)" style="fill: #f14130"/>
    <path d="M 80.618691 49.88601 
L 81.593933 49.88601 
L 81.593933 31.193365 
L 80.618691 31.193365 
L 80.618691 49.88601 
" clip-path="url(#pd36b6aa0dc)" style="fill: #eb372a"/>
    <path d="M 81.593933 49.88601 
L 82.569176 49.88601 
L 82.569176 31.193365 
L 81.593933 31.193365 
L 81.593933 49.88601 
" clip-path="url(#pd36b6aa0dc)" style="fill: #ca181d"/>
    <path d="M 82.569176 49.88601 
L 83.544419 49.88601 
L 83.544419 31.193365 
L 82.569176 31.193365 
L 82.569176 49.88601 
" clip-path="url(#pd36b6aa0dc)" style="fill: #bb141a"/>
    <path d="M 83.544419 49.88601 
L 84.519662 49.88601 
L 84.519662 31.193365 
L 83.544419 31.193365 
L 83.544419 49.88601 
" clip-path="url(#pd36b6aa0dc)" style="fill: #c2161b"/>
    <path d="M 84.519662 49.88601 
L 85.494905 49.88601 
L 85.494905 31.193365 
L 84.519662 31.193365 
L 84.519662 49.88601 
" clip-path="url(#pd36b6aa0dc)" style="fill: #d92523"/>
    <path d="M 85.494905 49.88601 
L 86.470147 49.88601 
L 86.470147 31.193365 
L 85.494905 31.193365 
L 85.494905 49.88601 
" clip-path="url(#pd36b6aa0dc)" style="fill: #e63328"/>
    <path d="M 86.470147 49.88601 
L 87.44539 49.88601 
L 87.44539 31.193365 
L 86.470147 31.193365 
L 86.470147 49.88601 
" clip-path="url(#pd36b6aa0dc)" style="fill: #d11e1f"/>
    <path d="M 87.44539 49.88601 
L 88.420633 49.88601 
L 88.420633 31.193365 
L 87.44539 31.193365 
L 87.44539 49.88601 
" clip-path="url(#pd36b6aa0dc)" style="fill: #bc141a"/>
    <path d="M 88.420633 49.88601 
L 89.395876 49.88601 
L 89.395876 31.193365 
L 88.420633 31.193365 
L 88.420633 49.88601 
" clip-path="url(#pd36b6aa0dc)" style="fill: #b91419"/>
    <path d="M 89.395876 49.88601 
L 90.371118 49.88601 
L 90.371118 31.193365 
L 89.395876 31.193365 
L 89.395876 49.88601 
" clip-path="url(#pd36b6aa0dc)" style="fill: #ce1a1e"/>
    <path d="M 90.371118 49.88601 
L 91.346361 49.88601 
L 91.346361 31.193365 
L 90.371118 31.193365 
L 90.371118 49.88601 
" clip-path="url(#pd36b6aa0dc)" style="fill: #ef3c2c"/>
    <path d="M 91.346361 49.88601 
L 92.321604 49.88601 
L 92.321604 31.193365 
L 91.346361 31.193365 
L 91.346361 49.88601 
" clip-path="url(#pd36b6aa0dc)" style="fill: #f14130"/>
    <path d="M 92.321604 49.88601 
L 93.296847 49.88601 
L 93.296847 31.193365 
L 92.321604 31.193365 
L 92.321604 49.88601 
" clip-path="url(#pd36b6aa0dc)" style="fill: #d21f20"/>
    <path d="M 93.296847 49.88601 
L 94.27209 49.88601 
L 94.27209 31.193365 
L 93.296847 31.193365 
L 93.296847 49.88601 
" clip-path="url(#pd36b6aa0dc)" style="fill: #b71319"/>
    <path d="M 94.27209 49.88601 
L 95.247332 49.88601 
L 95.247332 31.193365 
L 94.27209 31.193365 
L 94.27209 49.88601 
" clip-path="url(#pd36b6aa0dc)" style="fill: #af1117"/>
    <path d="M 95.247332 49.88601 
L 96.222575 49.88601 
L 96.222575 31.193365 
L 95.247332 31.193365 
L 95.247332 49.88601 
" clip-path="url(#pd36b6aa0dc)" style="fill: #b81419"/>
    <path d="M 96.222575 49.88601 
L 97.197818 49.88601 
L 97.197818 31.193365 
L 96.222575 31.193365 
L 96.222575 49.88601 
" clip-path="url(#pd36b6aa0dc)" style="fill: #d42121"/>
    <path d="M 97.197818 49.88601 
L 98.173061 49.88601 
L 98.173061 31.193365 
L 97.197818 31.193365 
L 97.197818 49.88601 
" clip-path="url(#pd36b6aa0dc)" style="fill: #f34935"/>
    <path d="M 98.173061 49.88601 
L 99.148303 49.88601 
L 99.148303 31.193365 
L 98.173061 31.193365 
L 98.173061 49.88601 
" clip-path="url(#pd36b6aa0dc)" style="fill: #f24633"/>
    <path d="M 99.148303 49.88601 
L 100.123546 49.88601 
L 100.123546 31.193365 
L 99.148303 31.193365 
L 99.148303 49.88601 
" clip-path="url(#pd36b6aa0dc)" style="fill: #d01d1f"/>
    <path d="M 100.123546 49.88601 
L 101.098789 49.88601 
L 101.098789 31.193365 
L 100.123546 31.193365 
L 100.123546 49.88601 
" clip-path="url(#pd36b6aa0dc)" style="fill: #b61319"/>
    <path d="M 101.098789 49.88601 
L 102.074032 49.88601 
L 102.074032 31.193365 
L 101.098789 31.193365 
L 101.098789 49.88601 
" clip-path="url(#pd36b6aa0dc)" style="fill: #ad1117"/>
    <path d="M 102.074032 49.88601 
L 103.049274 49.88601 
L 103.049274 31.193365 
L 102.074032 31.193365 
L 102.074032 49.88601 
" clip-path="url(#pd36b6aa0dc)" style="fill: #b71319"/>
    <path d="M 103.049274 49.88601 
L 104.024517 49.88601 
L 104.024517 31.193365 
L 103.049274 31.193365 
L 103.049274 49.88601 
" clip-path="url(#pd36b6aa0dc)" style="fill: #d32020"/>
    <path d="M 104.024517 49.88601 
L 104.99976 49.88601 
L 104.99976 31.193365 
L 104.024517 31.193365 
L 104.024517 49.88601 
" clip-path="url(#pd36b6aa0dc)" style="fill: #f34935"/>
   </g>
   <g id="matplotlib.axis_3">
    <g id="text_1">
     <!-- space $x$ -->
     <g transform="translate(32.65 66.47976)scale(0.12 -0.12)">
      <defs>
       <path id="DejaVuSans-73" d="M 2834 3397 
L 2834 2853 
Q 2591 2978 2328 3040 
Q 2066 3103 1784 3103 
Q 1356 3103 1142 2972 
Q 928 2841 928 2578 
Q 928 2378 1081 2264 
Q 1234 2150 1697 2047 
L 1894 2003 
Q 2506 1872 2764 1633 
Q 3022 1394 3022 966 
Q 3022 478 2636 193 
Q 2250 -91 1575 -91 
Q 1294 -91 989 -36 
Q 684 19 347 128 
L 347 722 
Q 666 556 975 473 
Q 1284 391 1588 391 
Q 1994 391 2212 530 
Q 2431 669 2431 922 
Q 2431 1156 2273 1281 
Q 2116 1406 1581 1522 
L 1381 1569 
Q 847 1681 609 1914 
Q 372 2147 372 2553 
Q 372 3047 722 3315 
Q 1072 3584 1716 3584 
Q 2034 3584 2315 3537 
Q 2597 3491 2834 3397 
z
" transform="scale(0.015625)"/>
       <path id="DejaVuSans-70" d="M 1159 525 
L 1159 -1331 
L 581 -1331 
L 581 3500 
L 1159 3500 
L 1159 2969 
Q 1341 3281 1617 3432 
Q 1894 3584 2278 3584 
Q 2916 3584 3314 3078 
Q 3713 2572 3713 1747 
Q 3713 922 3314 415 
Q 2916 -91 2278 -91 
Q 1894 -91 1617 61 
Q 1341 213 1159 525 
z
M 3116 1747 
Q 3116 2381 2855 2742 
Q 2594 3103 2138 3103 
Q 1681 3103 1420 2742 
Q 1159 2381 1159 1747 
Q 1159 1113 1420 752 
Q 1681 391 2138 391 
Q 2594 391 2855 752 
Q 3116 1113 3116 1747 
z
" transform="scale(0.015625)"/>
       <path id="DejaVuSans-61" d="M 2194 1759 
Q 1497 1759 1228 1600 
Q 959 1441 959 1056 
Q 959 750 1161 570 
Q 1363 391 1709 391 
Q 2188 391 2477 730 
Q 2766 1069 2766 1631 
L 2766 1759 
L 2194 1759 
z
M 3341 1997 
L 3341 0 
L 2766 0 
L 2766 531 
Q 2569 213 2275 61 
Q 1981 -91 1556 -91 
Q 1019 -91 701 211 
Q 384 513 384 1019 
Q 384 1609 779 1909 
Q 1175 2209 1959 2209 
L 2766 2209 
L 2766 2266 
Q 2766 2663 2505 2880 
Q 2244 3097 1772 3097 
Q 1472 3097 1187 3025 
Q 903 2953 641 2809 
L 641 3341 
Q 956 3463 1253 3523 
Q 1550 3584 1831 3584 
Q 2591 3584 2966 3190 
Q 3341 2797 3341 1997 
z
" transform="scale(0.015625)"/>
       <path id="DejaVuSans-63" d="M 3122 3366 
L 3122 2828 
Q 2878 2963 2633 3030 
Q 2388 3097 2138 3097 
Q 1578 3097 1268 2742 
Q 959 2388 959 1747 
Q 959 1106 1268 751 
Q 1578 397 2138 397 
Q 2388 397 2633 464 
Q 2878 531 3122 666 
L 3122 134 
Q 2881 22 2623 -34 
Q 2366 -91 2075 -91 
Q 1284 -91 818 406 
Q 353 903 353 1747 
Q 353 2603 823 3093 
Q 1294 3584 2113 3584 
Q 2378 3584 2631 3529 
Q 2884 3475 3122 3366 
z
" transform="scale(0.015625)"/>
       <path id="DejaVuSans-65" d="M 3597 1894 
L 3597 1613 
L 953 1613 
Q 991 1019 1311 708 
Q 1631 397 2203 397 
Q 2534 397 2845 478 
Q 3156 559 3463 722 
L 3463 178 
Q 3153 47 2828 -22 
Q 2503 -91 2169 -91 
Q 1331 -91 842 396 
Q 353 884 353 1716 
Q 353 2575 817 3079 
Q 1281 3584 2069 3584 
Q 2775 3584 3186 3129 
Q 3597 2675 3597 1894 
z
M 3022 2063 
Q 3016 2534 2758 2815 
Q 2500 3097 2075 3097 
Q 1594 3097 1305 2825 
Q 1016 2553 972 2059 
L 3022 2063 
z
" transform="scale(0.015625)"/>
       <path id="DejaVuSans-20" transform="scale(0.015625)"/>
       <path id="DejaVuSans-Oblique-78" d="M 3841 3500 
L 2234 1784 
L 3219 0 
L 2559 0 
L 1819 1388 
L 531 0 
L -166 0 
L 1556 1844 
L 641 3500 
L 1300 3500 
L 1972 2234 
L 3144 3500 
L 3841 3500 
z
" transform="scale(0.015625)"/>
      </defs>
      <use xlink:href="#DejaVuSans-73"/>
      <use xlink:href="#DejaVuSans-70" transform="translate(52.099609 0)"/>
      <use xlink:href="#DejaVuSans-61" transform="translate(115.576172 0)"/>
      <use xlink:href="#DejaVuSans-63" transform="translate(176.855469 0)"/>
      <use xlink:href="#DejaVuSans-65" transform="translate(231.835938 0)"/>
      <use xlink:href="#DejaVuSans-20" transform="translate(293.359375 0)"/>
      <use xlink:href="#DejaVuSans-Oblique-78" transform="translate(325.146484 0)"/>
     </g>
    </g>
   </g>
   <g id="matplotlib.axis_4"/>
   <g id="patch_8">
    <path d="M 6.50024 49.88601 
L 6.50024 31.193365 
" style="fill: none; stroke: #000000; stroke-width: 0.8; stroke-linejoin: miter; stroke-linecap: square"/>
   </g>
   <g id="patch_9">
    <path d="M 104.99976 49.88601 
L 104.99976 31.193365 
" style="fill: none; stroke: #000000; stroke-width: 0.8; stroke-linejoin: miter; stroke-linecap: square"/>
   </g>
   <g id="patch_10">
    <path d="M 6.50024 49.88601 
L 104.99976 49.88601 
" style="fill: none; stroke: #000000; stroke-width: 0.8; stroke-linejoin: miter; stroke-linecap: square"/>
   </g>
   <g id="patch_11">
    <path d="M 6.50024 31.193365 
L 104.99976 31.193365 
" style="fill: none; stroke: #000000; stroke-width: 0.8; stroke-linejoin: miter; stroke-linecap: square"/>
   </g>
  </g>
 </g>
 <defs>
  <clipPath id="p8f0163f70f">
   <rect x="6.50024" y="3.00024" width="98.49952" height="18.692645"/>
  </clipPath>
  <clipPath id="pd36b6aa0dc">
   <rect x="6.50024" y="31.193365" width="98.49952" height="18.692645"/>
  </clipPath>
 </defs>
</svg>
