<?xml version="1.0" encoding="utf-8" standalone="no"?>
<!DOCTYPE svg PUBLIC "-//W3C//DTD SVG 1.1//EN"
  "http://www.w3.org/Graphics/SVG/1.1/DTD/svg11.dtd">
<svg xmlns:xlink="http://www.w3.org/1999/xlink" width="108pt" height="72pt" viewBox="0 0 108 72" xmlns="http://www.w3.org/2000/svg" version="1.1">
 <metadata>
  <rdf:RDF xmlns:dc="http://purl.org/dc/elements/1.1/" xmlns:cc="http://creativecommons.org/ns#" xmlns:rdf="http://www.w3.org/1999/02/22-rdf-syntax-ns#">
   <cc:Work>
    <dc:type rdf:resource="http://purl.org/dc/dcmitype/StillImage"/>
    <dc:date>2023-02-09T10:58:23.230517</dc:date>
    <dc:format>image/svg+xml</dc:format>
    <dc:creator>
     <cc:Agent>
      <dc:title>Matplotlib v3.5.3, https://matplotlib.org/</dc:title>
     </cc:Agent>
    </dc:creator>
   </cc:Work>
  </rdf:RDF>
 </metadata>
 <defs>
  <style type="text/css">*{stroke-linejoin: round; stroke-linecap: butt}</style>
 </defs>
 <g id="figure_1">
  <g id="patch_1">
   <path d="M 0 72 
L 108 72 
L 108 0 
L 0 0 
z
" style="fill: #ffffff"/>
  </g>
  <g id="axes_1">
   <g id="patch_2">
    <path d="M 6.50024 21.692885 
L 104.99976 21.692885 
L 104.99976 3.00024 
L 6.50024 3.00024 
z
" style="fill: #ffffff"/>
   </g>
   <g id="QuadMesh_1">
    <path d="M 6.50024 21.692885 
L 7.059896 21.692885 
L 7.059896 3.00024 
L 6.50024 3.00024 
L 6.50024 21.692885 
" clip-path="url(#p3f129b3b7c)" style="fill: #f7fbff"/>
    <path d="M 7.059896 21.692885 
L 7.619553 21.692885 
L 7.619553 3.00024 
L 7.059896 3.00024 
L 7.059896 21.692885 
" clip-path="url(#p3f129b3b7c)" style="fill: #f7fbff"/>
    <path d="M 7.619553 21.692885 
L 8.179209 21.692885 
L 8.179209 3.00024 
L 7.619553 3.00024 
L 7.619553 21.692885 
" clip-path="url(#p3f129b3b7c)" style="fill: #08306b"/>
    <path d="M 8.179209 21.692885 
L 8.738865 21.692885 
L 8.738865 3.00024 
L 8.179209 3.00024 
L 8.179209 21.692885 
" clip-path="url(#p3f129b3b7c)" style="fill: #08306b"/>
    <path d="M 8.738865 21.692885 
L 9.298522 21.692885 
L 9.298522 3.00024 
L 8.738865 3.00024 
L 8.738865 21.692885 
" clip-path="url(#p3f129b3b7c)" style="fill: #08306b"/>
    <path d="M 9.298522 21.692885 
L 9.858178 21.692885 
L 9.858178 3.00024 
L 9.298522 3.00024 
L 9.298522 21.692885 
" clip-path="url(#p3f129b3b7c)" style="fill: #f7fbff"/>
    <path d="M 9.858178 21.692885 
L 10.417835 21.692885 
L 10.417835 3.00024 
L 9.858178 3.00024 
L 9.858178 21.692885 
" clip-path="url(#p3f129b3b7c)" style="fill: #f7fbff"/>
    <path d="M 10.417835 21.692885 
L 10.977491 21.692885 
L 10.977491 3.00024 
L 10.417835 3.00024 
L 10.417835 21.692885 
" clip-path="url(#p3f129b3b7c)" style="fill: #08306b"/>
    <path d="M 10.977491 21.692885 
L 11.537147 21.692885 
L 11.537147 3.00024 
L 10.977491 3.00024 
L 10.977491 21.692885 
" clip-path="url(#p3f129b3b7c)" style="fill: #f7fbff"/>
    <path d="M 11.537147 21.692885 
L 12.096804 21.692885 
L 12.096804 3.00024 
L 11.537147 3.00024 
L 11.537147 21.692885 
" clip-path="url(#p3f129b3b7c)" style="fill: #08306b"/>
    <path d="M 12.096804 21.692885 
L 12.65646 21.692885 
L 12.65646 3.00024 
L 12.096804 3.00024 
L 12.096804 21.692885 
" clip-path="url(#p3f129b3b7c)" style="fill: #08306b"/>
    <path d="M 12.65646 21.692885 
L 13.216116 21.692885 
L 13.216116 3.00024 
L 12.65646 3.00024 
L 12.65646 21.692885 
" clip-path="url(#p3f129b3b7c)" style="fill: #f7fbff"/>
    <path d="M 13.216116 21.692885 
L 13.775773 21.692885 
L 13.775773 3.00024 
L 13.216116 3.00024 
L 13.216116 21.692885 
" clip-path="url(#p3f129b3b7c)" style="fill: #f7fbff"/>
    <path d="M 13.775773 21.692885 
L 14.335429 21.692885 
L 14.335429 3.00024 
L 13.775773 3.00024 
L 13.775773 21.692885 
" clip-path="url(#p3f129b3b7c)" style="fill: #f7fbff"/>
    <path d="M 14.335429 21.692885 
L 14.895085 21.692885 
L 14.895085 3.00024 
L 14.335429 3.00024 
L 14.335429 21.692885 
" clip-path="url(#p3f129b3b7c)" style="fill: #f6faff"/>
    <path d="M 14.895085 21.692885 
L 15.454742 21.692885 
L 15.454742 3.00024 
L 14.895085 3.00024 
L 14.895085 21.692885 
" clip-path="url(#p3f129b3b7c)" style="fill: #08306b"/>
    <path d="M 15.454742 21.692885 
L 16.014398 21.692885 
L 16.014398 3.00024 
L 15.454742 3.00024 
L 15.454742 21.692885 
" clip-path="url(#p3f129b3b7c)" style="fill: #08306b"/>
    <path d="M 16.014398 21.692885 
L 16.574055 21.692885 
L 16.574055 3.00024 
L 16.014398 3.00024 
L 16.014398 21.692885 
" clip-path="url(#p3f129b3b7c)" style="fill: #08306b"/>
    <path d="M 16.574055 21.692885 
L 17.133711 21.692885 
L 17.133711 3.00024 
L 16.574055 3.00024 
L 16.574055 21.692885 
" clip-path="url(#p3f129b3b7c)" style="fill: #08306b"/>
    <path d="M 17.133711 21.692885 
L 17.693367 21.692885 
L 17.693367 3.00024 
L 17.133711 3.00024 
L 17.133711 21.692885 
" clip-path="url(#p3f129b3b7c)" style="fill: #f5fafe"/>
    <path d="M 17.693367 21.692885 
L 18.253024 21.692885 
L 18.253024 3.00024 
L 17.693367 3.00024 
L 17.693367 21.692885 
" clip-path="url(#p3f129b3b7c)" style="fill: #08306b"/>
    <path d="M 18.253024 21.692885 
L 18.81268 21.692885 
L 18.81268 3.00024 
L 18.253024 3.00024 
L 18.253024 21.692885 
" clip-path="url(#p3f129b3b7c)" style="fill: #08306b"/>
    <path d="M 18.81268 21.692885 
L 19.372336 21.692885 
L 19.372336 3.00024 
L 18.81268 3.00024 
L 18.81268 21.692885 
" clip-path="url(#p3f129b3b7c)" style="fill: #08306b"/>
    <path d="M 19.372336 21.692885 
L 19.931993 21.692885 
L 19.931993 3.00024 
L 19.372336 3.00024 
L 19.372336 21.692885 
" clip-path="url(#p3f129b3b7c)" style="fill: #f7fbff"/>
    <path d="M 19.931993 21.692885 
L 20.491649 21.692885 
L 20.491649 3.00024 
L 19.931993 3.00024 
L 19.931993 21.692885 
" clip-path="url(#p3f129b3b7c)" style="fill: #f7fbff"/>
    <path d="M 20.491649 21.692885 
L 21.051305 21.692885 
L 21.051305 3.00024 
L 20.491649 3.00024 
L 20.491649 21.692885 
" clip-path="url(#p3f129b3b7c)" style="fill: #f7fbff"/>
    <path d="M 21.051305 21.692885 
L 21.610962 21.692885 
L 21.610962 3.00024 
L 21.051305 3.00024 
L 21.051305 21.692885 
" clip-path="url(#p3f129b3b7c)" style="fill: #f7fbff"/>
    <path d="M 21.610962 21.692885 
L 22.170618 21.692885 
L 22.170618 3.00024 
L 21.610962 3.00024 
L 21.610962 21.692885 
" clip-path="url(#p3f129b3b7c)" style="fill: #f7fbff"/>
    <path d="M 22.170618 21.692885 
L 22.730275 21.692885 
L 22.730275 3.00024 
L 22.170618 3.00024 
L 22.170618 21.692885 
" clip-path="url(#p3f129b3b7c)" style="fill: #08306b"/>
    <path d="M 22.730275 21.692885 
L 23.289931 21.692885 
L 23.289931 3.00024 
L 22.730275 3.00024 
L 22.730275 21.692885 
" clip-path="url(#p3f129b3b7c)" style="fill: #08306b"/>
    <path d="M 23.289931 21.692885 
L 23.849587 21.692885 
L 23.849587 3.00024 
L 23.289931 3.00024 
L 23.289931 21.692885 
" clip-path="url(#p3f129b3b7c)" style="fill: #08306b"/>
    <path d="M 23.849587 21.692885 
L 24.409244 21.692885 
L 24.409244 3.00024 
L 23.849587 3.00024 
L 23.849587 21.692885 
" clip-path="url(#p3f129b3b7c)" style="fill: #f7fbff"/>
    <path d="M 24.409244 21.692885 
L 24.9689 21.692885 
L 24.9689 3.00024 
L 24.409244 3.00024 
L 24.409244 21.692885 
" clip-path="url(#p3f129b3b7c)" style="fill: #f7fbff"/>
    <path d="M 24.9689 21.692885 
L 25.528556 21.692885 
L 25.528556 3.00024 
L 24.9689 3.00024 
L 24.9689 21.692885 
" clip-path="url(#p3f129b3b7c)" style="fill: #08306b"/>
    <path d="M 25.528556 21.692885 
L 26.088213 21.692885 
L 26.088213 3.00024 
L 25.528556 3.00024 
L 25.528556 21.692885 
" clip-path="url(#p3f129b3b7c)" style="fill: #08306b"/>
    <path d="M 26.088213 21.692885 
L 26.647869 21.692885 
L 26.647869 3.00024 
L 26.088213 3.00024 
L 26.088213 21.692885 
" clip-path="url(#p3f129b3b7c)" style="fill: #08306b"/>
    <path d="M 26.647869 21.692885 
L 27.207525 21.692885 
L 27.207525 3.00024 
L 26.647869 3.00024 
L 26.647869 21.692885 
" clip-path="url(#p3f129b3b7c)" style="fill: #08306b"/>
    <path d="M 27.207525 21.692885 
L 27.767182 21.692885 
L 27.767182 3.00024 
L 27.207525 3.00024 
L 27.207525 21.692885 
" clip-path="url(#p3f129b3b7c)" style="fill: #f7fbff"/>
    <path d="M 27.767182 21.692885 
L 28.326838 21.692885 
L 28.326838 3.00024 
L 27.767182 3.00024 
L 27.767182 21.692885 
" clip-path="url(#p3f129b3b7c)" style="fill: #f7fbff"/>
    <path d="M 28.326838 21.692885 
L 28.886495 21.692885 
L 28.886495 3.00024 
L 28.326838 3.00024 
L 28.326838 21.692885 
" clip-path="url(#p3f129b3b7c)" style="fill: #f7fbff"/>
    <path d="M 28.886495 21.692885 
L 29.446151 21.692885 
L 29.446151 3.00024 
L 28.886495 3.00024 
L 28.886495 21.692885 
" clip-path="url(#p3f129b3b7c)" style="fill: #f7fbff"/>
    <path d="M 29.446151 21.692885 
L 30.005807 21.692885 
L 30.005807 3.00024 
L 29.446151 3.00024 
L 29.446151 21.692885 
" clip-path="url(#p3f129b3b7c)" style="fill: #f7fbff"/>
    <path d="M 30.005807 21.692885 
L 30.565464 21.692885 
L 30.565464 3.00024 
L 30.005807 3.00024 
L 30.005807 21.692885 
" clip-path="url(#p3f129b3b7c)" style="fill: #08306b"/>
    <path d="M 30.565464 21.692885 
L 31.12512 21.692885 
L 31.12512 3.00024 
L 30.565464 3.00024 
L 30.565464 21.692885 
" clip-path="url(#p3f129b3b7c)" style="fill: #08306b"/>
    <path d="M 31.12512 21.692885 
L 31.684776 21.692885 
L 31.684776 3.00024 
L 31.12512 3.00024 
L 31.12512 21.692885 
" clip-path="url(#p3f129b3b7c)" style="fill: #08306b"/>
    <path d="M 31.684776 21.692885 
L 32.244433 21.692885 
L 32.244433 3.00024 
L 31.684776 3.00024 
L 31.684776 21.692885 
" clip-path="url(#p3f129b3b7c)" style="fill: #08306b"/>
    <path d="M 32.244433 21.692885 
L 32.804089 21.692885 
L 32.804089 3.00024 
L 32.244433 3.00024 
L 32.244433 21.692885 
" clip-path="url(#p3f129b3b7c)" style="fill: #f7fbff"/>
    <path d="M 32.804089 21.692885 
L 33.363745 21.692885 
L 33.363745 3.00024 
L 32.804089 3.00024 
L 32.804089 21.692885 
" clip-path="url(#p3f129b3b7c)" style="fill: #08306b"/>
    <path d="M 33.363745 21.692885 
L 33.923402 21.692885 
L 33.923402 3.00024 
L 33.363745 3.00024 
L 33.363745 21.692885 
" clip-path="url(#p3f129b3b7c)" style="fill: #08306b"/>
    <path d="M 33.923402 21.692885 
L 34.483058 21.692885 
L 34.483058 3.00024 
L 33.923402 3.00024 
L 33.923402 21.692885 
" clip-path="url(#p3f129b3b7c)" style="fill: #08306b"/>
    <path d="M 34.483058 21.692885 
L 35.042715 21.692885 
L 35.042715 3.00024 
L 34.483058 3.00024 
L 34.483058 21.692885 
" clip-path="url(#p3f129b3b7c)" style="fill: #f7fbff"/>
    <path d="M 35.042715 21.692885 
L 35.602371 21.692885 
L 35.602371 3.00024 
L 35.042715 3.00024 
L 35.042715 21.692885 
" clip-path="url(#p3f129b3b7c)" style="fill: #f7fbff"/>
    <path d="M 35.602371 21.692885 
L 36.162027 21.692885 
L 36.162027 3.00024 
L 35.602371 3.00024 
L 35.602371 21.692885 
" clip-path="url(#p3f129b3b7c)" style="fill: #f7fbff"/>
    <path d="M 36.162027 21.692885 
L 36.721684 21.692885 
L 36.721684 3.00024 
L 36.162027 3.00024 
L 36.162027 21.692885 
" clip-path="url(#p3f129b3b7c)" style="fill: #f6faff"/>
    <path d="M 36.721684 21.692885 
L 37.28134 21.692885 
L 37.28134 3.00024 
L 36.721684 3.00024 
L 36.721684 21.692885 
" clip-path="url(#p3f129b3b7c)" style="fill: #08306b"/>
    <path d="M 37.28134 21.692885 
L 37.840996 21.692885 
L 37.840996 3.00024 
L 37.28134 3.00024 
L 37.28134 21.692885 
" clip-path="url(#p3f129b3b7c)" style="fill: #08306b"/>
    <path d="M 37.840996 21.692885 
L 38.400653 21.692885 
L 38.400653 3.00024 
L 37.840996 3.00024 
L 37.840996 21.692885 
" clip-path="url(#p3f129b3b7c)" style="fill: #08306b"/>
    <path d="M 38.400653 21.692885 
L 38.960309 21.692885 
L 38.960309 3.00024 
L 38.400653 3.00024 
L 38.400653 21.692885 
" clip-path="url(#p3f129b3b7c)" style="fill: #08306b"/>
    <path d="M 38.960309 21.692885 
L 39.519965 21.692885 
L 39.519965 3.00024 
L 38.960309 3.00024 
L 38.960309 21.692885 
" clip-path="url(#p3f129b3b7c)" style="fill: #f6faff"/>
    <path d="M 39.519965 21.692885 
L 40.079622 21.692885 
L 40.079622 3.00024 
L 39.519965 3.00024 
L 39.519965 21.692885 
" clip-path="url(#p3f129b3b7c)" style="fill: #08306b"/>
    <path d="M 40.079622 21.692885 
L 40.639278 21.692885 
L 40.639278 3.00024 
L 40.079622 3.00024 
L 40.079622 21.692885 
" clip-path="url(#p3f129b3b7c)" style="fill: #08306b"/>
    <path d="M 40.639278 21.692885 
L 41.198935 21.692885 
L 41.198935 3.00024 
L 40.639278 3.00024 
L 40.639278 21.692885 
" clip-path="url(#p3f129b3b7c)" style="fill: #08306b"/>
    <path d="M 41.198935 21.692885 
L 41.758591 21.692885 
L 41.758591 3.00024 
L 41.198935 3.00024 
L 41.198935 21.692885 
" clip-path="url(#p3f129b3b7c)" style="fill: #f7fbff"/>
    <path d="M 41.758591 21.692885 
L 42.318247 21.692885 
L 42.318247 3.00024 
L 41.758591 3.00024 
L 41.758591 21.692885 
" clip-path="url(#p3f129b3b7c)" style="fill: #f7fbff"/>
    <path d="M 42.318247 21.692885 
L 42.877904 21.692885 
L 42.877904 3.00024 
L 42.318247 3.00024 
L 42.318247 21.692885 
" clip-path="url(#p3f129b3b7c)" style="fill: #f7fbff"/>
    <path d="M 42.877904 21.692885 
L 43.43756 21.692885 
L 43.43756 3.00024 
L 42.877904 3.00024 
L 42.877904 21.692885 
" clip-path="url(#p3f129b3b7c)" style="fill: #f7fbff"/>
    <path d="M 43.43756 21.692885 
L 43.997216 21.692885 
L 43.997216 3.00024 
L 43.43756 3.00024 
L 43.43756 21.692885 
" clip-path="url(#p3f129b3b7c)" style="fill: #f6faff"/>
    <path d="M 43.997216 21.692885 
L 44.556873 21.692885 
L 44.556873 3.00024 
L 43.997216 3.00024 
L 43.997216 21.692885 
" clip-path="url(#p3f129b3b7c)" style="fill: #08306b"/>
    <path d="M 44.556873 21.692885 
L 45.116529 21.692885 
L 45.116529 3.00024 
L 44.556873 3.00024 
L 44.556873 21.692885 
" clip-path="url(#p3f129b3b7c)" style="fill: #08306b"/>
    <path d="M 45.116529 21.692885 
L 45.676185 21.692885 
L 45.676185 3.00024 
L 45.116529 3.00024 
L 45.116529 21.692885 
" clip-path="url(#p3f129b3b7c)" style="fill: #08306b"/>
    <path d="M 45.676185 21.692885 
L 46.235842 21.692885 
L 46.235842 3.00024 
L 45.676185 3.00024 
L 45.676185 21.692885 
" clip-path="url(#p3f129b3b7c)" style="fill: #08306b"/>
    <path d="M 46.235842 21.692885 
L 46.795498 21.692885 
L 46.795498 3.00024 
L 46.235842 3.00024 
L 46.235842 21.692885 
" clip-path="url(#p3f129b3b7c)" style="fill: #08306b"/>
    <path d="M 46.795498 21.692885 
L 47.355155 21.692885 
L 47.355155 3.00024 
L 46.795498 3.00024 
L 46.795498 21.692885 
" clip-path="url(#p3f129b3b7c)" style="fill: #08306b"/>
    <path d="M 47.355155 21.692885 
L 47.914811 21.692885 
L 47.914811 3.00024 
L 47.355155 3.00024 
L 47.355155 21.692885 
" clip-path="url(#p3f129b3b7c)" style="fill: #08306b"/>
    <path d="M 47.914811 21.692885 
L 48.474467 21.692885 
L 48.474467 3.00024 
L 47.914811 3.00024 
L 47.914811 21.692885 
" clip-path="url(#p3f129b3b7c)" style="fill: #f6faff"/>
    <path d="M 48.474467 21.692885 
L 49.034124 21.692885 
L 49.034124 3.00024 
L 48.474467 3.00024 
L 48.474467 21.692885 
" clip-path="url(#p3f129b3b7c)" style="fill: #f7fbff"/>
    <path d="M 49.034124 21.692885 
L 49.59378 21.692885 
L 49.59378 3.00024 
L 49.034124 3.00024 
L 49.034124 21.692885 
" clip-path="url(#p3f129b3b7c)" style="fill: #f7fbff"/>
    <path d="M 49.59378 21.692885 
L 50.153436 21.692885 
L 50.153436 3.00024 
L 49.59378 3.00024 
L 49.59378 21.692885 
" clip-path="url(#p3f129b3b7c)" style="fill: #f7fbff"/>
    <path d="M 50.153436 21.692885 
L 50.713093 21.692885 
L 50.713093 3.00024 
L 50.153436 3.00024 
L 50.153436 21.692885 
" clip-path="url(#p3f129b3b7c)" style="fill: #f6faff"/>
    <path d="M 50.713093 21.692885 
L 51.272749 21.692885 
L 51.272749 3.00024 
L 50.713093 3.00024 
L 50.713093 21.692885 
" clip-path="url(#p3f129b3b7c)" style="fill: #08306b"/>
    <path d="M 51.272749 21.692885 
L 51.832405 21.692885 
L 51.832405 3.00024 
L 51.272749 3.00024 
L 51.272749 21.692885 
" clip-path="url(#p3f129b3b7c)" style="fill: #08306b"/>
    <path d="M 51.832405 21.692885 
L 52.392062 21.692885 
L 52.392062 3.00024 
L 51.832405 3.00024 
L 51.832405 21.692885 
" clip-path="url(#p3f129b3b7c)" style="fill: #08306b"/>
    <path d="M 52.392062 21.692885 
L 52.951718 21.692885 
L 52.951718 3.00024 
L 52.392062 3.00024 
L 52.392062 21.692885 
" clip-path="url(#p3f129b3b7c)" style="fill: #08306b"/>
    <path d="M 52.951718 21.692885 
L 53.511375 21.692885 
L 53.511375 3.00024 
L 52.951718 3.00024 
L 52.951718 21.692885 
" clip-path="url(#p3f129b3b7c)" style="fill: #08306b"/>
    <path d="M 53.511375 21.692885 
L 54.071031 21.692885 
L 54.071031 3.00024 
L 53.511375 3.00024 
L 53.511375 21.692885 
" clip-path="url(#p3f129b3b7c)" style="fill: #08306b"/>
    <path d="M 54.071031 21.692885 
L 54.630687 21.692885 
L 54.630687 3.00024 
L 54.071031 3.00024 
L 54.071031 21.692885 
" clip-path="url(#p3f129b3b7c)" style="fill: #08306b"/>
    <path d="M 54.630687 21.692885 
L 55.190344 21.692885 
L 55.190344 3.00024 
L 54.630687 3.00024 
L 54.630687 21.692885 
" clip-path="url(#p3f129b3b7c)" style="fill: #f6faff"/>
    <path d="M 55.190344 21.692885 
L 55.75 21.692885 
L 55.75 3.00024 
L 55.190344 3.00024 
L 55.190344 21.692885 
" clip-path="url(#p3f129b3b7c)" style="fill: #f7fbff"/>
    <path d="M 55.75 21.692885 
L 56.309656 21.692885 
L 56.309656 3.00024 
L 55.75 3.00024 
L 55.75 21.692885 
" clip-path="url(#p3f129b3b7c)" style="fill: #f7fbff"/>
    <path d="M 56.309656 21.692885 
L 56.869313 21.692885 
L 56.869313 3.00024 
L 56.309656 3.00024 
L 56.309656 21.692885 
" clip-path="url(#p3f129b3b7c)" style="fill: #f7fbff"/>
    <path d="M 56.869313 21.692885 
L 57.428969 21.692885 
L 57.428969 3.00024 
L 56.869313 3.00024 
L 56.869313 21.692885 
" clip-path="url(#p3f129b3b7c)" style="fill: #f7fbff"/>
    <path d="M 57.428969 21.692885 
L 57.988625 21.692885 
L 57.988625 3.00024 
L 57.428969 3.00024 
L 57.428969 21.692885 
" clip-path="url(#p3f129b3b7c)" style="fill: #08306b"/>
    <path d="M 57.988625 21.692885 
L 58.548282 21.692885 
L 58.548282 3.00024 
L 57.988625 3.00024 
L 57.988625 21.692885 
" clip-path="url(#p3f129b3b7c)" style="fill: #08306b"/>
    <path d="M 58.548282 21.692885 
L 59.107938 21.692885 
L 59.107938 3.00024 
L 58.548282 3.00024 
L 58.548282 21.692885 
" clip-path="url(#p3f129b3b7c)" style="fill: #08306b"/>
    <path d="M 59.107938 21.692885 
L 59.667595 21.692885 
L 59.667595 3.00024 
L 59.107938 3.00024 
L 59.107938 21.692885 
" clip-path="url(#p3f129b3b7c)" style="fill: #08306b"/>
    <path d="M 59.667595 21.692885 
L 60.227251 21.692885 
L 60.227251 3.00024 
L 59.667595 3.00024 
L 59.667595 21.692885 
" clip-path="url(#p3f129b3b7c)" style="fill: #08306b"/>
    <path d="M 60.227251 21.692885 
L 60.786907 21.692885 
L 60.786907 3.00024 
L 60.227251 3.00024 
L 60.227251 21.692885 
" clip-path="url(#p3f129b3b7c)" style="fill: #08306b"/>
    <path d="M 60.786907 21.692885 
L 61.346564 21.692885 
L 61.346564 3.00024 
L 60.786907 3.00024 
L 60.786907 21.692885 
" clip-path="url(#p3f129b3b7c)" style="fill: #08306b"/>
    <path d="M 61.346564 21.692885 
L 61.90622 21.692885 
L 61.90622 3.00024 
L 61.346564 3.00024 
L 61.346564 21.692885 
" clip-path="url(#p3f129b3b7c)" style="fill: #f7fbff"/>
    <path d="M 61.90622 21.692885 
L 62.465876 21.692885 
L 62.465876 3.00024 
L 61.90622 3.00024 
L 61.90622 21.692885 
" clip-path="url(#p3f129b3b7c)" style="fill: #f7fbff"/>
    <path d="M 62.465876 21.692885 
L 63.025533 21.692885 
L 63.025533 3.00024 
L 62.465876 3.00024 
L 62.465876 21.692885 
" clip-path="url(#p3f129b3b7c)" style="fill: #f7fbff"/>
    <path d="M 63.025533 21.692885 
L 63.585189 21.692885 
L 63.585189 3.00024 
L 63.025533 3.00024 
L 63.025533 21.692885 
" clip-path="url(#p3f129b3b7c)" style="fill: #f7fbff"/>
    <path d="M 63.585189 21.692885 
L 64.144845 21.692885 
L 64.144845 3.00024 
L 63.585189 3.00024 
L 63.585189 21.692885 
" clip-path="url(#p3f129b3b7c)" style="fill: #f7fbff"/>
    <path d="M 64.144845 21.692885 
L 64.704502 21.692885 
L 64.704502 3.00024 
L 64.144845 3.00024 
L 64.144845 21.692885 
" clip-path="url(#p3f129b3b7c)" style="fill: #08306b"/>
    <path d="M 64.704502 21.692885 
L 65.264158 21.692885 
L 65.264158 3.00024 
L 64.704502 3.00024 
L 64.704502 21.692885 
" clip-path="url(#p3f129b3b7c)" style="fill: #08306b"/>
    <path d="M 65.264158 21.692885 
L 65.823815 21.692885 
L 65.823815 3.00024 
L 65.264158 3.00024 
L 65.264158 21.692885 
" clip-path="url(#p3f129b3b7c)" style="fill: #08306b"/>
    <path d="M 65.823815 21.692885 
L 66.383471 21.692885 
L 66.383471 3.00024 
L 65.823815 3.00024 
L 65.823815 21.692885 
" clip-path="url(#p3f129b3b7c)" style="fill: #08306b"/>
    <path d="M 66.383471 21.692885 
L 66.943127 21.692885 
L 66.943127 3.00024 
L 66.383471 3.00024 
L 66.383471 21.692885 
" clip-path="url(#p3f129b3b7c)" style="fill: #08306b"/>
    <path d="M 66.943127 21.692885 
L 67.502784 21.692885 
L 67.502784 3.00024 
L 66.943127 3.00024 
L 66.943127 21.692885 
" clip-path="url(#p3f129b3b7c)" style="fill: #08306b"/>
    <path d="M 67.502784 21.692885 
L 68.06244 21.692885 
L 68.06244 3.00024 
L 67.502784 3.00024 
L 67.502784 21.692885 
" clip-path="url(#p3f129b3b7c)" style="fill: #08306b"/>
    <path d="M 68.06244 21.692885 
L 68.622096 21.692885 
L 68.622096 3.00024 
L 68.06244 3.00024 
L 68.06244 21.692885 
" clip-path="url(#p3f129b3b7c)" style="fill: #f7fbff"/>
    <path d="M 68.622096 21.692885 
L 69.181753 21.692885 
L 69.181753 3.00024 
L 68.622096 3.00024 
L 68.622096 21.692885 
" clip-path="url(#p3f129b3b7c)" style="fill: #f7fbff"/>
    <path d="M 69.181753 21.692885 
L 69.741409 21.692885 
L 69.741409 3.00024 
L 69.181753 3.00024 
L 69.181753 21.692885 
" clip-path="url(#p3f129b3b7c)" style="fill: #f7fbff"/>
    <path d="M 69.741409 21.692885 
L 70.301065 21.692885 
L 70.301065 3.00024 
L 69.741409 3.00024 
L 69.741409 21.692885 
" clip-path="url(#p3f129b3b7c)" style="fill: #f7fbff"/>
    <path d="M 70.301065 21.692885 
L 70.860722 21.692885 
L 70.860722 3.00024 
L 70.301065 3.00024 
L 70.301065 21.692885 
" clip-path="url(#p3f129b3b7c)" style="fill: #f7fbff"/>
    <path d="M 70.860722 21.692885 
L 71.420378 21.692885 
L 71.420378 3.00024 
L 70.860722 3.00024 
L 70.860722 21.692885 
" clip-path="url(#p3f129b3b7c)" style="fill: #08306b"/>
    <path d="M 71.420378 21.692885 
L 71.980035 21.692885 
L 71.980035 3.00024 
L 71.420378 3.00024 
L 71.420378 21.692885 
" clip-path="url(#p3f129b3b7c)" style="fill: #08306b"/>
    <path d="M 71.980035 21.692885 
L 72.539691 21.692885 
L 72.539691 3.00024 
L 71.980035 3.00024 
L 71.980035 21.692885 
" clip-path="url(#p3f129b3b7c)" style="fill: #08306b"/>
    <path d="M 72.539691 21.692885 
L 73.099347 21.692885 
L 73.099347 3.00024 
L 72.539691 3.00024 
L 72.539691 21.692885 
" clip-path="url(#p3f129b3b7c)" style="fill: #08306b"/>
    <path d="M 73.099347 21.692885 
L 73.659004 21.692885 
L 73.659004 3.00024 
L 73.099347 3.00024 
L 73.099347 21.692885 
" clip-path="url(#p3f129b3b7c)" style="fill: #08306b"/>
    <path d="M 73.659004 21.692885 
L 74.21866 21.692885 
L 74.21866 3.00024 
L 73.659004 3.00024 
L 73.659004 21.692885 
" clip-path="url(#p3f129b3b7c)" style="fill: #08306b"/>
    <path d="M 74.21866 21.692885 
L 74.778316 21.692885 
L 74.778316 3.00024 
L 74.21866 3.00024 
L 74.21866 21.692885 
" clip-path="url(#p3f129b3b7c)" style="fill: #08306b"/>
    <path d="M 74.778316 21.692885 
L 75.337973 21.692885 
L 75.337973 3.00024 
L 74.778316 3.00024 
L 74.778316 21.692885 
" clip-path="url(#p3f129b3b7c)" style="fill: #f7fbff"/>
    <path d="M 75.337973 21.692885 
L 75.897629 21.692885 
L 75.897629 3.00024 
L 75.337973 3.00024 
L 75.337973 21.692885 
" clip-path="url(#p3f129b3b7c)" style="fill: #f7fbff"/>
    <path d="M 75.897629 21.692885 
L 76.457285 21.692885 
L 76.457285 3.00024 
L 75.897629 3.00024 
L 75.897629 21.692885 
" clip-path="url(#p3f129b3b7c)" style="fill: #f7fbff"/>
    <path d="M 76.457285 21.692885 
L 77.016942 21.692885 
L 77.016942 3.00024 
L 76.457285 3.00024 
L 76.457285 21.692885 
" clip-path="url(#p3f129b3b7c)" style="fill: #f7fbff"/>
    <path d="M 77.016942 21.692885 
L 77.576598 21.692885 
L 77.576598 3.00024 
L 77.016942 3.00024 
L 77.016942 21.692885 
" clip-path="url(#p3f129b3b7c)" style="fill: #08306b"/>
    <path d="M 77.576598 21.692885 
L 78.136255 21.692885 
L 78.136255 3.00024 
L 77.576598 3.00024 
L 77.576598 21.692885 
" clip-path="url(#p3f129b3b7c)" style="fill: #08306b"/>
    <path d="M 78.136255 21.692885 
L 78.695911 21.692885 
L 78.695911 3.00024 
L 78.136255 3.00024 
L 78.136255 21.692885 
" clip-path="url(#p3f129b3b7c)" style="fill: #08306b"/>
    <path d="M 78.695911 21.692885 
L 79.255567 21.692885 
L 79.255567 3.00024 
L 78.695911 3.00024 
L 78.695911 21.692885 
" clip-path="url(#p3f129b3b7c)" style="fill: #08306b"/>
    <path d="M 79.255567 21.692885 
L 79.815224 21.692885 
L 79.815224 3.00024 
L 79.255567 3.00024 
L 79.255567 21.692885 
" clip-path="url(#p3f129b3b7c)" style="fill: #08306b"/>
    <path d="M 79.815224 21.692885 
L 80.37488 21.692885 
L 80.37488 3.00024 
L 79.815224 3.00024 
L 79.815224 21.692885 
" clip-path="url(#p3f129b3b7c)" style="fill: #08306b"/>
    <path d="M 80.37488 21.692885 
L 80.934536 21.692885 
L 80.934536 3.00024 
L 80.37488 3.00024 
L 80.37488 21.692885 
" clip-path="url(#p3f129b3b7c)" style="fill: #08306b"/>
    <path d="M 80.934536 21.692885 
L 81.494193 21.692885 
L 81.494193 3.00024 
L 80.934536 3.00024 
L 80.934536 21.692885 
" clip-path="url(#p3f129b3b7c)" style="fill: #f7fbff"/>
    <path d="M 81.494193 21.692885 
L 82.053849 21.692885 
L 82.053849 3.00024 
L 81.494193 3.00024 
L 81.494193 21.692885 
" clip-path="url(#p3f129b3b7c)" style="fill: #f7fbff"/>
    <path d="M 82.053849 21.692885 
L 82.613505 21.692885 
L 82.613505 3.00024 
L 82.053849 3.00024 
L 82.053849 21.692885 
" clip-path="url(#p3f129b3b7c)" style="fill: #f7fbff"/>
    <path d="M 82.613505 21.692885 
L 83.173162 21.692885 
L 83.173162 3.00024 
L 82.613505 3.00024 
L 82.613505 21.692885 
" clip-path="url(#p3f129b3b7c)" style="fill: #f7fbff"/>
    <path d="M 83.173162 21.692885 
L 83.732818 21.692885 
L 83.732818 3.00024 
L 83.173162 3.00024 
L 83.173162 21.692885 
" clip-path="url(#p3f129b3b7c)" style="fill: #08306b"/>
    <path d="M 83.732818 21.692885 
L 84.292475 21.692885 
L 84.292475 3.00024 
L 83.732818 3.00024 
L 83.732818 21.692885 
" clip-path="url(#p3f129b3b7c)" style="fill: #08306b"/>
    <path d="M 84.292475 21.692885 
L 84.852131 21.692885 
L 84.852131 3.00024 
L 84.292475 3.00024 
L 84.292475 21.692885 
" clip-path="url(#p3f129b3b7c)" style="fill: #08306b"/>
    <path d="M 84.852131 21.692885 
L 85.411787 21.692885 
L 85.411787 3.00024 
L 84.852131 3.00024 
L 84.852131 21.692885 
" clip-path="url(#p3f129b3b7c)" style="fill: #08306b"/>
    <path d="M 85.411787 21.692885 
L 85.971444 21.692885 
L 85.971444 3.00024 
L 85.411787 3.00024 
L 85.411787 21.692885 
" clip-path="url(#p3f129b3b7c)" style="fill: #f7fbff"/>
    <path d="M 85.971444 21.692885 
L 86.5311 21.692885 
L 86.5311 3.00024 
L 85.971444 3.00024 
L 85.971444 21.692885 
" clip-path="url(#p3f129b3b7c)" style="fill: #08306b"/>
    <path d="M 86.5311 21.692885 
L 87.090756 21.692885 
L 87.090756 3.00024 
L 86.5311 3.00024 
L 86.5311 21.692885 
" clip-path="url(#p3f129b3b7c)" style="fill: #08306b"/>
    <path d="M 87.090756 21.692885 
L 87.650413 21.692885 
L 87.650413 3.00024 
L 87.090756 3.00024 
L 87.090756 21.692885 
" clip-path="url(#p3f129b3b7c)" style="fill: #f7fbff"/>
    <path d="M 87.650413 21.692885 
L 88.210069 21.692885 
L 88.210069 3.00024 
L 87.650413 3.00024 
L 87.650413 21.692885 
" clip-path="url(#p3f129b3b7c)" style="fill: #f7fbff"/>
    <path d="M 88.210069 21.692885 
L 88.769725 21.692885 
L 88.769725 3.00024 
L 88.210069 3.00024 
L 88.210069 21.692885 
" clip-path="url(#p3f129b3b7c)" style="fill: #f7fbff"/>
    <path d="M 88.769725 21.692885 
L 89.329382 21.692885 
L 89.329382 3.00024 
L 88.769725 3.00024 
L 88.769725 21.692885 
" clip-path="url(#p3f129b3b7c)" style="fill: #f7fbff"/>
    <path d="M 89.329382 21.692885 
L 89.889038 21.692885 
L 89.889038 3.00024 
L 89.329382 3.00024 
L 89.329382 21.692885 
" clip-path="url(#p3f129b3b7c)" style="fill: #f7fbff"/>
    <path d="M 89.889038 21.692885 
L 90.448695 21.692885 
L 90.448695 3.00024 
L 89.889038 3.00024 
L 89.889038 21.692885 
" clip-path="url(#p3f129b3b7c)" style="fill: #08306b"/>
    <path d="M 90.448695 21.692885 
L 91.008351 21.692885 
L 91.008351 3.00024 
L 90.448695 3.00024 
L 90.448695 21.692885 
" clip-path="url(#p3f129b3b7c)" style="fill: #08306b"/>
    <path d="M 91.008351 21.692885 
L 91.568007 21.692885 
L 91.568007 3.00024 
L 91.008351 3.00024 
L 91.008351 21.692885 
" clip-path="url(#p3f129b3b7c)" style="fill: #08306b"/>
    <path d="M 91.568007 21.692885 
L 92.127664 21.692885 
L 92.127664 3.00024 
L 91.568007 3.00024 
L 91.568007 21.692885 
" clip-path="url(#p3f129b3b7c)" style="fill: #f7fbff"/>
    <path d="M 92.127664 21.692885 
L 92.68732 21.692885 
L 92.68732 3.00024 
L 92.127664 3.00024 
L 92.127664 21.692885 
" clip-path="url(#p3f129b3b7c)" style="fill: #08306b"/>
    <path d="M 92.68732 21.692885 
L 93.246976 21.692885 
L 93.246976 3.00024 
L 92.68732 3.00024 
L 92.68732 21.692885 
" clip-path="url(#p3f129b3b7c)" style="fill: #08306b"/>
    <path d="M 93.246976 21.692885 
L 93.806633 21.692885 
L 93.806633 3.00024 
L 93.246976 3.00024 
L 93.246976 21.692885 
" clip-path="url(#p3f129b3b7c)" style="fill: #08306b"/>
    <path d="M 93.806633 21.692885 
L 94.366289 21.692885 
L 94.366289 3.00024 
L 93.806633 3.00024 
L 93.806633 21.692885 
" clip-path="url(#p3f129b3b7c)" style="fill: #f7fbff"/>
    <path d="M 94.366289 21.692885 
L 94.925945 21.692885 
L 94.925945 3.00024 
L 94.366289 3.00024 
L 94.366289 21.692885 
" clip-path="url(#p3f129b3b7c)" style="fill: #f7fbff"/>
    <path d="M 94.925945 21.692885 
L 95.485602 21.692885 
L 95.485602 3.00024 
L 94.925945 3.00024 
L 94.925945 21.692885 
" clip-path="url(#p3f129b3b7c)" style="fill: #f7fbff"/>
    <path d="M 95.485602 21.692885 
L 96.045258 21.692885 
L 96.045258 3.00024 
L 95.485602 3.00024 
L 95.485602 21.692885 
" clip-path="url(#p3f129b3b7c)" style="fill: #f7fbff"/>
    <path d="M 96.045258 21.692885 
L 96.604915 21.692885 
L 96.604915 3.00024 
L 96.045258 3.00024 
L 96.045258 21.692885 
" clip-path="url(#p3f129b3b7c)" style="fill: #f6faff"/>
    <path d="M 96.604915 21.692885 
L 97.164571 21.692885 
L 97.164571 3.00024 
L 96.604915 3.00024 
L 96.604915 21.692885 
" clip-path="url(#p3f129b3b7c)" style="fill: #08306b"/>
    <path d="M 97.164571 21.692885 
L 97.724227 21.692885 
L 97.724227 3.00024 
L 97.164571 3.00024 
L 97.164571 21.692885 
" clip-path="url(#p3f129b3b7c)" style="fill: #08306b"/>
    <path d="M 97.724227 21.692885 
L 98.283884 21.692885 
L 98.283884 3.00024 
L 97.724227 3.00024 
L 97.724227 21.692885 
" clip-path="url(#p3f129b3b7c)" style="fill: #08306b"/>
    <path d="M 98.283884 21.692885 
L 98.84354 21.692885 
L 98.84354 3.00024 
L 98.283884 3.00024 
L 98.283884 21.692885 
" clip-path="url(#p3f129b3b7c)" style="fill: #08306b"/>
    <path d="M 98.84354 21.692885 
L 99.403196 21.692885 
L 99.403196 3.00024 
L 98.84354 3.00024 
L 98.84354 21.692885 
" clip-path="url(#p3f129b3b7c)" style="fill: #08306b"/>
    <path d="M 99.403196 21.692885 
L 99.962853 21.692885 
L 99.962853 3.00024 
L 99.403196 3.00024 
L 99.403196 21.692885 
" clip-path="url(#p3f129b3b7c)" style="fill: #08306b"/>
    <path d="M 99.962853 21.692885 
L 100.522509 21.692885 
L 100.522509 3.00024 
L 99.962853 3.00024 
L 99.962853 21.692885 
" clip-path="url(#p3f129b3b7c)" style="fill: #08306b"/>
    <path d="M 100.522509 21.692885 
L 101.082165 21.692885 
L 101.082165 3.00024 
L 100.522509 3.00024 
L 100.522509 21.692885 
" clip-path="url(#p3f129b3b7c)" style="fill: #f6faff"/>
    <path d="M 101.082165 21.692885 
L 101.641822 21.692885 
L 101.641822 3.00024 
L 101.082165 3.00024 
L 101.082165 21.692885 
" clip-path="url(#p3f129b3b7c)" style="fill: #f7fbff"/>
    <path d="M 101.641822 21.692885 
L 102.201478 21.692885 
L 102.201478 3.00024 
L 101.641822 3.00024 
L 101.641822 21.692885 
" clip-path="url(#p3f129b3b7c)" style="fill: #f7fbff"/>
    <path d="M 102.201478 21.692885 
L 102.761135 21.692885 
L 102.761135 3.00024 
L 102.201478 3.00024 
L 102.201478 21.692885 
" clip-path="url(#p3f129b3b7c)" style="fill: #f7fbff"/>
    <path d="M 102.761135 21.692885 
L 103.320791 21.692885 
L 103.320791 3.00024 
L 102.761135 3.00024 
L 102.761135 21.692885 
" clip-path="url(#p3f129b3b7c)" style="fill: #08306b"/>
    <path d="M 103.320791 21.692885 
L 103.880447 21.692885 
L 103.880447 3.00024 
L 103.320791 3.00024 
L 103.320791 21.692885 
" clip-path="url(#p3f129b3b7c)" style="fill: #08306b"/>
    <path d="M 103.880447 21.692885 
L 104.440104 21.692885 
L 104.440104 3.00024 
L 103.880447 3.00024 
L 103.880447 21.692885 
" clip-path="url(#p3f129b3b7c)" style="fill: #08306b"/>
    <path d="M 104.440104 21.692885 
L 104.99976 21.692885 
L 104.99976 3.00024 
L 104.440104 3.00024 
L 104.440104 21.692885 
" clip-path="url(#p3f129b3b7c)" style="fill: #f7fbff"/>
   </g>
   <g id="matplotlib.axis_1"/>
   <g id="matplotlib.axis_2"/>
   <g id="patch_3">
    <path d="M 6.50024 21.692885 
L 6.50024 3.00024 
" style="fill: none; stroke: #000000; stroke-width: 0.8; stroke-linejoin: miter; stroke-linecap: square"/>
   </g>
   <g id="patch_4">
    <path d="M 104.99976 21.692885 
L 104.99976 3.00024 
" style="fill: none; stroke: #000000; stroke-width: 0.8; stroke-linejoin: miter; stroke-linecap: square"/>
   </g>
   <g id="patch_5">
    <path d="M 6.50024 21.692885 
L 104.99976 21.692885 
" style="fill: none; stroke: #000000; stroke-width: 0.8; stroke-linejoin: miter; stroke-linecap: square"/>
   </g>
   <g id="patch_6">
    <path d="M 6.50024 3.00024 
L 104.99976 3.00024 
" style="fill: none; stroke: #000000; stroke-width: 0.8; stroke-linejoin: miter; stroke-linecap: square"/>
   </g>
  </g>
  <g id="axes_2">
   <g id="patch_7">
    <path d="M 6.50024 49.88601 
L 104.99976 49.88601 
L 104.99976 31.193365 
L 6.50024 31.193365 
z
" style="fill: #ffffff"/>
   </g>
   <g id="QuadMesh_2">
    <path d="M 6.50024 49.88601 
L 7.059896 49.88601 
L 7.059896 31.193365 
L 6.50024 31.193365 
L 6.50024 49.88601 
" clip-path="url(#pb66811e214)" style="fill: #fff0e8"/>
    <path d="M 7.059896 49.88601 
L 7.619553 49.88601 
L 7.619553 31.193365 
L 7.059896 31.193365 
L 7.059896 49.88601 
" clip-path="url(#pb66811e214)" style="fill: #ffeee7"/>
    <path d="M 7.619553 49.88601 
L 8.179209 49.88601 
L 8.179209 31.193365 
L 7.619553 31.193365 
L 7.619553 49.88601 
" clip-path="url(#pb66811e214)" style="fill: #ffece3"/>
    <path d="M 8.179209 49.88601 
L 8.738865 49.88601 
L 8.738865 31.193365 
L 8.179209 31.193365 
L 8.179209 49.88601 
" clip-path="url(#pb66811e214)" style="fill: #feeae1"/>
    <path d="M 8.738865 49.88601 
L 9.298522 49.88601 
L 9.298522 31.193365 
L 8.738865 31.193365 
L 8.738865 49.88601 
" clip-path="url(#pb66811e214)" style="fill: #ffebe2"/>
    <path d="M 9.298522 49.88601 
L 9.858178 49.88601 
L 9.858178 31.193365 
L 9.298522 31.193365 
L 9.298522 49.88601 
" clip-path="url(#pb66811e214)" style="fill: #ffece4"/>
    <path d="M 9.858178 49.88601 
L 10.417835 49.88601 
L 10.417835 31.193365 
L 9.858178 31.193365 
L 9.858178 49.88601 
" clip-path="url(#pb66811e214)" style="fill: #ffece3"/>
    <path d="M 10.417835 49.88601 
L 10.977491 49.88601 
L 10.977491 31.193365 
L 10.417835 31.193365 
L 10.417835 49.88601 
" clip-path="url(#pb66811e214)" style="fill: #feeae0"/>
    <path d="M 10.977491 49.88601 
L 11.537147 49.88601 
L 11.537147 31.193365 
L 10.977491 31.193365 
L 10.977491 49.88601 
" clip-path="url(#pb66811e214)" style="fill: #fee9df"/>
    <path d="M 11.537147 49.88601 
L 12.096804 49.88601 
L 12.096804 31.193365 
L 11.537147 31.193365 
L 11.537147 49.88601 
" clip-path="url(#pb66811e214)" style="fill: #fee6da"/>
    <path d="M 12.096804 49.88601 
L 12.65646 49.88601 
L 12.65646 31.193365 
L 12.096804 31.193365 
L 12.096804 49.88601 
" clip-path="url(#pb66811e214)" style="fill: #fee5d8"/>
    <path d="M 12.65646 49.88601 
L 13.216116 49.88601 
L 13.216116 31.193365 
L 12.65646 31.193365 
L 12.65646 49.88601 
" clip-path="url(#pb66811e214)" style="fill: #fee6da"/>
    <path d="M 13.216116 49.88601 
L 13.775773 49.88601 
L 13.775773 31.193365 
L 13.216116 31.193365 
L 13.216116 49.88601 
" clip-path="url(#pb66811e214)" style="fill: #fee3d7"/>
    <path d="M 13.775773 49.88601 
L 14.335429 49.88601 
L 14.335429 31.193365 
L 13.775773 31.193365 
L 13.775773 49.88601 
" clip-path="url(#pb66811e214)" style="fill: #fedbcc"/>
    <path d="M 14.335429 49.88601 
L 14.895085 49.88601 
L 14.895085 31.193365 
L 14.335429 31.193365 
L 14.335429 49.88601 
" clip-path="url(#pb66811e214)" style="fill: #fdc9b3"/>
    <path d="M 14.895085 49.88601 
L 15.454742 49.88601 
L 15.454742 31.193365 
L 14.895085 31.193365 
L 14.895085 49.88601 
" clip-path="url(#pb66811e214)" style="fill: #fcaa8d"/>
    <path d="M 15.454742 49.88601 
L 16.014398 49.88601 
L 16.014398 31.193365 
L 15.454742 31.193365 
L 15.454742 49.88601 
" clip-path="url(#pb66811e214)" style="fill: #fc9474"/>
    <path d="M 16.014398 49.88601 
L 16.574055 49.88601 
L 16.574055 31.193365 
L 16.014398 31.193365 
L 16.014398 49.88601 
" clip-path="url(#pb66811e214)" style="fill: #fc8a6a"/>
    <path d="M 16.574055 49.88601 
L 17.133711 49.88601 
L 17.133711 31.193365 
L 16.574055 31.193365 
L 16.574055 49.88601 
" clip-path="url(#pb66811e214)" style="fill: #fc8e6e"/>
    <path d="M 17.133711 49.88601 
L 17.693367 49.88601 
L 17.693367 31.193365 
L 17.133711 31.193365 
L 17.133711 49.88601 
" clip-path="url(#pb66811e214)" style="fill: #fc9e80"/>
    <path d="M 17.693367 49.88601 
L 18.253024 49.88601 
L 18.253024 31.193365 
L 17.693367 31.193365 
L 17.693367 49.88601 
" clip-path="url(#pb66811e214)" style="fill: #fc997a"/>
    <path d="M 18.253024 49.88601 
L 18.81268 49.88601 
L 18.81268 31.193365 
L 18.253024 31.193365 
L 18.253024 49.88601 
" clip-path="url(#pb66811e214)" style="fill: #fca183"/>
    <path d="M 18.81268 49.88601 
L 19.372336 49.88601 
L 19.372336 31.193365 
L 18.81268 31.193365 
L 18.81268 49.88601 
" clip-path="url(#pb66811e214)" style="fill: #fcb499"/>
    <path d="M 19.372336 49.88601 
L 19.931993 49.88601 
L 19.931993 31.193365 
L 19.372336 31.193365 
L 19.372336 49.88601 
" clip-path="url(#pb66811e214)" style="fill: #fdcebb"/>
    <path d="M 19.931993 49.88601 
L 20.491649 49.88601 
L 20.491649 31.193365 
L 19.931993 31.193365 
L 19.931993 49.88601 
" clip-path="url(#pb66811e214)" style="fill: #fedfd0"/>
    <path d="M 20.491649 49.88601 
L 21.051305 49.88601 
L 21.051305 31.193365 
L 20.491649 31.193365 
L 20.491649 49.88601 
" clip-path="url(#pb66811e214)" style="fill: #fee3d7"/>
    <path d="M 21.051305 49.88601 
L 21.610962 49.88601 
L 21.610962 31.193365 
L 21.051305 31.193365 
L 21.051305 49.88601 
" clip-path="url(#pb66811e214)" style="fill: #fee4d8"/>
    <path d="M 21.610962 49.88601 
L 22.170618 49.88601 
L 22.170618 31.193365 
L 21.610962 31.193365 
L 21.610962 49.88601 
" clip-path="url(#pb66811e214)" style="fill: #fee1d4"/>
    <path d="M 22.170618 49.88601 
L 22.730275 49.88601 
L 22.730275 31.193365 
L 22.170618 31.193365 
L 22.170618 49.88601 
" clip-path="url(#pb66811e214)" style="fill: #fdd7c6"/>
    <path d="M 22.730275 49.88601 
L 23.289931 49.88601 
L 23.289931 31.193365 
L 22.730275 31.193365 
L 22.730275 49.88601 
" clip-path="url(#pb66811e214)" style="fill: #fdd1be"/>
    <path d="M 23.289931 49.88601 
L 23.849587 49.88601 
L 23.849587 31.193365 
L 23.289931 31.193365 
L 23.289931 49.88601 
" clip-path="url(#pb66811e214)" style="fill: #fdd1be"/>
    <path d="M 23.849587 49.88601 
L 24.409244 49.88601 
L 24.409244 31.193365 
L 23.849587 31.193365 
L 23.849587 49.88601 
" clip-path="url(#pb66811e214)" style="fill: #fdd7c6"/>
    <path d="M 24.409244 49.88601 
L 24.9689 49.88601 
L 24.9689 31.193365 
L 24.409244 31.193365 
L 24.409244 49.88601 
" clip-path="url(#pb66811e214)" style="fill: #fdd3c1"/>
    <path d="M 24.9689 49.88601 
L 25.528556 49.88601 
L 25.528556 31.193365 
L 24.9689 31.193365 
L 24.9689 49.88601 
" clip-path="url(#pb66811e214)" style="fill: #fdc5ae"/>
    <path d="M 25.528556 49.88601 
L 26.088213 49.88601 
L 26.088213 31.193365 
L 25.528556 31.193365 
L 25.528556 49.88601 
" clip-path="url(#pb66811e214)" style="fill: #fcbfa7"/>
    <path d="M 26.088213 49.88601 
L 26.647869 49.88601 
L 26.647869 31.193365 
L 26.088213 31.193365 
L 26.088213 49.88601 
" clip-path="url(#pb66811e214)" style="fill: #fcc1a8"/>
    <path d="M 26.647869 49.88601 
L 27.207525 49.88601 
L 27.207525 31.193365 
L 26.647869 31.193365 
L 26.647869 49.88601 
" clip-path="url(#pb66811e214)" style="fill: #fdc9b3"/>
    <path d="M 27.207525 49.88601 
L 27.767182 49.88601 
L 27.767182 31.193365 
L 27.207525 31.193365 
L 27.207525 49.88601 
" clip-path="url(#pb66811e214)" style="fill: #fed9c9"/>
    <path d="M 27.767182 49.88601 
L 28.326838 49.88601 
L 28.326838 31.193365 
L 27.767182 31.193365 
L 27.767182 49.88601 
" clip-path="url(#pb66811e214)" style="fill: #fee0d2"/>
    <path d="M 28.326838 49.88601 
L 28.886495 49.88601 
L 28.886495 31.193365 
L 28.326838 31.193365 
L 28.326838 49.88601 
" clip-path="url(#pb66811e214)" style="fill: #fedfd0"/>
    <path d="M 28.886495 49.88601 
L 29.446151 49.88601 
L 29.446151 31.193365 
L 28.886495 31.193365 
L 28.886495 49.88601 
" clip-path="url(#pb66811e214)" style="fill: #fdd5c4"/>
    <path d="M 29.446151 49.88601 
L 30.005807 49.88601 
L 30.005807 31.193365 
L 29.446151 31.193365 
L 29.446151 49.88601 
" clip-path="url(#pb66811e214)" style="fill: #fcc4ad"/>
    <path d="M 30.005807 49.88601 
L 30.565464 49.88601 
L 30.565464 31.193365 
L 30.005807 31.193365 
L 30.005807 49.88601 
" clip-path="url(#pb66811e214)" style="fill: #fca285"/>
    <path d="M 30.565464 49.88601 
L 31.12512 49.88601 
L 31.12512 31.193365 
L 30.565464 31.193365 
L 30.565464 49.88601 
" clip-path="url(#pb66811e214)" style="fill: #fc8b6b"/>
    <path d="M 31.12512 49.88601 
L 31.684776 49.88601 
L 31.684776 31.193365 
L 31.12512 31.193365 
L 31.12512 49.88601 
" clip-path="url(#pb66811e214)" style="fill: #fc8060"/>
    <path d="M 31.684776 49.88601 
L 32.244433 49.88601 
L 32.244433 31.193365 
L 31.684776 31.193365 
L 31.684776 49.88601 
" clip-path="url(#pb66811e214)" style="fill: #fc8262"/>
    <path d="M 32.244433 49.88601 
L 32.804089 49.88601 
L 32.804089 31.193365 
L 32.244433 31.193365 
L 32.244433 49.88601 
" clip-path="url(#pb66811e214)" style="fill: #fc9272"/>
    <path d="M 32.804089 49.88601 
L 33.363745 49.88601 
L 33.363745 31.193365 
L 32.804089 31.193365 
L 32.804089 49.88601 
" clip-path="url(#pb66811e214)" style="fill: #fc8a6a"/>
    <path d="M 33.363745 49.88601 
L 33.923402 49.88601 
L 33.923402 31.193365 
L 33.363745 31.193365 
L 33.363745 49.88601 
" clip-path="url(#pb66811e214)" style="fill: #fc8e6e"/>
    <path d="M 33.923402 49.88601 
L 34.483058 49.88601 
L 34.483058 31.193365 
L 33.923402 31.193365 
L 33.923402 49.88601 
" clip-path="url(#pb66811e214)" style="fill: #fc9e80"/>
    <path d="M 34.483058 49.88601 
L 35.042715 49.88601 
L 35.042715 31.193365 
L 34.483058 31.193365 
L 34.483058 49.88601 
" clip-path="url(#pb66811e214)" style="fill: #fcb99f"/>
    <path d="M 35.042715 49.88601 
L 35.602371 49.88601 
L 35.602371 31.193365 
L 35.042715 31.193365 
L 35.042715 49.88601 
" clip-path="url(#pb66811e214)" style="fill: #fcc4ad"/>
    <path d="M 35.602371 49.88601 
L 36.162027 49.88601 
L 36.162027 31.193365 
L 35.602371 31.193365 
L 35.602371 49.88601 
" clip-path="url(#pb66811e214)" style="fill: #fcc2aa"/>
    <path d="M 36.162027 49.88601 
L 36.721684 49.88601 
L 36.721684 31.193365 
L 36.162027 31.193365 
L 36.162027 49.88601 
" clip-path="url(#pb66811e214)" style="fill: #fcaf93"/>
    <path d="M 36.721684 49.88601 
L 37.28134 49.88601 
L 37.28134 31.193365 
L 36.721684 31.193365 
L 36.721684 49.88601 
" clip-path="url(#pb66811e214)" style="fill: #fc8d6d"/>
    <path d="M 37.28134 49.88601 
L 37.840996 49.88601 
L 37.840996 31.193365 
L 37.28134 31.193365 
L 37.28134 49.88601 
" clip-path="url(#pb66811e214)" style="fill: #fb7555"/>
    <path d="M 37.840996 49.88601 
L 38.400653 49.88601 
L 38.400653 31.193365 
L 37.840996 31.193365 
L 37.840996 49.88601 
" clip-path="url(#pb66811e214)" style="fill: #fb6c4c"/>
    <path d="M 38.400653 49.88601 
L 38.960309 49.88601 
L 38.960309 31.193365 
L 38.400653 31.193365 
L 38.400653 49.88601 
" clip-path="url(#pb66811e214)" style="fill: #fb7151"/>
    <path d="M 38.960309 49.88601 
L 39.519965 49.88601 
L 39.519965 31.193365 
L 38.960309 31.193365 
L 38.960309 49.88601 
" clip-path="url(#pb66811e214)" style="fill: #fc8464"/>
    <path d="M 39.519965 49.88601 
L 40.079622 49.88601 
L 40.079622 31.193365 
L 39.519965 31.193365 
L 39.519965 49.88601 
" clip-path="url(#pb66811e214)" style="fill: #fb7d5d"/>
    <path d="M 40.079622 49.88601 
L 40.639278 49.88601 
L 40.639278 31.193365 
L 40.079622 31.193365 
L 40.079622 49.88601 
" clip-path="url(#pb66811e214)" style="fill: #fc8464"/>
    <path d="M 40.639278 49.88601 
L 41.198935 49.88601 
L 41.198935 31.193365 
L 40.639278 31.193365 
L 40.639278 49.88601 
" clip-path="url(#pb66811e214)" style="fill: #fc9879"/>
    <path d="M 41.198935 49.88601 
L 41.758591 49.88601 
L 41.758591 31.193365 
L 41.198935 31.193365 
L 41.198935 49.88601 
" clip-path="url(#pb66811e214)" style="fill: #fcb79c"/>
    <path d="M 41.758591 49.88601 
L 42.318247 49.88601 
L 42.318247 31.193365 
L 41.758591 31.193365 
L 41.758591 49.88601 
" clip-path="url(#pb66811e214)" style="fill: #fdc5ae"/>
    <path d="M 42.318247 49.88601 
L 42.877904 49.88601 
L 42.877904 31.193365 
L 42.318247 31.193365 
L 42.318247 49.88601 
" clip-path="url(#pb66811e214)" style="fill: #fdc5ae"/>
    <path d="M 42.877904 49.88601 
L 43.43756 49.88601 
L 43.43756 31.193365 
L 42.877904 31.193365 
L 42.877904 49.88601 
" clip-path="url(#pb66811e214)" style="fill: #fcb89e"/>
    <path d="M 43.43756 49.88601 
L 43.997216 49.88601 
L 43.997216 31.193365 
L 43.43756 31.193365 
L 43.43756 49.88601 
" clip-path="url(#pb66811e214)" style="fill: #fc997a"/>
    <path d="M 43.997216 49.88601 
L 44.556873 49.88601 
L 44.556873 31.193365 
L 43.997216 31.193365 
L 43.997216 49.88601 
" clip-path="url(#pb66811e214)" style="fill: #fa6547"/>
    <path d="M 44.556873 49.88601 
L 45.116529 49.88601 
L 45.116529 31.193365 
L 44.556873 31.193365 
L 44.556873 49.88601 
" clip-path="url(#pb66811e214)" style="fill: #ed392b"/>
    <path d="M 45.116529 49.88601 
L 45.676185 49.88601 
L 45.676185 31.193365 
L 45.116529 31.193365 
L 45.116529 49.88601 
" clip-path="url(#pb66811e214)" style="fill: #d82422"/>
    <path d="M 45.676185 49.88601 
L 46.235842 49.88601 
L 46.235842 31.193365 
L 45.676185 31.193365 
L 45.676185 49.88601 
" clip-path="url(#pb66811e214)" style="fill: #d11e1f"/>
    <path d="M 46.235842 49.88601 
L 46.795498 49.88601 
L 46.795498 31.193365 
L 46.235842 31.193365 
L 46.235842 49.88601 
" clip-path="url(#pb66811e214)" style="fill: #d72322"/>
    <path d="M 46.795498 49.88601 
L 47.355155 49.88601 
L 47.355155 31.193365 
L 46.795498 31.193365 
L 46.795498 49.88601 
" clip-path="url(#pb66811e214)" style="fill: #ea362a"/>
    <path d="M 47.355155 49.88601 
L 47.914811 49.88601 
L 47.914811 31.193365 
L 47.355155 31.193365 
L 47.355155 49.88601 
" clip-path="url(#pb66811e214)" style="fill: #f85d42"/>
    <path d="M 47.914811 49.88601 
L 48.474467 49.88601 
L 48.474467 31.193365 
L 47.914811 31.193365 
L 47.914811 49.88601 
" clip-path="url(#pb66811e214)" style="fill: #fc9272"/>
    <path d="M 48.474467 49.88601 
L 49.034124 49.88601 
L 49.034124 31.193365 
L 48.474467 31.193365 
L 48.474467 49.88601 
" clip-path="url(#pb66811e214)" style="fill: #fcae92"/>
    <path d="M 49.034124 49.88601 
L 49.59378 49.88601 
L 49.59378 31.193365 
L 49.034124 31.193365 
L 49.034124 49.88601 
" clip-path="url(#pb66811e214)" style="fill: #fcb79c"/>
    <path d="M 49.59378 49.88601 
L 50.153436 49.88601 
L 50.153436 31.193365 
L 49.59378 31.193365 
L 49.59378 49.88601 
" clip-path="url(#pb66811e214)" style="fill: #fcae92"/>
    <path d="M 50.153436 49.88601 
L 50.713093 49.88601 
L 50.713093 31.193365 
L 50.153436 31.193365 
L 50.153436 49.88601 
" clip-path="url(#pb66811e214)" style="fill: #fc9272"/>
    <path d="M 50.713093 49.88601 
L 51.272749 49.88601 
L 51.272749 31.193365 
L 50.713093 31.193365 
L 50.713093 49.88601 
" clip-path="url(#pb66811e214)" style="fill: #f75c41"/>
    <path d="M 51.272749 49.88601 
L 51.832405 49.88601 
L 51.832405 31.193365 
L 51.272749 31.193365 
L 51.272749 49.88601 
" clip-path="url(#pb66811e214)" style="fill: #e83429"/>
    <path d="M 51.832405 49.88601 
L 52.392062 49.88601 
L 52.392062 31.193365 
L 51.832405 31.193365 
L 51.832405 49.88601 
" clip-path="url(#pb66811e214)" style="fill: #d42121"/>
    <path d="M 52.392062 49.88601 
L 52.951718 49.88601 
L 52.951718 31.193365 
L 52.392062 31.193365 
L 52.392062 49.88601 
" clip-path="url(#pb66811e214)" style="fill: #ce1a1e"/>
    <path d="M 52.951718 49.88601 
L 53.511375 49.88601 
L 53.511375 31.193365 
L 52.951718 31.193365 
L 52.951718 49.88601 
" clip-path="url(#pb66811e214)" style="fill: #d42121"/>
    <path d="M 53.511375 49.88601 
L 54.071031 49.88601 
L 54.071031 31.193365 
L 53.511375 31.193365 
L 53.511375 49.88601 
" clip-path="url(#pb66811e214)" style="fill: #e83429"/>
    <path d="M 54.071031 49.88601 
L 54.630687 49.88601 
L 54.630687 31.193365 
L 54.071031 31.193365 
L 54.071031 49.88601 
" clip-path="url(#pb66811e214)" style="fill: #f75c41"/>
    <path d="M 54.630687 49.88601 
L 55.190344 49.88601 
L 55.190344 31.193365 
L 54.630687 31.193365 
L 54.630687 49.88601 
" clip-path="url(#pb66811e214)" style="fill: #fc9272"/>
    <path d="M 55.190344 49.88601 
L 55.75 49.88601 
L 55.75 31.193365 
L 55.190344 31.193365 
L 55.190344 49.88601 
" clip-path="url(#pb66811e214)" style="fill: #fcae92"/>
    <path d="M 55.75 49.88601 
L 56.309656 49.88601 
L 56.309656 31.193365 
L 55.75 31.193365 
L 55.75 49.88601 
" clip-path="url(#pb66811e214)" style="fill: #fcb79c"/>
    <path d="M 56.309656 49.88601 
L 56.869313 49.88601 
L 56.869313 31.193365 
L 56.309656 31.193365 
L 56.309656 49.88601 
" clip-path="url(#pb66811e214)" style="fill: #fcae92"/>
    <path d="M 56.869313 49.88601 
L 57.428969 49.88601 
L 57.428969 31.193365 
L 56.869313 31.193365 
L 56.869313 49.88601 
" clip-path="url(#pb66811e214)" style="fill: #fc9373"/>
    <path d="M 57.428969 49.88601 
L 57.988625 49.88601 
L 57.988625 31.193365 
L 57.428969 31.193365 
L 57.428969 49.88601 
" clip-path="url(#pb66811e214)" style="fill: #f85d42"/>
    <path d="M 57.988625 49.88601 
L 58.548282 49.88601 
L 58.548282 31.193365 
L 57.988625 31.193365 
L 57.988625 49.88601 
" clip-path="url(#pb66811e214)" style="fill: #e93529"/>
    <path d="M 58.548282 49.88601 
L 59.107938 49.88601 
L 59.107938 31.193365 
L 58.548282 31.193365 
L 58.548282 49.88601 
" clip-path="url(#pb66811e214)" style="fill: #d42121"/>
    <path d="M 59.107938 49.88601 
L 59.667595 49.88601 
L 59.667595 31.193365 
L 59.107938 31.193365 
L 59.107938 49.88601 
" clip-path="url(#pb66811e214)" style="fill: #cf1c1f"/>
    <path d="M 59.667595 49.88601 
L 60.227251 49.88601 
L 60.227251 31.193365 
L 59.667595 31.193365 
L 59.667595 49.88601 
" clip-path="url(#pb66811e214)" style="fill: #d52221"/>
    <path d="M 60.227251 49.88601 
L 60.786907 49.88601 
L 60.786907 31.193365 
L 60.227251 31.193365 
L 60.227251 49.88601 
" clip-path="url(#pb66811e214)" style="fill: #e93529"/>
    <path d="M 60.786907 49.88601 
L 61.346564 49.88601 
L 61.346564 31.193365 
L 60.786907 31.193365 
L 60.786907 49.88601 
" clip-path="url(#pb66811e214)" style="fill: #f85d42"/>
    <path d="M 61.346564 49.88601 
L 61.90622 49.88601 
L 61.90622 31.193365 
L 61.346564 31.193365 
L 61.346564 49.88601 
" clip-path="url(#pb66811e214)" style="fill: #fc9373"/>
    <path d="M 61.90622 49.88601 
L 62.465876 49.88601 
L 62.465876 31.193365 
L 61.90622 31.193365 
L 61.90622 49.88601 
" clip-path="url(#pb66811e214)" style="fill: #fcaf93"/>
    <path d="M 62.465876 49.88601 
L 63.025533 49.88601 
L 63.025533 31.193365 
L 62.465876 31.193365 
L 62.465876 49.88601 
" clip-path="url(#pb66811e214)" style="fill: #fcb79c"/>
    <path d="M 63.025533 49.88601 
L 63.585189 49.88601 
L 63.585189 31.193365 
L 63.025533 31.193365 
L 63.025533 49.88601 
" clip-path="url(#pb66811e214)" style="fill: #fcaf93"/>
    <path d="M 63.585189 49.88601 
L 64.144845 49.88601 
L 64.144845 31.193365 
L 63.585189 31.193365 
L 63.585189 49.88601 
" clip-path="url(#pb66811e214)" style="fill: #fc9373"/>
    <path d="M 64.144845 49.88601 
L 64.704502 49.88601 
L 64.704502 31.193365 
L 64.144845 31.193365 
L 64.144845 49.88601 
" clip-path="url(#pb66811e214)" style="fill: #f85d42"/>
    <path d="M 64.704502 49.88601 
L 65.264158 49.88601 
L 65.264158 31.193365 
L 64.704502 31.193365 
L 64.704502 49.88601 
" clip-path="url(#pb66811e214)" style="fill: #e93529"/>
    <path d="M 65.264158 49.88601 
L 65.823815 49.88601 
L 65.823815 31.193365 
L 65.264158 31.193365 
L 65.264158 49.88601 
" clip-path="url(#pb66811e214)" style="fill: #d52221"/>
    <path d="M 65.823815 49.88601 
L 66.383471 49.88601 
L 66.383471 31.193365 
L 65.823815 31.193365 
L 65.823815 49.88601 
" clip-path="url(#pb66811e214)" style="fill: #cf1c1f"/>
    <path d="M 66.383471 49.88601 
L 66.943127 49.88601 
L 66.943127 31.193365 
L 66.383471 31.193365 
L 66.383471 49.88601 
" clip-path="url(#pb66811e214)" style="fill: #d52221"/>
    <path d="M 66.943127 49.88601 
L 67.502784 49.88601 
L 67.502784 31.193365 
L 66.943127 31.193365 
L 66.943127 49.88601 
" clip-path="url(#pb66811e214)" style="fill: #e93529"/>
    <path d="M 67.502784 49.88601 
L 68.06244 49.88601 
L 68.06244 31.193365 
L 67.502784 31.193365 
L 67.502784 49.88601 
" clip-path="url(#pb66811e214)" style="fill: #f85d42"/>
    <path d="M 68.06244 49.88601 
L 68.622096 49.88601 
L 68.622096 31.193365 
L 68.06244 31.193365 
L 68.06244 49.88601 
" clip-path="url(#pb66811e214)" style="fill: #fc9373"/>
    <path d="M 68.622096 49.88601 
L 69.181753 49.88601 
L 69.181753 31.193365 
L 68.622096 31.193365 
L 68.622096 49.88601 
" clip-path="url(#pb66811e214)" style="fill: #fcae92"/>
    <path d="M 69.181753 49.88601 
L 69.741409 49.88601 
L 69.741409 31.193365 
L 69.181753 31.193365 
L 69.181753 49.88601 
" clip-path="url(#pb66811e214)" style="fill: #fcb79c"/>
    <path d="M 69.741409 49.88601 
L 70.301065 49.88601 
L 70.301065 31.193365 
L 69.741409 31.193365 
L 69.741409 49.88601 
" clip-path="url(#pb66811e214)" style="fill: #fcae92"/>
    <path d="M 70.301065 49.88601 
L 70.860722 49.88601 
L 70.860722 31.193365 
L 70.301065 31.193365 
L 70.301065 49.88601 
" clip-path="url(#pb66811e214)" style="fill: #fc9070"/>
    <path d="M 70.860722 49.88601 
L 71.420378 49.88601 
L 71.420378 31.193365 
L 70.860722 31.193365 
L 70.860722 49.88601 
" clip-path="url(#pb66811e214)" style="fill: #f75b40"/>
    <path d="M 71.420378 49.88601 
L 71.980035 49.88601 
L 71.980035 31.193365 
L 71.420378 31.193365 
L 71.420378 49.88601 
" clip-path="url(#pb66811e214)" style="fill: #e43027"/>
    <path d="M 71.980035 49.88601 
L 72.539691 49.88601 
L 72.539691 31.193365 
L 71.980035 31.193365 
L 71.980035 49.88601 
" clip-path="url(#pb66811e214)" style="fill: #d01d1f"/>
    <path d="M 72.539691 49.88601 
L 73.099347 49.88601 
L 73.099347 31.193365 
L 72.539691 31.193365 
L 72.539691 49.88601 
" clip-path="url(#pb66811e214)" style="fill: #c8171c"/>
    <path d="M 73.099347 49.88601 
L 73.659004 49.88601 
L 73.659004 31.193365 
L 73.099347 31.193365 
L 73.099347 49.88601 
" clip-path="url(#pb66811e214)" style="fill: #ce1a1e"/>
    <path d="M 73.659004 49.88601 
L 74.21866 49.88601 
L 74.21866 31.193365 
L 73.659004 31.193365 
L 73.659004 49.88601 
" clip-path="url(#pb66811e214)" style="fill: #e02c26"/>
    <path d="M 74.21866 49.88601 
L 74.778316 49.88601 
L 74.778316 31.193365 
L 74.21866 31.193365 
L 74.21866 49.88601 
" clip-path="url(#pb66811e214)" style="fill: #f44f39"/>
    <path d="M 74.778316 49.88601 
L 75.337973 49.88601 
L 75.337973 31.193365 
L 74.778316 31.193365 
L 74.778316 49.88601 
" clip-path="url(#pb66811e214)" style="fill: #fc8565"/>
    <path d="M 75.337973 49.88601 
L 75.897629 49.88601 
L 75.897629 31.193365 
L 75.337973 31.193365 
L 75.337973 49.88601 
" clip-path="url(#pb66811e214)" style="fill: #fc9c7d"/>
    <path d="M 75.897629 49.88601 
L 76.457285 49.88601 
L 76.457285 31.193365 
L 75.897629 31.193365 
L 75.897629 49.88601 
" clip-path="url(#pb66811e214)" style="fill: #fc9c7d"/>
    <path d="M 76.457285 49.88601 
L 77.016942 49.88601 
L 77.016942 31.193365 
L 76.457285 31.193365 
L 76.457285 49.88601 
" clip-path="url(#pb66811e214)" style="fill: #fc8565"/>
    <path d="M 77.016942 49.88601 
L 77.576598 49.88601 
L 77.576598 31.193365 
L 77.016942 31.193365 
L 77.016942 49.88601 
" clip-path="url(#pb66811e214)" style="fill: #f4503a"/>
    <path d="M 77.576598 49.88601 
L 78.136255 49.88601 
L 78.136255 31.193365 
L 77.576598 31.193365 
L 77.576598 49.88601 
" clip-path="url(#pb66811e214)" style="fill: #e02c26"/>
    <path d="M 78.136255 49.88601 
L 78.695911 49.88601 
L 78.695911 31.193365 
L 78.136255 31.193365 
L 78.136255 49.88601 
" clip-path="url(#pb66811e214)" style="fill: #cf1c1f"/>
    <path d="M 78.695911 49.88601 
L 79.255567 49.88601 
L 79.255567 31.193365 
L 78.695911 31.193365 
L 78.695911 49.88601 
" clip-path="url(#pb66811e214)" style="fill: #ca181d"/>
    <path d="M 79.255567 49.88601 
L 79.815224 49.88601 
L 79.815224 31.193365 
L 79.255567 31.193365 
L 79.255567 49.88601 
" clip-path="url(#pb66811e214)" style="fill: #d21f20"/>
    <path d="M 79.815224 49.88601 
L 80.37488 49.88601 
L 80.37488 31.193365 
L 79.815224 31.193365 
L 79.815224 49.88601 
" clip-path="url(#pb66811e214)" style="fill: #e63328"/>
    <path d="M 80.37488 49.88601 
L 80.934536 49.88601 
L 80.934536 31.193365 
L 80.37488 31.193365 
L 80.37488 49.88601 
" clip-path="url(#pb66811e214)" style="fill: #f85d42"/>
    <path d="M 80.934536 49.88601 
L 81.494193 49.88601 
L 81.494193 31.193365 
L 80.934536 31.193365 
L 80.934536 49.88601 
" clip-path="url(#pb66811e214)" style="fill: #fc9474"/>
    <path d="M 81.494193 49.88601 
L 82.053849 49.88601 
L 82.053849 31.193365 
L 81.494193 31.193365 
L 81.494193 49.88601 
" clip-path="url(#pb66811e214)" style="fill: #fcb296"/>
    <path d="M 82.053849 49.88601 
L 82.613505 49.88601 
L 82.613505 31.193365 
L 82.053849 31.193365 
L 82.053849 49.88601 
" clip-path="url(#pb66811e214)" style="fill: #fcbca2"/>
    <path d="M 82.613505 49.88601 
L 83.173162 49.88601 
L 83.173162 31.193365 
L 82.613505 31.193365 
L 82.613505 49.88601 
" clip-path="url(#pb66811e214)" style="fill: #fcb79c"/>
    <path d="M 83.173162 49.88601 
L 83.732818 49.88601 
L 83.732818 31.193365 
L 83.173162 31.193365 
L 83.173162 49.88601 
" clip-path="url(#pb66811e214)" style="fill: #fca082"/>
    <path d="M 83.732818 49.88601 
L 84.292475 49.88601 
L 84.292475 31.193365 
L 83.732818 31.193365 
L 83.732818 49.88601 
" clip-path="url(#pb66811e214)" style="fill: #fc9373"/>
    <path d="M 84.292475 49.88601 
L 84.852131 49.88601 
L 84.852131 31.193365 
L 84.292475 31.193365 
L 84.292475 49.88601 
" clip-path="url(#pb66811e214)" style="fill: #fc9373"/>
    <path d="M 84.852131 49.88601 
L 85.411787 49.88601 
L 85.411787 31.193365 
L 84.852131 31.193365 
L 84.852131 49.88601 
" clip-path="url(#pb66811e214)" style="fill: #fc9e80"/>
    <path d="M 85.411787 49.88601 
L 85.971444 49.88601 
L 85.971444 31.193365 
L 85.411787 31.193365 
L 85.411787 49.88601 
" clip-path="url(#pb66811e214)" style="fill: #fcb69b"/>
    <path d="M 85.971444 49.88601 
L 86.5311 49.88601 
L 86.5311 31.193365 
L 85.971444 31.193365 
L 85.971444 49.88601 
" clip-path="url(#pb66811e214)" style="fill: #fcbba1"/>
    <path d="M 86.5311 49.88601 
L 87.090756 49.88601 
L 87.090756 31.193365 
L 86.5311 31.193365 
L 86.5311 49.88601 
" clip-path="url(#pb66811e214)" style="fill: #fdc6b0"/>
    <path d="M 87.090756 49.88601 
L 87.650413 49.88601 
L 87.650413 31.193365 
L 87.090756 31.193365 
L 87.090756 49.88601 
" clip-path="url(#pb66811e214)" style="fill: #fedaca"/>
    <path d="M 87.650413 49.88601 
L 88.210069 49.88601 
L 88.210069 31.193365 
L 87.650413 31.193365 
L 87.650413 49.88601 
" clip-path="url(#pb66811e214)" style="fill: #fee3d6"/>
    <path d="M 88.210069 49.88601 
L 88.769725 49.88601 
L 88.769725 31.193365 
L 88.210069 31.193365 
L 88.210069 49.88601 
" clip-path="url(#pb66811e214)" style="fill: #fee5d9"/>
    <path d="M 88.769725 49.88601 
L 89.329382 49.88601 
L 89.329382 31.193365 
L 88.769725 31.193365 
L 88.769725 49.88601 
" clip-path="url(#pb66811e214)" style="fill: #fee4d8"/>
    <path d="M 89.329382 49.88601 
L 89.889038 49.88601 
L 89.889038 31.193365 
L 89.329382 31.193365 
L 89.329382 49.88601 
" clip-path="url(#pb66811e214)" style="fill: #fedfd0"/>
    <path d="M 89.889038 49.88601 
L 90.448695 49.88601 
L 90.448695 31.193365 
L 89.889038 31.193365 
L 89.889038 49.88601 
" clip-path="url(#pb66811e214)" style="fill: #fdcebb"/>
    <path d="M 90.448695 49.88601 
L 91.008351 49.88601 
L 91.008351 31.193365 
L 90.448695 31.193365 
L 90.448695 49.88601 
" clip-path="url(#pb66811e214)" style="fill: #fdc5ae"/>
    <path d="M 91.008351 49.88601 
L 91.568007 49.88601 
L 91.568007 31.193365 
L 91.008351 31.193365 
L 91.008351 49.88601 
" clip-path="url(#pb66811e214)" style="fill: #fcc2aa"/>
    <path d="M 91.568007 49.88601 
L 92.127664 49.88601 
L 92.127664 31.193365 
L 91.568007 31.193365 
L 91.568007 49.88601 
" clip-path="url(#pb66811e214)" style="fill: #fdc6b0"/>
    <path d="M 92.127664 49.88601 
L 92.68732 49.88601 
L 92.68732 31.193365 
L 92.127664 31.193365 
L 92.127664 49.88601 
" clip-path="url(#pb66811e214)" style="fill: #fcbea5"/>
    <path d="M 92.68732 49.88601 
L 93.246976 49.88601 
L 93.246976 31.193365 
L 92.68732 31.193365 
L 92.68732 49.88601 
" clip-path="url(#pb66811e214)" style="fill: #fcbea5"/>
    <path d="M 93.246976 49.88601 
L 93.806633 49.88601 
L 93.806633 31.193365 
L 93.246976 31.193365 
L 93.246976 49.88601 
" clip-path="url(#pb66811e214)" style="fill: #fdc5ae"/>
    <path d="M 93.806633 49.88601 
L 94.366289 49.88601 
L 94.366289 31.193365 
L 93.806633 31.193365 
L 93.806633 49.88601 
" clip-path="url(#pb66811e214)" style="fill: #fdd3c1"/>
    <path d="M 94.366289 49.88601 
L 94.925945 49.88601 
L 94.925945 31.193365 
L 94.366289 31.193365 
L 94.366289 49.88601 
" clip-path="url(#pb66811e214)" style="fill: #fed8c7"/>
    <path d="M 94.925945 49.88601 
L 95.485602 49.88601 
L 95.485602 31.193365 
L 94.925945 31.193365 
L 94.925945 49.88601 
" clip-path="url(#pb66811e214)" style="fill: #fdd2bf"/>
    <path d="M 95.485602 49.88601 
L 96.045258 49.88601 
L 96.045258 31.193365 
L 95.485602 31.193365 
L 95.485602 49.88601 
" clip-path="url(#pb66811e214)" style="fill: #fcc3ab"/>
    <path d="M 96.045258 49.88601 
L 96.604915 49.88601 
L 96.604915 31.193365 
L 96.045258 31.193365 
L 96.045258 49.88601 
" clip-path="url(#pb66811e214)" style="fill: #fca486"/>
    <path d="M 96.604915 49.88601 
L 97.164571 49.88601 
L 97.164571 31.193365 
L 96.604915 31.193365 
L 96.604915 49.88601 
" clip-path="url(#pb66811e214)" style="fill: #fb7050"/>
    <path d="M 97.164571 49.88601 
L 97.724227 49.88601 
L 97.724227 31.193365 
L 97.164571 31.193365 
L 97.164571 49.88601 
" clip-path="url(#pb66811e214)" style="fill: #f14432"/>
    <path d="M 97.724227 49.88601 
L 98.283884 49.88601 
L 98.283884 31.193365 
L 97.724227 31.193365 
L 97.724227 49.88601 
" clip-path="url(#pb66811e214)" style="fill: #e22e27"/>
    <path d="M 98.283884 49.88601 
L 98.84354 49.88601 
L 98.84354 31.193365 
L 98.283884 31.193365 
L 98.283884 49.88601 
" clip-path="url(#pb66811e214)" style="fill: #da2723"/>
    <path d="M 98.84354 49.88601 
L 99.403196 49.88601 
L 99.403196 31.193365 
L 98.84354 31.193365 
L 98.84354 49.88601 
" clip-path="url(#pb66811e214)" style="fill: #e12d26"/>
    <path d="M 99.403196 49.88601 
L 99.962853 49.88601 
L 99.962853 31.193365 
L 99.403196 31.193365 
L 99.403196 49.88601 
" clip-path="url(#pb66811e214)" style="fill: #f14130"/>
    <path d="M 99.962853 49.88601 
L 100.522509 49.88601 
L 100.522509 31.193365 
L 99.962853 31.193365 
L 99.962853 49.88601 
" clip-path="url(#pb66811e214)" style="fill: #fb6c4c"/>
    <path d="M 100.522509 49.88601 
L 101.082165 49.88601 
L 101.082165 31.193365 
L 100.522509 31.193365 
L 100.522509 49.88601 
" clip-path="url(#pb66811e214)" style="fill: #fc9e80"/>
    <path d="M 101.082165 49.88601 
L 101.641822 49.88601 
L 101.641822 31.193365 
L 101.082165 31.193365 
L 101.082165 49.88601 
" clip-path="url(#pb66811e214)" style="fill: #fcbda4"/>
    <path d="M 101.641822 49.88601 
L 102.201478 49.88601 
L 102.201478 31.193365 
L 101.641822 31.193365 
L 101.641822 49.88601 
" clip-path="url(#pb66811e214)" style="fill: #fdcab5"/>
    <path d="M 102.201478 49.88601 
L 102.761135 49.88601 
L 102.761135 31.193365 
L 102.201478 31.193365 
L 102.201478 49.88601 
" clip-path="url(#pb66811e214)" style="fill: #fdcab5"/>
    <path d="M 102.761135 49.88601 
L 103.320791 49.88601 
L 103.320791 31.193365 
L 102.761135 31.193365 
L 102.761135 49.88601 
" clip-path="url(#pb66811e214)" style="fill: #fcbea5"/>
    <path d="M 103.320791 49.88601 
L 103.880447 49.88601 
L 103.880447 31.193365 
L 103.320791 31.193365 
L 103.320791 49.88601 
" clip-path="url(#pb66811e214)" style="fill: #fcbba1"/>
    <path d="M 103.880447 49.88601 
L 104.440104 49.88601 
L 104.440104 31.193365 
L 103.880447 31.193365 
L 103.880447 49.88601 
" clip-path="url(#pb66811e214)" style="fill: #fcbfa7"/>
    <path d="M 104.440104 49.88601 
L 104.99976 49.88601 
L 104.99976 31.193365 
L 104.440104 31.193365 
L 104.440104 49.88601 
" clip-path="url(#pb66811e214)" style="fill: #fdcbb6"/>
   </g>
   <g id="matplotlib.axis_3">
    <g id="text_1">
     <!-- space $x$ -->
     <g transform="translate(32.65 66.47976)scale(0.12 -0.12)">
      <defs>
       <path id="DejaVuSans-73" d="M 2834 3397 
L 2834 2853 
Q 2591 2978 2328 3040 
Q 2066 3103 1784 3103 
Q 1356 3103 1142 2972 
Q 928 2841 928 2578 
Q 928 2378 1081 2264 
Q 1234 2150 1697 2047 
L 1894 2003 
Q 2506 1872 2764 1633 
Q 3022 1394 3022 966 
Q 3022 478 2636 193 
Q 2250 -91 1575 -91 
Q 1294 -91 989 -36 
Q 684 19 347 128 
L 347 722 
Q 666 556 975 473 
Q 1284 391 1588 391 
Q 1994 391 2212 530 
Q 2431 669 2431 922 
Q 2431 1156 2273 1281 
Q 2116 1406 1581 1522 
L 1381 1569 
Q 847 1681 609 1914 
Q 372 2147 372 2553 
Q 372 3047 722 3315 
Q 1072 3584 1716 3584 
Q 2034 3584 2315 3537 
Q 2597 3491 2834 3397 
z
" transform="scale(0.015625)"/>
       <path id="DejaVuSans-70" d="M 1159 525 
L 1159 -1331 
L 581 -1331 
L 581 3500 
L 1159 3500 
L 1159 2969 
Q 1341 3281 1617 3432 
Q 1894 3584 2278 3584 
Q 2916 3584 3314 3078 
Q 3713 2572 3713 1747 
Q 3713 922 3314 415 
Q 2916 -91 2278 -91 
Q 1894 -91 1617 61 
Q 1341 213 1159 525 
z
M 3116 1747 
Q 3116 2381 2855 2742 
Q 2594 3103 2138 3103 
Q 1681 3103 1420 2742 
Q 1159 2381 1159 1747 
Q 1159 1113 1420 752 
Q 1681 391 2138 391 
Q 2594 391 2855 752 
Q 3116 1113 3116 1747 
z
" transform="scale(0.015625)"/>
       <path id="DejaVuSans-61" d="M 2194 1759 
Q 1497 1759 1228 1600 
Q 959 1441 959 1056 
Q 959 750 1161 570 
Q 1363 391 1709 391 
Q 2188 391 2477 730 
Q 2766 1069 2766 1631 
L 2766 1759 
L 2194 1759 
z
M 3341 1997 
L 3341 0 
L 2766 0 
L 2766 531 
Q 2569 213 2275 61 
Q 1981 -91 1556 -91 
Q 1019 -91 701 211 
Q 384 513 384 1019 
Q 384 1609 779 1909 
Q 1175 2209 1959 2209 
L 2766 2209 
L 2766 2266 
Q 2766 2663 2505 2880 
Q 2244 3097 1772 3097 
Q 1472 3097 1187 3025 
Q 903 2953 641 2809 
L 641 3341 
Q 956 3463 1253 3523 
Q 1550 3584 1831 3584 
Q 2591 3584 2966 3190 
Q 3341 2797 3341 1997 
z
" transform="scale(0.015625)"/>
       <path id="DejaVuSans-63" d="M 3122 3366 
L 3122 2828 
Q 2878 2963 2633 3030 
Q 2388 3097 2138 3097 
Q 1578 3097 1268 2742 
Q 959 2388 959 1747 
Q 959 1106 1268 751 
Q 1578 397 2138 397 
Q 2388 397 2633 464 
Q 2878 531 3122 666 
L 3122 134 
Q 2881 22 2623 -34 
Q 2366 -91 2075 -91 
Q 1284 -91 818 406 
Q 353 903 353 1747 
Q 353 2603 823 3093 
Q 1294 3584 2113 3584 
Q 2378 3584 2631 3529 
Q 2884 3475 3122 3366 
z
" transform="scale(0.015625)"/>
       <path id="DejaVuSans-65" d="M 3597 1894 
L 3597 1613 
L 953 1613 
Q 991 1019 1311 708 
Q 1631 397 2203 397 
Q 2534 397 2845 478 
Q 3156 559 3463 722 
L 3463 178 
Q 3153 47 2828 -22 
Q 2503 -91 2169 -91 
Q 1331 -91 842 396 
Q 353 884 353 1716 
Q 353 2575 817 3079 
Q 1281 3584 2069 3584 
Q 2775 3584 3186 3129 
Q 3597 2675 3597 1894 
z
M 3022 2063 
Q 3016 2534 2758 2815 
Q 2500 3097 2075 3097 
Q 1594 3097 1305 2825 
Q 1016 2553 972 2059 
L 3022 2063 
z
" transform="scale(0.015625)"/>
       <path id="DejaVuSans-20" transform="scale(0.015625)"/>
       <path id="DejaVuSans-Oblique-78" d="M 3841 3500 
L 2234 1784 
L 3219 0 
L 2559 0 
L 1819 1388 
L 531 0 
L -166 0 
L 1556 1844 
L 641 3500 
L 1300 3500 
L 1972 2234 
L 3144 3500 
L 3841 3500 
z
" transform="scale(0.015625)"/>
      </defs>
      <use xlink:href="#DejaVuSans-73"/>
      <use xlink:href="#DejaVuSans-70" transform="translate(52.099609 0)"/>
      <use xlink:href="#DejaVuSans-61" transform="translate(115.576172 0)"/>
      <use xlink:href="#DejaVuSans-63" transform="translate(176.855469 0)"/>
      <use xlink:href="#DejaVuSans-65" transform="translate(231.835938 0)"/>
      <use xlink:href="#DejaVuSans-20" transform="translate(293.359375 0)"/>
      <use xlink:href="#DejaVuSans-Oblique-78" transform="translate(325.146484 0)"/>
     </g>
    </g>
   </g>
   <g id="matplotlib.axis_4"/>
   <g id="patch_8">
    <path d="M 6.50024 49.88601 
L 6.50024 31.193365 
" style="fill: none; stroke: #000000; stroke-width: 0.8; stroke-linejoin: miter; stroke-linecap: square"/>
   </g>
   <g id="patch_9">
    <path d="M 104.99976 49.88601 
L 104.99976 31.193365 
" style="fill: none; stroke: #000000; stroke-width: 0.8; stroke-linejoin: miter; stroke-linecap: square"/>
   </g>
   <g id="patch_10">
    <path d="M 6.50024 49.88601 
L 104.99976 49.88601 
" style="fill: none; stroke: #000000; stroke-width: 0.8; stroke-linejoin: miter; stroke-linecap: square"/>
   </g>
   <g id="patch_11">
    <path d="M 6.50024 31.193365 
L 104.99976 31.193365 
" style="fill: none; stroke: #000000; stroke-width: 0.8; stroke-linejoin: miter; stroke-linecap: square"/>
   </g>
  </g>
 </g>
 <defs>
  <clipPath id="p3f129b3b7c">
   <rect x="6.50024" y="3.00024" width="98.49952" height="18.692645"/>
  </clipPath>
  <clipPath id="pb66811e214">
   <rect x="6.50024" y="31.193365" width="98.49952" height="18.692645"/>
  </clipPath>
 </defs>
</svg>
