<?xml version="1.0" encoding="utf-8" standalone="no"?>
<!DOCTYPE svg PUBLIC "-//W3C//DTD SVG 1.1//EN"
  "http://www.w3.org/Graphics/SVG/1.1/DTD/svg11.dtd">
<svg xmlns:xlink="http://www.w3.org/1999/xlink" width="429.12pt" height="429.12pt" viewBox="0 0 429.12 429.12" xmlns="http://www.w3.org/2000/svg" version="1.1">
 <metadata>
  <rdf:RDF xmlns:dc="http://purl.org/dc/elements/1.1/" xmlns:cc="http://creativecommons.org/ns#" xmlns:rdf="http://www.w3.org/1999/02/22-rdf-syntax-ns#">
   <cc:Work>
    <dc:type rdf:resource="http://purl.org/dc/dcmitype/StillImage"/>
    <dc:date>2022-11-29T12:25:13.142399</dc:date>
    <dc:format>image/svg+xml</dc:format>
    <dc:creator>
     <cc:Agent>
      <dc:title>Matplotlib v3.5.3, https://matplotlib.org/</dc:title>
     </cc:Agent>
    </dc:creator>
   </cc:Work>
  </rdf:RDF>
 </metadata>
 <defs>
  <style type="text/css">*{stroke-linejoin: round; stroke-linecap: butt}</style>
 </defs>
 <g id="figure_1">
  <g id="patch_1">
   <path d="M 0 429.12 
L 429.12 429.12 
L 429.12 0 
L 0 0 
z
" style="fill: #ffffff"/>
  </g>
  <g id="axes_1">
   <g id="patch_2">
    <path d="M 53.64 381.9168 
L 386.208 381.9168 
L 386.208 51.4944 
L 53.64 51.4944 
z
" style="fill: #ffffff"/>
   </g>
   <g id="PolyCollection_1">
    <path d="M 53.64 381.9168 
L 53.64 381.9168 
L 59.747769 344.905401 
L 65.855537 307.894001 
L 71.963306 270.882602 
L 78.071074 233.871202 
L 84.178843 196.859803 
L 90.286612 159.848403 
L 96.39438 122.837004 
L 102.502149 85.825604 
L 108.609917 48.814205 
L 114.717686 11.802805 
L 120.825455 -25.208594 
L 126.933223 -62.219994 
L 133.040992 -99.231393 
L 139.14876 -136.242793 
L 145.256529 -173.254192 
L 151.364298 -210.265592 
L 157.472066 -247.276991 
L 163.579835 -284.288391 
L 169.687603 -321.29979 
L 175.795372 -358.311189 
L 181.90314 -395.322589 
L 188.010909 -432.333988 
L 194.118678 -469.345388 
L 200.226446 -506.356787 
L 206.334215 -543.368187 
L 212.441983 -580.379586 
L 218.549752 -617.390986 
L 224.657521 -654.402385 
L 230.765289 -691.413785 
L 236.873058 -728.425184 
L 242.980826 -765.436584 
L 249.088595 -802.447983 
L 255.196364 -839.459383 
L 261.304132 -876.470782 
L 267.411901 -913.482182 
L 273.519669 -950.493581 
L 279.627438 -987.504981 
L 285.735207 -1024.51638 
L 291.842975 -1061.52778 
L 297.950744 -1098.539179 
L 304.058512 -1135.550578 
L 310.166281 -1172.561978 
L 316.27405 -1209.573377 
L 322.381818 -1246.584777 
L 328.489587 -1283.596176 
L 334.597355 -1320.607576 
L 340.705124 -1357.618975 
L 346.812893 -1394.630375 
L 352.920661 -1431.641774 
L 359.02843 -1468.653174 
L 365.136198 -1505.664573 
L 371.243967 -1542.675973 
L 377.351736 -1579.687372 
L 383.459504 -1616.698772 
L 389.567273 -1653.710171 
L 395.675041 -1690.721571 
L 401.78281 -1727.73297 
L 407.890579 -1764.74437 
L 413.998347 -1801.755769 
L 420.106116 -1838.767168 
L 426.213884 -1875.778568 
L 432.321653 -1912.789967 
L 438.429421 -1949.801367 
L 444.53719 -1986.812766 
L 450.644959 -2023.824166 
L 456.752727 -2060.835565 
L 462.860496 -2097.846965 
L 468.968264 -2134.858364 
L 475.076033 -2171.869764 
L 481.183802 -2208.881163 
L 487.29157 -2245.892563 
L 493.399339 -2282.903962 
L 499.507107 -2319.915362 
L 505.614876 -2356.926761 
L 511.722645 -2393.938161 
L 517.830413 -2430.94956 
L 523.938182 -2467.96096 
L 530.04595 -2504.972359 
L 536.153719 -2541.983759 
L 542.261488 -2578.995158 
L 548.369256 -2616.006557 
L 554.477025 -2653.017957 
L 560.584793 -2690.029356 
L 566.692562 -2727.040756 
L 572.800331 -2764.052155 
L 578.908099 -2801.063555 
L 585.015868 -2838.074954 
L 591.123636 -2875.086354 
L 597.231405 -2912.097753 
L 603.339174 -2949.109153 
L 609.446942 -2986.120552 
L 615.554711 -3023.131952 
L 621.662479 -3060.143351 
L 627.770248 -3097.154751 
L 633.878017 -3134.16615 
L 639.985785 -3171.17755 
L 646.093554 -3208.188949 
L 652.201322 -3245.200349 
L 658.309091 -3282.211748 
L 658.309091 381.9168 
L 658.309091 381.9168 
L 652.201322 381.9168 
L 646.093554 381.9168 
L 639.985785 381.9168 
L 633.878017 381.9168 
L 627.770248 381.9168 
L 621.662479 381.9168 
L 615.554711 381.9168 
L 609.446942 381.9168 
L 603.339174 381.9168 
L 597.231405 381.9168 
L 591.123636 381.9168 
L 585.015868 381.9168 
L 578.908099 381.9168 
L 572.800331 381.9168 
L 566.692562 381.9168 
L 560.584793 381.9168 
L 554.477025 381.9168 
L 548.369256 381.9168 
L 542.261488 381.9168 
L 536.153719 381.9168 
L 530.04595 381.9168 
L 523.938182 381.9168 
L 517.830413 381.9168 
L 511.722645 381.9168 
L 505.614876 381.9168 
L 499.507107 381.9168 
L 493.399339 381.9168 
L 487.29157 381.9168 
L 481.183802 381.9168 
L 475.076033 381.9168 
L 468.968264 381.9168 
L 462.860496 381.9168 
L 456.752727 381.9168 
L 450.644959 381.9168 
L 444.53719 381.9168 
L 438.429421 381.9168 
L 432.321653 381.9168 
L 426.213884 381.9168 
L 420.106116 381.9168 
L 413.998347 381.9168 
L 407.890579 381.9168 
L 401.78281 381.9168 
L 395.675041 381.9168 
L 389.567273 381.9168 
L 383.459504 381.9168 
L 377.351736 381.9168 
L 371.243967 381.9168 
L 365.136198 381.9168 
L 359.02843 381.9168 
L 352.920661 381.9168 
L 346.812893 381.9168 
L 340.705124 381.9168 
L 334.597355 381.9168 
L 328.489587 381.9168 
L 322.381818 381.9168 
L 316.27405 381.9168 
L 310.166281 381.9168 
L 304.058512 381.9168 
L 297.950744 381.9168 
L 291.842975 381.9168 
L 285.735207 381.9168 
L 279.627438 381.9168 
L 273.519669 381.9168 
L 267.411901 381.9168 
L 261.304132 381.9168 
L 255.196364 381.9168 
L 249.088595 381.9168 
L 242.980826 381.9168 
L 236.873058 381.9168 
L 230.765289 381.9168 
L 224.657521 381.9168 
L 218.549752 381.9168 
L 212.441983 381.9168 
L 206.334215 381.9168 
L 200.226446 381.9168 
L 194.118678 381.9168 
L 188.010909 381.9168 
L 181.90314 381.9168 
L 175.795372 381.9168 
L 169.687603 381.9168 
L 163.579835 381.9168 
L 157.472066 381.9168 
L 151.364298 381.9168 
L 145.256529 381.9168 
L 139.14876 381.9168 
L 133.040992 381.9168 
L 126.933223 381.9168 
L 120.825455 381.9168 
L 114.717686 381.9168 
L 108.609917 381.9168 
L 102.502149 381.9168 
L 96.39438 381.9168 
L 90.286612 381.9168 
L 84.178843 381.9168 
L 78.071074 381.9168 
L 71.963306 381.9168 
L 65.855537 381.9168 
L 59.747769 381.9168 
L 53.64 381.9168 
z
" clip-path="url(#pbd3b4d103e)" style="fill: #cccccc; stroke: #cccccc"/>
   </g>
   <g id="PolyCollection_2">
    <path d="M 53.64 -218.8512 
L 53.64 381.9168 
L 59.747769 344.905401 
L 65.855537 307.894001 
L 71.963306 270.882602 
L 78.071074 233.871202 
L 84.178843 196.859803 
L 90.286612 159.848403 
L 96.39438 122.837004 
L 102.502149 85.825604 
L 108.609917 48.814205 
L 114.717686 11.802805 
L 120.825455 -25.208594 
L 126.933223 -62.219994 
L 133.040992 -99.231393 
L 139.14876 -136.242793 
L 145.256529 -173.254192 
L 151.364298 -210.265592 
L 157.472066 -247.276991 
L 163.579835 -284.288391 
L 169.687603 -321.29979 
L 175.795372 -358.311189 
L 181.90314 -395.322589 
L 188.010909 -432.333988 
L 194.118678 -469.345388 
L 200.226446 -506.356787 
L 206.334215 -543.368187 
L 212.441983 -580.379586 
L 218.549752 -617.390986 
L 224.657521 -654.402385 
L 230.765289 -691.413785 
L 236.873058 -728.425184 
L 242.980826 -765.436584 
L 249.088595 -802.447983 
L 255.196364 -839.459383 
L 261.304132 -876.470782 
L 267.411901 -913.482182 
L 273.519669 -950.493581 
L 279.627438 -987.504981 
L 285.735207 -1024.51638 
L 291.842975 -1061.52778 
L 297.950744 -1098.539179 
L 304.058512 -1135.550578 
L 310.166281 -1172.561978 
L 316.27405 -1209.573377 
L 322.381818 -1246.584777 
L 328.489587 -1283.596176 
L 334.597355 -1320.607576 
L 340.705124 -1357.618975 
L 346.812893 -1394.630375 
L 352.920661 -1431.641774 
L 359.02843 -1468.653174 
L 365.136198 -1505.664573 
L 371.243967 -1542.675973 
L 377.351736 -1579.687372 
L 383.459504 -1616.698772 
L 389.567273 -1653.710171 
L 395.675041 -1690.721571 
L 401.78281 -1727.73297 
L 407.890579 -1764.74437 
L 413.998347 -1801.755769 
L 420.106116 -1838.767168 
L 426.213884 -1875.778568 
L 432.321653 -1912.789967 
L 438.429421 -1949.801367 
L 444.53719 -1986.812766 
L 450.644959 -2023.824166 
L 456.752727 -2060.835565 
L 462.860496 -2097.846965 
L 468.968264 -2134.858364 
L 475.076033 -2171.869764 
L 481.183802 -2208.881163 
L 487.29157 -2245.892563 
L 493.399339 -2282.903962 
L 499.507107 -2319.915362 
L 505.614876 -2356.926761 
L 511.722645 -2393.938161 
L 517.830413 -2430.94956 
L 523.938182 -2467.96096 
L 530.04595 -2504.972359 
L 536.153719 -2541.983759 
L 542.261488 -2578.995158 
L 548.369256 -2616.006557 
L 554.477025 -2653.017957 
L 560.584793 -2690.029356 
L 566.692562 -2727.040756 
L 572.800331 -2764.052155 
L 578.908099 -2801.063555 
L 585.015868 -2838.074954 
L 591.123636 -2875.086354 
L 597.231405 -2912.097753 
L 603.339174 -2949.109153 
L 609.446942 -2986.120552 
L 615.554711 -3023.131952 
L 621.662479 -3060.143351 
L 627.770248 -3097.154751 
L 633.878017 -3134.16615 
L 639.985785 -3171.17755 
L 646.093554 -3208.188949 
L 652.201322 -3245.200349 
L 658.309091 -3282.211748 
L 658.309091 -218.8512 
L 658.309091 -218.8512 
L 652.201322 -218.8512 
L 646.093554 -218.8512 
L 639.985785 -218.8512 
L 633.878017 -218.8512 
L 627.770248 -218.8512 
L 621.662479 -218.8512 
L 615.554711 -218.8512 
L 609.446942 -218.8512 
L 603.339174 -218.8512 
L 597.231405 -218.8512 
L 591.123636 -218.8512 
L 585.015868 -218.8512 
L 578.908099 -218.8512 
L 572.800331 -218.8512 
L 566.692562 -218.8512 
L 560.584793 -218.8512 
L 554.477025 -218.8512 
L 548.369256 -218.8512 
L 542.261488 -218.8512 
L 536.153719 -218.8512 
L 530.04595 -218.8512 
L 523.938182 -218.8512 
L 517.830413 -218.8512 
L 511.722645 -218.8512 
L 505.614876 -218.8512 
L 499.507107 -218.8512 
L 493.399339 -218.8512 
L 487.29157 -218.8512 
L 481.183802 -218.8512 
L 475.076033 -218.8512 
L 468.968264 -218.8512 
L 462.860496 -218.8512 
L 456.752727 -218.8512 
L 450.644959 -218.8512 
L 444.53719 -218.8512 
L 438.429421 -218.8512 
L 432.321653 -218.8512 
L 426.213884 -218.8512 
L 420.106116 -218.8512 
L 413.998347 -218.8512 
L 407.890579 -218.8512 
L 401.78281 -218.8512 
L 395.675041 -218.8512 
L 389.567273 -218.8512 
L 383.459504 -218.8512 
L 377.351736 -218.8512 
L 371.243967 -218.8512 
L 365.136198 -218.8512 
L 359.02843 -218.8512 
L 352.920661 -218.8512 
L 346.812893 -218.8512 
L 340.705124 -218.8512 
L 334.597355 -218.8512 
L 328.489587 -218.8512 
L 322.381818 -218.8512 
L 316.27405 -218.8512 
L 310.166281 -218.8512 
L 304.058512 -218.8512 
L 297.950744 -218.8512 
L 291.842975 -218.8512 
L 285.735207 -218.8512 
L 279.627438 -218.8512 
L 273.519669 -218.8512 
L 267.411901 -218.8512 
L 261.304132 -218.8512 
L 255.196364 -218.8512 
L 249.088595 -218.8512 
L 242.980826 -218.8512 
L 236.873058 -218.8512 
L 230.765289 -218.8512 
L 224.657521 -218.8512 
L 218.549752 -218.8512 
L 212.441983 -218.8512 
L 206.334215 -218.8512 
L 200.226446 -218.8512 
L 194.118678 -218.8512 
L 188.010909 -218.8512 
L 181.90314 -218.8512 
L 175.795372 -218.8512 
L 169.687603 -218.8512 
L 163.579835 -218.8512 
L 157.472066 -218.8512 
L 151.364298 -218.8512 
L 145.256529 -218.8512 
L 139.14876 -218.8512 
L 133.040992 -218.8512 
L 126.933223 -218.8512 
L 120.825455 -218.8512 
L 114.717686 -218.8512 
L 108.609917 -218.8512 
L 102.502149 -218.8512 
L 96.39438 -218.8512 
L 90.286612 -218.8512 
L 84.178843 -218.8512 
L 78.071074 -218.8512 
L 71.963306 -218.8512 
L 65.855537 -218.8512 
L 59.747769 -218.8512 
L 53.64 -218.8512 
z
" clip-path="url(#pbd3b4d103e)" style="fill: #999999; stroke: #999999"/>
   </g>
   <g id="matplotlib.axis_1">
    <g id="xtick_1">
     <g id="line2d_1">
      <defs>
       <path id="m9244e36b6c" d="M 0 0 
L 0 3.5 
" style="stroke: #000000; stroke-width: 0.8"/>
      </defs>
      <g>
       <use xlink:href="#m9244e36b6c" x="53.64" y="381.9168" style="stroke: #000000; stroke-width: 0.8"/>
      </g>
     </g>
     <g id="text_1">
      <!-- 0 -->
      <g transform="translate(49.8225 398.034925)scale(0.12 -0.12)">
       <defs>
        <path id="DejaVuSans-30" d="M 2034 4250 
Q 1547 4250 1301 3770 
Q 1056 3291 1056 2328 
Q 1056 1369 1301 889 
Q 1547 409 2034 409 
Q 2525 409 2770 889 
Q 3016 1369 3016 2328 
Q 3016 3291 2770 3770 
Q 2525 4250 2034 4250 
z
M 2034 4750 
Q 2819 4750 3233 4129 
Q 3647 3509 3647 2328 
Q 3647 1150 3233 529 
Q 2819 -91 2034 -91 
Q 1250 -91 836 529 
Q 422 1150 422 2328 
Q 422 3509 836 4129 
Q 1250 4750 2034 4750 
z
" transform="scale(0.015625)"/>
       </defs>
       <use xlink:href="#DejaVuSans-30"/>
      </g>
     </g>
    </g>
    <g id="xtick_2">
     <g id="line2d_2">
      <g>
       <use xlink:href="#m9244e36b6c" x="355.974545" y="381.9168" style="stroke: #000000; stroke-width: 0.8"/>
      </g>
     </g>
     <g id="text_2">
      <!-- 1 -->
      <g transform="translate(352.157045 398.034925)scale(0.12 -0.12)">
       <defs>
        <path id="DejaVuSans-31" d="M 794 531 
L 1825 531 
L 1825 4091 
L 703 3866 
L 703 4441 
L 1819 4666 
L 2450 4666 
L 2450 531 
L 3481 531 
L 3481 0 
L 794 0 
L 794 531 
z
" transform="scale(0.015625)"/>
       </defs>
       <use xlink:href="#DejaVuSans-31"/>
      </g>
     </g>
    </g>
    <g id="text_3">
     <!-- diffusivity $D_A$ -->
     <g transform="translate(180.924 401.65055)scale(0.12 -0.12)">
      <defs>
       <path id="DejaVuSans-64" d="M 2906 2969 
L 2906 4863 
L 3481 4863 
L 3481 0 
L 2906 0 
L 2906 525 
Q 2725 213 2448 61 
Q 2172 -91 1784 -91 
Q 1150 -91 751 415 
Q 353 922 353 1747 
Q 353 2572 751 3078 
Q 1150 3584 1784 3584 
Q 2172 3584 2448 3432 
Q 2725 3281 2906 2969 
z
M 947 1747 
Q 947 1113 1208 752 
Q 1469 391 1925 391 
Q 2381 391 2643 752 
Q 2906 1113 2906 1747 
Q 2906 2381 2643 2742 
Q 2381 3103 1925 3103 
Q 1469 3103 1208 2742 
Q 947 2381 947 1747 
z
" transform="scale(0.015625)"/>
       <path id="DejaVuSans-69" d="M 603 3500 
L 1178 3500 
L 1178 0 
L 603 0 
L 603 3500 
z
M 603 4863 
L 1178 4863 
L 1178 4134 
L 603 4134 
L 603 4863 
z
" transform="scale(0.015625)"/>
       <path id="DejaVuSans-66" d="M 2375 4863 
L 2375 4384 
L 1825 4384 
Q 1516 4384 1395 4259 
Q 1275 4134 1275 3809 
L 1275 3500 
L 2222 3500 
L 2222 3053 
L 1275 3053 
L 1275 0 
L 697 0 
L 697 3053 
L 147 3053 
L 147 3500 
L 697 3500 
L 697 3744 
Q 697 4328 969 4595 
Q 1241 4863 1831 4863 
L 2375 4863 
z
" transform="scale(0.015625)"/>
       <path id="DejaVuSans-75" d="M 544 1381 
L 544 3500 
L 1119 3500 
L 1119 1403 
Q 1119 906 1312 657 
Q 1506 409 1894 409 
Q 2359 409 2629 706 
Q 2900 1003 2900 1516 
L 2900 3500 
L 3475 3500 
L 3475 0 
L 2900 0 
L 2900 538 
Q 2691 219 2414 64 
Q 2138 -91 1772 -91 
Q 1169 -91 856 284 
Q 544 659 544 1381 
z
M 1991 3584 
L 1991 3584 
z
" transform="scale(0.015625)"/>
       <path id="DejaVuSans-73" d="M 2834 3397 
L 2834 2853 
Q 2591 2978 2328 3040 
Q 2066 3103 1784 3103 
Q 1356 3103 1142 2972 
Q 928 2841 928 2578 
Q 928 2378 1081 2264 
Q 1234 2150 1697 2047 
L 1894 2003 
Q 2506 1872 2764 1633 
Q 3022 1394 3022 966 
Q 3022 478 2636 193 
Q 2250 -91 1575 -91 
Q 1294 -91 989 -36 
Q 684 19 347 128 
L 347 722 
Q 666 556 975 473 
Q 1284 391 1588 391 
Q 1994 391 2212 530 
Q 2431 669 2431 922 
Q 2431 1156 2273 1281 
Q 2116 1406 1581 1522 
L 1381 1569 
Q 847 1681 609 1914 
Q 372 2147 372 2553 
Q 372 3047 722 3315 
Q 1072 3584 1716 3584 
Q 2034 3584 2315 3537 
Q 2597 3491 2834 3397 
z
" transform="scale(0.015625)"/>
       <path id="DejaVuSans-76" d="M 191 3500 
L 800 3500 
L 1894 563 
L 2988 3500 
L 3597 3500 
L 2284 0 
L 1503 0 
L 191 3500 
z
" transform="scale(0.015625)"/>
       <path id="DejaVuSans-74" d="M 1172 4494 
L 1172 3500 
L 2356 3500 
L 2356 3053 
L 1172 3053 
L 1172 1153 
Q 1172 725 1289 603 
Q 1406 481 1766 481 
L 2356 481 
L 2356 0 
L 1766 0 
Q 1100 0 847 248 
Q 594 497 594 1153 
L 594 3053 
L 172 3053 
L 172 3500 
L 594 3500 
L 594 4494 
L 1172 4494 
z
" transform="scale(0.015625)"/>
       <path id="DejaVuSans-79" d="M 2059 -325 
Q 1816 -950 1584 -1140 
Q 1353 -1331 966 -1331 
L 506 -1331 
L 506 -850 
L 844 -850 
Q 1081 -850 1212 -737 
Q 1344 -625 1503 -206 
L 1606 56 
L 191 3500 
L 800 3500 
L 1894 763 
L 2988 3500 
L 3597 3500 
L 2059 -325 
z
" transform="scale(0.015625)"/>
       <path id="DejaVuSans-20" transform="scale(0.015625)"/>
       <path id="DejaVuSans-Oblique-44" d="M 1081 4666 
L 2438 4666 
Q 3519 4666 4070 4208 
Q 4622 3750 4622 2847 
Q 4622 2250 4412 1698 
Q 4203 1147 3834 769 
Q 3463 381 2891 190 
Q 2319 0 1538 0 
L 172 0 
L 1081 4666 
z
M 1613 4147 
L 909 519 
L 1734 519 
Q 2794 519 3375 1128 
Q 3956 1738 3956 2847 
Q 3956 3519 3581 3833 
Q 3206 4147 2406 4147 
L 1613 4147 
z
" transform="scale(0.015625)"/>
       <path id="DejaVuSans-Oblique-41" d="M 2356 4666 
L 3072 4666 
L 3938 0 
L 3278 0 
L 3084 1197 
L 984 1197 
L 325 0 
L -341 0 
L 2356 4666 
z
M 2584 4044 
L 1275 1722 
L 2988 1722 
L 2584 4044 
z
" transform="scale(0.015625)"/>
      </defs>
      <use xlink:href="#DejaVuSans-64" transform="translate(0 0.015625)"/>
      <use xlink:href="#DejaVuSans-69" transform="translate(63.476562 0.015625)"/>
      <use xlink:href="#DejaVuSans-66" transform="translate(91.259766 0.015625)"/>
      <use xlink:href="#DejaVuSans-66" transform="translate(126.464844 0.015625)"/>
      <use xlink:href="#DejaVuSans-75" transform="translate(161.669922 0.015625)"/>
      <use xlink:href="#DejaVuSans-73" transform="translate(225.048828 0.015625)"/>
      <use xlink:href="#DejaVuSans-69" transform="translate(277.148438 0.015625)"/>
      <use xlink:href="#DejaVuSans-76" transform="translate(304.931641 0.015625)"/>
      <use xlink:href="#DejaVuSans-69" transform="translate(364.111328 0.015625)"/>
      <use xlink:href="#DejaVuSans-74" transform="translate(391.894531 0.015625)"/>
      <use xlink:href="#DejaVuSans-79" transform="translate(431.103516 0.015625)"/>
      <use xlink:href="#DejaVuSans-20" transform="translate(490.283203 0.015625)"/>
      <use xlink:href="#DejaVuSans-Oblique-44" transform="translate(522.070312 0.015625)"/>
      <use xlink:href="#DejaVuSans-Oblique-41" transform="translate(599.072266 -16.390625)scale(0.7)"/>
     </g>
    </g>
   </g>
   <g id="matplotlib.axis_2">
    <g id="ytick_1">
     <g id="line2d_3">
      <defs>
       <path id="mff27b3358d" d="M 0 0 
L -3.5 0 
" style="stroke: #000000; stroke-width: 0.8"/>
      </defs>
      <g>
       <use xlink:href="#mff27b3358d" x="53.64" y="381.9168" style="stroke: #000000; stroke-width: 0.8"/>
      </g>
     </g>
     <g id="text_4">
      <!-- 0 -->
      <g transform="translate(39.005 386.475863)scale(0.12 -0.12)">
       <use xlink:href="#DejaVuSans-30"/>
      </g>
     </g>
    </g>
    <g id="ytick_2">
     <g id="line2d_4">
      <g>
       <use xlink:href="#mff27b3358d" x="53.64" y="81.5328" style="stroke: #000000; stroke-width: 0.8"/>
      </g>
     </g>
     <g id="text_5">
      <!-- 1 -->
      <g transform="translate(39.005 86.091862)scale(0.12 -0.12)">
       <use xlink:href="#DejaVuSans-31"/>
      </g>
     </g>
    </g>
    <g id="text_6">
     <!-- diffusivity $D_I$ -->
     <g transform="translate(43.485 254.0856)rotate(-90)scale(0.12 -0.12)">
      <defs>
       <path id="DejaVuSans-Oblique-49" d="M 1081 4666 
L 1716 4666 
L 806 0 
L 172 0 
L 1081 4666 
z
" transform="scale(0.015625)"/>
      </defs>
      <use xlink:href="#DejaVuSans-64" transform="translate(0 0.015625)"/>
      <use xlink:href="#DejaVuSans-69" transform="translate(63.476562 0.015625)"/>
      <use xlink:href="#DejaVuSans-66" transform="translate(91.259766 0.015625)"/>
      <use xlink:href="#DejaVuSans-66" transform="translate(126.464844 0.015625)"/>
      <use xlink:href="#DejaVuSans-75" transform="translate(161.669922 0.015625)"/>
      <use xlink:href="#DejaVuSans-73" transform="translate(225.048828 0.015625)"/>
      <use xlink:href="#DejaVuSans-69" transform="translate(277.148438 0.015625)"/>
      <use xlink:href="#DejaVuSans-76" transform="translate(304.931641 0.015625)"/>
      <use xlink:href="#DejaVuSans-69" transform="translate(364.111328 0.015625)"/>
      <use xlink:href="#DejaVuSans-74" transform="translate(391.894531 0.015625)"/>
      <use xlink:href="#DejaVuSans-79" transform="translate(431.103516 0.015625)"/>
      <use xlink:href="#DejaVuSans-20" transform="translate(490.283203 0.015625)"/>
      <use xlink:href="#DejaVuSans-Oblique-44" transform="translate(522.070312 0.015625)"/>
      <use xlink:href="#DejaVuSans-Oblique-49" transform="translate(599.072266 -16.390625)scale(0.7)"/>
     </g>
    </g>
   </g>
   <g id="line2d_5">
    <path d="M 53.64 381.9168 
L 59.747769 344.905401 
L 65.855537 307.894001 
L 71.963306 270.882602 
L 78.071074 233.871202 
L 84.178843 196.859803 
L 90.286612 159.848403 
L 96.39438 122.837004 
L 102.502149 85.825604 
L 108.609917 48.814205 
L 114.717686 11.802805 
L 116.830456 -1 
" clip-path="url(#pbd3b4d103e)" style="fill: none; stroke-dasharray: 7.4,3.2; stroke-dashoffset: 0; stroke: #000000; stroke-width: 2"/>
   </g>
   <g id="patch_3">
    <path d="M 53.64 381.9168 
L 53.64 51.4944 
" style="fill: none; stroke: #000000; stroke-width: 0.8; stroke-linejoin: miter; stroke-linecap: square"/>
   </g>
   <g id="patch_4">
    <path d="M 386.208 381.9168 
L 386.208 51.4944 
" style="fill: none; stroke: #000000; stroke-width: 0.8; stroke-linejoin: miter; stroke-linecap: square"/>
   </g>
   <g id="patch_5">
    <path d="M 53.64 381.9168 
L 386.208 381.9168 
" style="fill: none; stroke: #000000; stroke-width: 0.8; stroke-linejoin: miter; stroke-linecap: square"/>
   </g>
   <g id="patch_6">
    <path d="M 53.64 51.4944 
L 386.208 51.4944 
" style="fill: none; stroke: #000000; stroke-width: 0.8; stroke-linejoin: miter; stroke-linecap: square"/>
   </g>
   <g id="line2d_6">
    <path d="M 83.873455 81.5328 
L 83.873675 81.543519 
L 64.87068 81.643884 
L 56.207775 81.836214 
L 54.365041 82.051434 
L 53.902451 82.287213 
L 53.741041 82.627587 
L 53.668596 83.442696 
L 53.642457 87.463592 
L 53.640005 217.444781 
L 53.640051 293.573634 
L 53.640051 293.573634 
" style="fill: none; stroke: #d4aa00; stroke-width: 3; stroke-linecap: square"/>
   </g>
   <g id="line2d_7">
    <path d="M 83.873455 81.5328 
" style="fill: none; stroke: #d4aa00; stroke-width: 1.5; stroke-linecap: square"/>
    <defs>
     <path id="m23d2a27f7c" d="M 0 5 
C 1.326016 5 2.597899 4.473168 3.535534 3.535534 
C 4.473168 2.597899 5 1.326016 5 0 
C 5 -1.326016 4.473168 -2.597899 3.535534 -3.535534 
C 2.597899 -4.473168 1.326016 -5 0 -5 
C -1.326016 -5 -2.597899 -4.473168 -3.535534 -3.535534 
C -4.473168 -2.597899 -5 -1.326016 -5 0 
C -5 1.326016 -4.473168 2.597899 -3.535534 3.535534 
C -2.597899 4.473168 -1.326016 5 0 5 
z
" style="stroke: #d4aa00"/>
    </defs>
    <g>
     <use xlink:href="#m23d2a27f7c" x="83.873455" y="81.5328" style="fill: #d4aa00; stroke: #d4aa00"/>
    </g>
   </g>
   <g id="line2d_8">
    <path d="M 83.833947 81.544769 
" style="fill: none; stroke: #d4aa00; stroke-width: 1.5; stroke-linecap: square"/>
    <g>
     <use xlink:href="#m23d2a27f7c" x="83.833947" y="81.544769" style="fill: #d4aa00; stroke: #d4aa00"/>
    </g>
   </g>
   <g id="line2d_9">
    <path d="M 53.83966 82.370167 
" style="fill: none; stroke: #d4aa00; stroke-width: 1.5; stroke-linecap: square"/>
    <g>
     <use xlink:href="#m23d2a27f7c" x="53.83966" y="82.370167" style="fill: #d4aa00; stroke: #d4aa00"/>
    </g>
   </g>
   <g id="line2d_10">
    <path d="M 53.64 172.38299 
" style="fill: none; stroke: #d4aa00; stroke-width: 1.5; stroke-linecap: square"/>
    <g>
     <use xlink:href="#m23d2a27f7c" x="53.64" y="172.38299" style="fill: #d4aa00; stroke: #d4aa00"/>
    </g>
   </g>
  </g>
 </g>
 <defs>
  <clipPath id="pbd3b4d103e">
   <rect x="53.64" y="51.4944" width="332.568" height="330.4224"/>
  </clipPath>
 </defs>
</svg>
